<?xml version="1.0" encoding="utf-8"?>
<!-- Generator: Adobe Illustrator 23.0.1, SVG Export Plug-In . SVG Version: 6.00 Build 0)  -->
<svg version="1.1" id="Camada_1" xmlns="http://www.w3.org/2000/svg" xmlns:xlink="http://www.w3.org/1999/xlink" x="0px" y="0px"
	 viewBox="0 0 1920 1080" style="enable-background:new 0 0 1920 1080;" xml:space="preserve">
<style type="text/css">
	.st0{fill:#FFFFFF;}
	.st1{fill:#D4D5D4;}
	.st2{fill:#A1B4C7;}
	.st3{fill:#E4E4E3;}
	.st4{fill:#040404;}
	.st5{fill:#7EBAB5;}
	.st6{fill:#6C8C95;}
	.st7{fill:#729692;}
	.st8{fill:#697773;}
	.st9{fill:#6A8681;}
	.st10{fill:#717274;}
	.st11{fill:#939598;}
	.st12{fill:#76A7A2;}
	.st13{fill:#6C908B;}
	.st14{fill:#6A898F;}
	.st15{fill:#C7CCCB;}
	.st16{fill:#9CB5D1;}
	.st17{fill:#A4CAC7;}
	.st18{fill:#FFCD2F;}
	.st19{fill:#FFCC2E;}
	.st20{fill:#F16957;}
</style>
<g>
	<path class="st0" d="M1486.6,1080.3h27.2"/>
	<path class="st1" d="M1488.8,1082.5"/>
	<path class="st0" d="M1648.1,967.7"/>
	<path class="st0" d="M1764.8,583.3c-5.6-8.8-14.8-14.5-25.2-15.7c-7.2-0.7-14.4,0.2-21.1,2.8c-5.7,1.9-11.2,4.1-16.6,6.7
		c-3.1,1.4-6,3.3-8.4,5.6c-19.8-16.3-44.7-27.2-68.4-35l-3.1-1c-16.8-7.2-34.9-10.8-53.3-10.5c-9.2-3.4-19-4.6-28.6-3.7
		c-0.7-5.8-3.5-11-7.9-14.9c-0.6-0.5-1.1-1-1.6-1.5c-2.8-4.2-5.8-8.4-9-12.4c-5.6-6.2-12.8-10.6-20.9-12.6
		c-14.2-2.9-28.8-2.4-42.8,1.5c-18.2,5.5-25.3,25.2-16.9,41.6c3.2,6.2,8,10.2,13.1,14.2c1.2,0.9,2.3,2,3.3,3.1c-1.8,2.5-3,5.2-3.8,8
		c-0.3,1-0.5,2.2-0.7,3.3c-5,2.7-9.8,6.1-14.1,10c-4.8,4.8-8.2,10.9-9.7,17.6c-2.8,3.5-5.2,7.3-7,11.3c-4.8,10.1-6.2,21.5-3.8,32.5
		c0.2,0.8,0.4,1.5,0.6,2.4c0.1,0.3,0.1,0.7,0.2,1c0.2,0.7,0.2,1.5,0.4,2.4c-1.2,3.2-1.9,6.6-2,10c-0.1,5.9,1.1,11.6,3.4,16.9
		c5,24.6,21.3,46.4,37.1,65.5c3.8,4.6,10.6,7,16.3,7.8c6.2,1,12.6-0.1,18.1-3.3l0.2-0.1c5.3,2.6,10.7,4.5,16.4,5.9
		c1.5,0.3,2.9,0.6,4.4,0.9c12.3,9.7,27.9,14,43.5,11.8c9.7,2.1,19.7,3.3,29.6,4.5c16.4,2,34.1,4.7,50.1-1.2
		c17.1-6.5,31.9-16.7,45.8-28.3c7.6-6.4,14.7-13.4,21-21.1c5.6-4.7,10-10.7,13.2-17.3l0.5-0.7l-0.1-0.2c1-2.3,2.1-4.5,3-6.7
		c0.8-2.3,1.2-4.7,1.1-7.2c3.6-7.7,5.9-16,6.6-24.4c0.4-4.5,0.3-9-0.1-13.5c7.1-1.4,14-3.9,20.4-7.5c6.9-3.6,12.7-9,16.9-15.5
		C1770.8,606.8,1771.1,592.9,1764.8,583.3"/>
	<path class="st2" d="M1513.1,743.4c0.9,3,3.7,4.9,6.9,4.8h0.5c-2.5-1.4-4.7-3-7-4.7L1513.1,743.4"/>
	<path class="st3" d="M1535,688v-1.5c0.1,0,0.4-0.2,0.7-0.3C1535.4,686.7,1535.1,687.3,1535,688 M1499.8,667.9
		c0.9-0.5,1.9-0.7,2.9-0.8c0,0.1-0.1,0.2-0.2,0.3C1501.7,667.2,1500.8,667.5,1499.8,667.9 M1501.9,652.7h-1
		c-7.4,0.6-12.1,6.8-16,12.5c-2.6,3.5-4.6,7.4-6.3,11.4c-1.3,4.6-1.9,9.4-1.8,14.2c-0.2,9.1,0,18.5,3.3,27.2c2.9,7.8,8.7,14.2,16,18
		c5.4,2.5,10.9,4.7,16.5,6.7l0.3,0.7h0.2c2.3,1.8,4.5,3.4,7,4.7c5.5-0.3,7.6-5.7,6.4-9.9c5-21.9,17.1-41.7,27.1-61.7
		c1.1-2.4,0.2-5.3-2.2-6.4c-0.7-0.3-1.4-0.5-2.3-0.5c-0.5,0-1,0.1-1.5,0.2c-1.1-1.8-2.6-3.1-4.4-4.1c-6.8-3.9-14.8-3.8-22.4-5.9
		c-6.6-1.5-12.1-7.2-19.2-7.2"/>
	<path class="st3" d="M1429.1,644.2c-3-0.1-6,1.2-7.8,3.6c-0.9,1.2-0.9,3,0.2,4.1c-0.3,1.4,0.6,3,2.2,3.3h0.3c0.4,0,0.7-0.1,1.1-0.2
		c0.9-0.3,1.9-0.5,2.8-0.5c3.6,0,7,2.5,10.1,4.3c3.9,2.4,7.9,4.9,11.8,7.4c3.9,2.5,7.5,4.7,11,7.2c3.5,2.5,6.8,4.6,7.4,9
		c0,0.5,0.2,0.9,0.6,1.2c0.3,5.5,0.3,11,0.1,16.5c-0.1,1.4,1,2.8,2.5,2.8l0,0h0.3c1.5,0.1,2.9-1.1,3-2.8l0,0
		c0.2-6.1,0-12.2-0.2-18.2c2.2-3.6,0.9-8.4-2.2-11.3c-2.5-2.4-5.7-3.2-8.6-4.7c-3.4-1.8-6.3-4.2-8.7-7.2c-2.2-2.7-4.8-4.9-8-6.4
		c-3.5-1.8-6.6-4-10-5.8c-2.5-1.2-5.2-2-7.9-2"/>
	<path class="st3" d="M1435,682.1c-1.6,0.2-2.9,1.8-2.7,3.4c0.1,0.9,0.6,1.6,1.3,2.2c8,5.6,16,11.2,24,16.7c3.9,2.4,7.2,5.7,9.5,9.6
		c1,2,2.1,4,3.2,6c0.5,0.9,1.6,2.8,2.3,4.1c-0.9,1.1-0.7,2.7,0.4,3.6l0,0l0,0c0.2,0.1,0.3,0.2,0.5,0.3l0.5,0.3
		c0.5,0.2,1,0.4,1.6,0.4c0.5,0,0.9-0.1,1.3-0.4c3.8-2.9,0.8-6.5-0.8-9.8c-2.5-4.9-4.8-10.3-8.9-14.2c-4-3.9-9.8-7.2-14.6-10.6
		c-5.4-3.7-10.6-7.4-16-11.2C1436.1,682.2,1435.5,682,1435,682.1"/>
	<path class="st4" d="M1484.4,861.8c-1.6,2.5-3.2,4.9-4.9,7.3c-1,1.5-2.1,3.1-3.2,4.5c-0.4-0.9-0.6-1.9-0.8-2.3
		c-0.8-1.9-1.6-3.7-2.5-5.6c-1.6-3.8-3.2-7.7-4.5-11.7c-1.9-5-9.8-2.9-8,2.3c1.8,4.8,3.7,9.6,5.8,14.4c1.6,3.6,3.1,9.6,6.6,11.8
		c4,2.6,7.4-0.9,9.8-3.8c3.3-4.1,6.4-8.4,9.2-12.9C1494.3,861.5,1487.2,857.2,1484.4,861.8"/>
	<path class="st5" d="M1699.8,905.3c0-1.8-0.2-3.5-0.5-5.3c-1.1-5.7-3.2-11.1-6.1-16.1c-1.3-4.1-2.7-8.1-4.1-12.2
		c-1.6-4.6-3.7-9.1-6.4-13.2c-2.8-4.3-5.9-8.3-8-13c-4.2-9.3-5.5-19.6-9.4-29c-3.4-8.8-8.9-16.6-16-22.8c-6.6-5.4-15.2-9.6-24-9.4
		c-3.9,0-7.4,2.2-9.3,5.6c-2.2,3.8-4.8,7.3-8.1,10.2c-7.6,6.5-17.2,9.9-26.5,13.3c-1.1,0.4-2.4,0.9-3.5,1.3l1.2-5.3
		c1.1,0.1,2.3-0.3,3.2-1c4.1-3.3,10.2-3.1,15-4.1c4.4-0.8,8.4-3.1,11.4-6.4c3.5-4.4,3.2-9.8,3.1-15.1c0-3.2,0-6.4-0.2-9.6
		c0-2.4,0-4.6-1.9-6.5c-3.2-3.4-10.5-1.5-14.6-1.5c-5.2,0.2-10.2,0-13.8,4.3c-2.9,3.5-3.4,8.3-4.3,12.7c-3.7,6-6.5,12.6-8.1,19.5
		c-0.3,1.3,0,2.7,0.8,3.7c-0.6,1.9-1.1,3.6-1.6,5.5c-0.5,1.8,0.2,3.6,1.9,4.5c0.3,0.9,0.8,1.6,1.6,2.2c-3.1,1.3-6.2,2.8-9.1,4.3
		c-4.4,0.4-8.6,3.6-11.8,7.6c-2.2,1.6-4.2,3.4-6.3,5.3c-0.1,0-0.2,0-0.3,0c-4.4-0.9-8.8-2-13-3.2c-0.6-6.8-5.9-13.3-10.9-17.9
		c-0.7-0.7-1.5-1.3-2.4-2c2.3,0.8,4.7-0.3,5.6-2.6c0.3-0.7,0.4-1.5,0.2-2.4c-0.6-3.3-0.9-6.6-0.8-9.9c0.1-0.9,0.2-2,0.1-2.9
		c0-2.2-1.8-4-4-4l0,0h-0.4v-4c-0.1-2.2-1.9-3.8-3.9-3.9c0-2.2,0-4.3-0.2-6.5c0-2-1.4-3.6-3.3-3.9c0-2.3,0-4.5-0.2-6.8
		c0-2.3-2-4-4.2-4h-0.1c-0.4,0-0.8,0.1-1.1,0.2c-0.1-0.1-0.2-0.1-0.4-0.2c0-0.2-0.1-0.5-0.2-0.7c-0.2-1.5-0.4-3-0.6-4.6
		c0-0.3-0.1-0.6-0.2-0.9v-2.3c0-2.3-1.9-4-4.1-4l0,0c-0.3,0-0.7,0.1-1,0.1l0,0c-0.7-1.4-2.3-2.3-3.8-2c0.4-0.9,0.5-2,0.1-2.9
		c-1.2-4.4-5.2-6.3-9.7-6.3c-1.6,0-3.3,0-5-0.2c-0.5-0.2-1-0.3-1.6-0.5c-0.1,0-0.2-0.1-0.3-0.1l-0.6-0.2c-2.6-1.2-5-2.7-7.4-4.2
		c-4.9-2.9-10-5.7-14.7-8.8c-4.8-3.3-9-7.5-12.3-12.4c-3.3-4.6-6.5-9.3-9.8-13.9c-2.9-4-5.5-8.6-9-12.1c-0.8-4.2-3.5-7.9-7.2-10.1
		c-1.9-4.1-3.8-8.3-6.1-12.4c-1.1-2-3.7-2.6-5.7-1.4h-0.1c-0.9,0.5-1.5,1.4-1.9,2.4c-1,4.7-2.4,9.5-3.8,14.1c-2.7,2.6-4.1,6.2-4,9.9
		l0,0c-1.6,3.1-2.8,6.4-3.5,9.8c-0.3,2.5,0.1,5,1.1,7.3c0,1.3,0.7,2.5,1.9,3.2c0.5,0.7,1,1.4,1.5,2.1c0.3,1.4,1.2,2.6,2.6,3.2
		c1.9,2.3,3.7,4.5,5.5,6.7c0.1,0.6,0.3,1.1,0.3,1.5c0.4,1.5,1.6,2.8,3.3,3.1l0.8,1.1c0.6,0.8,1.2,1.5,1.9,2.5
		c0.1,0.3,0.1,0.6,0.2,0.9c0.3,1.2,1.2,2.4,2.5,2.8c0,0,0.2,0.2,0.2,0.3c0.6,2.5,1.3,5,2.1,7.4v1.1c-0.1,1.2,0.5,2.5,1.5,3.2
		c0.4,1,0.8,2.3,1.2,3.3c0.5,1.1,1.3,2.1,2.5,2.5v2.2c0,2.3,1.8,4,4,4l0,0l0,0c0.8,0,1.5-0.2,2.2-0.6c1.8,4,3.3,8.1,4.4,12.4
		c-1.2,0.7-1.9,2.2-1.6,3.5c2.4,23.1,3.9,46.2,4.6,69.2c0.3,11.5,0.2,23.2,0.3,34.7c-0.1,2.9,0.6,5.8,2.1,8.2
		c-9.2,15.6-10.4,35.1-8.7,52.8c1.2,12.1,2.9,20,3.7,31.4c-0.9,5.6-1.2,11.2-0.6,16.9c0.8,8.9,2.2,20,9.6,25.8
		c4.5,3.5,9.6,3.8,15.1,4.4l12.4,1.2c8,0.7,15.9,1.4,23.8,2c32.6,2.2,65.2,2.5,97.9,1.1h0.4c0.7,0.4,1.6,0.3,2.4-0.1h2.7
		c0.7,0.5,1.8,0.5,2.5-0.1c10.3-0.5,21-1.5,30.1-6.2c2.5,0.3,5,0,7.4-1c6.9-2.9,9.9-10,8.4-17.2c-1.4-7.2-2.8-14.2-3.9-21.4
		c-1.2-7.8-1.9-11.5-2.7-19.3c-1.5-13.9-2.5-27.8-2.8-41.8c2.9-2,5.7-4.1,8.3-6.4c1.5-1.3,3-2.8,4.4-4.2c0.4,0.2,0.9,0.6,1.3,0.8
		c-0.4,1-0.7,2.1-1,3.2c-1.3,5-2.2,10.2-2.5,15.5c-0.3,4.5-0.8,10.1,0.9,14.4c3.4,8.4,15.4,8.7,22.8,7.3c9.4-1.9,17.9-6.2,25-12.6
		c7.9-6.8,7.9-15.4,5.4-24.5 M1449,729.3c0.1-0.2,0.2-0.4,0.2-0.6c0.2,0,0.3,0.2,0.5,0.3C1449.4,729,1449.1,729.1,1449,729.3
		 M1472.6,775.6c-0.7-0.5-1.4-0.7-2.4-0.8l-1.6-2.2c-0.5-0.6-1.3-1.1-2.2-1.2l-1-3c-0.2-0.6-0.3-1.2-0.6-1.9
		c1.1-0.2,2.1-0.9,2.8-1.9c0.9-1.5,1.9-3.1,2.7-4.6c0,5.2,0.9,10.3,2.8,15.1C1473,775.3,1472.9,775.4,1472.6,775.6 M1491.5,749.4
		c-0.2,0.5-0.3,1-0.3,1.5c-1-0.1-2.1,0.2-3,0.7c-1.1,0.4-2.1,1.4-2.2,2.7v0.7c-0.2-0.4-0.3-0.8-0.4-1.2c-1-2.4-3.8-3.5-6.2-2.5
		c0.9-1.9,1.5-3.8,1.8-5.8c0.5,0.1,1,0.1,1.4,0.2c0.7,0.1,1.3,0.1,2.1,0c0.9-0.1,2-0.1,2.9,0c0.6,1.9,2.5,3.1,4.4,2.9
		c0,0.3-0.3,0.5-0.3,0.9 M1502.6,803c-0.2-2.1-0.4-4.1-0.6-6.4c1,0.5,2.3,0.6,3.3,0.3h0.2v0.5c0.3,1.3,1.3,2.4,2.7,2.8
		c0.2,0.6,0.2,1.2,0.4,2c0.5,2.1,2.7,3.4,4.7,2.9c0.4-0.1,0.8-0.3,1.2-0.5l0.5,0.2c0.2,1.4,0.4,2.9,0.6,4.2c0.1,0.5,0.4,1.1,0.6,1.5
		c-4.2-3.2-9-5.8-13.9-7.5 M1554.8,920.3c-0.1,0.1-0.2,0.1-0.3,0.2l0,0c-0.6-0.1-0.9-0.4,0.6-0.5
		C1555.1,920.1,1555.1,920.3,1554.8,920.3"/>
	<path class="st6" d="M1430.8,946.8v0.7l0,0C1430.7,947.3,1430.7,947,1430.8,946.8 M1431.9,779.5l-0.8,122
		c1.2-5.8,3.3-11.3,6.1-16.5c-0.1-1.1-0.1-2.5-0.1-3.6c-0.7-2-1-4.1-1-6.3c0-11.5,0-23.2-0.3-34.7
		C1435.1,820,1433.8,799.6,1431.9,779.5 M1382.6,700.3l6.8,9.5l41.9,64.8c0-1.1-0.3-2.4-0.3-3.4c-0.2-1.3,0.4-2.8,1.6-3.5
		c-1.1-4.2-2.7-8.3-4.4-12.4c-0.7,0.4-1.4,0.6-2.3,0.6c-2.2,0.1-4-1.6-4.1-3.8l0,0l0,0v-2.5c-1.1-0.4-2.1-1.3-2.5-2.4
		c-0.4-1.1-0.8-2.2-1.2-3.4c-0.9-0.8-1.5-2-1.5-3.2v-1.1c-0.7-2.4-1.5-4.9-2.1-7.4c-0.1,0-0.2-0.3-0.3-0.3c-1.2-0.4-2.3-1.4-2.5-2.8
		c0-0.3,0-0.6-0.2-0.9c-0.7-0.8-1.2-1.5-2-2.5c-0.3-0.3-0.6-0.7-0.8-1c-1.5-0.2-2.9-1.3-3.4-2.9c-0.2-0.6-0.2-1.1-0.3-1.5l-2-2.5
		c-1.2-0.7-2.4-1.5-3.5-2.5l0.2-0.3l-0.2,0.3l-1.6-1.1l3,0.6l-1-1.3c-1.3-0.6-2.3-1.8-2.6-3.2c-0.5-0.6-1-1.4-1.4-2.1
		c-1-0.7-1.8-1.9-1.9-3.1l-3.6-4l-7.8-0.5"/>
	<path class="st6" d="M1430.8,947.5L1430.8,947.5l-0.4,43.3l4.1,10v-2.9c-0.5-1.8-0.9-3.6-1.1-5.5c-1.1,0.3-2.3-0.4-2.5-1.4
		c0,0,0,0,0-0.1v-0.1l0,0c-0.1-0.3-0.1-0.6,0-0.9c0.6-2,1-3.8,1.8-5.7c-0.5-5.6-0.2-11.1,0.7-16.6c-0.6-7.5-1.5-13.5-2.4-20.2"/>
	<path class="st7" d="M1434.8,991.1c-0.1,0.1-0.2,0.3-0.3,0.4c-0.2,0.4-0.6,0.6-1,0.8c0.3,1.9,0.7,3.7,1.1,5.5
		C1434.7,995.6,1434.7,993.2,1434.8,991.1 M1440.2,942.4c0,0.5-0.1,0.9-0.3,1.4c0.1-0.2,0.2-0.4,0.3-0.6V942.4 M1437.3,885
		c-2.8,5.2-4.8,10.7-6.2,16.5l-0.2,45.3c0,0.3,0.1,0.4,0.1,0.7c0.9,6.7,1.9,12.8,2.4,20.2c-0.9,5.5-1.2,11-0.7,16.6
		c0.6-1.9,1.2-3.9,2-5.8c-0.9,0.1-1.9-0.6-2-1.5v-0.1l0,0c0-0.1,0-0.3,0-0.5c0.8-6.1,1.6-12.2,2.9-18c0-3.3-0.2-6.7,0-10
		c-0.8-0.4-1.3-1.3-1.2-2.4c1.3-9.7,2.7-19.3,4-29c-0.3,0.2-0.7,0.2-1.1,0.3c-0.9,0.1-1.8-0.6-1.9-1.5l0,0l0,0c0-0.1,0-0.3,0-0.4
		c0.8-7.1,2.1-14.1,3.8-21c-0.7-0.3-1.2-1-1.3-1.9C1437.6,890,1437.4,887.5,1437.3,885 M1441.4,812.4L1441.4,812.4 M1403.3,717.3
		l1.9,2.5c0.1,0.6,0.3,1.1,0.3,1.5c0.4,1.5,1.8,2.7,3.3,2.9l0.8,1.1c0.6,0.8,1.2,1.5,1.9,2.5c0.1,0.3,0.1,0.6,0.2,0.9
		c0.3,1.3,1.2,2.4,2.5,2.8c0.1,0.1,0.2,0.2,0.3,0.3c0.5,2.5,1.3,5,2.1,7.4v1.1c-0.1,1.2,0.5,2.5,1.5,3.2c0.4,1,0.8,2.3,1.2,3.3
		c0.5,1.1,1.3,2.1,2.5,2.5v2.3c0,2.2,1.8,4,3.9,4l0,0h0.2c0.8,0,1.5-0.2,2.3-0.6c1.8,4,3.2,8.1,4.4,12.4c-1.2,0.7-1.9,2.2-1.6,3.5
		c0,1.1,0.3,2.4,0.3,3.4l0.5,0.8v4.1c2,20.3,3.2,40.7,3.8,61c0.3,11.6,0.2,23.2,0.3,34.7c0,2.2,0.3,4.2,1,6.3
		c-0.1-7.3,0.4-14.6,1.6-21.9c0-1.2,0-2.5,0.1-3.7h-0.2c-1,0-2-0.8-2-1.9l0,0v-0.1c0-5.9,0.2-11.7,0.5-17.6c-0.6-0.4-0.9-1-1-1.6
		c-0.6-8.7,0-17.3,1.8-25.8c-0.3,0.2-0.6,0.3-1,0.3c-1.1,0.1-2.2-0.8-2.2-2c0-0.4,0-0.8,0.2-1.1c3.4-5.4,4.8-11.6,6.6-17.7v-0.2
		c0-19.5-7.2-38.2-20.2-52.8l-13.9-15.7c-1.5-0.7-2.9-1.5-4-2.3 M1393.8,704.9c0,1.2,0.7,2.5,1.9,3.1c0.5,0.7,1,1.4,1.5,2.1
		c0.3,1.4,1.2,2.6,2.6,3.2l1.1,1.3l2.1,0.4L1393.8,704.9"/>
	<path class="st6" d="M1438.5,1008.2c0,0.2-0.2,0.4-0.3,0.6c-0.1,0.1-0.1,0.2-0.2,0.3l0.6,1.5L1438.5,1008.2"/>
	<path class="st8" d="M1438.9,1007.6c-0.1,0.2-0.2,0.4-0.3,0.6v2.7l0.2-0.6c-0.3-0.4-0.4-1-0.2-1.5
		C1438.7,1008.3,1438.8,1007.9,1438.9,1007.6"/>
	<path class="st6" d="M1429.9,940.6v6.8h0.8v-0.6C1430.5,944.8,1430.2,942.8,1429.9,940.6 M1390.1,700.5l0.3-0.2l0,0L1390.1,700.5
		 M1380.9,699.4l7.8,10.9l42.2,65.3l-0.8,130c0.3-1.4,0.6-2.9,0.8-4.2l0.8-122c-0.2-1.5-0.3-3.2-0.5-4.7l-41.8-64.8l-6.8-9.5
		l7.6,0.3l3.5,4v-0.1c-0.3-0.6-0.6-1.3-0.7-2.1l-2.3-2.7h-0.2L1380.9,699.4"/>
	<path class="st6" d="M1430.8,947.5h-0.7l-0.3,43.5l5,12v-2.1l-4.1-10l0.3-43.4"/>
	<path class="st7" d="M1441.2,939.1c-0.2,0.8-0.5,1.5-0.7,2.4c-0.1,0.3-0.2,0.7-0.3,0.9v0.8c0.3-0.6,0.6-1.3,0.9-2L1441.2,939.1
		 M1431.1,901.4c-0.3,1.4-0.6,2.9-0.8,4.2l-0.3,34.9c0.2,2.2,0.5,4.2,0.8,6.2L1431.1,901.4 M1441.7,810.7c-0.1,0.6-0.2,1.1-0.3,1.6
		v0.3c0.2-0.4,0.4-0.8,0.6-1.1l0.2-0.3v-0.3C1442,810.9,1441.9,810.8,1441.7,810.7 M1431.4,774.6c0.2,1.5,0.3,3.2,0.5,4.8v-4.1
		L1431.4,774.6 M1407.2,719.7l14,15.7c13,14.5,20.2,33.3,20.2,52.8v0.1c0.3-0.8,0.5-1.8,0.8-2.6c-0.6-18.9-7.8-36.9-20.4-51
		l-12.7-14C1408.5,720.3,1407.8,720,1407.2,719.7 M1393.1,702.4c0.2,0.6,0.5,1.3,0.7,2.1v0.1l9.2,10.2l1.4,0.3L1393.1,702.4"/>
	<path class="st6" d="M1438,1009.1c-0.2,0.2-0.4,0.3-0.7,0.5l1.3,3.2v-2.2L1438,1009.1"/>
	<path class="st8" d="M1439,1010.2l-0.2,0.6l-0.1-0.2v2.2l0.1,0.2l0.5-1.1v-0.2c0-0.3,0.1-0.6,0.3-0.9L1439,1010.2"/>
	<path class="st9" d="M1483.4,791.8l32.8,29.6c3.6,3.3,6.8,6.9,9.4,11c1,1.5,2,3.3,3.2,4.9c1.5,2.3,2.6,4.8,2.9,7.6
		c0.3,1.9,0.4,3.7,0.4,5.6v4.8l-4.4,57c0,0-3.7,34-2.5,40.2l0.7,33.8l3.9,1l10.7-153.6"/>
	<path class="st9" d="M1483.3,792l32.8,29.6l0.3,0.3c3.4,3.1,6.5,6.7,9,10.6c1,1.6,2,3.3,3.2,4.9c1.4,2.2,2.5,4.7,2.8,7.3
		c0.3,1.9,0.4,3.7,0.4,5.5v4.8l-4.4,57l0,0c0,0-2.8,25-2.8,36.1c0,1.4,0.1,2.9,0.3,4.2l0.4-0.1h-0.4l0.7,34.1l4.8,1.1l10.7-153.7
		l-0.8-0.1l-10.6,152.8l-3.2-0.8l-0.7-33.6l0,0c-0.2-1.3-0.3-2.8-0.3-4.1c0-5.5,0.6-14.5,1.3-22.2c0.3-3.8,0.6-7.3,0.9-9.8l0.4-4.1
		l0,0l4.4-57.1v-4.5c0-1.9-0.1-3.8-0.4-5.7c-0.3-2.8-1.3-5.5-2.9-7.7c-1.1-1.5-2.2-3.1-3.1-4.8c-2.7-4.1-5.9-7.8-9.5-11.1l-33-29.5
		L1483.3,792L1483.3,792z"/>
	<path class="st9" d="M1445.1,1001.9c-0.4-2.2-3.2-1.8-3.9-0.1l-0.3-0.3c-0.3-0.4-0.8-0.6-1.4-0.6c-0.6-1-1.9-1.3-2.9-0.7
		c-1,0.6-1.3,1.9-0.7,2.9v0.1c-0.8,2,0.1,4.2,2.1,5c0.4,0.2,0.9,0.2,1.4,0.2c0.2,0.2,0.5,0.2,0.8,0.3c-1.1,2.4,2.4,4.3,3.7,2
		C1445.3,1007.9,1445.7,1004.8,1445.1,1001.9z"/>
	<path class="st9" d="M1530.3,985.6L1530.3,985.6c-0.1-0.2-0.2-0.3-0.3-0.4l-1-1.2c-0.4-0.4-1-0.6-1.6-0.6c-0.5,0-1.1,0.2-1.5,0.6
		c-0.4,0.4-0.6,0.9-0.6,1.4c0,0.2,0,0.3,0,0.5c0,0.3,0.1,0.7,0.3,1c0.7,1.4,2,2.5,3.5,2.8c1.1,0.3,2.3-0.4,2.6-1.5
		c0.3-1-0.3-2.2-1.3-2.6H1530.3z"/>
	<path class="st5" d="M1446.4,997.8c-0.4,0-0.9,0.1-1.3,0.3c0.1-0.2,0.1-0.5,0.2-0.6c0.2-0.6,0-1.2-0.3-1.6c0-1.3,0-2.8,0.2-4.1
		c0.2-2.2-2.5-2.6-3.7-1.2c0-2.9,0.2-5.7,0-8.6c0-0.6-0.3-1.2-0.9-1.5c1.2-3.8,3.2-7.4,4.2-11.1c1-4.1,1.9-8.2,2.3-12.5
		c-0.1-1.1-1-2.1-2.3-2.1c-0.7,0-1.3,0.4-1.6,0.9c-0.8,2-1.8,4.1-2.6,6.1c0.6-3,1.4-6,2.6-8.9c1.8-4.2,3.1-8,2.4-12.6
		c-0.2-1.8-3-2-3.8-0.5c-0.7,1.3-1.3,2.8-2,4.1c0.2-0.7,0.3-1.5,0.5-2.4c1.4-5.3,4.1-10,5.3-15.4c1.1-5.3,1-10.7-0.1-16
		c-0.2-0.9-1.1-1.6-2.2-1.5l3.2-22.9c0.1-1-0.4-2-1.3-2.4c1.3-26,2.6-51.8,1.8-77.7c-1.3-1-2.4-2.5-2.9-4.1c-0.1,0-0.2,0-0.3,0
		c0.9-3.1,2.1-6.2,3.3-9.2c0.4-1.2-0.1-2.5-1.3-3l0,0c-0.2-0.1-0.4-0.1-0.6-0.2c0.7-2.9,1.9-5.6,3.2-8.2c1.2-2.4-2.4-4.5-3.6-2.1
		c-4.5,8.6-4.8,18.9-10.1,27.1c-1.2,2,1.4,3.8,3,2.8c-1.9,8.6-2.4,17.3-1.8,26c0.1,0.6,0.5,1.2,1,1.5c-0.3,5.9-0.5,11.7-0.5,17.6
		c-0.1,1,0.7,2,1.9,2.1l0,0h0.3c0,1.2,0,2.5-0.1,3.7c-1.9,10.9-2.2,21.9-1,33c0.1,0.7,0.5,1.4,1.2,1.9c-1.8,6.9-3.1,13.9-3.9,21
		c-0.3,1.9,1.6,2.4,2.9,1.8c-1.3,9.7-2.7,19.4-4,29c-0.2,0.9,0.3,2,1.2,2.4c0,3.4,0.1,6.7,0.1,10c-1.3,5.9-2.2,12.1-2.9,18
		c-0.2,1.2,0.8,2,2,2c-1.2,3.8-2.5,7.6-3.7,11.5c-0.4,1,0.1,2.3,1.1,2.7c1,0.4,2.3-0.1,2.7-1.1c0.1-0.2,0.2-0.2,0.2-0.4
		c-0.3,5.6-0.2,11.2-0.3,16.7c-0.1,2.2,2.8,2.7,3.9,1c0.2-0.4,0.5-0.7,0.7-1.1c-0.1,0.3-0.1,0.7-0.1,1c-0.2,0.7,0.1,1.5,0.7,2
		c0,0.3-0.1,0.6-0.2,0.9c-0.6,2.6,3.4,3.7,4,1c0.2-0.8,0.4-1.6,0.6-2.4c0.7,0.2,1.4,0,1.9-0.6c2.1-2.1,3.5-4.7,4.1-7.5
		c0.4-2.1-0.9-3.9-3-4.3h-0.5 M1441.9,811.4c-0.3,0.4-0.5,0.8-0.7,1.3c0.1-0.7,0.2-1.3,0.4-2.1c0.3,0.1,0.6,0.2,0.9,0.2
		C1442.3,811,1442.1,811.2,1441.9,811.4"/>
	<path class="st9" d="M1521.9,788.8c-2-5.6-4.2-10.9-6.8-16.2c-1.9-3.8-3.9-7.6-6.1-11.2c-2.1-5.9-4.8-12.8-10.5-14.1
		c-0.7-0.6-1.5-1-2.4-1.5c-1.1-0.5-2.4-0.1-3,1c-0.2,0.3-0.2,0.6-0.2,0.9c-0.1,0.1-0.3,0.2-0.3,0.3h-0.2c-8,1.5-16.4,3.4-22,9.8
		c-1.5,1.5,0.5,4.7,2.5,3.2c6.7-4.7,14.4-6.7,22.3-8.1c1.5,2.8,3.4,5.3,5,8c3.1,4.9,5.7,10.2,7.8,15.6c2.3,5.6,4.2,11.3,5.8,17.1
		c-0.6-0.3-1.3-0.5-1.9-0.7c-0.6-0.2-1.2-0.2-1.8,0.2c-1.5-0.2-3-0.3-4.5-0.3l-5.5-1.2c-2.2-0.4-3.9,2.8-1.6,3.8
		c1.6,0.7,3.4,1.1,5.3,1.2c4.1,1,8.1,2.5,12,4.1c0.6,2.4,1.2,4.6,1.9,6.9c0.3,1.1,1.4,1.8,2.6,1.4c1.1-0.3,1.8-1.4,1.4-2.6l0,0
		c-0.2-0.7-0.4-1.4-0.6-2.2c0.8,0.7,2.1,0.7,2.9-0.1c0.2-0.3,0.4-0.5,0.5-0.9C1525.9,798.6,1523.4,793.4,1521.9,788.8z"/>
	<path class="st9" d="M1600.1,762.5c-2.9,0.7-5.8,1.9-8.4,3.2c-3.8,1.6-7.1,4.5-9.3,8.1c-0.6,0.9-0.3,2.1,0.6,2.7l0,0
		c0.1,0.1,0.3,0.2,0.4,0.2c-1.5,3.2-2.6,6.6-3.7,9.8c-3.1,8.2-6.8,16.3-11,24c-0.2,0-0.3,0-0.5,0c-1.2,0.2-2.2,1.4-2,2.7
		c0.1,0.3,0.2,0.6,0.3,0.9l-1.8,3c-0.6,1-0.2,2.3,0.7,2.8c1,0.6,2.3,0.2,2.8-0.7c0.5-0.8,1-1.8,1.4-2.6c2.4-0.7,4.5-1.5,6.8-2.5h4.1
		c1.1,0,2.1-0.9,2.1-2.1l0,0c0-0.3,0-0.5-0.1-0.8l3.2-1.8c1-0.6,1.3-1.9,0.7-2.8c-0.6-0.9-1.9-1.3-2.8-0.7c-2.6,1.5-5.3,2.9-8,4
		h-2.3c2.9-5.5,5.6-11.1,7.9-16.8c1.8-4.2,3.2-8.8,4.9-13c2.4-5.5,5.9-8.2,11.1-10.7c0.2-0.1,0.5-0.3,0.7-0.5c0.4-0.3,0.7-0.4,1-0.6
		c1.3-0.9,3.4-2,3.3-3.9c-0.1-1.1-1.1-2-2.3-1.9L1600.1,762.5z"/>
	<path class="st9" d="M1647,885.6c-2.3,5.5-5.2,10.6-8.6,15.5c-0.2,0.2-0.3,0.4-0.5,0.6c-0.8,1-1.5,2.3-2.6,3.3l-0.1,0.2
		c-0.5,0.5-0.6,1.3-0.2,2c0.3,1,1.3,1.6,2.4,1.3l0,0l0,0c0.3-0.1,0.5-0.2,0.8-0.5h0.1c1.2-1,2.3-2.2,3.2-3.5c1.5-0.9,2.8-2.3,3.4-4
		c1-2,2.8-3.6,3.5-5.8c0.3-0.3,0.6-0.5,0.9-0.7c0.9-0.8,1.1-2.2,0.4-3.2c-0.1-0.2-0.2-0.3-0.4-0.4c0.5-1.1,1-2.4,1.5-3.5
		C1652,884.2,1648,883.1,1647,885.6z"/>
	<path class="st9" d="M1406.8,662.6l27,40.1c0,0,13,19.2,15.9,21.6c2.9,2.5,19.4,14.8,19.4,14.8l5.4,8.4l17.3-2.3l-8.1-13
		l-27.6-15.5l-19.1-24.6L1406.8,662.6z"/>
	<path class="st9" d="M1406.8,662.6l-0.3,0.3l26.9,40c0,0,3.2,4.7,6.8,9.9c1.9,2.6,3.7,5.2,5.4,7.3c0.8,1.1,1.6,2,2.2,2.9
		c0.5,0.6,1,1.1,1.6,1.5c1.4,1.2,6.4,4.9,10.8,8.3c4.4,3.4,8.7,6.5,8.7,6.5l0.3-0.3l-0.3,0.2l5.5,8.8l18.3-2.5l-8.7-13.5l-27.7-15.6
		l-19-24.5l-30-29.7l-0.6,0.5L1406.8,662.6l-0.3,0.3l30,29.7l19.1,24.7l27.7,15.5l7.8,12.4l-16.4,2.1l-5.3-8.2l0,0l-2.8-2
		c-2.4-1.9-6.1-4.6-9.4-7.1c-3.3-2.5-6.4-4.7-7.4-5.8c-0.5-0.5-1-1-1.4-1.5c-2.2-2.6-5.8-7.7-8.8-12c-1.5-2.2-2.9-4.1-3.9-5.7
		l-1.6-2.4l-27.1-40.2L1406.8,662.6l-0.3,0.3L1406.8,662.6z"/>
	<polygon class="st10" points="1491.8,691.8 1507.6,699.7 1531.3,708.6 1537.7,710.7 1540.6,712.5 1564.7,718 1590.4,724.5 
		1596.9,724.7 1558.9,718.8 1536.6,715.3 1533.1,715.2 1528.9,710.4 1514.8,705 	"/>
	<polygon class="st11" points="1491.8,691.8 1491.5,692.2 1507.5,700 1531.2,709 1537.5,711.1 1540.5,712.9 1564.6,718.5 
		1590.3,724.9 1596.9,725.2 1597,724.4 1559,718.4 1536.6,714.8 1533.3,714.7 1529.1,710.1 1514.9,704.5 1491.9,691.5 1491.8,691.8 
		1491.5,692.2 1491.8,691.8 1491.5,692.2 1514.6,705.3 1528.7,710.8 1532.9,715.6 1536.5,715.7 1558.8,719.2 1596.9,725.2 
		1596.9,724.7 1596.9,724.3 1590.5,724.1 1564.8,717.7 1540.8,712.2 1538,710.3 1531.5,708.2 1507.8,699.3 1491.9,691.5 
		1491.5,692.2 	"/>
	<path class="st10" d="M1499.8,676.8c0,0,32.8,17.7,35.8,19c2,0.6,4.2,0.3,5.9-0.9l1.1-0.5l2.4,1.5c0,0,0.5,1.3,1.4,1.5
		c0,0-0.5,1.8,1.9,2.7c0,0,18.4,4.8,27,6.5s19.9,2.9,19.9,2.9l10.2,0.6c0,0-35.3-1-61.7-8.1l-1.6-2.3l-4.2,0.4
		C1537.3,700.2,1499.3,679.7,1499.8,676.8z"/>
	<path class="st11" d="M1499.8,676.8l-0.2,0.3c0,0,8.1,4.4,16.7,9c4.2,2.4,8.7,4.6,12.2,6.5c1.8,0.9,3.2,1.8,4.4,2.4s2,1,2.4,1.1
		c0.7,0.3,1.4,0.4,2.2,0.4c1.4-0.1,2.9-0.5,4.2-1.3l-0.3-0.3l0.1,0.4l0.9-0.4l2.2,1.3l0.2-0.3l-0.4,0.1c0.1,0.3,0.2,0.6,0.4,0.8
		c0.3,0.5,0.7,0.9,1.2,1.1l0.2-0.4h-0.4c0,0.2,0,0.3,0,0.5c0,0.5,0.1,0.9,0.4,1.3c0.4,0.6,1,1,1.8,1.3l0,0c0,0,18.4,4.7,27,6.5
		s19.8,2.8,19.8,2.8l0,0l10.2,0.7v-0.8h-1.5c-7.1-0.3-37-1.9-60.1-8.1l-0.1,0.4l0.3-0.2l-1.9-2.5l-4.5,0.4v0.4l0.1-0.3l-1.6-0.9
		c-3.6-2-12.6-6.9-20.6-11.7c-4-2.5-7.8-4.8-10.6-6.7c-1.1-0.8-2.3-1.6-3.3-2.6c-0.3-0.2-0.6-0.5-0.8-0.8c-0.1-0.1-0.1-0.2-0.2-0.3
		v-0.1h-0.4l-0.2,0.3l0.2-0.3l-0.4-0.1v0.1c0,0.2,0.1,0.3,0.2,0.5c0.2,0.4,0.5,0.7,0.8,1c2.6,2.2,5.3,4,8.1,5.8
		c11.2,6.9,28.5,16.3,28.5,16.3v0.1l4.2-0.4l1.6,2.2h0.2c26.6,7.2,61.8,8.1,61.8,8.1v-0.8l-10.2-0.6l0,0l-2-0.3
		c-3.6-0.4-11.5-1.4-17.9-2.7c-4.2-0.8-11-2.5-16.7-3.8c-2.9-0.7-5.5-1.3-7.2-1.9c-1.8-0.5-3-0.7-3-0.7v0.4l0.2-0.4
		c-0.5-0.2-1-0.6-1.4-1c-0.2-0.3-0.3-0.6-0.2-0.9v-0.3l0,0v-0.4h-0.4c-0.3-0.2-0.6-0.4-0.8-0.7c-0.1-0.1-0.1-0.3-0.3-0.4v-0.1l0,0
		v-0.2l-2.7-1.5l-1.2,0.4l0,0c-1.1,0.7-2.4,1.1-3.7,1.1c-0.6,0-1.2-0.1-1.9-0.3l-2.4-1.1c-4.1-2.1-12.5-6.6-19.7-10.5
		c-3.7-2-7.1-3.7-9.6-5.2c-1.2-0.6-2.3-1.2-2.9-1.6l-1-0.5l-0.5-0.3v0.6L1499.8,676.8z"/>
	<path class="st10" d="M1494.9,709.4c0,0,22,12.8,33,15.6c15.6,4.1,31.4,7.2,47.4,9.3l-46-6.2L1494.9,709.4z"/>
	<path class="st11" d="M1494.9,709.4l-0.3,0.3c0,0,5.5,3.2,12.4,6.7c6.6,3.6,13.5,6.6,20.6,8.9l0,0c15.7,4.1,31.4,7.2,47.5,9.3v-0.7
		l-45.7-6.2L1495,709l-0.4,0.7L1494.9,709.4l-0.2,0.3l34.4,18.6l46.1,6.3v-0.4l0.1-0.4c-11.4-1.3-23.3-3.6-32.4-5.6
		c-4.5-1-8.2-2-10.9-2.6c-1.3-0.3-2.4-0.6-3.1-0.7c-0.7-0.1-1.1-0.3-1.1-0.3l0,0c-5.4-1.4-13.6-5.4-20.5-8.9
		c-3.4-1.8-6.5-3.4-8.8-4.6c-1.1-0.6-2-1.1-2.7-1.5c-0.4-0.1-0.7-0.3-1-0.5l-0.3,0.3l-0.2,0.3L1494.9,709.4z"/>
	<path class="st12" d="M1461,809.4c2.1,2.3,4.5,4.8,6.8,6.9c1.5,1.4,3.1,2.8,4.9,4c0.5,0.3,1.1,0.5,1.8,0.6l0,0c0.1,0,0.2,0,0.2,0
		c0.2-0.1,0.5-0.1,0.7-0.2c0.8,0,1.6,0.3,2.4,0.6c0.9,0.4,2,0.9,3.2,1.5c2.4,1.3,5,3.1,7.5,4.8c4.6,3.2,8.7,6.4,9.4,6.9h5.5l3.1,0.9
		l-6.1-4.5l-30.2-13.3l-9.3-8.2"/>
	<path class="st12" d="M1474.5,820.9c-0.6-0.1-1.2-0.3-1.8-0.6c-1.8-1.1-3.4-2.5-4.9-3.9c-2.4-2.2-4.8-4.6-6.8-6.9l9.3,8.3
		l30.2,13.3l6.1,4.6l-3.1-0.9h-5.6c-0.7-0.6-4.7-3.7-9.4-6.9c-2.4-1.8-4.9-3.3-7.5-4.8c-1-0.6-2.1-1.1-3.2-1.5
		c-0.7-0.4-1.5-0.6-2.4-0.7c-0.3,0-0.5,0-0.7,0.2C1474.7,821,1474.5,821.1,1474.5,820.9L1474.5,820.9 M1455.2,804.4l0.3-0.3
		L1455.2,804.4 M1455.8,803.8l-0.6,0.6l0.3-0.3l-0.3,0.3c0,0,3.7,4.3,8,8.7c2.1,2.2,4.1,4.1,6.4,6c0.8,0.7,1.8,1.4,2.8,2
		c0.6,0.4,1.3,0.7,2.2,0.8c0.2,0,0.4,0,0.6-0.2l0.4-0.1l0,0c0.7,0,1.4,0.2,2.1,0.6c4.3,2.2,8.4,4.7,12.4,7.6c2.1,1.5,4,2.9,5.4,4
		c0.5,0.4,1.1,0.8,1.6,1.2c0.2,0.2,0.4,0.3,0.6,0.4h5.7l7.3,2.2l-9.8-7.3l-30.2-13.2L1455.8,803.8"/>
	<path class="st12" d="M1448.7,922.7l4.5,3.5c1.1-0.5,2.3-0.9,3.5-1.1c-2.2-1.1-4.5-1.9-7-2.2C1449.3,922.8,1449,922.8,1448.7,922.7
		"/>
	<path class="st12" d="M1453.3,926l-4.5-3.5c0.3,0.1,0.7,0.2,1.1,0.2c2.5,0.3,4.7,1,7,2.2C1455.6,925.1,1454.4,925.5,1453.3,926
		 M1446.4,920.7c0.1,0.3,0.1,0.7,0,1l6.8,5.4l0.2-0.1c1.4-0.7,2.9-1.1,4.5-1.2h0.3c0.4,0.2,0.8,0.4,1.1,0.7c0.3,0.2,0.6,0.3,0.7,0.4
		c0.1,0,0.2,0.1,0.3,0.2l1,0.7l-0.5-1.2c-0.2-0.3-0.4-0.6-0.6-0.8c-0.5-0.4-1.1-0.6-1.9-0.7c-0.4-0.3-0.9-0.4-1.4-0.7
		c-2.3-1.1-4.7-2-7.3-2.3C1448.5,921.7,1447.4,921.3,1446.4,920.7"/>
	<path class="st12" d="M1437.3,914.2L1437.3,914.2 M1437.5,913.9l-0.6,0.7l0.3-0.3l-0.3,0.3l0.3-0.3l-0.3,0.3c1.4,1.4,3,2.8,4.5,4
		c1.3,1,2.7,2,4.1,2.8l0,0l0.6,0.4v-1h-0.2l-8.7-6.8"/>
	<path class="st12" d="M1405.1,716.1l2.5,2.8c0.7,0.4,1.4,0.7,2.2,1h11.1l7,1.2l3.9-2.8h-15.2L1405.1,716.1"/>
	<path class="st13" d="M1401.8,715.5c0.3,0.2,0.7,0.5,1.2,0.8c0.7,0.4,1.5,1,2.5,1.5l-1.5-1.9L1401.8,715.5"/>
	<path class="st13" d="M1403.9,715.9l1.5,1.9c0.7,0.4,1.4,0.8,2.3,1.2l-2.5-2.8L1403.9,715.9"/>
	<path class="st12" d="M1404.3,715.1l0.9,1.1l11.2,2.4h15.5l-3.9,2.7l-7-1.2h-11.2c-0.7-0.3-1.5-0.7-2.2-1l1.5,1.8
		c0,0.1,0.3,0.1,0.3,0.2h11.4l7.2,1.2l6.4-4.4h-18.1L1404.3,715.1"/>
	<path class="st14" d="M1397.8,713.7l1.6,1.1l0.2-0.3l0,0l-0.2,0.3c0,0,1.5,1.1,3.7,2.5c-0.8-1-1.6-2.1-2.4-2.9L1397.8,713.7"/>
	<path class="st13" d="M1400.8,714.3c0.8,1,1.5,2,2.4,2.9c1.1,0.7,2.5,1.4,4,2.4l-1.5-2c-0.9-0.5-1.8-1-2.5-1.5
		c-0.4-0.3-0.8-0.6-1.2-0.8l2.1,0.4l-0.9-1L1400.8,714.3"/>
	<path class="st13" d="M1405.5,717.7l1.5,2c0.7,0.3,1.3,0.7,2.1,1l-1.5-1.8l-2.3-1.2 M1402.8,714.7l0.9,1.1l1.4,0.3l-0.9-1.1
		L1402.8,714.7"/>
	<path class="st12" d="M1627.7,799.7l-6.2,4.9c-5.3,5.9-11.1,11-17.5,15.6l0,0l-26.5,15.5l12-4.6l25.9-18.3l0.3,0.2l1,1
		c0-0.1,0-0.1,0-0.2c0.1-0.3,0.3-0.7,0.5-1c0.5-0.9,1.1-1.8,1.8-2.6c1.4-1.9,3.3-4.1,5.3-6.4c1.2-1.5,2.5-2.9,3.6-4.1"/>
	<path class="st12" d="M1621.6,804.7l6.2-4.9c-1,1.2-2.4,2.6-3.6,4c-2,2.2-3.8,4.4-5.3,6.4c-0.6,0.8-1.2,1.6-1.8,2.6
		c-0.2,0.3-0.4,0.6-0.5,1c0,0.1,0,0.1-0.1,0.2l-1-1l-0.3-0.3l-25.8,18.4l-11.8,4.6l26.6-15.5l0,0c6.4-4.4,12.3-9.7,17.5-15.5
		 M1631.8,795.5l-10.9,8.6l0,0c-3.5,4-7.4,7.7-11.6,11.1c-1.6,1.3-3.2,2.5-4.1,3.2c-0.4,0.3-0.7,0.6-1.1,0.8l-0.4,0.3l-31.1,18.1
		l0.3,0.7l17.1-6.7l25.2-18l2,1.9h0.2c0.1,0,0.2-0.1,0.3-0.2c0.1-0.1,0.1-0.3,0-0.5l0,0l-0.4-0.4l0,0c0-0.2,0.1-0.4,0.2-0.5
		c0.8-1.6,1.9-3.1,3-4.5c2.3-2.8,5.3-6.2,7.6-8.9c1.2-1.3,2.4-2.5,3.1-3.3c0.7-0.8,1.2-1.3,1.2-1.3l-0.6-0.4"/>
	<path class="st15" d="M1555,919.9c-1.5,0-1.1,0.4-0.6,0.5l0,0c0.1-0.1,0.2-0.2,0.3-0.2C1554.7,920.2,1554.7,920.1,1555,919.9"/>
	<path class="st12" d="M1554.3,920.4c-0.6,0-0.9-0.4,0.6-0.5c-0.1,0-0.1,0.2-0.2,0.2C1554.6,920.3,1554.4,920.4,1554.3,920.4
		L1554.3,920.4 M1561.3,858l-5.5,38.1l-11.7,76.8l26.3-40.4l0.2-24.4l-4.1-1.4l-0.1-0.1c-1.3-1.5-2.3-3.4-2.6-5.5
		c-0.5-2.3-0.7-4.6-0.6-7c0-3,0.2-6,0.6-9l0,0c0.1-0.5,0.1-1,0.1-1.5v-0.6L1561.3,858"/>
	<path class="st12" d="M1544.2,972.8l11.7-76.8l5.5-38.1l2.5,24.9v0.6c0,0.5,0,1-0.1,1.5l0,0c-0.4,3-0.6,6-0.6,9
		c0,2.4,0.2,4.6,0.6,7c0.3,2,1.2,3.9,2.6,5.5h0.1l4.1,1.4l-0.2,24.4L1544.2,972.8 M1561.6,851.1l-6.5,44.7l-12.4,80.6l28.4-44
		l0.3-25.2l-4.5-1.5c-1.2-1.4-2-3.1-2.4-4.9c-0.5-2.3-0.7-4.5-0.6-6.8c0-3,0.2-5.9,0.6-8.9l0,0c0.1-0.5,0.1-1,0.1-1.5v-0.7l0,0
		L1561.6,851.1"/>
	<path class="st12" d="M1627.6,995.5c1,0.9,2.1,1.8,3.2,2.5L1627.6,995.5"/>
	<path class="st15" d="M1645.2,998.4c-0.1,1.2-0.2,2.6-0.5,3.8c0.5,0.1,1,0.3,1.5,0.6l0.3,0.3c1-1.2,0.8-3-0.3-4.1
		C1645.9,998.7,1645.6,998.5,1645.2,998.4"/>
	<path class="st12" d="M1643,998.1c-2.5,0.1-4.9,0.8-7.2,2l-0.7,0.2l4.1,3.2c1.4-0.7,3-1.2,4.6-1.2l0,0c0.3,0,0.6,0,0.9,0.1
		c0.4-1.2,0.6-2.5,0.6-3.7C1644.7,998.3,1643.9,998.1,1643,998.1L1643,998.1"/>
	<path class="st15" d="M1645.2,997.6v0.9c0.4,0.1,0.7,0.4,1.1,0.7c0.6,0.5,0.9,1.3,0.9,2.2c0,0.7-0.2,1.3-0.6,1.9l-0.3-0.3
		c-0.4-0.3-0.9-0.6-1.5-0.6c0,0.3-0.1,0.6-0.2,0.8c0.4,0.1,0.9,0.2,1.2,0.5l0.3,0.3h0.1l0.2,0.5l0.4-0.3c1.6-1.4,1.8-3.8,0.4-5.5
		l-0.2-0.2C1646.4,998,1645.8,997.7,1645.2,997.6"/>
	<path class="st12" d="M1623.1,991.6L1623.1,991.6 M1630.8,998.1c-1.1-0.7-2.3-1.5-3.2-2.5L1630.8,998.1 M1620.4,988.8l2.5,3
		l0.3-0.3l-0.3,0.3l0.3-0.3l-0.3,0.3c1.2,1.4,2.7,2.9,4.1,4.1c1.1,1.1,2.4,2.1,3.7,2.9c0.9,0.6,1.9,1,2.9,1.2l5.5,4.1h0.3
		c1.3-0.8,2.9-1.2,4.5-1.2c0.2,0,0.4,0,0.6,0.1c0.1-0.3,0.1-0.5,0.2-0.8c-0.3-0.1-0.6-0.1-0.9-0.1l0,0c-1.6,0.1-3.2,0.5-4.6,1.2
		l-4.1-3.2c0.3,0,0.5-0.1,0.7-0.3c2.3-1.1,4.7-1.8,7.2-2l0,0c0.7,0,1.4,0.1,2.2,0.3v-0.6c-0.7-0.2-1.4-0.3-2.2-0.3l0,0
		c-2.7,0.2-5.3,0.8-7.6,2c-0.3,0.1-0.7,0.2-1,0.2l0,0c-0.2,0-0.4,0-0.6,0l-13.5-10.4"/>
	<path class="st16" d="M1630.1,784.1h-0.3l1.6,0.7c0.6,0.2,1.2,0.2,1.9,0.4c0,0,0-0.1-0.2-0.1
		C1632.2,784.5,1631.2,784.1,1630.1,784.1"/>
	<path class="st17" d="M1631.4,784.9l2.9,1.4c-0.4-0.3-0.7-0.6-1-1C1632.6,785.1,1632.1,785,1631.4,784.9"/>
	<path class="st16" d="M1666.8,820.6c2.9,8.2,4.1,17.1,7.8,24.9c2.4,4.5,5.2,8.9,8.1,13c2.6,4.1,4.7,8.6,6.4,13.2
		c1.4,4,2.9,8,4.1,12.2c2.9,4.9,4.8,10.4,6,16c0.3,1.8,0.5,3.5,0.5,5.3c1.2,3.8,1.6,7.7,1.4,11.6c0.3,1,0.6,1.8,0.4,1.8h0.2
		c2.2-0.1,4-1.9,4.2-4l1.5-10.5c0.2-0.9,0-1.9-0.4-2.8L1666.8,820.6 M1647.7,792.6c0.5,0.4,1,0.7,1.4,1.1c3.6,3,6.8,6.5,9.5,10.4
		l-3.4-7c-0.5-0.9-1.2-1.8-2.2-2.3l-5.4-2.5"/>
	<path class="st17" d="M1634.3,786.3c4.5,3.9,13.7,13.4,23.7,31c0.1,0,0.1,0.3,0.2,0.3l24,50.4c0,0.1,0,0.2,0.2,0.3l13.5,34.7
		c0.1,0.4,0.3,0.9,0.3,1.3l4.7,10c0.1,0.8,0.2,1.8,0.4,2.6c0.2-3.9-0.2-7.8-1.4-11.6c0-1.8-0.2-3.5-0.5-5.3
		c-1.1-5.7-3.2-11-6.1-16.1c-1.3-4.1-2.7-8.1-4.1-12.2c-1.6-4.6-3.8-9.1-6.4-13.2c-2.8-4.3-5.9-8.3-8-13c-3.6-7.9-5-16.7-7.8-24.9
		l-8.1-16.3c-2.7-3.9-5.9-7.4-9.5-10.4c-0.5-0.4-1-0.8-1.5-1.1L1634.3,786.3"/>
	<path class="st12" d="M1509.5,879.5l-8.1,17.1l-8.6,46.6l13.8,42.3l-1.9-37.3c-1.6-4.5-2.5-9.4-2.5-14.2c0-2.3,0.2-4.6,0.6-6.9
		c-0.5-0.6-0.9-1.3-1.1-2.2c-0.2-1.2-0.4-2.6-0.3-3.8c0-6.9,2.4-18.5,4.5-28.2C1507.3,887.5,1508.7,882.7,1509.5,879.5"/>
	<path class="st12" d="M1506.7,985.5l-13.7-42.3l8.6-46.6l8.1-17.1c-0.9,3.3-2.2,8-3.4,13.4c-2.4,9.8-4.5,21.3-4.5,28.2
		c0,1.2,0.1,2.6,0.3,3.8c0.1,0.8,0.5,1.5,1,2.2c-0.3,2.3-0.5,4.6-0.6,6.9c0,4.8,0.8,9.6,2.4,14.2L1506.7,985.5 M1511.3,875.1
		L1511.3,875.1 M1510.9,875L1510.9,875l-10.2,21.4l-8.7,46.9l15.8,48.4l-2.1-43.6l0,0c-1.6-4.5-2.4-9.2-2.5-14c0-2.4,0.2-4.7,0.6-7
		v-0.2l-0.2-0.2c-0.5-0.4-0.9-1.1-0.9-1.9c-0.2-1.1-0.3-2.4-0.3-3.6c0-6.8,2.4-18.3,4.5-28c1.1-4.9,2.4-9.3,3.2-12.6
		c0.4-1.5,0.8-2.9,1-3.8s0.4-1.4,0.4-1.4L1510.9,875"/>
	<path class="st12" d="M1580.2,850.7c2.7,6.7,7.7,19.8,10.7,30.5c1.2,4,2.1,8.2,2.4,12.5c0,0.7-0.1,1.4-0.2,2.2
		c-0.1,0.5-0.4,0.9-0.7,1.3c1,3.9,1.6,7.9,1.6,12.1c0,3.1-0.4,6.2-1,9.3l-0.5,2.3l11.7-9l-13.9-44.9L1580.2,850.7"/>
	<path class="st12" d="M1577.9,846.5L1577.9,846.5 M1592.4,897.2c0.3-0.4,0.5-0.8,0.6-1.3c0.2-0.7,0.3-1.4,0.3-2.2
		c-0.3-4.2-1-8.4-2.4-12.5c-3-10.6-8.1-23.8-10.8-30.5l10.1,16l14,45l-11.7,8.9l0.5-2.3c0.7-3.1,1-6.2,1-9.4
		C1594,905,1593.5,901,1592.4,897.2 M1578.2,846.4l-0.7,0.4l0.4-0.2l-0.3,0.2l0.3-0.2l-0.4,0.2l0.6,1.4c1.4,3.4,4.9,12.3,8.1,21.4
		c1.6,4.6,3.1,9.4,4.1,13.6c1,3.4,1.6,6.9,1.9,10.4c0,0.6-0.1,1.3-0.2,2c-0.1,0.4-0.3,0.8-0.6,1l-0.2,0.2l0.1,0.3
		c1.1,3.8,1.8,7.8,1.8,11.8c0,3.1-0.4,6.2-1,9.2l-1,4.4l14.1-10.6l-14.2-45.6L1578.2,846.4"/>
	<path class="st12" d="M1479.8,847.9l-6.7,21.1l-5.2,46.4l15.6,23.8l-7.7-23.3c-0.6-1.2-0.9-2.6-0.9-4c0.2-3.2,1.1-6.3,2.5-9.1
		c1.3-2.8,2.3-5.8,2.8-8.9l0,0l3.3-4.9c-0.2-0.2-0.3-0.4-0.4-0.6c-0.2-0.4-0.2-0.8-0.3-1.2c0.1-1.6,0.4-3.2,0.8-4.8
		c0.5-2.3,0.8-4.5,0.9-6.9v-0.6c-0.1-2.2-0.4-4.2-1-6.3c-0.6-2.2-1-4.2-1.4-5.9C1480.9,855.7,1480.1,850.4,1479.8,847.9"/>
	<path class="st12" d="M1483.4,938.9l-15.5-24l5.2-46.4l6.7-20.9c0.2,2.8,0.9,8,2.3,14.7c0.3,1.5,0.9,3.7,1.4,5.9
		c0.6,2.1,0.9,4.1,1,6.2v0.4c-0.1,2.4-0.4,4.6-0.9,6.9c-0.4,1.5-0.7,3.2-0.8,4.8c0,0.4,0.1,0.8,0.2,1.2c0.1,0.2,0.2,0.5,0.4,0.7
		l-3.4,5l0,0c-0.4,3.1-1.3,6.1-2.8,9c-1.4,2.9-2.3,5.9-2.5,9.1c-0.1,1.3,0.3,2.8,0.9,4L1483.4,938.9 M1479.7,845.7L1479.7,845.7
		 M1480.5,843.5l-0.6,2.1l-7.4,23.1l-5.2,46.7l19.2,29.7l-10-29.5l0,0c-0.5-1.1-0.8-2.4-0.8-3.7c0.2-3.1,1.1-6.1,2.5-8.9
		c1.4-2.9,2.4-6,2.9-9.1l3.7-5.5l-0.4-0.2c-0.2-0.1-0.3-0.3-0.4-0.5c-0.1-0.3-0.2-0.7-0.2-1c0.1-1.5,0.4-3.1,0.8-4.6
		c0.5-2.3,0.8-4.6,0.9-7v-0.4c-0.1-2.2-0.4-4.3-1-6.4c-0.5-2.2-1.1-4.2-1.4-5.8c-1-5-1.6-9.2-2-12.1c-0.2-1.5-0.2-2.6-0.3-3.4
		s-0.1-1.1-0.1-1.1l-0.3-2.2"/>
	<path class="st12" d="M1603.7,959.3l-14.5,7.2c0.6-0.2,1.3-0.2,2.1-0.5c2.4-0.5,4.6-1.3,6.8-2.4c1.2-0.5,2.3-1.3,3.2-2.3
		C1601.9,960.8,1602.8,960.1,1603.7,959.3"/>
	<path class="st12" d="M1611.3,955.2c-1.3,0.5-2.6,1.1-3.8,1.9c-1.1,0.7-2.5,1.5-3.7,2.4c-0.9,0.6-1.8,1.4-2.5,2.3
		c-0.9,0.9-2,1.8-3.2,2.3c-2.2,0.9-4.5,1.8-6.8,2.4c-0.8,0.2-1.5,0.3-2.1,0.5c-0.2,0-0.3,0.1-0.5,0.1c-0.3,0.1-0.7,0.1-1,0.2
		l0.2,0.8c0,0,2.8-0.5,5.9-1.4c1.5-0.5,3.2-1,4.6-1.8c1.3-0.6,2.6-1.4,3.6-2.5c1.8-1.8,3.7-3.2,5.8-4.4c1-0.6,2-1,2.7-1.3
		c0.3-0.1,0.5-0.2,0.8-0.3c0.3-0.1,0.3-0.2,0.3-0.2L1611.3,955.2"/>
	<path class="st4" d="M1381.8,702.8l4,5.5l0,0l2.9,5.6l0,0 M1424.9,770.3c1.8,2.8,2.8,6,3.1,9.3l1.9,21.7l0,0l-2,145.8l0,0
		c-1,13.6-0.7,27-0.7,27.1l0,0c-1.5,34,6.4,40.1,6.6,40.3l0,0l9.9,2.6l0,0c27.9,72.5,46.4,64.1,47,63.8l0,0
		c18.3,4.3,23.1-55.9,23.3-59.1h0.1c4.7,3.9,40.3,4.6,42,4.8l0.1,0.1c-0.3,56.2,25.2,54.3,25.2,54.3c16.9,2.9,42.1-57.2,42.8-58.7
		l0,0c1-0.3,22.6-5.6,23.3-8.1c0.1-0.3,0.1-0.7,0.1-1c0.3-2.7,0.8-5.5,1.6-8c4-13.7-6.1-58.4-6.3-59l0,0l0.3-3.6l0,0l6.2,4.8l0,0
		c0.3,0.7,6.4,18.3,11.5,20.8c0,0,7.8,6.6,22.7,9.3c7.4,1.3,14.8-2.7,17.9-9.6c3.3-7.2,6.5-19.4,7.6-40.2v-12.3l0,0l-1.5-9l0,0
		l-4.3-12.9l0,0l-28-67.1c-2-4.5-3.6-9.2-4.8-13.9c-2.4-9.8-18.6-29.6-18.6-29.6c-4.9-6.4-27.3-16.3-29.8-17.3v-0.2
		c97.7-17.1,111.1-103.8,111.1-103.9l0,0l0.3-5.4c0.2-4.3,1-8.7,2.3-12.8l0,0c2.6-1.9,5.6-3,8.8-3.2c22.9-2.2,33.3-12.6,33.4-12.7
		l0,0c14.4-10.6,17.4-23.6,16.3-34.7c-1.4-13.6-8.9-26-20.2-33.6c-28.8-19.7-51.1-16-66.1-7.2c-5.4,3.1-10.3,6.9-14.5,11.4
		c-5.5,5.7-14.2,6.7-20.8,2.4c-49.6-33-102-37.3-120.4-37.7c-3.7-0.1-6.7-3.1-6.8-6.8c-0.3-11.5-4.5-34.6-33.2-41.7
		c-36.4-9.1-59.9,2.2-70.4,6.9c-5.3,2.4-9.5,6.3-12.3,11.3c-8.1,15.6,2.5,34.1,10.7,44.9c2.7,3.6,4.1,7.9,4.1,12.4
		c0,3.1-0.7,6.2-2.2,9c-1.5,3.1-3.5,5.9-5.9,8.3c-45.5,46.7-21,93.6-20.6,94.3l-3.6-9.1l0,0c-10-4.1-17.5-32.5-29.6-33.2
		c-8.7-0.5-17.1-1.5-23.1,4.8l0,0c0,0-2.2,2,0,15.9l7.3,36.8 M1480.3,678.2c0.6-2.3,0.9-4.6,1-7c0.3-4.4,5.3-11.1,5.3-11.2l0,0
		l5.7-5.5l0,0c12-3.7,24.2,7.2,24.4,7.4l0,0c1.1,0.2,2.2,0.4,3.3,0.5c20.6,7.1,34,14.5,54.1,19.8c10.2,2.5,20.6,3.8,31.1,4l0,0
		c15,5.7,10.6,22.3,10.6,22.3c1.4,0.6-9.2,22.2-9.4,22.7l0,0c0.4,4.6-24.5,22.8-25,23.2l0,0c-12.2,2.5-43.2-5.4-43.2-5.4
		c-29.2-6.3-46-19.1-46.2-19.1l0,0c-10.1-5.5-15.2-19.9-15.4-20l0,0C1474.4,701.4,1478,685.8,1480.3,678.2L1480.3,678.2z
		 M1522.2,802.8c-2.8-1.2-44.7-20.3-48.3-42.4l0,0c0,0-0.2-4.2,26.8-12.6h0.1l21.5,54.9L1522.2,802.8z M1587.5,768h16.7
		c0.5,0,0.9,0.3,1.1,0.7c0.6,2.1,2.1,3.8,2.7,5.9c0.7,3.5,1.1,7,1.2,10.6c0.2,4.2-2.1,8.1-5.7,10.2l-35.5,20.1v-0.1
		C1574.5,805.6,1587,769.6,1587.5,768L1587.5,768z M1478.1,728.3c-24.1-9.8-47.6-46.7-48.3-47.9l0,0c0.2-0.3,2.1-2.5,1.1,0
		c-0.9,2.5,30.1,23,32.2,23.8C1465.3,705.1,1476.9,726.2,1478.1,728.3L1478.1,728.3z M1468.6,697.8c-4-2.2-41.5-22.8-47.8-44.2v-0.1
		l2.9-4.2c0.7-1,1.2-2.2,2-3.3s2.8-2.1,11.2,2.5l0,0l20,14.5l0,0l13.6,7.6l3.4,1.6v0.1c-0.4,1.1-7,22.3-5.2,25.3L1468.6,697.8z
		 M1568.8,1015.5l-17.8,0.5c-3.3,0.3-6.7,0.4-10.1,0.3c-3.9-0.3-9.2-0.6-16-1.1l-77.9-5.5c0,0-9.6-0.5-10.4-4.6l-2.8-33.8l0,0
		l3-58.7V810.8c0-9.4,0.3-18.8,0.9-28.1c0.1-1.8,0-3.5-0.3-5.2c-0.8-3.9-2-7.8-3.3-11.5c-2.4-6.6-5.6-12.8-9.6-18.5l-33.5-47.2v-0.1
		l5.9-8.6l0,0c4.1-6.8,10.1-24.7,10.1-28.3l0.2-0.1c2.5,3.7,39.6,57.9,44.7,60.6l37.3,18.9v0.2l-3.1,0.9l-17.8,5.5l0,0
		c-0.2,0.2-6.9,5.5-5.9,13.6l0,0l3.9,7.4l7.2,12.1l0,0l4.4,4.9l0,0l9.2,8l0,0l10.3,6.9l16,11.5l0,0l11.1,10.1l0,0l6.7,8.4l0,0
		l3.7,15.5l0,0l-2.3,31.9l-2.3,27.9l-2.9,34.6l0,0l-0.7,36.8v8.4l0,0c0,0.2,1.2,2.2,2.9,2l0,0c1.1-0.4,2.2-1.1,2.9-2.2l0,0l0.5-45.6
		l1.8-32l0,0l3.5-30.4l2.9-30.4l0,0l10-14l0,0l51.4-27.6c1.9-1,3.6-2.2,5.3-3.5c5.8-4.5,10.9-9.7,15.7-15.2c2.2-2.4,5.3-4.5,9-3.1
		l0,0c0.1,0,15.9,8.9,18,11.8c7.8,9.7,13.7,20.7,17.5,32.6l0,0c0.1,0.2,29.8,65.3,30.4,75.7l0,0c0,0.1,2.8,13.1,0,18l0,0
		c-0.1,0-3.7,6-42.3,16.8l0,0c-0.3,0-9.4,0-9.7-17.2l0,0c0.1-0.4,8.4-29.4,8.1-33.3c0,0,1-6.7-2.3-8.1c-0.3-0.4-0.8-0.6-1.3-0.7
		c-0.9,0-2.2,0.7-3.6,3.8l0,0c-0.2,3.6-1,7.1-2.5,10.4l-2.5,5.9l0,0l-3.1,4.6l0,0l-1.1-5l0,0c-2.6-1.2-5.8-0.2-7,2.4l0,0l0,0
		c-0.1,0.1-0.1,0.2-0.2,0.4c-0.6,1.4-0.3,1-0.2,4.6l0,0c0,0.3,18.2,98.2,9.6,97.7c0,0-21,8.7-51.1,9.1l-1.4-0.1 M1653.1,747.6
		c-17.2,10.6-60.7,11-62.1,11l0,0c-1.1-1.4,4.3-4.5,11.5-7.8c14.4-6.6,29.7-11.4,45.3-14.2c14.1-2.6,31.9-6.5,33.4-6.7l0,0
		C1681.3,732.7,1653.1,747.5,1653.1,747.6L1653.1,747.6z M1708.1,701.2c-5.5,7.5-12.7,13.6-21,17.6l0,0l-14.8,4.1l0,0l-40.8,8.2l0,0
		l-15.5,1.2l-0.1-0.1l4.9-11.7l0,0c4-3.4,9-5.4,14.2-5.7l13.6-0.7l0,0c9.4-2,18.8-4.3,28-7.2s18.2-6.1,27.2-9.8l9.8-4v0.1
		L1708.1,701.2z M1523,655.9c2-1.1,32.8-21.1,15.9-49.1c-9.6-15.8-27.9-24.4-45.8-20.1c-8,2-15.4,6.2-20.9,12.4
		c-7.6,7.8-11.1,18.9-9.6,29.7c1.2,8.2,5.7,17.8,17.2,26.3l0,0c-0.5,0.6-5.7,8.3-5.9,8.6c-0.2,0.2-53.8-29.1-53.1-38.3
		c0,0,6.2-51.3,54.5-71.3l0,0c0.2-0.1,50.4-27.2,122.1-11l0,0c0.2,0,74.5,9.8,114.3,75.7c0,0,16.3,24.4,7.2,62.8l0,0
		c-17.5,10.5-36.7,18.1-56.7,22.5c0,0-20.1,5.2-38.1,4.4v-0.1c0.3-1.1,3.9-12.5,2.4-13.7l0,0c2.1-0.5,4.1-1.3,6.1-2.4
		c24.5-12.1,27.9-46.2,6.1-62.7c-6.3-4.6-13.6-7.5-21.3-8.7l0,0c-6.7-0.3-13.4,0.6-19.7,2.9c-19.9,6.9-30.4,28.7-23.5,48.6
		c0.5,1.3,1,2.6,1.8,3.8"/>
	<path class="st4" d="M1539.7,606.7c-7.7-13.1-21.7-21.2-37-21.5c-3.1,0-6.3,0.3-9.3,1.1c-8.1,2-15.5,6.3-21.1,12.5
		c-6.4,6.8-9.9,15.7-10,24.9c0,1.8,0.1,3.4,0.4,5c1.2,8.3,5.8,18,17.5,26.7l0.2-0.3l-0.3-0.3c0,0-0.3,0.5-0.9,1.3
		c-0.8,1.1-2,3-3.1,4.5c-0.5,0.7-1,1.4-1.3,2c-0.1,0.2-0.3,0.4-0.4,0.6l-0.2,0.2l0,0l0.2,0.2l-0.2-0.2l0,0l0.2,0.2l-0.2-0.2l0.2,0.3
		l-0.2-0.3l0.2,0.3v-0.4h-0.2l0.2,0.3v-0.4l0,0v0.4l0,0v-0.3l0,0v-0.1h-0.2c-1.1-0.6-5-2.7-10.2-5.6c-7.7-4.4-18.3-10.8-27-17
		c-3.8-2.7-7.5-5.6-10.9-8.8c-1.2-1.1-2.3-2.4-3.2-3.7c-0.6-0.8-0.9-1.8-1-2.7v-0.1l0,0c0-0.2,0-0.4,0-0.6
		c1.8-10.6,5.4-20.9,10.5-30.4c9.4-18,24.9-32.2,43.7-40.1l0,0c0.1-0.1,0.2-0.1,0.3-0.2c3.4-1.8,32.5-15.9,76.2-15.9
		c15.2,0,30.5,1.8,45.3,5h0.8c8.3,1.3,75.9,13.7,113,75.4l0,0c0,0.1,0,0.1,0,0.2c1,1.5,9.8,16.2,9.8,39.4c0,7.7-0.9,15.5-2.8,23.1
		h0.3v-0.1l-0.2,0.2c-17.5,10.5-36.6,18.1-56.5,22.5l0,0c-0.2,0.1-0.5,0.1-0.7,0.1c-11,2.6-22.4,4.1-33.7,4.3c-1.1,0-2.4,0-3.6-0.1
		v0.4h0.5c0,0,0.6-2.2,1.4-4.7c0.7-2.5,1.2-5,1.4-7.6c0-0.4,0-0.8-0.2-1.1c0-0.2,0-0.3-0.3-0.4c-0.1-0.2-0.2-0.3-0.4-0.3l-0.1,0.4
		v0.4c2.3-0.5,4.3-1.3,6.4-2.4c12.8-6.4,20.9-19.5,20.8-33.7c0.1-11.6-5.4-22.7-14.7-29.7c-6.4-4.6-13.8-7.6-21.5-8.8l0,0
		c0,0-1-0.1-2.7-0.1c-5.9,0-11.6,1-17.2,2.9c-15.5,5.5-25.9,20.1-25.9,36.6c0,4.3,0.7,8.6,2.2,12.6l0,0c0.4,1.3,1,2.7,1.8,3.9
		l0.3-0.3l0.1-0.4l-11.3-1.8l-0.1,0.8l12.3,1.9l-0.4-0.7c-0.6-1.2-1.2-2.5-1.6-3.7l0,0c-6.8-19.7,3.6-41.2,23.3-48
		c5.5-1.9,11.1-2.9,16.9-2.9h2.5c7.6,1,14.9,4,21.1,8.7c9.2,6.8,14.5,17.6,14.4,29c0.1,13.9-7.8,26.7-20.3,33c-2,0.9-4,1.8-6.2,2.4
		l-1.4,0.3l1.4,0.5l0,0c0.1,0.3,0.2,0.7,0.2,1c-0.2,2.5-0.7,5-1.4,7.4c-0.3,1.3-0.6,2.5-1,3.4c-0.2,0.4-0.3,0.9-0.4,1.4l-0.2,0.5
		h0.6c1.1,0.1,2.4,0.1,3.6,0.1c11.7-0.2,23.4-1.8,34.7-4.5l-0.1-0.4l0.1,0.4c20.1-4.3,39.4-11.8,57-22.5l0.2-0.1V682
		c1.9-7.6,2.7-15.4,2.8-23.2c0-24.9-10-40-10-40l-0.3,0.3l0.3-0.3c-20.1-33.4-48.7-52.4-72.4-63.1c-13.5-6.2-27.6-10.6-42.2-13.2
		l-0.1,0.4l0.1-0.4c-14.9-3.4-30.2-5-45.5-5c-46.8,0-76.9,16.2-76.9,16.3l0.2,0.3l-0.2-0.4c-24.3,10.1-37.9,27.9-45.5,43.4
		c-4.5,8.9-7.6,18.4-9.1,28.3l0,0v0.2c0.3,1.8,1,3.4,2.4,4.6c3.7,3.9,7.7,7.4,12.2,10.4c7.6,5.6,17.2,11.4,24.8,15.9
		c3.8,2.3,7.2,4.1,9.7,5.5c1.2,0.6,2.3,1.1,2.9,1.5l0.8,0.4c0.1,0.1,0.2,0.1,0.3,0.1h0.3l0.2-0.1l0,0c0.2-0.3,0.6-0.8,1.1-1.5
		c1.8-2.5,4.8-6.9,4.8-6.9l0.3-0.3l-0.3-0.2c-11.5-8.6-16-17.9-17.2-26.1c-0.3-1.6-0.4-3.3-0.4-4.9c0.1-9.1,3.6-17.7,9.9-24.3
		c5.6-6.1,12.8-10.3,20.8-12.2c3-0.7,6-1,9.1-1c14.9,0.2,28.7,8.1,36.3,21l0.6-0.6V606.7z"/>
	<polyline class="st4" points="1523.6,656.4 1523.6,656.3 1523.1,655.7 1523.1,655.7 	"/>
	<path class="st4" d="M1626.7,694.6l-0.1-0.4c-0.1,0-0.2,0.1-0.3,0.1h-0.1v0.3l0.1-0.3h-0.1v0.3l0.1-0.3l-0.1,0.4l0.3-0.3l-0.2-0.1
		l-0.1,0.4l0.3-0.3l-0.3,0.3h0.4c0-0.2,0-0.3-0.1-0.3l-0.3,0.3l0,0l0.3,0.2c0-0.1,0-0.2,0-0.2h-0.4l0.3,0.2l-0.3-0.2l0.3,0.3
		 M1626.5,695L1626.5,695l-0.3-0.2l0.3,0.3l-0.2-0.3l0.1,0.3l0,0l-0.1-0.3l0.1,0.3h0.1l0.2-0.6l0.1-0.4l0.1,0.4l0.1-0.4h-0.6v0.1
		l-0.1,0.1v0.1c0,0.1,0,0.2,0,0.3S1626.2,695,1626.5,695C1626.2,695,1626.4,695,1626.5,695l0.2,0.1c0.1,0,0.2,0,0.3-0.1l1.4-0.3
		l-1.4-0.5L1626.5,695z"/>
	<path class="st4" d="M1681.8,729.8h-0.4l-0.2,0.4c-0.6,0.6-1.2,1.2-2,1.9c-4.9,3.4-10.1,6.6-15.5,9.5c-2.8,1.5-5.4,3-7.2,4
		l-2.3,1.1l-0.8,0.4l0,0c-5.3,3-11,5-17,6.2c-9.9,2.2-19.9,3.5-30,4.1c-4.4,0.3-8.1,0.5-10.8,0.6c-1.3,0-2.4,0.1-3.1,0.1h-1.1v0.4
		l0.3-0.3V758c0-0.2,0.1-0.3,0.2-0.4c0.4-0.5,0.8-0.9,1.3-1.2c3.2-2.1,6.5-3.9,10-5.5c14.4-6.6,29.6-11.3,45.2-14.1
		c14.7-2.8,33.6-6.7,33.6-6.7l-0.1-0.5l0,0l-0.1-0.3l-3.2,0.7c-5.9,1.2-19.2,4.1-30.4,6.1c-15.7,2.9-30.9,7.6-45.3,14.2
		c-2.9,1.2-5.7,2.7-8.3,4.3c-0.9,0.5-1.8,1.1-2.5,1.9c-0.3,0.2-0.5,0.5-0.7,0.8c-0.2,0.2-0.3,0.5-0.3,0.8s0.1,0.5,0.2,0.7l0.2,0.1
		h0.2c0,0,11.2-0.1,24.5-1.5c6.9-0.7,13.8-1.9,20.6-3.3c6.1-1.2,11.8-3.4,17.2-6.4l-0.2-0.3l0.2,0.3c0,0,7-3.7,14-7.7
		c3.5-2,7.1-4.1,9.8-6c1-0.7,2.1-1.5,3.1-2.4c0.4-0.3,0.7-0.6,0.9-1c0.2-0.2,0.4-0.6,0.4-0.9v-0.6h-0.7L1681.8,729.8z"/>
	<path class="st4" d="M1714.3,693.3l-0.3-0.2l-5.8,8c-5.4,7.5-12.6,13.5-20.9,17.4l0.2,0.4l-0.1-0.4l-14.8,4.1l-40.7,8.2l-14.8,1.1
		l4.6-11.2l-0.4-0.1l0.2,0.3c2-1.6,4.1-3,6.5-3.9c2.4-0.9,4.8-1.4,7.4-1.5l13.7-0.7l0,0c9.4-2,18.9-4.3,28-7.2s18.3-6.1,27.2-9.8
		l10-4.1L1714.3,693.3l-0.4-0.1L1714.3,693.3l-0.2-0.3l-10,4.1c-9,3.7-18,6.9-27.2,9.7c-9.2,2.8-18.4,5.2-27.9,7.2l0,0l-13.6,0.7
		c-2.6,0.1-5.2,0.7-7.6,1.5c-2.5,1-4.7,2.4-6.8,4.1l0,0l-5.3,12.6l16.3-1.1l40.9-8.2l14.8-4.1l0,0c8.4-4,15.8-10.1,21.2-17.7
		l6.7-9.3l-1.3,0.6V693.3z"/>
	<path class="st4" d="M1616.5,708.5l-0.2,0.4l0.1-0.2h-0.3c0,0.1,0.1,0.1,0.1,0.1l0.1-0.2h-0.3v0.1c-0.1,0.6-0.2,1.1-0.4,1.6
		c-1.5,4.2-3.3,8.3-5.3,12.5c-1,2.2-2,4.2-2.7,5.8c-0.7,1.5-1.2,2.5-1.2,2.5l0,0v0.2c-0.2,0.8-0.5,1.5-1,2.2c-1.6,2.2-3.6,4.2-5.7,6
		c-3.7,3.3-8.2,7-11.8,9.8c-1.9,1.4-3.3,2.6-4.5,3.4l-1.8,1.3l0.3,0.3v-0.4c-1.9,0.3-3.8,0.5-5.8,0.5c-8-0.3-16.1-1.2-24-2.9
		c-3.7-0.7-7.1-1.5-9.5-2c-1.1-0.3-2.2-0.5-2.8-0.6l-1-0.3l0,0c-11.7-2.5-23.2-6.4-34-11.7c-3.1-1.5-6.1-3.2-8.9-5
		c-1-0.6-1.8-1.1-2.4-1.5c-0.2-0.1-0.4-0.3-0.6-0.4s-0.2-0.1-0.2-0.1l0,0c-4.7-2.9-8.6-7-11.1-12c-1-1.8-2.1-3.6-2.9-5.6
		c-0.2-0.5-0.5-1-0.7-1.5c-0.1-0.2-0.1-0.3-0.2-0.5v-0.2l-0.4,0.2h0.4c-0.7-2.4-1-4.7-0.9-7.2c0-8.1,2.5-18.4,4.1-24.2l0,0
		c0.6-2.3,1-4.6,1.1-7.1c0.4-2.5,1.3-4.9,2.8-7.1c0.7-1,1.2-2.1,1.8-2.8c0.2-0.3,0.4-0.6,0.6-0.8l0.2-0.3l-0.3-0.2l0.2,0.3l5.7-5.5
		l-0.3-0.3l0.2,0.4c1.8-0.5,3.6-0.8,5.4-0.7c4.7,0.2,9.4,1.4,13.5,3.7c1.4,0.7,3,1.5,4.3,2.5c0.5,0.3,0.9,0.6,1.1,0.8
		c0.1,0.1,0.2,0.1,0.3,0.3h0.1c0.6,0.3,1.3,0.6,2.1,0.7c20.3,6.6,33.8,14.6,53.4,19.2c10.7,2.3,21.6,4,32.6,5v-0.5l-0.2,0.4
		c3.8,1.3,7,4,8.9,7.6c1.3,2.8,2.1,5.8,2,8.9c0,1.2-0.1,2.6-0.3,3.8c-0.1,0.3-0.1,0.7-0.3,1v0.4l0,0v0.3l0.3,0.2l0.2-0.6l0.4,0.1
		c0.5-1.9,0.7-3.7,0.7-5.6c0.1-3.2-0.6-6.4-2.1-9.3c-2-3.8-5.4-6.6-9.4-8h-0.2c-1,0-2-0.1-2.9-0.3c-9.9-1.1-19.8-2.7-29.6-4.8
		c-19.4-4.4-32.9-12.4-53.3-19.2c-0.6-0.2-1.2-0.4-1.9-0.6l-0.3,0.3l0.3-0.3c-2-1.4-3.9-2.7-6.1-3.7c-4.2-2.3-9-3.6-13.8-3.7
		c-2,0-3.8,0.3-5.7,0.8l0,0l-5.8,5.5l0,0c-0.9,1.2-1.8,2.6-2.5,3.9c-1.4,2.3-2.4,4.7-2.9,7.4c-0.1,2.4-0.5,4.6-1,6.9l0,0
		c-1.6,5.9-4.1,16.1-4.1,24.5c-0.1,2.6,0.3,5,1,7.5l0,0c1,2.8,2.4,5.5,3.9,8c2.6,4.3,6.4,9.4,11.5,12.2l0.2-0.3l-0.3,0.3
		c0,0,16.9,12.9,46.4,19.1l0,0c0,0,5.8,1.5,13.4,2.9c7.9,1.6,15.9,2.7,24,3.1c2,0,3.9-0.1,5.9-0.5h0.1c0,0,6.3-4.5,12.5-9.6
		c3-2.4,5.9-5,8.6-7.7c1-1,2-2.2,2.9-3.3c0.6-0.7,1-1.6,1.1-2.7V731h-0.5l0.4,0.1c0,0,2.4-4.7,4.8-10.1c1.1-2.6,2.4-5.4,3.2-7.5
		c0.4-1.1,0.8-2.1,1-2.9c0.2-0.6,0.4-1.2,0.4-2c0-0.1,0-0.3-0.1-0.4c0-0.2-0.1-0.3-0.3-0.3l-0.2,0.5l0.4,0.1L1616.5,708.5z"/>
	<path class="st4" d="M1469.4,698.3l0.2-0.3l-0.5-0.3c-8.1-4.4-15.9-9.5-23.3-15c-5.4-4-10.4-8.6-14.9-13.6
		c-4.2-4.4-7.3-9.7-9.3-15.5l-0.4,0.1l0.3,0.2l3-4.3c0.7-1,1.3-2.2,2-3.3l0,0c0.1-0.2,0.2-0.3,0.4-0.4c0.4-0.2,0.7-0.2,1.1-0.3
		c1.4,0,4.1,0.7,9,3.4l0.2-0.3l-0.3,0.3l20,14.5l13.7,7.7l3.5,1.8l0.2-0.4h-0.4c0,0-1.4,4.3-2.8,9.4c-0.7,2.6-1.4,5.4-2,7.8
		c-0.5,2.1-0.7,4.2-0.8,6.4c0,0.5,0,1,0.2,1.5c0.1,0.4,0.3,0.8,0.7,1L1469.4,698.3l0.2-0.2L1469.4,698.3l0.3-0.2
		c-0.1-0.1-0.2-0.3-0.2-0.5c-0.1-0.4-0.2-0.8-0.2-1.2c0.1-2.1,0.4-4.2,0.8-6.2c0.7-3.7,2-8,2.9-11.4c0.5-1.5,0.9-3.2,1.2-4.1
		c0.3-0.9,0.5-1.5,0.5-1.5v-0.3l-3.7-2l-13.6-7.7l-20.1-14.7l0,0c-4.8-2.6-7.6-3.4-9.4-3.4c-0.5,0-1.1,0.1-1.6,0.3
		c-0.3,0.2-0.6,0.4-0.8,0.7l0,0c-0.5,1.1-1.2,2.3-2,3.4l-3.1,4.5v0.2c2.2,6.3,5.7,12,10.3,16.7c14.5,15.8,38,27.9,38,27.9l0.4-0.7
		L1469.4,698.3z"/>
	<path class="st4" d="M1478.7,728.6l0.2-0.4c-12.2-4.9-24.3-16.9-33.4-27.7c-4.5-5.4-8.2-10.5-10.9-14.1c-1.3-1.9-2.4-3.4-3.2-4.4
		c-0.3-0.5-0.6-0.9-0.8-1.2c-0.1-0.1-0.2-0.3-0.3-0.4l-0.3,0.3l0.3,0.3l0.2-0.2c0.2-0.2,0.4-0.4,0.6-0.6l0.4-0.3l0,0l-0.1-0.1v0.1
		h0.1l-0.1-0.1v-0.2l-0.2,0.2l0.2,0.1v-0.3l-0.2,0.2l0.2-0.1l-0.2,0.1h-0.1c0,0.3-0.1,0.5-0.2,0.8c0,0.1,0,0.2,0,0.3
		c0,0.4,0.2,0.7,0.4,1c0.6,0.9,1.4,1.8,2.4,2.5c5.5,4.5,11.1,8.7,17,12.5c3.2,2.1,6.2,4.1,8.4,5.5c1.1,0.7,2.2,1.3,2.9,1.8
		c0.3,0.2,0.7,0.4,1,0.6s0.4,0.3,0.6,0.3c0.1,0.1,0.3,0.2,0.4,0.3c0.5,0.6,1,1.2,1.4,2c2.2,3.1,5.5,8.4,8,13.3
		c1.3,2.4,2.6,4.5,3.4,6.1c0.8,1.5,1.4,2.6,1.4,2.6l0.6-0.3l0.2-0.4l-0.2,0.4l0.3-0.2c0,0-3.2-5.9-6.6-11.8c-1.8-3-3.6-6-5-8.3
		c-0.7-1.1-1.4-2.2-2-2.9c-0.3-0.3-0.6-0.6-0.7-0.9c-0.2-0.2-0.4-0.4-0.7-0.5c-0.2-0.1-0.4-0.2-0.7-0.3c-2.5-1.4-10.4-6.5-17.7-11.5
		c-3.7-2.5-7.1-5-9.6-7.2c-1-0.8-2.1-1.8-3-2.8c-0.3-0.3-0.6-0.6-0.8-1c-0.1-0.1-0.2-0.3-0.3-0.5l0,0c0.1-0.4,0.2-0.7,0.3-1.1
		c0-0.1,0-0.3,0-0.4c-0.1-0.1-0.2-0.2-0.4-0.2s-0.3,0.1-0.3,0.1c-0.3,0.2-0.6,0.4-0.8,0.7c-0.2,0.1-0.3,0.3-0.4,0.5l-0.2,0.3
		l0.2,0.2c4.6,7.1,9.6,14,15,20.5c9.1,10.8,21.2,22.9,33.7,27.9l1.1,0.4l-0.6-1L1478.7,728.6z"/>
	<path class="st4" d="M1465.1,546.3l0.1-0.4c-0.1,0-0.2,0-0.2-0.1c-5-1.4-9.8-3.9-13.9-7.3c-6.1-4.9-11.7-13.2-11.7-26.1
		c0-1.1,0-2.3,0.2-3.4c0.4-5.2,3.2-9.7,7.6-12.4c6.9-4,19.2-9.4,37.2-9.4c9.6,0.1,19.2,1.4,28.3,4c0.1,0,0.2,0,0.2,0.1
		c4.1,1.3,8,3.3,11.5,5.8c6.4,4.5,10.8,11.3,12.4,19c1.4,7.8-3.7,15.2-11.5,16.7c-0.2,0-0.5,0.1-0.7,0.1c-5.2,0.7-11.2,1.6-16.7,2.7
		c-4.5,0.7-9.1,1.8-13.5,3.2l0,0c0,0-0.3,0.1-0.9,0.3c-2,0.7-7.1,2.5-12.5,4.1c-2.7,0.8-5.5,1.5-7.8,2.2c-2,0.5-3.9,0.8-5.9,0.9
		c-0.3,0-0.7,0-1-0.1c-0.2-0.1-0.4-0.1-0.6-0.2v-0.1l0,0l-0.2,0.3l-0.2,0.3c0.3,0.2,0.6,0.3,0.9,0.4c0.4,0,0.8,0,1.1,0
		c2.5-0.1,4.8-0.5,7.2-1.1c8.7-2.2,20.2-6.4,20.2-6.4l0,0c4.4-1.3,8.9-2.5,13.4-3.2c5.5-1.1,11.5-2,16.7-2.6c7.5-1,13.2-7.4,13.2-15
		c0-0.9-0.1-1.9-0.3-2.8c-1.6-8.3-6.5-15.7-13.6-20.2c-3.4-2.4-7.1-4.1-11-5.4c-9.3-2.6-18.9-3.8-28.4-3.9
		c-18.1,0-30.6,5.4-37.7,9.5c-4.6,2.7-7.6,7.5-8,12.9c-0.1,1.1-0.2,2.4-0.2,3.5c-0.3,10.8,4.5,21.2,13.2,27.7
		c3.9,3.1,8.4,5.4,13.3,6.6l0.2-0.3l-0.2,0.3V546.3z"/>
	<path class="st4" d="M1698.4,584.1l-0.3,0.3c6.8,8,19,22.9,24,32.7c4.4,8.8,13.4,14.2,23.2,14.2h0.9c5.5-0.2,10.8-1,16.1-2.4h0.1
		c6.1-3.4,11.5-7.8,16.1-13.1c4.8-5.7,7.4-12.8,7.4-20.2c0-8-3-15.8-8.4-21.6c-1.5-1.5-3.1-3.2-4.7-4.9
		c-12.3-11.1-28.7-16.5-45.2-14.7c-10.7,1.2-22.9,4.5-29.8,13c-2,2.4-3,5.4-2.9,8.4c0,3.2,1.1,6.4,3.2,8.9L1698.4,584.1l0.3-0.1
		c-2-2.3-3.1-5.3-3.1-8.2c0-2.9,0.9-5.7,2.8-7.9c3.5-4.1,7.9-7.1,13-8.9c5.2-2,10.6-3.2,16.2-3.7c2.2-0.2,4.3-0.3,6.5-0.3
		c14.1-0.1,27.8,5.3,38.1,14.8c1.8,1.5,3.3,3.3,4.8,4.9c5.3,5.8,8.1,13.3,8.1,21.1c0,7.2-2.6,14.1-7.2,19.7
		c-3.2,3.6-6.8,6.8-10.7,9.6c-1.5,1.1-2.8,2-3.7,2.5c-0.4,0.2-0.7,0.4-1.1,0.6c-0.1,0-0.3,0-0.3,0.2l-0.1,0.1l0.2,0.3l-0.1-0.4
		c-5.3,1.3-10.6,2.2-16,2.4h-0.9c-9.5,0-18.1-5.4-22.6-13.7c-5.2-9.9-17.2-24.7-24.1-32.9L1698.4,584.1z"/>
	<path class="st4" d="M1582.3,671.8l0.4-0.1c-1.4-4.9-2.2-10.1-2.2-15.4c-0.1-3.6,0.4-7.1,1.4-10.6c0.3-0.8,0.8-1.5,1.4-2.2
		c0.6-0.7,1.2-1.4,1.9-2.3c3.6-5.2,9.1-8.8,15.2-9.8l0,0c0.5,0,1,0,1.6,0c3-0.3,9.6-0.7,15.2-0.7c1.9,0,3.6,0.1,5,0.2
		c1,0,2.1,0.2,3.1,0.6h0.2c0.7,0.1,6.8,1.3,12.5,8c4.4,5.3,6.8,11.8,6.8,18.6c0,8.3-3.4,16.4-9.5,22.3c-0.6,0.6-1.3,1.2-2,1.8
		c-2.2,1.8-4.9,2.8-7.7,2.8c-2.3,0-4.5-0.6-6.5-1.9c-2.1-1.2-4.3-2.6-6.3-3.6c-0.9-0.5-1.8-0.9-2.5-1.2c-0.3-0.1-0.5-0.2-0.8-0.4
		c-0.2-0.1-0.4-0.2-0.6-0.2h-0.2l0.1,0.4v-0.4c0,0-12.5-1.1-19.7-1.3c-3-0.1-5.6-2-6.5-4.7L1582.3,671.8h-0.3c1,3.2,3.9,5.4,7.2,5.5
		c3.6,0,8.6,0.4,12.5,0.7c2,0.1,3.7,0.3,5,0.4c1.3,0.1,2.1,0.2,2.1,0.2h0.2c0.1,0,0.3,0,0.4,0.1c1.3,0.6,2.7,1.2,3.9,2
		c1.8,1,3.7,2.1,5.5,3.2c2.1,1.2,4.4,1.9,6.9,2c3,0,6-1,8.3-2.9c0.7-0.5,1.3-1.1,2-1.9c6.2-6,9.8-14.2,9.8-22.8c0-7-2.5-13.8-7-19.2
		c-6.2-7.4-13-8.3-13.1-8.3v0.4l0.2-0.4c-1-0.4-2.2-0.6-3.3-0.6c-1.5,0-3.2-0.1-5-0.1c-7.5,0-16.9,0.7-16.9,0.7l0,0
		c-6.4,1.2-12.1,4.8-15.8,10.1c-0.5,0.7-1.1,1.4-1.8,2.2c-0.7,0.7-1.2,1.5-1.6,2.5c-1.1,3.5-1.6,7.1-1.6,10.8
		c0,5.3,0.7,10.5,2.3,15.6L1582.3,671.8z"/>
	<path class="st4" d="M1607.7,998.1"/>
	<path class="st4" d="M1608.5,999.8"/>
	<path class="st4" d="M1607.5,999.1"/>
	<path class="st4" d="M1678.5,966.8l-0.1,0.4h0.6c2.3,0.2,4.4,0.3,6.6,0.6c0.5,0.1,1,0.1,1.5,0.1c4-0.2,7.8-2.1,10.3-5.3
		c1.3-1.5,2.5-3.4,3.3-5.3l-0.4-0.2l0.3,0.2c3.2-5.7,4.4-9.8,4.4-12.8c0-1.4-0.3-2.9-1-4.2c-0.9-1.5-2.4-2.6-4.1-3.1
		c-1.4-0.4-3-0.6-4.5-0.6c-0.8,0-1.5,0.1-2.4,0.2h-0.1c-2.5,1.3-5,2.5-7.7,3.4c-5.2,1.9-11.5,3.8-16.7,5.4c-2.6,0.7-4.8,1.4-6.4,1.9
		l-2.6,0.7h-0.1v0.2c-0.6,1.3-0.9,2.9-0.9,4.3c0,3.1,1.3,6,3.8,7.9c3,2.7,8,5,16.4,6.5v-0.7c-8.3-1.4-13.2-3.8-16-6.4
		c-2.2-1.9-3.4-4.5-3.4-7.3c0-0.9,0.1-1.9,0.4-2.8c0-0.3,0.2-0.7,0.2-0.8c0.1-0.1,0.1-0.2,0.1-0.3l0,0l-0.3-0.2v0.4
		c0,0,6.8-1.9,14.5-4.1c3.8-1.1,7.8-2.5,11.2-3.7c2.8-0.9,5.4-2.1,7.9-3.5l-0.2-0.3v0.4h2.3c2-0.1,3.9,0.4,5.7,1.2
		c0.9,0.5,1.6,1.2,2.3,2.1c0.6,1.1,0.9,2.5,0.9,3.7c0,2.9-1.1,6.8-4.2,12.5h-0.1c-0.9,2-2.2,3.8-3.6,5.5c-2.3,2.8-5.7,4.3-9.3,4.4
		c-0.5,0-0.9,0-1.4-0.1c-2.3-0.2-4.4-0.5-6.7-0.6h-0.5V966.8z"/>
	<path class="st4" d="M1604,795.4l-0.3-0.3l-35.9,20.2l0.3,0.3l0.3,0.3c2.4-3.7,4.3-7.5,6.1-11.5c6.6-14.7,13.9-36.2,13.9-36.2
		l-0.4-0.2v0.4h16.8c0.3,0,0.6,0.2,0.6,0.5l0,0c0.7,2.2,2.2,3.9,2.7,5.9c0.7,3.4,1.1,7,1.2,10.5v0.4c0,3.9-2.1,7.5-5.5,9.4
		L1604,795.4l0.3,0.3c3.6-2.1,5.9-6,5.9-10.2v-0.4c-0.1-3.6-0.5-7.1-1.2-10.7c-0.6-2.3-2-4-2.7-5.9l0,0c-0.2-0.6-0.8-1-1.4-1h-17
		v0.2c0,0-0.2,0.6-0.6,1.6c-1.2,3.6-4.5,13.1-8.3,22.6c-2,4.7-3.8,9.6-5.8,13.6c-1.4,3.3-3.2,6.5-5.2,9.6l-1.1,1.5l37.3-21.1
		L1604,795.4z"/>
	<path class="st4" d="M1522.8,802.9l0.2-0.4l-0.5-0.3c-8.6-3.9-16.7-8.6-24.4-13.9c-5.6-3.7-10.6-8-15.1-12.9
		c-4.2-4.7-7.3-9.9-8.1-15.1l0,0c0.1-0.3,0.2-0.6,0.5-0.8c1.4-1.5,6.9-5.5,26.1-11.3l-0.2-0.4l-0.4,0.2l21.6,55H1522.8l0.2-0.4
		L1522.8,802.9l0.4-0.1l-21.8-55.4h-0.3c-13.3,4.1-20,7.2-23.5,9.3c-1.2,0.6-2.3,1.4-3.2,2.5c-0.3,0.3-0.5,0.7-0.6,1.2l0,0
		c0.9,5.9,4.5,11.4,9.3,16.6c14.2,15.4,39.5,26.3,39.6,26.3l0.9,0.4l-0.3-0.9L1522.8,802.9z"/>
	<path class="st4" d="M1546.8,820.4l0.2-0.4l0,0c-0.2,0-3.9-1.5-9.7-11.1c-5.8-9.6-13.9-26.5-22.5-57.5l-0.4,0.1l-0.1,0.4
		c0,0,11.6,3.9,25,8c6.6,2,13.8,4.1,20.1,5.7c4.9,1.3,10,2.4,15.1,3h2v-0.4l-0.4-0.2l-0.9,2.3c-2.2,4.9-7.6,17.5-13.3,28.7
		c-2.6,5-5.4,10-8.4,14.8c-1.1,1.6-2.3,3.2-3.7,4.6c-0.7,0.8-1.6,1.4-2.8,1.5l0,0L1546.8,820.4l0.2-0.4L1546.8,820.4v0.4h0.1
		c0.6,0,1.3-0.3,1.9-0.7c1.5-1.1,2.8-2.5,3.8-4c4.7-6.4,10.9-18.3,15.8-28.7c4.8-10.4,8.4-19.2,8.4-19.2l0.2-0.7h-2.6
		c-5-0.6-10.1-1.5-14.9-2.9c-9.4-2.4-20.6-5.8-29.6-8.6c-4.5-1.4-8.3-2.7-11.1-3.6c-1.4-0.4-2.5-0.8-3.2-1l-1.1-0.4l-0.7-0.3
		l0.3,0.7c8.8,31.4,16.9,48.7,22.9,58.1s9.8,10.9,9.8,10.9h0.2H1546.8z"/>
	<path class="st4" d="M1464.7,1018h-0.4c-0.3,1.5-0.4,3.2-0.4,4.8c0,8.2,3.1,26.3,24.9,48.7l0.3-0.2l-0.3,0.2
		c0.2,0.3,0.4,0.5,0.7,0.7c0.6,0.4,1.4,0.7,2.3,0.7c1.2-0.1,2.5-0.5,3.5-1.2v-0.2c0,0,2.4-6.6,4.6-15.1c2.3-8.6,4.6-19,4.6-26.9
		c0.2-3-0.4-6-1.8-8.8v-0.2l-38.6-2.9v0.3H1464.7v0.5l38,2.9v-0.4l-0.3,0.2c1.2,2.6,1.8,5.4,1.6,8.2c0,7.6-2.4,18.1-4.6,26.7
		c-1.1,4.2-2.4,8-3.2,10.7c-0.4,1.3-0.8,2.4-1.1,3.2s-0.4,1.1-0.4,1.1l0.4,0.2l-0.2-0.3c-0.9,0.7-2,1.1-3.1,1.1
		c-0.6,0-1.2-0.2-1.8-0.5c-0.2-0.2-0.3-0.2-0.4-0.3l-0.2-0.1l0,0c-21.8-22.4-24.7-40.1-24.7-48.2c0-1.1,0-2.4,0.2-3.5
		c0-0.3,0-0.6,0.2-0.9v-0.3L1464.7,1018L1464.7,1018L1464.7,1018z"/>
	<path class="st4" d="M1566.8,1024.4v0.4l41.2,1v-0.4l-0.4,0.1c0,0.1,0,0.3,0,0.4c0.3,1.3,0.5,2.7,0.6,4c0,0.5,0,0.9-0.2,1.4
		c-0.1,0.3-0.2,0.6-0.4,0.9c-0.2,0.2-0.3,0.5-0.5,0.7c-1.6,2.8-6.9,12.7-12.5,21.8c-2.5,4.2-5.2,8.2-8,12.2c-1,1.3-2.2,2.7-3.3,3.8
		c-0.4,0.4-0.8,0.7-1.3,1c-0.3,0.2-0.6,0.3-1,0.3c-0.1,0-0.3,0-0.4-0.1h-0.2c-0.6,0-1.2-0.3-1.8-0.7c-1.5-1.1-3.9-4-6.1-11
		c-2.2-7-4.2-18.1-5.3-35.9h-0.8c1.3,23.7,4.5,35.8,7.6,41.9c0.9,2.2,2.3,4.1,4.1,5.6c0.6,0.5,1.3,0.9,2.2,1l0,0v-0.4l-0.2,0.3
		c0.2,0.2,0.5,0.2,0.8,0.3c0.5,0,1-0.2,1.5-0.5c1.2-0.8,2.3-1.8,3.2-2.9c4.1-4.8,9.4-13.6,14-21.4c2.3-3.9,4.3-7.6,5.8-10.4
		c0.7-1.4,1.4-2.6,2-3.4c0.3-0.4,0.4-0.7,0.6-1c0.1-0.2,0.2-0.4,0.3-0.5c0.4-0.4,0.7-0.8,0.8-1.4c0.1-0.5,0.1-1,0.2-1.5
		c-0.1-1.5-0.3-3.1-0.6-4.6v-0.3l-41.9-1v0.4V1024.4z"/>
	<path class="st0" d="M1513.2,630.8c0,0,0.3-5.8-6.4-11.2c0,0-8.4-4.1-12.4,2.6c-3.9,6.7-0.3,14.1-0.3,14.1s2.2,7.3,9.3,5.9
		C1510.5,640.7,1514,640.8,1513.2,630.8z"/>
	<path class="st4" d="M1512.7,633.1c0,0,0-3.6-5.3-7.3c0,0-6.5-2.9-9.3,1.1c-2.8,4,0.3,9,0.3,9c1.2,2.8,4.1,4.4,7.2,4.1
		C1511.2,639.4,1513.6,639.5,1512.7,633.1z"/>
	<path class="st0" d="M1597.8,661.5c0,0,0.5-5.8,7.8-10.2c0,0,8.9-2.9,12,4.3s-1.6,14.1-1.6,14.1s-3.1,7-10,4.5
		C1599,671.8,1595.6,671.3,1597.8,661.5z"/>
	<path class="st4" d="M1597.9,662.9c0,0,0.7-3.6,6.6-6.2c0,0,6.9-1.5,8.9,3c2,4.5-2.2,8.7-2.2,8.7c-1.8,2.5-4.9,3.5-7.8,2.6
		C1598.2,669.3,1595.6,668.9,1597.9,662.9z"/>
	<path class="st0" d="M1605.1,660.3c0,0.8-0.7,1.5-1.5,1.5c-0.8,0-1.5-0.7-1.5-1.5c0-0.8,0.7-1.5,1.5-1.5l0,0l0,0
		C1604.4,658.8,1605,659.5,1605.1,660.3L1605.1,660.3z"/>
	<path class="st0" d="M1605.7,663c0,0.4-0.3,0.7-0.6,0.7s-0.6-0.2-0.7-0.5l0,0c0-0.1,0-0.1,0-0.2c0-0.3,0.3-0.6,0.6-0.6l0,0
		C1605.4,662.4,1605.7,662.6,1605.7,663z"/>
	<circle class="st0" cx="1508.6" cy="630" r="1.5"/>
	<path class="st0" d="M1507.7,632.5c0,0.3-0.3,0.6-0.6,0.6l0,0c-0.4,0-0.7-0.3-0.7-0.6l0,0c0-0.3,0.4-0.6,0.7-0.5l0,0l0,0
		C1507.3,632,1507.7,632.2,1507.7,632.5L1507.7,632.5z"/>
</g>
<polygon class="st18" points="1301.5,1080 1920,865.6 1920,1080 "/>
<path class="st19" d="M0,823.2c0,0,169.2,38.1,303.7,112.2L201.9,1080H0V823.2z"/>
<polygon class="st20" points="573.5,1080 303.7,935.4 201.9,1080 "/>
</svg>
