<?xml version="1.0" encoding="utf-8"?>
<!-- Generator: Adobe Illustrator 24.0.3, SVG Export Plug-In . SVG Version: 6.00 Build 0)  -->
<svg version="1.1" id="Layer_1" xmlns="http://www.w3.org/2000/svg" xmlns:xlink="http://www.w3.org/1999/xlink" x="0px" y="0px"
	 viewBox="0 0 723.9 216" style="enable-background:new 0 0 723.9 216;" xml:space="preserve">
<style type="text/css">
	.st0{fill:#006432;}
	.st1{fill:#E61E1E;}
	.st2{fill:#781D1D;}
	.st3{fill:#194B28;}
	.st4{fill:#3C3C3C;}
</style>
<g>
	<g>
		<g>
			<path class="st0" d="M27.2,56.1c30.6,9.2,61.9,8.3,78.7,5.4c15.9-2.7,33.4-7.3,44.4-14.8c0,0,0.1,0,0.1,0c2.1-1.4,4-3,5.5-4.6
				c9.3-9.9,5.5-21.5-2.5-26.2c-8-4.7-20.2-0.8-52,3.9c-25.6,3.8-37.9,3.5-56.7-1.1C33.8,28.2,25,40,19.3,53.5
				C21.9,54.5,24.5,55.4,27.2,56.1C27.2,56.1,27.2,56.1,27.2,56.1z"/>
			<path class="st0" d="M29.1,108.4c20.7,8.6,45.1,14.1,74.1,11.9c22-1.7,44.8-6.4,58.2-11.6c0.1,0,0.1,0,0.2,0
				c4.3-1.7,7.6-3.4,9.6-5c8-6.8,10.5-19.5,2.2-22.3c-8.3-2.9-17.4,0.7-42.1,4.2c-25.8,3.7-74.1,0.4-101.6-12.1
				c-5-2.3-9.9-4.9-14.5-7.7c-2.1,7.8-3.2,16-3.2,24.5c0,3.4,0.2,6.8,0.6,10.2C17.7,103.3,23.2,106,29.1,108.4
				C29.1,108.4,29.1,108.4,29.1,108.4z"/>
			<path class="st0" d="M64.1,165.4C64.1,165.4,64.1,165.4,64.1,165.4c27.3,6.5,49,0.9,65.2-2.7c5.4-1.2,10.7-3.1,15.5-5.5
				c0,0,0.1,0,0.1,0c9-4.4,16.3-10.1,19.3-14.5c0,0,0,0,0,0c0.7-1,1.2-2,1.4-2.8c0.4-1.7,0.7-3.1,0.7-4.4c0-3.7-2.5-5.3-10.3-4.4
				c-10.5,1.2-39,13.8-76.4,10.3C52.5,138.9,31,126.8,16,118c4.4,14.3,12.1,27.1,22.2,37.5c5.6,3,11.6,5.7,18.1,7.7
				C59,164.1,61.6,164.8,64.1,165.4z"/>
			<path class="st1" d="M150.4,46.7c-11,7.5-28.5,12.1-44.5,14.9c-16.8,2.9-48.1,3.8-78.7-5.4c-1.1,4.9,0.2,10.5,5.1,15.8
				c1.6,1.7,3.6,3.3,5.8,4.8c28.1,9.7,69.8,12.1,93.1,8.7c24.7-3.5,33.8-7.1,42.1-4.2c0.2,0.1,0.3,0.1,0.5,0.2
				c9.9-4,17.7-7.5,24.4-10.9c-2.7-12.8-8.1-24.7-15.5-35c-6.7,3.1-13.3,5.7-19.4,7.5C158.6,44.4,154.3,45.7,150.4,46.7z"/>
			<path class="st1" d="M105.9,61.6c16-2.7,33.5-7.4,44.5-14.9c0,0-0.1,0-0.1,0C139.3,54.2,121.8,58.8,105.9,61.6
				c-16.8,2.8-48.1,3.8-78.7-5.5c0,0,0,0,0,0C57.8,65.4,89.1,64.5,105.9,61.6z"/>
			<path class="st1" d="M178.6,104c-5.1,1.9-10.9,3.4-17,4.7c-13.3,5.2-36.2,9.9-58.4,11.6c-29,2.3-53.5-3.3-74.1-11.9
				c-0.7,4.9,0.9,9.7,6,13.6c5.5,4.1,23.6,14.4,44.3,19.3c0,0,0,0,0.1,0c37.5,3.4,66-9.1,76.4-10.3c7.9-0.9,10.3,0.7,10.3,4.5
				c0,1.2-0.3,2.7-0.7,4.4c-0.2,0.8-0.7,1.8-1.4,2.8c9-2.3,17.4-5.3,25.2-8.6c6.4-12.1,10.2-25.7,10.7-40.2
				C193.4,97.6,186.2,101.1,178.6,104z"/>
			<path class="st1" d="M103.2,120.3c-29,2.3-53.5-3.3-74.1-11.9c0,0,0,0,0,0C49.7,117.1,74.2,122.6,103.2,120.3
				c22.1-1.7,45-6.5,58.4-11.6c-0.1,0-0.1,0-0.2,0C148,113.8,125.2,118.6,103.2,120.3z"/>
			<path class="st1" d="M164.1,142.7C164.2,142.7,164.2,142.7,164.1,142.7c0.7-1,1.2-1.9,1.4-2.8c0.4-1.7,0.7-3.2,0.7-4.4
				c0,1.2-0.3,2.7-0.7,4.4C165.3,140.7,164.8,141.6,164.1,142.7z"/>
			<path class="st1" d="M144.9,157.2c-4.8,2.4-10.1,4.3-15.6,5.5c-16.1,3.6-37.8,9.2-65.2,2.7c6.8,6,18.9,12.3,32.2,15
				c5.9,1.2,12.7,2.6,20.1,3.4c27.8-3.1,52-18.2,67.1-40.1c-11.9,6.2-25,11.7-38.2,13.4C145.2,157.1,145,157.2,144.9,157.2z"/>
			<path class="st1" d="M129.3,162.7c-16.1,3.6-37.8,9.2-65.2,2.7c0,0,0,0,0,0C91.5,171.9,113.2,166.3,129.3,162.7
				c5.4-1.2,10.7-3.1,15.6-5.5c0,0-0.1,0-0.1,0C140,159.5,134.7,161.5,129.3,162.7z"/>
		</g>
		<path class="st2" d="M105.9,61.6c15.9-2.7,33.4-7.3,44.4-14.8c-22.9,6.2-34.9,7.1-63.5,2.8c-31.8-4.7-44-8.6-52-3.9
			c-3.8,2.2-6.6,6-7.6,10.4C57.8,65.3,89.1,64.4,105.9,61.6z"/>
		<path class="st3" d="M173.1,81.7c0.2-0.1,0.4-0.2,0.7-0.3c-0.2-0.1-0.3-0.2-0.5-0.2c-8.3-2.9-17.4,0.7-42.1,4.2
			c-23.3,3.3-65,1-93.1-8.7c11,7.4,28.4,11.9,44.2,14.7C101.4,94.6,138.9,95.4,173.1,81.7z"/>
		<path class="st2" d="M103.2,120.3c22-1.7,44.8-6.4,58.2-11.6c-28,5.6-64.1,4.7-85,0.2c-24.3-5.2-33.2-9.4-41.7-7.1
			c-3.3,0.9-5.1,3.4-5.6,6.6C49.7,117,74.2,122.5,103.2,120.3z"/>
		<path class="st3" d="M155.9,131c-10.5,1.2-39,13.8-76.4,10.3c0,0-0.1,0-0.1,0c7.3,1.7,14.9,3.2,22.5,4.3c23.3,3.5,44,1.6,62.3-3
			c0.7-1,1.2-2,1.4-2.8C167.3,133.1,166.4,129.8,155.9,131z"/>
		<path class="st2" d="M68.5,149.8c-10.5-0.8-11.3,2.6-9.3,9.2c0.5,1.8,2.3,4.1,4.9,6.4c27.4,6.5,49.1,0.9,65.2-2.7
			c5.4-1.2,10.7-3.1,15.5-5.5C107.7,161.9,79,150.6,68.5,149.8z"/>
	</g>
	<g>
		<g>
			<path class="st4" d="M254.1,162h9.1c2.6,0,4.8,0.4,6.6,1.3c1.8,0.9,3.3,2.1,4.4,3.6c1.2,1.5,2,3.2,2.5,5.2c0.5,1.9,0.8,4,0.8,6.1
				c0,2-0.3,4-0.8,5.9c-0.5,1.9-1.3,3.6-2.5,5.1c-1.1,1.5-2.6,2.7-4.4,3.6c-1.8,0.9-4.1,1.4-6.7,1.4h-9V162z M256.8,191.7h5.8
				c2.3,0,4.3-0.4,5.8-1.2c1.5-0.8,2.8-1.8,3.7-3.1c0.9-1.3,1.5-2.7,1.9-4.4c0.4-1.7,0.6-3.3,0.6-5.1c0-1.7-0.2-3.4-0.5-5.1
				c-0.4-1.7-1-3.1-1.9-4.4c-0.9-1.3-2.1-2.3-3.6-3.1c-1.5-0.8-3.4-1.2-5.7-1.2h-5.9V191.7z"/>
			<path class="st4" d="M286.2,163.4c-0.5,0-1-0.2-1.3-0.6c-0.4-0.4-0.6-0.9-0.6-1.4c0-0.6,0.2-1.1,0.6-1.5c0.4-0.4,0.8-0.6,1.3-0.6
				c0.5,0,1,0.2,1.4,0.6c0.4,0.4,0.6,0.9,0.6,1.5c0,0.6-0.2,1.1-0.6,1.4C287.2,163.2,286.8,163.4,286.2,163.4z M284.9,169h2.7v25.1
				h-2.7V169z"/>
			<path class="st4" d="M296.2,169h2.7v2.6c0.8-0.9,1.7-1.7,2.7-2.2c1-0.5,2.2-0.8,3.5-0.8c0.4,0,0.7,0,1.1,0.1
				c0.4,0.1,0.8,0.2,1.1,0.3v2.5c-0.3-0.1-0.7-0.2-1.1-0.3c-0.4-0.1-0.9-0.1-1.4-0.1c-1.5,0-2.7,0.3-3.6,0.9
				c-0.9,0.6-1.7,1.2-2.3,1.9v20.2h-2.7V169z"/>
			<path class="st4" d="M321.1,194.5c-1.9,0-3.6-0.3-5.1-0.9c-1.4-0.6-2.7-1.5-3.6-2.6c-1-1.1-1.7-2.5-2.2-4
				c-0.5-1.6-0.7-3.3-0.7-5.3c0-2,0.3-3.7,0.8-5.3c0.5-1.6,1.2-3,2.1-4.1c0.9-1.1,2.1-2,3.4-2.7c1.3-0.6,2.8-1,4.5-1
				c1.6,0,3,0.3,4.2,1c1.1,0.6,2.1,1.5,2.8,2.5c0.7,1,1.2,2.1,1.6,3.4c0.3,1.3,0.5,2.5,0.5,3.7v0.8c0,0.3,0,0.6-0.1,0.9h-17v0.6
				c0,1.5,0.2,2.9,0.5,4.2c0.3,1.3,0.9,2.4,1.6,3.4c0.7,1,1.6,1.7,2.8,2.3c1.1,0.5,2.4,0.8,4,0.8c1.4,0,2.7-0.1,3.8-0.4
				c1.1-0.3,2.1-0.7,3-1.1v2.4c-0.6,0.3-1.6,0.6-2.8,1C323.9,194.4,322.5,194.5,321.1,194.5z M320.3,170.9c-0.8,0-1.6,0.1-2.5,0.3
				c-0.8,0.2-1.6,0.6-2.3,1.2c-0.7,0.6-1.4,1.4-1.9,2.5c-0.5,1-0.9,2.3-1.1,3.9h14.1v-0.3c0-1-0.1-2-0.4-2.9
				c-0.3-0.9-0.7-1.7-1.2-2.5c-0.5-0.7-1.2-1.3-2-1.7C322.2,171.1,321.3,170.9,320.3,170.9z"/>
			<path class="st4" d="M341.4,204.3c-0.5,0-1,0-1.5-0.1c-0.6-0.1-1-0.2-1.2-0.3v-1.8c0.2,0.1,0.6,0.2,1.1,0.3
				c0.5,0.1,1,0.2,1.6,0.2c0.8,0,1.5-0.2,2.1-0.5c0.6-0.3,0.9-0.9,0.9-1.7c0-0.9-0.4-1.5-1.1-1.8c-0.7-0.3-1.6-0.4-2.6-0.4l1.5-3.9
				c-2.7-0.5-4.8-1.8-6.4-3.9c-1.6-2.1-2.3-4.9-2.3-8.3c0-1.8,0.2-3.6,0.6-5.2c0.4-1.6,1.1-3.1,2-4.3c0.9-1.2,2-2.2,3.4-2.9
				c1.3-0.7,2.9-1.1,4.8-1.1c1.4,0,2.7,0.1,3.7,0.4c1,0.3,1.8,0.6,2.4,0.9v2.3c-0.7-0.4-1.5-0.7-2.5-1c-1-0.3-2.1-0.4-3.4-0.4
				c-1.4,0-2.7,0.3-3.7,0.8c-1,0.5-1.9,1.3-2.6,2.3c-0.7,1-1.2,2.2-1.5,3.5c-0.3,1.4-0.5,2.9-0.5,4.6c0,3.4,0.8,5.9,2.4,7.6
				c1.6,1.7,3.7,2.5,6.3,2.5c1.4,0,2.6-0.1,3.6-0.4c0.9-0.3,1.7-0.6,2.4-1v2.3c-0.7,0.4-1.6,0.7-2.6,1c-1,0.3-2.2,0.4-3.7,0.4H344
				l-0.9,2.4c1.2,0.2,2,0.6,2.6,1.2c0.5,0.7,0.8,1.4,0.8,2.2c0,1.3-0.5,2.2-1.4,2.9C344.2,204,342.9,204.3,341.4,204.3z"/>
			<path class="st4" d="M361.9,194.5c-2.4,0-4.3-0.6-5.7-1.9c-1.3-1.3-2-2.9-2-4.9c0-2.4,0.9-4.3,2.8-5.6c1.9-1.3,4.6-2,8.1-2
				c0.4,0,0.9,0,1.5,0c0.6,0,1.1,0,1.5,0.1v-3.6c0-2-0.5-3.5-1.4-4.3c-0.9-0.8-2.4-1.3-4.5-1.3c-1.2,0-2.4,0.2-3.4,0.5
				c-1,0.3-1.9,0.7-2.6,1.1v-2.4c0.8-0.4,1.7-0.7,2.9-1c1.1-0.3,2.3-0.4,3.6-0.4c1.1,0,2.2,0.1,3.2,0.4c1,0.2,1.8,0.6,2.6,1.2
				c0.7,0.6,1.3,1.3,1.8,2.2c0.4,0.9,0.7,2,0.7,3.4v14c0,0.9,0.2,1.5,0.6,1.9c0.4,0.4,0.9,0.6,1.6,0.6c0.2,0,0.3,0,0.5,0
				c0.2,0,0.3,0,0.5-0.1v2.1c-0.3,0.1-0.6,0.1-0.9,0.2c-0.3,0.1-0.7,0.1-1.1,0.1c-0.9,0-1.6-0.2-2.3-0.7c-0.6-0.5-1.1-1.1-1.3-2
				c-0.6,0.7-1.5,1.4-2.8,1.9C364.5,194.3,363.2,194.5,361.9,194.5z M356.5,163.3c0.5-0.7,1.1-1.3,1.9-1.8c0.8-0.5,1.7-0.8,2.8-0.8
				c0.5,0,1,0.1,1.5,0.2c0.4,0.2,0.8,0.3,1.2,0.5c0.4,0.2,0.7,0.3,1.1,0.5c0.3,0.2,0.7,0.2,1.1,0.2c0.7,0,1.3-0.2,1.8-0.7
				c0.5-0.5,0.8-0.8,1.1-1.1l1.5,1.3c-0.5,0.6-1.1,1.2-1.9,1.8c-0.8,0.6-1.8,0.8-2.9,0.8c-0.5,0-1-0.1-1.4-0.2
				c-0.4-0.2-0.8-0.3-1.1-0.5c-0.4-0.2-0.7-0.3-1.1-0.5c-0.4-0.2-0.8-0.2-1.2-0.2c-0.7,0-1.3,0.2-1.8,0.6c-0.5,0.4-0.8,0.8-1.1,1.1
				L356.5,163.3z M362.4,192.3c1.2,0,2.3-0.2,3.4-0.7c1-0.5,1.8-1,2.4-1.6v-7.8c-0.3,0-0.8-0.1-1.4-0.1c-0.6,0-1.1,0-1.4,0
				c-2.7,0-4.7,0.5-6.2,1.4c-1.5,0.9-2.2,2.2-2.2,4c0,1.5,0.5,2.7,1.5,3.5C359.4,191.8,360.7,192.3,362.4,192.3z"/>
			<path class="st4" d="M387.6,194.5c-1.8,0-3.4-0.3-4.7-1c-1.3-0.7-2.4-1.6-3.3-2.7c-0.9-1.2-1.5-2.5-1.9-4.1
				c-0.4-1.6-0.6-3.3-0.6-5.1c0-1.7,0.2-3.3,0.6-4.9c0.4-1.6,1.1-3,1.9-4.2c0.8-1.2,1.9-2.2,3.3-2.9c1.3-0.7,2.9-1.1,4.8-1.1
				c1.9,0,3.4,0.3,4.8,1c1.3,0.7,2.4,1.6,3.2,2.8c0.9,1.2,1.5,2.5,1.9,4.1c0.4,1.6,0.6,3.3,0.6,5.1c0,1.7-0.2,3.3-0.6,4.8
				c-0.4,1.6-1,2.9-1.9,4.1c-0.9,1.2-2,2.1-3.3,2.9C391,194.2,389.5,194.5,387.6,194.5z M387.7,192.3c1.6,0,2.9-0.3,3.9-1
				c1-0.7,1.8-1.5,2.4-2.6c0.6-1,1-2.2,1.2-3.5c0.2-1.3,0.3-2.5,0.3-3.6c0-1.2-0.1-2.4-0.3-3.7c-0.2-1.3-0.6-2.4-1.2-3.5
				c-0.6-1-1.4-1.9-2.4-2.6c-1-0.7-2.3-1-3.9-1c-1.6,0-2.9,0.3-3.9,1c-1,0.7-1.8,1.5-2.4,2.6c-0.6,1-1,2.2-1.2,3.5
				c-0.2,1.3-0.3,2.5-0.3,3.7c0,1.2,0.1,2.4,0.3,3.7c0.2,1.3,0.6,2.4,1.2,3.4c0.6,1,1.4,1.9,2.4,2.5
				C384.8,192,386.1,192.3,387.7,192.3z"/>
			<path class="st4" d="M403.7,178.1h9.8v2.3h-9.8V178.1z"/>
			<path class="st4" d="M434.5,194.5c-2.2,0-4.2-0.3-6-1c-1.8-0.7-3.4-1.7-4.7-3c-1.3-1.3-2.3-3-3-5c-0.7-2-1.1-4.3-1.1-7
				c0-2.4,0.3-4.6,0.9-6.7c0.6-2.1,1.6-3.9,2.8-5.4c1.3-1.5,2.8-2.7,4.7-3.6c1.9-0.9,4.1-1.3,6.6-1.3c1.8,0,3.2,0.2,4.4,0.5
				c1.1,0.3,2,0.6,2.7,1v2.5c-0.9-0.5-1.9-0.8-3.1-1.1c-1.2-0.3-2.4-0.4-3.8-0.4c-2.1,0-4,0.4-5.5,1.1c-1.6,0.7-2.8,1.8-3.8,3
				c-1,1.3-1.7,2.8-2.2,4.6c-0.5,1.8-0.7,3.7-0.7,5.8c0,4.5,1.1,7.9,3.3,10.2c2.2,2.3,5.1,3.5,8.9,3.5c1.3,0,2.5-0.1,3.5-0.3
				c1-0.2,1.8-0.4,2.5-0.7v-10.5h-6v-2.3h8.7v14.4c-0.9,0.4-2,0.8-3.4,1.1C438.5,194.3,436.7,194.5,434.5,194.5z"/>
			<path class="st4" d="M461.1,194.5c-1.9,0-3.6-0.3-5-0.9c-1.5-0.6-2.7-1.5-3.6-2.6c-1-1.1-1.7-2.5-2.2-4c-0.5-1.6-0.7-3.3-0.7-5.3
				c0-2,0.2-3.7,0.8-5.3c0.5-1.6,1.2-3,2.1-4.1c0.9-1.1,2.1-2,3.4-2.7c1.3-0.6,2.8-1,4.5-1c1.6,0,3,0.3,4.2,1
				c1.1,0.6,2.1,1.5,2.8,2.5c0.7,1,1.2,2.1,1.5,3.4c0.3,1.3,0.5,2.5,0.5,3.7v0.8c0,0.3,0,0.6-0.1,0.9h-17v0.6c0,1.5,0.2,2.9,0.5,4.2
				c0.3,1.3,0.9,2.4,1.6,3.4c0.7,1,1.7,1.7,2.8,2.3c1.1,0.5,2.5,0.8,4,0.8c1.5,0,2.7-0.1,3.8-0.4c1.1-0.3,2.1-0.7,3-1.1v2.4
				c-0.6,0.3-1.5,0.6-2.8,1C463.9,194.4,462.5,194.5,461.1,194.5z M460.2,170.9c-0.8,0-1.6,0.1-2.4,0.3c-0.9,0.2-1.6,0.6-2.4,1.2
				c-0.7,0.6-1.4,1.4-1.9,2.5c-0.5,1-0.9,2.3-1.1,3.9h14.2v-0.3c0-1-0.1-2-0.4-2.9c-0.3-0.9-0.7-1.7-1.2-2.5c-0.5-0.7-1.2-1.3-2-1.7
				C462.2,171.1,461.3,170.9,460.2,170.9z"/>
			<path class="st4" d="M475.4,169h2.7v2.6c0.8-0.9,1.7-1.7,2.7-2.2c1-0.5,2.2-0.8,3.5-0.8c0.3,0,0.7,0,1.1,0.1
				c0.4,0.1,0.8,0.2,1.1,0.3v2.5c-0.3-0.1-0.7-0.2-1.1-0.3c-0.4-0.1-0.9-0.1-1.4-0.1c-1.5,0-2.7,0.3-3.6,0.9
				c-0.9,0.6-1.7,1.2-2.3,1.9v20.2h-2.7V169z"/>
			<path class="st4" d="M495.8,194.5c-2.4,0-4.3-0.6-5.7-1.9c-1.3-1.3-2-2.9-2-4.9c0-2.4,0.9-4.3,2.8-5.6c1.9-1.3,4.6-2,8.1-2
				c0.4,0,0.9,0,1.5,0c0.6,0,1.1,0,1.5,0.1v-3.6c0-2-0.5-3.5-1.4-4.3c-0.9-0.8-2.4-1.3-4.5-1.3c-1.2,0-2.4,0.2-3.4,0.5
				c-1,0.3-1.9,0.7-2.6,1.1v-2.4c0.8-0.4,1.7-0.7,2.9-1c1.1-0.3,2.3-0.4,3.6-0.4c1.1,0,2.2,0.1,3.2,0.4c1,0.2,1.8,0.6,2.6,1.2
				c0.7,0.6,1.3,1.3,1.8,2.2c0.4,0.9,0.7,2,0.7,3.4v14c0,0.9,0.2,1.5,0.6,1.9c0.4,0.4,0.9,0.6,1.6,0.6c0.2,0,0.3,0,0.5,0
				c0.2,0,0.3,0,0.5-0.1v2.1c-0.3,0.1-0.6,0.1-0.9,0.2c-0.3,0.1-0.7,0.1-1.1,0.1c-0.9,0-1.6-0.2-2.3-0.7c-0.6-0.5-1.1-1.1-1.3-2
				c-0.6,0.7-1.5,1.4-2.8,1.9C498.4,194.3,497.1,194.5,495.8,194.5z M496.3,192.3c1.2,0,2.3-0.2,3.4-0.7c1-0.5,1.8-1,2.4-1.6v-7.8
				c-0.3,0-0.8-0.1-1.4-0.1c-0.6,0-1.1,0-1.4,0c-2.7,0-4.8,0.5-6.2,1.4c-1.5,0.9-2.2,2.2-2.2,4c0,1.5,0.5,2.7,1.5,3.5
				C493.3,191.8,494.6,192.3,496.3,192.3z"/>
			<path class="st4" d="M513.2,159h2.7v35.1h-2.7V159z"/>
			<path class="st4" d="M544.5,194.5c-3.4,0-5.9-1.1-7.7-3.4c-1.8-2.2-2.7-5.4-2.7-9.5c0-1.8,0.3-3.5,0.8-5.1c0.5-1.6,1.3-3,2.2-4.2
				c1-1.2,2.2-2.1,3.6-2.8c1.4-0.7,3-1,4.8-1c1.2,0,2.3,0.1,3.3,0.4c1,0.3,1.6,0.5,2,0.8V159h2.7v35.1h-2.7v-2
				c-0.4,0.5-1.2,1-2.3,1.6C547.3,194.2,546,194.5,544.5,194.5z M545,192.2c1.2,0,2.3-0.2,3.2-0.6c1-0.4,1.8-0.9,2.5-1.5v-18
				c-0.5-0.3-1.2-0.5-2.1-0.8c-0.9-0.2-1.8-0.4-2.9-0.4c-1.4,0-2.7,0.3-3.8,0.8c-1.1,0.5-2,1.2-2.8,2.2c-0.8,0.9-1.3,2-1.7,3.4
				c-0.4,1.3-0.6,2.8-0.6,4.3c0,1.4,0.1,2.8,0.4,4.1c0.3,1.3,0.7,2.4,1.4,3.4c0.6,1,1.5,1.7,2.5,2.3
				C542.2,191.9,543.5,192.2,545,192.2z"/>
			<path class="st4" d="M567.3,194.5c-2.4,0-4.3-0.6-5.7-1.9c-1.3-1.3-2-2.9-2-4.9c0-2.4,0.9-4.3,2.8-5.6c1.9-1.3,4.6-2,8-2
				c0.4,0,0.9,0,1.5,0c0.6,0,1.1,0,1.6,0.1v-3.6c0-2-0.5-3.5-1.4-4.3c-0.9-0.8-2.4-1.3-4.5-1.3c-1.2,0-2.4,0.2-3.4,0.5
				c-1,0.3-1.9,0.7-2.6,1.1v-2.4c0.8-0.4,1.8-0.7,2.9-1c1.1-0.3,2.3-0.4,3.6-0.4c1.1,0,2.2,0.1,3.2,0.4c1,0.2,1.8,0.6,2.6,1.2
				c0.7,0.6,1.3,1.3,1.8,2.2c0.4,0.9,0.6,2,0.6,3.4v14c0,0.9,0.2,1.5,0.6,1.9c0.4,0.4,0.9,0.6,1.6,0.6c0.2,0,0.3,0,0.5,0
				c0.2,0,0.3,0,0.5-0.1v2.1c-0.3,0.1-0.6,0.1-0.9,0.2c-0.3,0.1-0.7,0.1-1.1,0.1c-0.9,0-1.6-0.2-2.3-0.7c-0.6-0.5-1-1.1-1.3-2
				c-0.6,0.7-1.5,1.4-2.8,1.9C569.9,194.3,568.6,194.5,567.3,194.5z M567.7,192.3c1.2,0,2.3-0.2,3.3-0.7c1-0.5,1.8-1,2.4-1.6v-7.8
				c-0.3,0-0.8-0.1-1.4-0.1c-0.6,0-1.1,0-1.4,0c-2.7,0-4.7,0.5-6.2,1.4c-1.4,0.9-2.2,2.2-2.2,4c0,1.5,0.5,2.7,1.4,3.5
				C564.8,191.8,566.1,192.3,567.7,192.3z"/>
			<path class="st4" d="M603.3,194.5c-1.7,0-3.2-0.2-4.7-0.5c-1.5-0.3-2.7-0.7-3.6-1v-2.5c0.4,0.2,1,0.4,1.6,0.6
				c0.6,0.2,1.3,0.4,2,0.5c0.7,0.2,1.4,0.3,2.2,0.4c0.7,0.1,1.5,0.1,2.1,0.1c1,0,2-0.1,2.9-0.4c0.9-0.2,1.7-0.6,2.3-1.1
				c0.7-0.5,1.2-1.2,1.6-1.9c0.4-0.8,0.6-1.7,0.6-2.8c0-1-0.2-1.9-0.5-2.6c-0.3-0.7-0.8-1.4-1.5-1.9c-0.7-0.6-1.5-1.1-2.5-1.7
				c-1-0.5-2.1-1.1-3.4-1.6c-0.9-0.4-1.7-0.8-2.6-1.3c-0.8-0.5-1.6-1-2.2-1.7c-0.7-0.7-1.2-1.4-1.6-2.3c-0.4-0.9-0.6-2-0.6-3.3
				c0-2.6,0.9-4.6,2.6-5.9c1.7-1.4,4-2,6.8-2c1.5,0,3,0.2,4.3,0.5c1.3,0.3,2.3,0.6,2.9,0.9v2.5c-0.7-0.4-1.7-0.7-3-1
				c-1.3-0.3-2.6-0.5-4-0.5c-2.1,0-3.8,0.5-5,1.5c-1.2,1-1.8,2.3-1.8,4.1c0,0.9,0.1,1.7,0.4,2.3c0.3,0.6,0.7,1.2,1.3,1.6
				c0.5,0.5,1.2,0.9,2.1,1.4c0.8,0.4,1.8,0.9,2.9,1.4c0.9,0.4,1.9,0.9,2.9,1.4c1,0.5,1.9,1.1,2.7,1.9c0.8,0.7,1.5,1.6,2,2.6
				c0.5,1,0.8,2.3,0.8,3.8c0,1.3-0.2,2.4-0.7,3.5c-0.5,1.1-1.1,2-2,2.8c-0.9,0.8-1.9,1.4-3.1,1.8
				C606.1,194.3,604.8,194.5,603.3,194.5z"/>
			<path class="st4" d="M625.5,194.5c-2.4,0-4.3-0.6-5.7-1.9c-1.3-1.3-2-2.9-2-4.9c0-2.4,0.9-4.3,2.8-5.6c1.9-1.3,4.6-2,8-2
				c0.4,0,0.9,0,1.5,0c0.6,0,1.1,0,1.6,0.1v-3.6c0-2-0.5-3.5-1.4-4.3c-0.9-0.8-2.4-1.3-4.5-1.3c-1.2,0-2.4,0.2-3.4,0.5
				c-1,0.3-1.9,0.7-2.6,1.1v-2.4c0.8-0.4,1.8-0.7,2.9-1c1.1-0.3,2.3-0.4,3.6-0.4c1.1,0,2.2,0.1,3.2,0.4c1,0.2,1.8,0.6,2.6,1.2
				c0.7,0.6,1.3,1.3,1.8,2.2c0.4,0.9,0.6,2,0.6,3.4v14c0,0.9,0.2,1.5,0.6,1.9c0.4,0.4,0.9,0.6,1.6,0.6c0.2,0,0.3,0,0.5,0
				c0.2,0,0.3,0,0.5-0.1v2.1c-0.3,0.1-0.6,0.1-0.9,0.2c-0.3,0.1-0.7,0.1-1.1,0.1c-0.9,0-1.7-0.2-2.3-0.7c-0.6-0.5-1-1.1-1.3-2
				c-0.6,0.7-1.5,1.4-2.8,1.9C628,194.3,626.8,194.5,625.5,194.5z M625.9,192.3c1.2,0,2.3-0.2,3.3-0.7c1-0.5,1.8-1,2.4-1.6v-7.8
				c-0.3,0-0.8-0.1-1.4-0.1c-0.6,0-1.1,0-1.4,0c-2.7,0-4.7,0.5-6.2,1.4c-1.4,0.9-2.2,2.2-2.2,4c0,1.5,0.5,2.7,1.4,3.5
				C623,191.8,624.3,192.3,625.9,192.3z"/>
			<path class="st4" d="M650.6,194.5c-1.5,0-2.8-0.2-3.8-0.7c-1-0.5-1.9-1.1-2.5-1.9c-0.6-0.8-1.1-1.8-1.3-2.8
				c-0.3-1.1-0.4-2.3-0.4-3.5V169h2.6v16c0,1.1,0.1,2,0.3,2.9c0.2,0.9,0.5,1.6,1,2.3c0.5,0.6,1.1,1.1,1.9,1.5c0.8,0.3,1.8,0.5,3,0.5
				c1.3,0,2.5-0.2,3.6-0.7c1.1-0.4,2-0.9,2.7-1.4V169h2.7v25.1h-2.7v-2c-0.3,0.3-0.6,0.5-1.1,0.8c-0.5,0.3-1,0.5-1.6,0.8
				c-0.6,0.2-1.3,0.4-2,0.6C652.2,194.4,651.4,194.5,650.6,194.5z M655.1,159.3h3.9l-6.3,6.1h-2.5L655.1,159.3z"/>
			<path class="st4" d="M677.1,194.5c-3.4,0-5.9-1.1-7.7-3.4c-1.8-2.2-2.7-5.4-2.7-9.5c0-1.8,0.3-3.5,0.8-5.1c0.5-1.6,1.3-3,2.2-4.2
				c1-1.2,2.2-2.1,3.6-2.8c1.4-0.7,3-1,4.8-1c1.2,0,2.3,0.1,3.2,0.4c1,0.3,1.6,0.5,2,0.8V159h2.7v35.1h-2.7v-2
				c-0.4,0.5-1.2,1-2.3,1.6C679.9,194.2,678.6,194.5,677.1,194.5z M677.6,192.2c1.2,0,2.2-0.2,3.2-0.6c1-0.4,1.8-0.9,2.5-1.5v-18
				c-0.5-0.3-1.2-0.5-2.1-0.8c-0.9-0.2-1.8-0.4-2.9-0.4c-1.5,0-2.7,0.3-3.8,0.8c-1.1,0.5-2,1.2-2.8,2.2c-0.8,0.9-1.3,2-1.7,3.4
				c-0.4,1.3-0.6,2.8-0.6,4.3c0,1.4,0.1,2.8,0.4,4.1c0.3,1.3,0.7,2.4,1.4,3.4c0.7,1,1.5,1.7,2.5,2.3
				C674.8,191.9,676.1,192.2,677.6,192.2z"/>
			<path class="st4" d="M703.9,194.5c-1.9,0-3.6-0.3-5.1-0.9c-1.4-0.6-2.7-1.5-3.6-2.6c-1-1.1-1.7-2.5-2.2-4
				c-0.5-1.6-0.7-3.3-0.7-5.3c0-2,0.3-3.7,0.7-5.3c0.5-1.6,1.2-3,2.1-4.1c0.9-1.1,2.1-2,3.4-2.7c1.3-0.6,2.8-1,4.5-1
				c1.6,0,3,0.3,4.2,1c1.1,0.6,2.1,1.5,2.8,2.5c0.7,1,1.2,2.1,1.6,3.4c0.3,1.3,0.5,2.5,0.5,3.7v0.8c0,0.3,0,0.6-0.1,0.9h-17v0.6
				c0,1.5,0.2,2.9,0.5,4.2c0.4,1.3,0.9,2.4,1.6,3.4c0.7,1,1.6,1.7,2.8,2.3c1.1,0.5,2.4,0.8,4,0.8c1.4,0,2.7-0.1,3.8-0.4
				c1.1-0.3,2.1-0.7,3-1.1v2.4c-0.6,0.3-1.6,0.6-2.8,1C706.6,194.4,705.3,194.5,703.9,194.5z M703,170.9c-0.8,0-1.6,0.1-2.5,0.3
				c-0.8,0.2-1.6,0.6-2.3,1.2c-0.7,0.6-1.4,1.4-1.9,2.5c-0.5,1-0.9,2.3-1.1,3.9h14.1v-0.3c0-1-0.1-2-0.4-2.9
				c-0.3-0.9-0.7-1.7-1.2-2.5c-0.5-0.7-1.2-1.3-2-1.7C705,171.1,704.1,170.9,703,170.9z"/>
		</g>
		<g>
			<g>
				<path class="st4" d="M254,13.4h42.5c43.9,0,59.9,29.4,59.9,60.9c0,29.8-15.5,60.9-60.5,60.9H254V13.4z M293,113.3
					c28.6,0,35.5-17.2,35.5-39c0-21.7-6.5-39.4-34.3-39.4h-13.3v78.3H293z"/>
				<path class="st4" d="M372.9,75.7c0-34.1,18.6-64,62.7-64c15.9,0,26.3,2.7,34.3,6.3v22.9c-9.6-4.5-19.8-7.1-32.9-7.1
					c-23.7,0-35.7,14.9-35.7,41.9c0,26.3,12.5,39.6,34.9,39.6c6.1,0,10-0.8,14.1-2.2V89h-19V68.8h44.9v60.7
					c-10.6,3.7-23.1,7.2-41.3,7.2C394.6,136.8,372.9,111.9,372.9,75.7z"/>
				<path class="st4" d="M497.7,130v-23.3c8.8,4.1,20.2,8.2,31.9,8.2c13.5,0,20.4-4.7,20.4-13.7c0-10.6-9.2-11.8-27.6-19.8
					c-12.5-5.7-24.5-14.5-24.5-34.9c0-23.7,17.8-34.9,42.5-34.9c13.1,0,24.3,3.1,30.6,5.5v22.7c-6.3-2.9-17.4-6.5-28.6-6.5
					c-12.1,0-17.8,4.5-17.8,12.3c0,8.2,6.9,10.8,19.2,15.5c15.9,8,34.3,11.6,34.3,39c0,23.7-18.6,36.6-43.5,36.6
					C519.2,136.8,507.1,134.1,497.7,130z"/>
			</g>
		</g>
		<g>
			<g>
				<g>
					<path class="st4" d="M618.5,62.9c-2.9,0-5.1-1-6.6-2.9c-1.5-1.9-2.3-4.6-2.3-8.1c0-1.5,0.2-3,0.6-4.4c0.5-1.4,1.1-2.5,1.9-3.5
						c0.8-1,1.8-1.8,3-2.4c1.2-0.6,2.6-0.9,4.1-0.9c1,0,2,0.1,2.8,0.4c0.8,0.2,1.4,0.5,1.7,0.7v-9.2h2.3v29.9h-2.3v-1.7
						c-0.3,0.4-1,0.9-1.9,1.3C620.9,62.6,619.8,62.9,618.5,62.9z M618.9,60.8c1,0,1.9-0.2,2.7-0.5c0.8-0.3,1.6-0.8,2.1-1.3V43.8
						c-0.4-0.2-1-0.5-1.7-0.7c-0.7-0.2-1.6-0.3-2.5-0.3c-1.2,0-2.3,0.2-3.2,0.7c-0.9,0.4-1.7,1.1-2.3,1.8c-0.6,0.8-1.1,1.7-1.5,2.9
						c-0.3,1.1-0.5,2.3-0.5,3.7c0,1.2,0.1,2.4,0.3,3.5c0.2,1.1,0.6,2,1.2,2.9c0.6,0.8,1.3,1.5,2.1,2
						C616.5,60.6,617.6,60.8,618.9,60.8z"/>
					<path class="st4" d="M640.5,62.9c-1.6,0-3.1-0.3-4.3-0.8c-1.2-0.5-2.3-1.3-3.1-2.2c-0.8-0.9-1.4-2.1-1.8-3.4
						c-0.4-1.3-0.6-2.8-0.6-4.5c0-1.7,0.2-3.2,0.6-4.5c0.4-1.4,1-2.5,1.8-3.5c0.8-1,1.8-1.7,2.9-2.3c1.1-0.5,2.4-0.8,3.8-0.8
						c1.4,0,2.6,0.3,3.6,0.8c1,0.5,1.8,1.2,2.3,2.1c0.6,0.9,1,1.8,1.3,2.9c0.3,1.1,0.4,2.1,0.4,3.2v0.7c0,0.2,0,0.5,0,0.8h-14.5v0.5
						c0,1.3,0.1,2.4,0.4,3.6c0.3,1.1,0.8,2.1,1.4,2.9c0.6,0.8,1.4,1.5,2.4,1.9c0.9,0.5,2.1,0.7,3.4,0.7c1.2,0,2.3-0.1,3.2-0.4
						c0.9-0.3,1.8-0.6,2.5-0.9v2c-0.5,0.3-1.3,0.5-2.4,0.8C642.8,62.7,641.7,62.9,640.5,62.9z M639.8,42.7c-0.7,0-1.4,0.1-2.1,0.3
						c-0.7,0.2-1.4,0.5-2,1c-0.6,0.5-1.2,1.2-1.6,2.1c-0.5,0.9-0.8,2-1,3.3h12v-0.2c0-0.8-0.1-1.7-0.3-2.5c-0.2-0.8-0.6-1.5-1-2.1
						c-0.5-0.6-1-1.1-1.7-1.4C641.4,42.9,640.6,42.7,639.8,42.7z"/>
					<path class="st4" d="M657.1,62.9c-0.9,0-1.9-0.1-3.1-0.3c-1.2-0.2-2.1-0.5-2.8-0.9v-2c0.6,0.3,1.5,0.6,2.6,0.9
						c1.1,0.3,2.1,0.4,3.1,0.4c1.7,0,3-0.3,3.9-1c0.9-0.7,1.4-1.7,1.4-3.1c0-0.6-0.1-1.2-0.4-1.6c-0.2-0.4-0.6-0.8-1-1.1
						c-0.4-0.3-0.9-0.6-1.5-0.9c-0.6-0.2-1.3-0.5-2-0.8c-0.8-0.3-1.6-0.6-2.3-1c-0.7-0.4-1.3-0.8-1.8-1.2c-0.5-0.5-0.9-1-1.2-1.6
						c-0.3-0.6-0.4-1.3-0.4-2.2c0-1.9,0.6-3.3,1.9-4.2c1.2-0.9,2.9-1.4,4.9-1.4c1.2,0,2.2,0.1,3.1,0.3c0.9,0.2,1.5,0.4,2,0.7v2.1
						c-0.4-0.2-1.1-0.5-2.1-0.7c-1-0.3-1.9-0.4-3-0.4c-1.4,0-2.6,0.3-3.3,0.9c-0.8,0.6-1.2,1.5-1.2,2.7c0,0.6,0.1,1.1,0.4,1.5
						c0.2,0.4,0.5,0.8,0.9,1.1c0.4,0.3,0.9,0.6,1.4,0.8c0.5,0.3,1.1,0.5,1.7,0.7c0.7,0.3,1.5,0.6,2.2,0.9c0.8,0.3,1.4,0.7,2,1.2
						c0.6,0.5,1.1,1,1.4,1.7c0.4,0.7,0.6,1.5,0.6,2.5c0,0.9-0.2,1.8-0.5,2.5c-0.4,0.7-0.8,1.4-1.5,1.9c-0.6,0.5-1.4,0.9-2.3,1.2
						C659.1,62.7,658.1,62.9,657.1,62.9z"/>
					<path class="st4" d="M676.1,62.9c-2.9,0-5.1-1-6.6-2.9c-1.5-1.9-2.3-4.6-2.3-8.1c0-1.5,0.2-3,0.6-4.4c0.5-1.4,1.1-2.5,1.9-3.5
						c0.8-1,1.8-1.8,3-2.4c1.2-0.6,2.6-0.9,4.1-0.9c1,0,1.9,0.1,2.8,0.4c0.8,0.2,1.4,0.5,1.7,0.7v-9.2h2.3v29.9h-2.3v-1.7
						c-0.3,0.4-1,0.9-1.9,1.3C678.6,62.6,677.4,62.9,676.1,62.9z M676.6,60.8c1,0,1.9-0.2,2.7-0.5c0.8-0.3,1.5-0.8,2.1-1.3V43.8
						c-0.4-0.2-1-0.5-1.7-0.7c-0.7-0.2-1.6-0.3-2.5-0.3c-1.2,0-2.3,0.2-3.2,0.7c-0.9,0.4-1.7,1.1-2.3,1.8c-0.7,0.8-1.1,1.7-1.5,2.9
						c-0.3,1.1-0.5,2.3-0.5,3.7c0,1.2,0.1,2.4,0.3,3.5c0.2,1.1,0.6,2,1.2,2.9c0.6,0.8,1.3,1.5,2.1,2
						C674.2,60.6,675.3,60.8,676.6,60.8z"/>
					<path class="st4" d="M698.2,62.9c-1.6,0-3.1-0.3-4.3-0.8c-1.2-0.5-2.2-1.3-3.1-2.2c-0.8-0.9-1.4-2.1-1.8-3.4
						c-0.4-1.3-0.6-2.8-0.6-4.5c0-1.7,0.2-3.2,0.6-4.5c0.4-1.4,1-2.5,1.8-3.5c0.8-1,1.8-1.7,2.9-2.3c1.1-0.5,2.4-0.8,3.8-0.8
						s2.6,0.3,3.6,0.8c1,0.5,1.8,1.2,2.3,2.1c0.6,0.9,1,1.8,1.3,2.9c0.3,1.1,0.4,2.1,0.4,3.2v0.7c0,0.2,0,0.5,0,0.8h-14.4v0.5
						c0,1.3,0.1,2.4,0.4,3.6c0.3,1.1,0.7,2.1,1.4,2.9c0.6,0.8,1.4,1.5,2.3,1.9c1,0.5,2.1,0.7,3.4,0.7c1.2,0,2.3-0.1,3.2-0.4
						c0.9-0.3,1.8-0.6,2.5-0.9v2c-0.5,0.3-1.3,0.5-2.4,0.8C700.5,62.7,699.4,62.9,698.2,62.9z M697.5,42.7c-0.7,0-1.4,0.1-2.1,0.3
						c-0.7,0.2-1.4,0.5-2,1c-0.6,0.5-1.2,1.2-1.6,2.1c-0.5,0.9-0.8,2-1,3.3h12v-0.2c0-0.8-0.1-1.7-0.4-2.5c-0.2-0.8-0.6-1.5-1-2.1
						c-0.4-0.6-1-1.1-1.7-1.4C699.1,42.9,698.4,42.7,697.5,42.7z"/>
				</g>
			</g>
			<g>
				<path class="st4" d="M617.2,85c-1.9,1-5,1.9-7,2.3V84c2.1-0.4,5.8-1.7,7.8-3.1h3.1v32.6h-4V85z"/>
				<path class="st4" d="M630.1,105.3c0-4.5,3.1-7,7.1-8.9c-3.7-2.1-6.4-3.8-6.4-8.2c0-4.4,4.4-7.7,9.5-7.7c6,0,9.7,3.3,9.7,7.5
					c0,4.5-3.1,6.4-6.4,8.1c3.9,2,7.1,3.8,7.1,9c0,5.5-4.8,8.7-10.2,8.7C634.1,113.8,630.1,109.5,630.1,105.3z M646.7,105
					c0-3.1-2.7-4.9-6.7-7.1c-3.1,1.6-5.9,3.5-5.9,7.2c0,3.1,3.2,5.3,6.6,5.3C644.1,110.4,646.7,108.7,646.7,105z M640.9,94.5
					c2.5-1.2,5.4-3,5.4-6.4c0-2.8-2.7-4.5-5.7-4.5c-3.2,0-5.8,1.6-5.8,4.4C634.8,91.5,637.7,92.9,640.9,94.5z"/>
				<path class="st4" d="M658.9,112.9v-3.5c1.2,0.6,3,1.1,5.5,1.1c5.6,0,9.5-3.6,9.9-11.4c-1.7,1.6-4.9,2.7-7.4,2.7
					c-6.1,0-9.9-3.9-9.9-10.3c0-5.7,3.7-11.1,10.4-11.1c7.5,0,11.2,5.9,11.2,15.6c0,12.2-6.2,17.8-13.7,17.8
					C662.2,113.8,660.1,113.4,658.9,112.9z M674.5,96.2c0.1-0.7,0.1-1.3,0.1-2c0-6.2-2.6-10.5-6.9-10.5c-4.3,0-6.6,3.3-6.6,7.7
					c0,4.3,2.1,7.3,6.2,7.3C670.5,98.6,672.8,97.5,674.5,96.2z"/>
				<path class="st4" d="M687,112.9v-3.5c1.3,0.6,3,1.1,5.5,1.1c5.6,0,9.5-3.6,9.9-11.4c-1.7,1.6-4.9,2.7-7.4,2.7
					c-6.1,0-9.9-3.9-9.9-10.3c0-5.7,3.7-11.1,10.4-11.1c7.5,0,11.2,5.9,11.2,15.6c0,12.2-6.2,17.8-13.7,17.8
					C690.3,113.8,688.2,113.4,687,112.9z M702.6,96.2c0.1-0.7,0.1-1.3,0.1-2c0-6.2-2.6-10.5-6.9-10.5c-4.3,0-6.6,3.3-6.6,7.7
					c0,4.3,2.1,7.3,6.2,7.3C698.6,98.6,700.9,97.5,702.6,96.2z"/>
			</g>
		</g>
		<g>
			<rect x="604.9" y="133.6" class="st4" width="106.6" height="1.7"/>
		</g>
		<g>
			<rect x="604.8" y="13.4" class="st4" width="106.6" height="1.7"/>
		</g>
	</g>
</g>
</svg>
