<?xml version="1.0" encoding="utf-8"?>
<!-- Generator: Adobe Illustrator 23.0.1, SVG Export Plug-In . SVG Version: 6.00 Build 0)  -->
<svg version="1.1" id="Camada_1" xmlns="http://www.w3.org/2000/svg" xmlns:xlink="http://www.w3.org/1999/xlink" x="0px" y="0px"
	 viewBox="0 0 1200 243" style="enable-background:new 0 0 1200 243;" xml:space="preserve">
<style type="text/css">
	.st0{fill:#5CA4A9;}
	.st1{fill:#7CBCB8;}
</style>
<path class="st0" d="M1200,12.8v230H0V0h1193.8l0,0l0,0c0.2,0.6,0.4,1.4,0.6,2l0,0c0.2,0.6,0.4,1.4,0.8,2
	C1196.7,7,1198.3,10,1200,12.8z"/>
<path class="st1" d="M1195.2,4c-0.6-1.4-1-2.6-1.5-4H516.3H0l550.4,195.7l5.6-0.2l9.6,43.5l601-38.9l0,0l28.8,23.7l4.6-25.9
	L1195.2,4z"/>
<path class="st1" d="M556,195.5c-76.5,29.1-188.8,47.5-314,47.5c-90.2,0-174-9.6-242.1-25.7V0h190.4L556,195.5z"/>
<path class="st0" d="M1200,214.7V243H470.8l0,0c19.4-17.4,48.5-32.9,85.4-46.3c61.5-22.1,144.4-37.3,237.3-42.1c0.8,0,1.5,0,2.3-0.2
	c2.3-0.2,4.4-0.2,6.7-0.4c2.3-0.2,4.4-0.2,6.7-0.2c2.3,0,4.6-0.2,6.9-0.2c4.8-0.2,9.8-0.2,14.6-0.4c2.3,0,4.4,0,6.7-0.2
	c1.7,0,3.3,0,4.8,0c0.4,0,1,0,1.5,0c0.6,0,1.3,0,1.9,0c3.3,0,6.9,0,10.2,0h0.6c3.5,0,7.1,0,10.6,0c3.8,0,7.3,0,11,0.2
	c3.5,0,7.1,0.2,10.6,0.2c103.7,2.6,196.7,18.2,264.8,41.9h0.2c4.4,1.6,8.8,3.2,13.1,4.8l0,0l0,0l0,0c11,4.2,21.3,8.6,30.6,13.2
	C1198.1,213.7,1199.2,214.1,1200,214.7z"/>
<rect x="856.3" class="st1" width="343.8" height="217.1"/>
<path class="st0" d="M1200,217.1V243H474.8l0,0c18.5-17,46.5-32.1,81.7-45.3c61-22.5,144-38.3,237.1-43.3c0.8,0,1.5,0,2.3-0.2
	c2.3-0.2,4.4-0.2,6.7-0.4c2.3-0.2,4.4-0.2,6.7-0.2c2.3,0,4.6-0.2,6.9-0.2c4.8-0.2,9.8-0.2,14.6-0.4c2.3,0,4.4,0,6.7-0.2
	c1.7,0,3.3,0,4.8,0c0.4,0,1,0,1.5,0c0.6,0,1.3,0,1.9,0c3.3,0,6.9,0,10.2,0h0.6c3.5,0,7.1,0,10.6,0c3.8,0,7.3,0,11,0.2
	c3.5,0,7.1,0.2,10.6,0.2c109.2,3,206.2,20.5,274.4,46.9l0,0c2.7,1,5.4,2.2,8.1,3.2c9.4,3.8,17.9,7.8,26,12
	C1197.9,216.1,1199,216.7,1200,217.1z"/>
</svg>
