<?xml version="1.0" encoding="utf-8"?>
<!-- Generator: Adobe Illustrator 23.0.1, SVG Export Plug-In . SVG Version: 6.00 Build 0)  -->
<svg version="1.1" id="Camada_1" xmlns="http://www.w3.org/2000/svg" xmlns:xlink="http://www.w3.org/1999/xlink" x="0px" y="0px"
	 viewBox="0 0 1200 108.5" style="enable-background:new 0 0 1200 108.5;" xml:space="preserve">
<style type="text/css">
	.st0{fill:#5CA4A9;}
	.st1{fill:#7CBCB8;}
</style>
<path class="st0" d="M1200,5.7v102.7H0V0h1193.8l0,0l0,0c0.2,0.3,0.4,0.6,0.6,0.9l0,0c0.2,0.3,0.4,0.6,0.8,0.9
	C1196.7,3.1,1198.3,4.5,1200,5.7z"/>
<path class="st1" d="M1195.2,1.8c-0.6-0.6-1-1.2-1.5-1.8H516.3H0l550.4,87.4l5.6-0.1l9.6,19.4l601-17.4l0,0l28.8,10.6l4.6-11.6
	L1195.2,1.8z"/>
<path class="st1" d="M556,87.3c-76.5,13-188.8,21.2-314,21.2c-90.2,0-174-4.3-242.1-11.5V0h190.4L556,87.3z"/>
<path class="st0" d="M1200,95.9v12.7H470.8l0,0c19.4-7.8,48.5-14.7,85.4-20.7c61.5-9.9,144.4-16.7,237.3-18.8c0.8,0,1.5,0,2.3-0.1
	c2.3-0.1,4.4-0.1,6.7-0.2c2.3-0.1,4.4-0.1,6.7-0.1c2.3,0,4.6-0.1,6.9-0.1c4.8-0.1,9.8-0.1,14.6-0.2c2.3,0,4.4,0,6.7-0.1
	c1.7,0,3.3,0,4.8,0c0.4,0,1,0,1.5,0c0.6,0,1.3,0,1.9,0c3.3,0,6.9,0,10.2,0h0.6c3.5,0,7.1,0,10.6,0c3.8,0,7.3,0,11,0.1
	c3.5,0,7.1,0.1,10.6,0.1c103.7,1.2,196.7,8.1,264.8,18.7h0.2c4.4,0.7,8.8,1.4,13.1,2.1l0,0l0,0l0,0c11,1.9,21.3,3.8,30.6,5.9
	C1198.1,95.4,1199.2,95.6,1200,95.9z"/>
<rect x="856.3" class="st1" width="343.8" height="96.9"/>
<path class="st0" d="M1200,96.9v11.6H474.8l0,0c18.5-7.6,46.5-14.3,81.7-20.2c61-10.1,144-17.1,237.1-19.3c0.8,0,1.5,0,2.3-0.1
	c2.3-0.1,4.4-0.1,6.7-0.2c2.3-0.1,4.4-0.1,6.7-0.1c2.3,0,4.6-0.1,6.9-0.1c4.8-0.1,9.8-0.1,14.6-0.2c2.3,0,4.4,0,6.7-0.1
	c1.7,0,3.3,0,4.8,0c0.4,0,1,0,1.5,0c0.6,0,1.3,0,1.9,0c3.3,0,6.9,0,10.2,0h0.6c3.5,0,7.1,0,10.6,0c3.8,0,7.3,0,11,0.1
	c3.5,0,7.1,0.1,10.6,0.1c109.2,1.3,206.2,9.2,274.4,20.9l0,0c2.7,0.4,5.4,1,8.1,1.4c9.4,1.7,17.9,3.5,26,5.3
	C1197.9,96.5,1199,96.8,1200,96.9z"/>
</svg>
