<?xml version="1.0" encoding="utf-8"?>
<!-- Generator: Adobe Illustrator 23.0.1, SVG Export Plug-In . SVG Version: 6.00 Build 0)  -->
<svg version="1.1" id="Camada_1" xmlns="http://www.w3.org/2000/svg" xmlns:xlink="http://www.w3.org/1999/xlink" x="0px" y="0px"
	 viewBox="0 0 768 121.8" style="enable-background:new 0 0 768 121.8;" xml:space="preserve">
<style type="text/css">
	.st0{fill:#5CA4A9;}
	.st1{fill:#7CBCB8;}
</style>
<path class="st0" d="M768,6.4v115.3H0V0h764l0,0l0,0c0.1,0.3,0.3,0.7,0.4,1l0,0c0.1,0.3,0.3,0.7,0.5,1C765.9,3.5,766.9,5,768,6.4z"
	/>
<path class="st1" d="M764.9,2c-0.4-0.7-0.7-1.3-0.9-2H330.4H0l352.3,98.1l3.6-0.1l6.1,21.8l384.7-19.5l0,0l18.4,11.9l2.9-13L764.9,2
	z"/>
<path class="st1" d="M355.9,98c-48.9,14.6-120.8,23.8-200.9,23.8C97.2,121.8,43.6,117,0,108.9V0h121.9L355.9,98z"/>
<path class="st0" d="M768,107.6v14.2H301.3l0,0c12.4-8.7,31.1-16.5,54.7-23.2c39.3-11.1,92.4-18.7,151.9-21.1c0.5,0,0.9,0,1.5-0.1
	c1.5-0.1,2.8-0.1,4.3-0.2s2.8-0.1,4.3-0.1s2.9-0.1,4.4-0.1c3.1-0.1,6.3-0.1,9.3-0.2c1.5,0,2.8,0,4.3-0.1c1.1,0,2.1,0,3.1,0
	c0.3,0,0.7,0,0.9,0c0.4,0,0.8,0,1.2,0c2.1,0,4.4,0,6.5,0h0.4c2.3,0,4.5,0,6.8,0c2.4,0,4.7,0,7.1,0.1c2.3,0,4.5,0.1,6.8,0.1
	c66.4,1.3,125.9,9.1,169.5,21h0.1c2.8,0.8,5.6,1.6,8.4,2.4l0,0l0,0l0,0c7.1,2.1,13.6,4.3,19.6,6.6
	C766.8,107.1,767.5,107.3,768,107.6z"/>
<rect x="548" class="st1" width="220" height="108.8"/>
<path class="st0" d="M768,108.8v13H303.9l0,0c11.9-8.5,29.7-16.1,52.3-22.7c39.1-11.3,92.1-19.2,151.7-21.7c0.5,0,0.9,0,1.5-0.1
	c1.5-0.1,2.8-0.1,4.3-0.2s2.8-0.1,4.3-0.1s2.9-0.1,4.4-0.1c3.1-0.1,6.3-0.1,9.3-0.2c1.5,0,2.8,0,4.3-0.1c1.1,0,2.1,0,3.1,0
	c0.3,0,0.7,0,0.9,0c0.4,0,0.8,0,1.2,0c2.1,0,4.4,0,6.5,0h0.4c2.3,0,4.5,0,6.8,0c2.4,0,4.7,0,7.1,0.1c2.3,0,4.5,0.1,6.8,0.1
	c69.9,1.5,132,10.3,175.6,23.5l0,0c1.7,0.5,3.5,1.1,5.2,1.6c6,1.9,11.5,3.9,16.7,6C766.7,108.3,767.3,108.6,768,108.8z"/>
</svg>
