<svg id="Camada_1" data-name="Camada 1" xmlns="http://www.w3.org/2000/svg" viewBox="0 0 273 41">
  <title>ondaoriginalsmartwatch</title>
  <path d="M273,2.15V41H0V0H271.58c.05.1.09.24.14.34h0a1.4,1.4,0,0,0,.19.33A17.61,17.61,0,0,0,273,2.15Z" transform="translate(0 0)" style="fill: #5ca4a9"/>
  <path d="M271.91.67a3.78,3.78,0,0,1-.33-.67H0L125.22,33l1.28,0,2.18,7.33,136.74-6.56h0l6.54,4,1-4.38Z" transform="translate(0 0)" style="fill: #7cbcb8"/>
  <path d="M126.5,33c-17.39,4.91-42.94,8-71.43,8A326.69,326.69,0,0,1,0,36.66V0H43.32Z" transform="translate(0 0)" style="fill: #7cbcb8"/>
  <path d="M273,36.22V41H107.11c4.41-2.93,11-5.56,19.44-7.81,14-3.74,32.84-6.3,54-7.1a2.28,2.28,0,0,0,.52,0l1.52-.06c.52,0,1,0,1.52,0l1.56,0c1.09,0,2.23,0,3.32-.07.52,0,1,0,1.51,0h6.73c.86,0,1.66,0,2.52,0l2.41,0c23.61.44,44.74,3.07,60.24,7.07h.05l3,.81h0q3.76,1.07,7,2.22A5.27,5.27,0,0,1,273,36.22Z" transform="translate(0 0)" style="fill: #5ca4a9"/>
  <rect x="194.8" width="78.2" height="36.62" style="fill: #7cbcb8"/>
  <path d="M273,36.62V41H108c4.21-2.86,10.56-5.42,18.57-7.64,13.89-3.81,32.75-6.47,53.94-7.31a3,3,0,0,0,.52,0c.52,0,1,0,1.52-.07s1,0,1.52,0,1,0,1.56,0c1.09,0,2.23,0,3.32-.06.52,0,1,0,1.51,0h6.73c.86,0,1.66,0,2.52,0l2.41,0c24.84.51,46.93,3.47,62.42,7.91h0c.62.17,1.24.37,1.85.54,2.13.64,4.08,1.31,5.93,2A2.34,2.34,0,0,0,273,36.62Z" transform="translate(0 0)" style="fill: #5ca4a9"/>
</svg>
