<?xml version="1.0" encoding="utf-8"?>
<!-- Generator: Adobe Illustrator 23.0.1, SVG Export Plug-In . SVG Version: 6.00 Build 0)  -->
<svg version="1.1" id="Camada_1" xmlns="http://www.w3.org/2000/svg" xmlns:xlink="http://www.w3.org/1999/xlink" x="0px" y="0px"
	 viewBox="0 0 576 121.8" style="enable-background:new 0 0 576 121.8;" xml:space="preserve">
<style type="text/css">
	.st0{fill:#5CA4A9;}
	.st1{fill:#7CBCB8;}
</style>
<path class="st0" d="M576,6.4v115.3H0V0h573v0h0c0.1,0.3,0.2,0.7,0.3,1v0c0.1,0.3,0.2,0.7,0.4,1C574.4,3.5,575.2,5,576,6.4z"/>
<path class="st1" d="M573.7,2c-0.3-0.7-0.5-1.3-0.7-2H247.8L0,0l264.2,98.1l2.7-0.1l4.6,21.8L560,100.3h0l13.8,11.9l2.2-13L573.7,2z
	"/>
<path class="st1" d="M266.9,98c-36.7,14.6-90.6,23.8-150.7,23.8c-43.3,0-83.5-4.8-116.2-12.9V0h91.4L266.9,98z"/>
<path class="st0" d="M576,107.6v14.2H226l0,0c9.3-8.7,23.3-16.5,41-23.2c29.5-11.1,69.3-18.7,113.9-21.1c0.4,0,0.7,0,1.1-0.1
	c1.1-0.1,2.1-0.1,3.2-0.2c1.1-0.1,2.1-0.1,3.2-0.1c1.1,0,2.2-0.1,3.3-0.1c2.3-0.1,4.7-0.1,7-0.2c1.1,0,2.1,0,3.2-0.1
	c0.8,0,1.6,0,2.3,0c0.2,0,0.5,0,0.7,0c0.3,0,0.6,0,0.9,0c1.6,0,3.3,0,4.9,0h0.3c1.7,0,3.4,0,5.1,0c1.8,0,3.5,0,5.3,0.1
	c1.7,0,3.4,0.1,5.1,0.1c49.8,1.3,94.4,9.1,127.1,21c0,0,0.1,0,0.1,0c2.1,0.8,4.2,1.6,6.3,2.4h0c0,0,0,0,0,0h0
	c5.3,2.1,10.2,4.3,14.7,6.6C575.1,107.1,575.6,107.3,576,107.6z"/>
<rect x="411" y="0" class="st1" width="165" height="108.8"/>
<path class="st0" d="M576,108.8v13H227.9c0,0,0,0,0,0c8.9-8.5,22.3-16.1,39.2-22.7c29.3-11.3,69.1-19.2,113.8-21.7
	c0.4,0,0.7,0,1.1-0.1c1.1-0.1,2.1-0.1,3.2-0.2c1.1-0.1,2.1-0.1,3.2-0.1c1.1,0,2.2-0.1,3.3-0.1c2.3-0.1,4.7-0.1,7-0.2
	c1.1,0,2.1,0,3.2-0.1c0.8,0,1.6,0,2.3,0c0.2,0,0.5,0,0.7,0c0.3,0,0.6,0,0.9,0c1.6,0,3.3,0,4.9,0h0.3c1.7,0,3.4,0,5.1,0
	c1.8,0,3.5,0,5.3,0.1c1.7,0,3.4,0.1,5.1,0.1c52.4,1.5,99,10.3,131.7,23.5h0c1.3,0.5,2.6,1.1,3.9,1.6c4.5,1.9,8.6,3.9,12.5,6
	C575,108.3,575.5,108.6,576,108.8z"/>
</svg>
