<?xml version="1.0" encoding="utf-8"?>
<!-- Generator: Adobe Illustrator 23.0.1, SVG Export Plug-In . SVG Version: 6.00 Build 0)  -->
<svg version="1.1" id="Camada_1" xmlns="http://www.w3.org/2000/svg" xmlns:xlink="http://www.w3.org/1999/xlink" x="0px" y="0px"
	 viewBox="0 0 1200 45" style="enable-background:new 0 0 1200 45;" xml:space="preserve">
<style type="text/css">
	.st0{fill:#5CA4A9;}
	.st1{fill:#7CBCB8;}
</style>
<path class="st0" d="M1200,2.4V45H0V0h1193.8l0,0l0,0c0.2,0.1,0.4,0.3,0.6,0.4l0,0c0.2,0.1,0.4,0.3,0.8,0.4
	C1196.7,1.3,1198.3,1.8,1200,2.4z"/>
<path class="st1" d="M1195.2,0.7c-0.6-0.3-1-0.5-1.5-0.7H516.3H0l550.4,36.2l5.6,0l9.6,8.1l601-7.2l0,0l28.8,4.4l4.6-4.8L1195.2,0.7
	z"/>
<path class="st1" d="M556,36.2c-76.5,5.4-188.8,8.8-314,8.8c-90.2,0-174-1.8-242.1-4.8V0h190.4L556,36.2z"/>
<path class="st0" d="M1200,39.8V45H470.8l0,0c19.4-3.2,48.5-6.1,85.4-8.6c61.5-4.1,144.4-6.9,237.3-7.8c0.8,0,1.5,0,2.3,0
	c2.3,0,4.4,0,6.7-0.1c2.3,0,4.4,0,6.7,0c2.3,0,4.6,0,6.9,0c4.8,0,9.8,0,14.6-0.1c2.3,0,4.4,0,6.7,0c1.7,0,3.3,0,4.8,0
	c0.4,0,1,0,1.5,0c0.6,0,1.3,0,1.9,0c3.3,0,6.9,0,10.2,0h0.6c3.5,0,7.1,0,10.6,0c3.8,0,7.3,0,11,0c3.5,0,7.1,0,10.6,0
	c103.7,0.5,196.7,3.4,264.8,7.8h0.2c4.4,0.3,8.8,0.6,13.1,0.9l0,0l0,0l0,0c11,0.8,21.3,1.6,30.6,2.4
	C1198.1,39.6,1199.2,39.6,1200,39.8z"/>
<rect x="856.3" class="st1" width="343.8" height="40.2"/>
<path class="st0" d="M1200,40.2V45H474.8l0,0c18.5-3.1,46.5-5.9,81.7-8.4c61-4.2,144-7.1,237.1-8c0.8,0,1.5,0,2.3,0
	c2.3,0,4.4,0,6.7-0.1c2.3,0,4.4,0,6.7,0c2.3,0,4.6,0,6.9,0c4.8,0,9.8,0,14.6-0.1c2.3,0,4.4,0,6.7,0c1.7,0,3.3,0,4.8,0
	c0.4,0,1,0,1.5,0c0.6,0,1.3,0,1.9,0c3.3,0,6.9,0,10.2,0h0.6c3.5,0,7.1,0,10.6,0c3.8,0,7.3,0,11,0c3.5,0,7.1,0,10.6,0
	c109.2,0.6,206.2,3.8,274.4,8.7l0,0c2.7,0.2,5.4,0.4,8.1,0.6c9.4,0.7,17.9,1.4,26,2.2C1197.9,40,1199,40.1,1200,40.2z"/>
</svg>
