<svg id="Camada_1" data-name="Camada 1" xmlns="http://www.w3.org/2000/svg" viewBox="0 0 273.15 517.26">
  <title>Pandamia_mobile1</title>
  <g>
    <path d="M80.47,516.69h17" transform="translate(-0.02)" style="fill: #fff"/>
    <path d="M81.79,518" transform="translate(-0.02)" style="fill: #d3d4d4"/>
    <path d="M181.47,446.21" transform="translate(-0.02)" style="fill: #fff"/>
    <path d="M254.53,205.68a21.53,21.53,0,0,0-15.78-9.79,28.55,28.55,0,0,0-13.23,1.72,92,92,0,0,0-10.37,4.17,20.86,20.86,0,0,0-5.31,3.49c-12.35-10.21-28-17-42.83-21.94l-1.92-.62a81.61,81.61,0,0,0-33.34-6.59,39.81,39.81,0,0,0-17.93-2.29,14.85,14.85,0,0,0-4.94-9.32c-.37-.32-.68-.63-1-.94a90.48,90.48,0,0,0-5.63-7.71A25.41,25.41,0,0,0,89.17,148a57.43,57.43,0,0,0-26.77.94c-11.41,3.39-15.84,15.78-10.58,26,2,3.85,5,6.4,8.18,8.9a17.65,17.65,0,0,1,2.08,1.88,16.12,16.12,0,0,0-2.39,5c-.16.68-.31,1.36-.42,2.09a42.28,42.28,0,0,0-8.8,6.27,22,22,0,0,0-6.09,11A32.29,32.29,0,0,0,40,217.2a31.45,31.45,0,0,0-2.39,20.32A12.69,12.69,0,0,0,38,239c.06.21.06.42.11.63.1.46.15,1,.26,1.45a18.85,18.85,0,0,0-1.2,6.26,25.7,25.7,0,0,0,2.14,10.62c3.17,15.42,13.33,29,23.23,41,2.4,2.92,6.62,4.38,10.16,4.9A17.15,17.15,0,0,0,84,301.76l.11-.06a50.7,50.7,0,0,0,10.26,3.7c.94.21,1.82.42,2.76.58a36.08,36.08,0,0,0,27.2,7.45c6.09,1.3,12.34,2.08,18.49,2.81,10.26,1.25,21.36,3,31.31-.78,10.68-4.07,19.95-10.47,28.7-17.72A101.08,101.08,0,0,0,216,284.56a32.61,32.61,0,0,0,8.23-10.83l.32-.47-.06-.14c.66-1.41,1.29-2.81,1.88-4.22a11.39,11.39,0,0,0,.68-4.48,45.26,45.26,0,0,0,4.11-15.3,41.76,41.76,0,0,0-.1-8.44,44.69,44.69,0,0,0,12.76-4.63,28.5,28.5,0,0,0,10.58-9.64c3.85-6,4.06-14.69.15-20.74" transform="translate(-0.02)" style="fill: #fff"/>
    <path d="M97,305.86a4.26,4.26,0,0,0,4.27,3h.31a38.53,38.53,0,0,1-4.38-3H97" transform="translate(-0.02)" style="fill: #a1b4c7"/>
    <path d="M110.65,271.17v-1c.1,0,.26-.11.47-.16a9.88,9.88,0,0,0-.52,1.15M88.71,258.61a4.87,4.87,0,0,1,1.83-.52.36.36,0,0,1-.11.16,4.09,4.09,0,0,0-1.72.36M90,249.13h-.63c-4.63.37-7.55,4.27-10,7.82a31.61,31.61,0,0,0-3.92,7.17A28.33,28.33,0,0,0,74.38,273c-.11,5.68,0,11.62,2.08,17a21,21,0,0,0,10,11.26,103.44,103.44,0,0,0,10.32,4.16l.16.47h.15a38.53,38.53,0,0,0,4.38,3c3.44-.21,4.79-3.54,4-6.2,3.18-13.7,10.68-26.1,16.93-38.6a3,3,0,0,0-1.37-4,2.92,2.92,0,0,0-1.39-.31,3,3,0,0,0-.94.15,7.82,7.82,0,0,0-2.76-2.6c-4.27-2.45-9.32-2.4-14-3.65-4.12-1-7.55-4.48-12-4.48" transform="translate(-0.02)" style="fill: #e4e4e3"/>
    <path d="M44.47,243.77a6,6,0,0,0-4.9,2.23,2,2,0,0,0,.1,2.55A1.74,1.74,0,0,0,41,250.61h.16a2,2,0,0,0,.68-.15,5.13,5.13,0,0,1,1.77-.32c2.24,0,4.38,1.51,6.31,2.71,2.44,1.51,4.94,3.08,7.39,4.64S62,260.44,64.21,262s4.27,2.91,4.64,5.62a1.29,1.29,0,0,0,.36.78c.16,3.44.16,6.88.05,10.32a1.67,1.67,0,0,0,1.56,1.77H71a1.81,1.81,0,0,0,1.88-1.72v0c.1-3.8,0-7.61-.1-11.41,1.35-2.24.57-5.26-1.36-7.08-1.56-1.46-3.54-2-5.36-3a16.72,16.72,0,0,1-5.42-4.54,14.1,14.1,0,0,0-5-4c-2.19-1.09-4.12-2.5-6.26-3.64a11.47,11.47,0,0,0-4.94-1.25" transform="translate(-0.02)" style="fill: #e4e4e3"/>
    <path d="M48.13,267.47a1.92,1.92,0,0,0-.88,3.49c5,3.49,10,7,15,10.42a17.4,17.4,0,0,1,5.94,6c.68,1.25,1.3,2.5,2,3.75.31.58,1,1.72,1.41,2.55a1.6,1.6,0,0,0,.25,2.25h0a1.32,1.32,0,0,0,.32.2l.31.16a2.32,2.32,0,0,0,1,.26,1.22,1.22,0,0,0,.84-.26c2.39-1.77.52-4.06-.52-6.15-1.57-3.07-3-6.46-5.53-8.91s-6.14-4.48-9.17-6.61c-3.33-2.35-6.66-4.64-10-7a3.05,3.05,0,0,0-.94-.21" transform="translate(-0.02)" style="fill: #e4e4e3"/>
    <path d="M79,379.94c-1,1.57-2,3.13-3.08,4.59a33.28,33.28,0,0,1-2,2.86c-.26-.57-.41-1.14-.52-1.4-.52-1.15-1-2.3-1.56-3.49-1-2.4-2-4.85-2.87-7.35-1.14-3.13-6.14-1.77-5,1.41,1.1,3,2.29,6,3.6,9,1,2.24,1.92,6,4.11,7.4,2.5,1.61,4.64-.58,6.1-2.4a82.93,82.93,0,0,0,5.73-8.07c1.72-2.77-2.76-5.42-4.53-2.56" transform="translate(-0.02)" style="fill: #020202"/>
    <path d="M213.8,407.12a24.27,24.27,0,0,0-.32-3.29,32.9,32.9,0,0,0-3.8-10.05c-.83-2.55-1.67-5.1-2.55-7.61a41.05,41.05,0,0,0-4-8.28c-1.72-2.71-3.7-5.21-5-8.13-2.66-5.78-3.39-12.24-5.84-18.12a36.31,36.31,0,0,0-10-14.28c-4.12-3.33-9.54-6-15-5.89a6.65,6.65,0,0,0-5.78,3.49,24.16,24.16,0,0,1-5.1,6.41c-4.74,4.07-10.79,6.2-16.57,8.34-.73.26-1.46.57-2.19.83l.78-3.28a2.91,2.91,0,0,0,2-.63c2.56-2.08,6.36-1.92,9.43-2.6a12.78,12.78,0,0,0,7.14-4c2.19-2.76,2-6.15,1.93-9.48,0-2,0-4-.16-6,0-1.46,0-2.92-1.14-4.07-2-2.13-6.57-1-9.17-1-3.23.11-6.41,0-8.65,2.71-1.82,2.19-2.14,5.21-2.71,7.92a41,41,0,0,0-5.11,12.19,2.64,2.64,0,0,0,.53,2.34c-.37,1.15-.68,2.24-1,3.39a2.39,2.39,0,0,0,1.14,2.81,2.68,2.68,0,0,0,1,1.36c-1.92.83-3.85,1.72-5.68,2.71-2.76.26-5.36,2.29-7.39,4.79a48.82,48.82,0,0,0-3.91,3.28.37.37,0,0,1-.21,0q-4.14-.86-8.13-2c-.41-4.27-3.69-8.34-6.87-11.2a15.26,15.26,0,0,0-1.46-1.2,2.75,2.75,0,0,0,3.51-1.58,2.85,2.85,0,0,0,.14-1.5,27.44,27.44,0,0,1-.52-6.2,11.23,11.23,0,0,0,.1-1.83,2.51,2.51,0,0,0-2.51-2.51h-.25v-2.5A2.55,2.55,0,0,0,98,330c0-1.36,0-2.71-.1-4.06a2.5,2.5,0,0,0-2.09-2.45,41,41,0,0,0-.15-4.27A2.57,2.57,0,0,0,93,316.7a2.34,2.34,0,0,0-.74.12c-.1-.05-.15-.05-.26-.11a1.46,1.46,0,0,0-.1-.46c-.11-.94-.26-1.88-.42-2.87a1.85,1.85,0,0,0-.15-.57v-1.36a2.55,2.55,0,0,0-2.56-2.54h0a2.52,2.52,0,0,0-.67.09h0a2.28,2.28,0,0,0-2.4-1.25,2.39,2.39,0,0,0,.1-1.82C85,303.15,82.56,302,79.75,302a20.45,20.45,0,0,1-3.13-.15c-.31-.11-.67-.21-1-.31-.05,0-.15-.06-.21-.06l-.41-.15a49.63,49.63,0,0,1-4.64-2.66c-3.07-1.82-6.25-3.54-9.22-5.47a28.81,28.81,0,0,1-7.66-7.71c-2.08-2.87-4.06-5.78-6.14-8.7-1.78-2.5-3.44-5.37-5.63-7.55a9.5,9.5,0,0,0-4.53-6.31c-1.15-2.6-2.4-5.21-3.81-7.71a2.61,2.61,0,0,0-3.58-.88,2.58,2.58,0,0,0-1.16,1.51c-.67,3-1.46,5.94-2.39,8.85a8.39,8.39,0,0,0-2.5,6.2h0a23.27,23.27,0,0,0-2.19,6.15,8,8,0,0,0,.73,4.58,2.38,2.38,0,0,0,1.14,2c.32.47.63.89.94,1.31a2.83,2.83,0,0,0,1.62,2c1.14,1.4,2.29,2.81,3.38,4.22.05.36.16.73.21,1A2.51,2.51,0,0,0,31.65,294l.53.68c.41.52.78,1,1.19,1.56.06.21.06.37.11.58A2.34,2.34,0,0,0,35,298.54s.11.15.16.2c.36,1.57.83,3.13,1.3,4.64v.73a2.34,2.34,0,0,0,.94,2c.26.68.52,1.41.78,2.08a3,3,0,0,0,1.56,1.57v1.38a2.54,2.54,0,0,0,2.54,2.54h0a2.55,2.55,0,0,0,1.37-.4A62.21,62.21,0,0,1,46.45,321a2.1,2.1,0,0,0-1,2.19q2.25,21.65,2.92,43.34c.2,7.24.15,14.48.2,21.73a9.58,9.58,0,0,0,1.31,5.15c-5.73,9.75-6.52,22-5.42,33,.78,7.55,1.82,12.5,2.34,19.69a39.48,39.48,0,0,0-.41,10.58c.52,5.52,1.35,12.5,6,16.15,2.81,2.19,6,2.39,9.48,2.76l7.71.78c5,.47,9.9.89,14.9,1.2a561.39,561.39,0,0,0,61.26.68H146a1.47,1.47,0,0,0,1.46-.06h1.67a1.26,1.26,0,0,0,1.51-.05c6.46-.31,13.18-.94,18.81-3.86a8.74,8.74,0,0,0,4.63-.67c4.33-1.83,6.2-6.25,5.26-10.79s-1.77-8.91-2.5-13.39c-.78-4.89-1.14-7.24-1.66-12.08-.94-8.7-1.57-17.4-1.72-26.15a57.58,57.58,0,0,0,5.21-4c.93-.83,1.87-1.71,2.76-2.65.26.15.57.36.83.52a19.6,19.6,0,0,0-.68,2,54.27,54.27,0,0,0-1.56,9.64c-.21,2.86-.52,6.35.57,9.06,2.14,5.26,9.59,5.42,14.28,4.59a32.83,32.83,0,0,0,15.65-7.88c4.95-4.27,4.95-9.58,3.34-15.31M56.88,297a1.19,1.19,0,0,0,.11-.41c.1,0,.21.15.31.21a1.35,1.35,0,0,0-.42.2m14.8,29a3,3,0,0,0-1.46-.52l-1-1.36a2.18,2.18,0,0,0-1.36-.78l-.62-1.87a9.07,9.07,0,0,0-.37-1.15,2.73,2.73,0,0,0,1.72-1.14c.58-.94,1.15-1.93,1.67-2.92A26.68,26.68,0,0,0,72,325.74a1.71,1.71,0,0,1-.26.21m11.72-16.36a5.74,5.74,0,0,0-.21,1,2.94,2.94,0,0,0-1.87.47A2.12,2.12,0,0,0,80,312.73v.47c-.11-.26-.16-.52-.26-.78a3,3,0,0,0-3.86-1.57,10.81,10.81,0,0,0,1.1-3.64c.31.05.62.05.93.1a8.83,8.83,0,0,0,1.26,0,6.17,6.17,0,0,1,1.82,0,2.59,2.59,0,0,0,2.76,1.77c0,.21-.16.36-.21.57m6.88,33.5c-.11-1.3-.26-2.61-.42-4a2.93,2.93,0,0,0,2.08.16h.11v.31a2.43,2.43,0,0,0,1.67,1.72c.1.41.15.78.26,1.2a2.49,2.49,0,0,0,3,1.8,2.6,2.6,0,0,0,.76-.34l.31.15c.11.89.26,1.77.42,2.66a3.66,3.66,0,0,0,.42,1,34.67,34.67,0,0,0-8.7-4.69m32.77,73.4a.53.53,0,0,1-.21.11h0c-.37-.06-.58-.26.36-.32,0,.11,0,.21-.1.21" transform="translate(-0.02)" style="fill: #7ebab5"/>
    <path d="M45.47,433.12v.42h0a1,1,0,0,1,0-.42m.73-104.71-.52,76.32a40.73,40.73,0,0,1,3.79-10.3c-.06-.73-.06-1.52-.06-2.24a11.32,11.32,0,0,1-.67-3.91c0-7.24,0-14.48-.21-21.73-.37-12.71-1.2-25.47-2.4-38.13M15.34,278.88l4.28,5.94,26.2,40.58c0-.73-.16-1.46-.21-2.14a2.18,2.18,0,0,1,1-2.18,55.74,55.74,0,0,0-2.76-7.71,2.55,2.55,0,0,1-1.4.36,2.48,2.48,0,0,1-2.56-2.4h0v-1.56a2.84,2.84,0,0,1-1.56-1.56c-.26-.68-.52-1.36-.78-2.09a2.63,2.63,0,0,1-.94-2v-.73c-.47-1.51-.94-3.07-1.3-4.63-.05,0-.11-.16-.16-.21a2.31,2.31,0,0,1-1.56-1.72,1.15,1.15,0,0,0-.1-.57c-.42-.52-.79-1-1.2-1.57-.16-.2-.37-.46-.52-.67a2.62,2.62,0,0,1-2.09-1.83c-.1-.36-.15-.73-.21-1l-1.25-1.56A24.53,24.53,0,0,1,26,288.12l.16-.21-.16.21-1-.73,1.88.42-.68-.84a2.83,2.83,0,0,1-1.62-2c-.31-.42-.67-.88-.93-1.3a2.51,2.51,0,0,1-1.15-1.93l-2.19-2.5-4.9-.31" transform="translate(-0.02)" style="fill: #6c8c95"/>
    <path d="M45.47,433.55h0l-.26,27.09,2.6,6.25v-1.77a27,27,0,0,1-.73-3.44,1.31,1.31,0,0,1-1.59-1v0a1.1,1.1,0,0,1,0-.57c.37-1.2.68-2.35,1.1-3.55a39.53,39.53,0,0,1,.47-10.36c-.37-4.69-.94-8.44-1.51-12.61" transform="translate(-0.02)" style="fill: #6c8c95"/>
    <path d="M48,460.8a2.26,2.26,0,0,0-.16.26,1.45,1.45,0,0,1-.68.52c.21,1.14.42,2.34.73,3.44,0-1.36,0-2.82.11-4.22m3.33-30.38c0,.32-.1.58-.16.89.06-.1.11-.26.16-.37v-.52m-1.82-36a40.32,40.32,0,0,0-3.86,10.31l-.16,28.39c0,.16.06.26.06.42.57,4.16,1.14,8,1.51,12.66a39.53,39.53,0,0,0-.47,10.36c.36-1.19.78-2.45,1.2-3.64a1.09,1.09,0,0,1-1.21-1v0a.71.71,0,0,1,0-.29c.52-3.81,1-7.61,1.82-11.31,0-2.08-.1-4.17,0-6.25a1.42,1.42,0,0,1-.78-1.46q1.24-9.06,2.5-18.13a1.58,1.58,0,0,1-.68.16,1.07,1.07,0,0,1-1.16-1v0a.57.57,0,0,1,0-.26,92.72,92.72,0,0,1,2.4-13.13,1.4,1.4,0,0,1-.78-1.15c-.16-1.51-.26-3.07-.31-4.68M52.14,349c0,.1,0,.15,0,.26,0-.06,0-.06,0-.11V349M28.28,289.55l1.19,1.57c.05.36.16.73.21,1a2.52,2.52,0,0,0,2.08,1.82l.53.68c.41.52.78,1,1.19,1.56.06.21.06.37.11.58a2.34,2.34,0,0,0,1.56,1.72,1.33,1.33,0,0,0,.16.2c.36,1.57.83,3.13,1.3,4.64v.73a2.34,2.34,0,0,0,.94,2c.26.68.52,1.41.78,2.08a3,3,0,0,0,1.56,1.57v1.42a2.48,2.48,0,0,0,2.45,2.51h.1a2.91,2.91,0,0,0,1.41-.37A62.5,62.5,0,0,1,46.61,321a2.1,2.1,0,0,0-1,2.19c0,.73.16,1.46.21,2.13l.31.53v2.55q1.8,19.07,2.4,38.18c.21,7.25.15,14.49.21,21.73a11.32,11.32,0,0,0,.67,3.91,75.85,75.85,0,0,1,1-13.71c0-.78,0-1.56.06-2.34h-.11A1.21,1.21,0,0,1,49.11,375h0v-.08c0-3.7.11-7.35.31-11a1.36,1.36,0,0,1-.62-1.05,60,60,0,0,1,1.09-16.15,1.07,1.07,0,0,1-.67.21,1.3,1.3,0,0,1-1.37-1.21A1.22,1.22,0,0,1,48,345c2.13-3.38,3-7.29,4.11-11.09v-.11a49.57,49.57,0,0,0-12.66-33L30.72,291c-.94-.47-1.77-.94-2.5-1.4m-5.88-7.92a2.22,2.22,0,0,0,1.14,1.92c.31.47.63.89.94,1.31a2.8,2.8,0,0,0,1.61,2l.68.83L28,288l-5.67-6.35" transform="translate(-0.02)" style="fill: #709691"/>
    <path d="M50.37,471.53c0,.1-.15.26-.21.36a.8.8,0,0,1-.15.21l.41.94v-1.51" transform="translate(-0.02)" style="fill: #6c8c95"/>
    <path d="M50.58,471.12a1.36,1.36,0,0,1-.21.37v1.66l.16-.36a1.12,1.12,0,0,1-.16-.94,1.84,1.84,0,0,0,.16-.73" transform="translate(-0.02)" style="fill: #687573"/>
    <path d="M44.9,429.23v4.27h.52v-.38c-.1-1.2-.31-2.5-.47-3.85M20.05,279l.21-.15h0l-.21.15m-5.73-.68,4.9,6.83L45.68,326l-.57,81.38c.16-.89.37-1.77.52-2.66l.52-76.32c-.1-1-.21-2-.31-3l-26.2-40.58-4.28-5.94,4.8.21,2.19,2.5v-.06a5.06,5.06,0,0,1-.47-1.3l-1.41-1.68h-.11l-6-.27" transform="translate(-0.02)" style="fill: #6c8c95"/>
    <path d="M45.47,433.55H45l-.21,27.19,3.13,7.5v-1.3l-2.6-6.25.2-27.14" transform="translate(-0.02)" style="fill: #6c8c95"/>
    <path d="M52,428.34c-.16.52-.32,1-.47,1.51-.06.21-.11.42-.16.57v.52c.16-.41.36-.83.57-1.25l.06-1.35m-6.31-23.6c-.21.89-.36,1.77-.52,2.66L45,429.23c.16,1.35.32,2.65.53,3.9l.15-28.39m6.67-56.84a7.8,7.8,0,0,1-.21,1.05v.17c.11-.26.26-.52.37-.73l.15-.21V348a.35.35,0,0,1-.31-.06m-6.46-22.55c.1,1,.21,2,.31,3v-2.55l-.31-.47M30.73,291l8.75,9.8a49.62,49.62,0,0,1,12.66,33v.1c.16-.52.32-1.09.52-1.61A50.31,50.31,0,0,0,39.9,300.4L32,291.6c-.46-.21-.88-.42-1.3-.63M21.88,280.2c.15.42.31.84.47,1.3v.06l5.73,6.4.88.21-7.08-8" transform="translate(-0.02)" style="fill: #709691"/>
    <path d="M50,472.12a2.53,2.53,0,0,1-.42.31l.83,2v-1.35l-.41-.94" transform="translate(-0.02)" style="fill: #6c8c95"/>
    <path d="M50.63,472.83l-.15.36-.06-.15v1.35l.06.11.31-.68v-.11a2,2,0,0,1,.16-.57l-.32-.31" transform="translate(-0.02)" style="fill: #687573"/>
    <path d="M78.47,336.12,99,354.61a35.16,35.16,0,0,1,5.88,6.88c.63,1,1.25,2.09,2,3.07a10.31,10.31,0,0,1,1.78,4.75,20.36,20.36,0,0,1,.26,3.49v3l-2.77,35.63s-2.29,21.31-1.56,25.16l.47,21.15,2.45.63,6.67-96" transform="translate(-0.02)" style="fill: #688480"/>
    <path d="M78.35,336.29l20.47,18.49.16.16a32.93,32.93,0,0,1,5.62,6.67c.63,1,1.25,2.08,2,3.07a10.4,10.4,0,0,1,1.72,4.58,18.92,18.92,0,0,1,.26,3.44v3l-2.76,35.64h0S104.1,427,104.1,433.89a16.89,16.89,0,0,0,.16,2.66l.26-.05h-.26l.47,21.36,3,.73,6.72-96.17-.52-.05L107.26,458l-2-.52-.47-21h0a14.5,14.5,0,0,1-.16-2.55c0-3.44.42-9.07.84-13.86.21-2.4.41-4.59.57-6.15l.26-2.55h0l2.76-35.69v-3a20,20,0,0,0-.26-3.54A10.61,10.61,0,0,0,107,364.3a22.52,22.52,0,0,1-1.93-3,33.93,33.93,0,0,0-5.94-6.93L78.64,335.88l-.26.42Z" transform="translate(-0.02)" style="fill: #688480"/>
    <path d="M54.47,467.57c-.26-1.36-2-1.1-2.45-.05l-.16-.21a1.1,1.1,0,0,0-.88-.37,1.31,1.31,0,0,0-2.24,1.36v.05A2.45,2.45,0,0,0,50,471.53a1.88,1.88,0,0,0,.88.1.94.94,0,0,0,.52.16c-.73,1.46,1.51,2.71,2.29,1.25A8,8,0,0,0,54.47,467.57Z" transform="translate(-0.02)" style="fill: #688480"/>
    <path d="M107.78,457.41h0a.75.75,0,0,0-.21-.26l-.62-.78a1.29,1.29,0,0,0-1-.37,1.59,1.59,0,0,0-.94.37,1.19,1.19,0,0,0-.36.93.7.7,0,0,0,0,.32,1.22,1.22,0,0,0,.16.62A3.23,3.23,0,0,0,107,460a1.34,1.34,0,0,0,1.62-.94,1.27,1.27,0,0,0-.83-1.59Z" transform="translate(-0.02)" style="fill: #688480"/>
    <path d="M55.22,465a2.2,2.2,0,0,0-.84.2c.06-.15.06-.31.11-.41a1.2,1.2,0,0,0-.21-1.05,22.69,22.69,0,0,1,.1-2.6c.11-1.35-1.56-1.61-2.29-.78,0-1.77.11-3.54,0-5.32a1.19,1.19,0,0,0-.57-1c.78-2.39,2-4.63,2.66-7a49.17,49.17,0,0,0,1.4-7.81,1.33,1.33,0,0,0-2.44-.68c-.53,1.25-1.1,2.55-1.62,3.8a31.19,31.19,0,0,1,1.62-5.52c1.09-2.66,1.92-5,1.51-7.87-.16-1.09-1.88-1.25-2.4-.31a25.59,25.59,0,0,0-1.2,2.61c.11-.47.16-1,.31-1.46.89-3.29,2.56-6.26,3.29-9.59a23.74,23.74,0,0,0-.06-10,1.25,1.25,0,0,0-1.35-.94l2-14.32a1.52,1.52,0,0,0-.83-1.51C55.24,377.23,56,361,55.5,344.83a5,5,0,0,1-1.82-2.55.22.22,0,0,0-.16,0,55.17,55.17,0,0,1,2.08-5.73,1.46,1.46,0,0,0-.81-1.9h0a1.26,1.26,0,0,0-.38-.1,25.65,25.65,0,0,1,2-5.16c.78-1.46-1.46-2.81-2.24-1.3-2.82,5.36-3,11.77-6.31,16.93-.78,1.25.89,2.39,1.88,1.72A57.65,57.65,0,0,0,48.65,363a1.68,1.68,0,0,0,.62,1c-.21,3.64-.31,7.34-.31,11a1.21,1.21,0,0,0,1.14,1.26h.21c0,.78,0,1.57-.05,2.35a75.46,75.46,0,0,0-.62,20.63,1.51,1.51,0,0,0,.78,1.14A91.32,91.32,0,0,0,48,413.51c-.16,1.15,1,1.46,1.82,1.09q-1.26,9.07-2.5,18.13a1.36,1.36,0,0,0,.78,1.46c0,2.09.06,4.17.06,6.25-.84,3.7-1.36,7.51-1.83,11.31-.1.78.52,1.2,1.2,1.25-.78,2.4-1.56,4.79-2.29,7.19a1.32,1.32,0,0,0,2.4,1c.05-.11.1-.16.15-.26-.21,3.49-.1,7-.21,10.42-.05,1.35,1.72,1.66,2.45.67a5.3,5.3,0,0,0,.42-.73,3.11,3.11,0,0,0-.11.68,1.24,1.24,0,0,0,.47,1.25,1.91,1.91,0,0,1-.15.58c-.37,1.61,2.13,2.34,2.5.67a12.94,12.94,0,0,1,.41-1.51,1.1,1.1,0,0,0,1.15-.36,9.52,9.52,0,0,0,2.61-4.74,2.34,2.34,0,0,0-1.86-2.72h-.33M52.47,348.37a4.71,4.71,0,0,0-.42.84,11.67,11.67,0,0,1,.26-1.31,1,1,0,0,0,.57.11,1.29,1.29,0,0,0-.41.36" transform="translate(-0.02)" style="fill: #7ebab5"/>
    <path d="M102.47,334.26a92.92,92.92,0,0,0-4.27-10.14c-1.15-2.4-2.45-4.74-3.81-7-1.3-3.7-3-8-6.56-8.81a9.77,9.77,0,0,0-1.51-.94,1.38,1.38,0,0,0-1.85.61,1.2,1.2,0,0,0-.15.59.43.43,0,0,0-.21.21H84c-5.06.94-10.27,2.14-13.81,6.15-.94,1,.31,3,1.56,2,4.17-3,9-4.22,13.91-5.11.94,1.72,2.14,3.29,3.18,5a60.81,60.81,0,0,1,4.9,9.74,109.2,109.2,0,0,1,3.64,10.73c-.41-.16-.83-.31-1.19-.47a1.14,1.14,0,0,0-1.1.1,27.29,27.29,0,0,0-2.86-.2l-3.39-.79c-1.35-.26-2.45,1.72-1,2.4a9.78,9.78,0,0,0,3.28.78,49.56,49.56,0,0,1,7.51,2.55c.41,1.46.78,2.87,1.14,4.33a1.3,1.3,0,0,0,2.5-.68c-.1-.42-.26-.88-.36-1.35a1.26,1.26,0,0,0,1.78-.07,1.33,1.33,0,0,0,.3-.56C105,340.4,103.47,337.12,102.47,334.26Z" transform="translate(-0.02)" style="fill: #688480"/>
    <path d="M151.39,317.79a24.15,24.15,0,0,0-5.27,2,12.53,12.53,0,0,0-5.78,5.06,1.22,1.22,0,0,0,.39,1.68h0a1,1,0,0,0,.28.13c-.94,2-1.62,4.12-2.35,6.1a111.85,111.85,0,0,1-6.92,15,.86.86,0,0,0-.32,0,1.46,1.46,0,0,0-1,2.24l-1.09,1.88a1.3,1.3,0,0,0,2.24,1.3c.31-.52.62-1.1.94-1.62,1.46-.47,2.86-1,4.27-1.56h2.6a1.29,1.29,0,0,0,1.29-1.29h0a1.32,1.32,0,0,0-.09-.48l2-1.1a1.3,1.3,0,0,0-1.3-2.24,44.06,44.06,0,0,1-5,2.51h-1.46a113.43,113.43,0,0,0,4.95-10.53c1.09-2.65,2-5.47,3.12-8.12,1.46-3.39,3.65-5.16,6.93-6.67a3.25,3.25,0,0,0,.42-.31c.26-.16.47-.26.68-.42.83-.57,2.13-1.25,2.08-2.45a1.29,1.29,0,0,0-1.4-1.15Z" transform="translate(-0.02)" style="fill: #688480"/>
    <path d="M180.77,394.79a47.38,47.38,0,0,1-5.37,9.64,2.45,2.45,0,0,0-.31.41c-.52.68-1,1.41-1.62,2.09l-.05.1a1,1,0,0,0-.15,1.25,1.21,1.21,0,0,0,1.51.81h0a1.36,1.36,0,0,0,.49-.29h.1a10.41,10.41,0,0,0,2-2.19,5.08,5.08,0,0,0,2.14-2.5c.67-1.25,1.72-2.24,2.19-3.59.2-.16.36-.31.57-.47a1.45,1.45,0,0,0,.25-2,1,1,0,0,0-.25-.26c.31-.73.68-1.46.94-2.19C183.89,394,181.39,393.28,180.77,394.79Z" transform="translate(-0.02)" style="fill: #688480"/>
    <path d="M30.47,255.33l16.88,25.06s8.13,12,9.9,13.54,12.14,9.28,12.14,9.28l3.33,5.31,10.84-1.4L78.47,299l-17.29-9.69L49.25,273.93Z" transform="translate(-0.02)" style="fill: #688480"/>
    <path d="M30.47,255.33l-.21.16,16.88,25.05s2,3,4.27,6.2c1.15,1.62,2.3,3.23,3.34,4.59.52.68,1,1.25,1.35,1.77a9.44,9.44,0,0,0,1,1c.94.78,4,3.08,6.78,5.21s5.41,4.06,5.41,4.06l.16-.2-.21.15,3.44,5.47,11.46-1.51-5.42-8.44-17.36-9.72L49.47,273.77l-18.76-18.6-.41.32.15-.16-.15.21,18.77,18.58L61,289.55l17.35,9.69L83.24,307,73,308.3l-3.28-5.21h0L68,301.84c-1.51-1.15-3.8-2.87-5.89-4.43s-4-3-4.63-3.6a5.64,5.64,0,0,1-.89-1c-1.35-1.62-3.59-4.8-5.47-7.51-.94-1.35-1.82-2.6-2.45-3.54l-1-1.51L30.73,255.12l-.26.21-.15.21Z" transform="translate(-0.02)" style="fill: #688480"/>
    <polygon points="83.63 273.56 93.53 278.51 108.32 284.08 112.39 285.44 114.21 286.53 129.27 289.97 145.36 294.03 149.43 294.19 125.62 290.44 111.66 288.25 109.47 288.15 106.87 285.23 98.01 281.79 83.63 273.56" style="fill: #6f7072"/>
    <polygon points="83.63 273.56 83.47 273.82 93.42 278.72 108.27 284.34 112.28 285.64 114.11 286.79 129.21 290.23 145.31 294.29 149.43 294.45 149.48 293.98 125.67 290.18 111.66 287.99 109.63 287.89 106.97 285.02 98.11 281.53 83.73 273.35 83.63 273.56 83.47 273.82 83.63 273.56 83.47 273.82 97.9 282 106.71 285.49 109.37 288.41 111.61 288.51 125.57 290.7 149.37 294.45 149.43 294.19 149.43 293.93 145.42 293.77 129.37 289.76 114.31 286.32 112.49 285.18 108.43 283.82 93.63 278.25 83.73 273.35 83.47 273.82 83.63 273.56" style="fill: #939598"/>
    <path d="M88.66,264.19s20.53,11.09,22.35,11.87a4.14,4.14,0,0,0,3.7-.57l.68-.31,1.46.94s.31.83.88,1c0,0-.31,1.09,1.15,1.67,0,0,11.51,3,16.88,4.06s12.45,1.77,12.45,1.77l6.35.42s-22.08-.63-38.65-5.11l-1-1.4-2.66.26C112.16,278.83,88.4,266,88.66,264.19Z" transform="translate(-0.02)" style="fill: #6f7072"/>
    <path d="M88.66,264.19l-.1.21S93.66,267.16,99,270c2.66,1.46,5.42,2.92,7.61,4.06,1.09.58,2,1.1,2.76,1.46s1.25.63,1.51.73a3.31,3.31,0,0,0,1.35.26,5.07,5.07,0,0,0,2.61-.83l-.16-.21.1.26.58-.26,1.35.84.16-.21-.26.1a3.6,3.6,0,0,0,.26.52,1.78,1.78,0,0,0,.78.73l.1-.26h-.26a.81.81,0,0,0,0,.31,1.43,1.43,0,0,0,.26.83,2.35,2.35,0,0,0,1.1.84h0s11.51,3,16.88,4.06,12.4,1.75,12.4,1.75h0l6.35.42v-.52s-.36,0-1,0c-4.43-.16-23.18-1.15-37.61-5.06l-.05.26.21-.15-1.15-1.57-2.81.27v.26l.1-.21-1-.58c-2.24-1.25-7.87-4.32-12.92-7.34-2.55-1.51-4.9-3-6.67-4.17A22.55,22.55,0,0,1,89.53,265a4.26,4.26,0,0,1-.52-.52.91.91,0,0,1-.11-.16v-.05h-.26l-.1.21.1-.21-.26-.06v.06a.51.51,0,0,0,.11.31,2.56,2.56,0,0,0,.52.62,40.4,40.4,0,0,0,5.1,3.6c7,4.35,17.86,10.2,17.86,10.2v.05l2.61-.26,1,1.36h.1c16.62,4.48,38.71,5.1,38.71,5.1v-.52l-6.35-.41h0l-1.2-.16c-2.24-.26-7.24-.89-11.2-1.67-2.66-.52-6.88-1.56-10.42-2.39-1.77-.47-3.39-.84-4.53-1.15s-1.88-.47-1.88-.47v.26l.1-.26a2.11,2.11,0,0,1-.88-.62.86.86,0,0,1-.16-.58v-.21h0v-.26h-.26a1.38,1.38,0,0,1-.52-.47.87.87,0,0,0-.16-.26V276h0v-.11l-1.67-1-.8.27h0a4.17,4.17,0,0,1-2.29.73,3.25,3.25,0,0,1-1.15-.21l-1.46-.73c-2.6-1.3-7.81-4.12-12.34-6.57-2.3-1.25-4.43-2.34-6-3.23-.79-.41-1.41-.78-1.83-1l-.68-.36-.31-.16V264Z" transform="translate(-0.02)" style="fill: #939598"/>
    <path d="M85.59,284.56s13.8,8,20.63,9.74a237.36,237.36,0,0,0,29.64,5.82l-28.76-3.91Z" transform="translate(-0.02)" style="fill: #6f7072"/>
    <path d="M85.59,284.56l-.16.2s3.44,2,7.77,4.22a78.86,78.86,0,0,0,12.91,5.58h0a240,240,0,0,0,29.7,5.78v-.52L107.16,296,85.69,284.3l-.26.46.16-.2-.1.2,21.56,11.67,28.81,3.91,0-.26.06-.26c-7.19-.83-14.59-2.29-20.22-3.49-2.81-.63-5.15-1.2-6.82-1.62-.84-.2-1.46-.36-1.93-.46s-.68-.16-.68-.16h0c-3.38-.89-8.54-3.33-12.81-5.52-2.14-1.1-4.07-2.14-5.47-2.92-.68-.36-1.25-.73-1.67-.94a3.46,3.46,0,0,1-.62-.36l-.16.21-.1.2Z" transform="translate(-0.02)" style="fill: #939598"/>
    <path d="M64.39,347.17c1.3,1.41,2.81,3,4.27,4.33a20.45,20.45,0,0,0,3.07,2.5,2.87,2.87,0,0,0,1.1.41h0a.19.19,0,0,0,.15,0,1.52,1.52,0,0,1,.47-.1,3.78,3.78,0,0,1,1.51.41c.57.27,1.25.58,2,1,1.46.84,3.13,1.93,4.69,3,2.87,2,5.42,4,5.89,4.32H91l1.92.57-3.8-2.86-18.91-8.34-5.78-5.16" transform="translate(-0.02)" style="fill: #76a7a2"/>
    <path d="M72.83,354.36a2.87,2.87,0,0,1-1.1-.41,23.39,23.39,0,0,1-3.07-2.45c-1.46-1.36-3-2.92-4.27-4.33l5.78,5.21,18.91,8.34,3.8,2.87L91,363H87.52c-.47-.36-3-2.34-5.89-4.32a54.8,54.8,0,0,0-4.69-3,13.83,13.83,0,0,0-2-1,4,4,0,0,0-1.51-.42.77.77,0,0,0-.47.1s-.1.06-.15,0h0M60.81,344l.16-.21-.16.21m.37-.37-.37.37.21-.16-.21.16s2.3,2.71,5,5.42a48.88,48.88,0,0,0,4,3.75,14.89,14.89,0,0,0,1.71,1.24,2.81,2.81,0,0,0,1.36.52.44.44,0,0,0,.36-.11l.26-.05h0a3.09,3.09,0,0,1,1.3.37,51.18,51.18,0,0,1,7.77,4.79c1.3.94,2.5,1.82,3.38,2.5a10.73,10.73,0,0,1,1,.78,1.9,1.9,0,0,0,.37.26h3.54l4.59,1.36-6.1-4.59L70.47,352l-9.27-8.34" transform="translate(-0.02)" style="fill: #76a7a2"/>
    <path d="M56.73,418l2.81,2.19a8.81,8.81,0,0,1,2.19-.73,12.48,12.48,0,0,0-4.38-1.35,2.6,2.6,0,0,1-.62-.11" transform="translate(-0.02)" style="fill: #76a7a2"/>
    <path d="M59.54,420.12l-2.81-2.19a3.11,3.11,0,0,0,.68.11,14.23,14.23,0,0,1,4.37,1.35,11.73,11.73,0,0,0-2.24.73m-4.32-3.33a2.15,2.15,0,0,1,0,.62l4.27,3.34.15-.06a6.48,6.48,0,0,1,2.82-.78h.21q.38.19.72.42c.21.1.37.21.47.26a.54.54,0,0,1,.16.1l.68.42-.32-.78a1.6,1.6,0,0,0-.41-.52,2.53,2.53,0,0,0-1.15-.47c-.26-.16-.57-.26-.88-.42a14.21,14.21,0,0,0-4.59-1.4,5.5,5.5,0,0,1-2.08-.73" transform="translate(-0.02)" style="fill: #76a7a2"/>
    <path d="M49.54,412.76h0m.16-.21-.37.42.16-.21-.16.21.16-.21-.16.21a34,34,0,0,0,2.87,2.5,22,22,0,0,0,2.6,1.77h0l.37.26v-.62h-.11l-5.41-4.28" transform="translate(-0.02)" style="fill: #76a7a2"/>
    <path d="M29.47,288.78,31,290.5a9.42,9.42,0,0,0,1.35.67h7l4.38.78,2.45-1.72H36.57l-7.1-1.45" transform="translate(-0.02)" style="fill: #76a7a2"/>
    <path d="M27.35,288.36c.2.16.47.31.78.52.47.26,1,.63,1.56.94l-1-1.15-1.3-.31" transform="translate(-0.02)" style="fill: #6c908b"/>
    <path d="M28.65,288.62l1,1.15q.63.39,1.41.78l-1.57-1.72-.88-.21" transform="translate(-0.02)" style="fill: #6c908b"/>
    <path d="M28.91,288.12l.57.68,7,1.51h9.68L43.72,292l-4.38-.78h-7c-.47-.21-.94-.47-1.36-.68l.94,1.09c0,.06.16.06.21.11h7.14l4.53.78,4-2.76H36.47l-7.56-1.67" transform="translate(-0.02)" style="fill: #76a7a2"/>
    <path d="M24.85,287.27l1,.72.15-.2h0l-.15.2s.94.68,2.29,1.52c-.52-.63-1-1.26-1.46-1.83l-1.87-.41" transform="translate(-0.02)" style="fill: #6a898f"/>
    <path d="M26.72,287.68c.52.63,1,1.25,1.46,1.83.73.46,1.56.93,2.5,1.45l-1-1.19c-.57-.32-1.1-.68-1.56-.94-.26-.16-.53-.37-.79-.52l1.31.26-.58-.68-1.3-.21" transform="translate(-0.02)" style="fill: #6c908b"/>
    <path d="M29.64,289.77l1,1.19c.42.21.83.47,1.3.68l-1-1.09-1.41-.78M28,287.94l.57.68.88.21-.57-.68-.88-.21" transform="translate(-0.02)" style="fill: #6c908b"/>
    <path d="M168.68,341.12l-3.85,3.08a64.91,64.91,0,0,1-10.94,9.74h0l-16.57,9.69,7.5-2.92L161,349.2l.16.15.62.63a.21.21,0,0,1,0-.11,3.64,3.64,0,0,1,.32-.62,15.82,15.82,0,0,1,1.09-1.62c.89-1.19,2.08-2.6,3.28-4,.78-.93,1.56-1.82,2.24-2.55" transform="translate(-0.02)" style="fill: #76a7a2"/>
    <path d="M164.88,344.21l3.85-3.08c-.67.78-1.46,1.62-2.24,2.5-1.19,1.36-2.39,2.76-3.28,4a15.82,15.82,0,0,0-1.09,1.62,1.6,1.6,0,0,0-.32.62.37.37,0,0,1-.05.11l-.62-.63-.16-.16-16.1,11.52-7.5,2.91,16.6-9.68h0a63,63,0,0,0,10.94-9.69m6.35-5.79-6.76,5.38h0a54.3,54.3,0,0,1-7.29,6.93c-1,.83-2,1.56-2.6,2a7.44,7.44,0,0,1-.73.52l-.26.16L134.15,364.8l.21.47,10.72-4.15,15.79-11.25,1.2,1.15h.1a.28.28,0,0,0,.21-.1.22.22,0,0,0,0-.3h0l-.26-.26h0a.65.65,0,0,1,.1-.36,16.68,16.68,0,0,1,1.88-2.82c1.41-1.77,3.28-3.85,4.79-5.52.78-.83,1.46-1.56,1.93-2.08s.78-.84.78-.84l-.42-.26" transform="translate(-0.02)" style="fill: #76a7a2"/>
    <path d="M123.15,416.31c-.94,0-.68.26-.36.31h0a.36.36,0,0,1,.21-.11.38.38,0,0,0,.1-.2" transform="translate(-0.02)" style="fill: #c7cccb"/>
    <path d="M122.79,416.62c-.37,0-.58-.26.36-.31-.05,0-.05.1-.1.15a1.4,1.4,0,0,1-.26.16h0m4.42-39.07-3.43,23.86-7.35,48,16.41-25.29.16-15.26-2.56-.89-.05-.05a6.5,6.5,0,0,1-1.61-3.39,19.45,19.45,0,0,1-.42-4.37,40.79,40.79,0,0,1,.42-5.63h0a5.93,5.93,0,0,0,.05-.94v-.41l-1.62-15.63" transform="translate(-0.02)" style="fill: #76a7a2"/>
    <path d="M116.47,449.44l7.35-48,3.43-23.86,1.57,15.63v.41a5,5,0,0,1-.06.94h0a42.52,42.52,0,0,0-.41,5.63,20,20,0,0,0,.41,4.37,7,7,0,0,0,1.62,3.39h.05l2.55.89-.15,15.26-16.36,25.34m10.89-76.17-4.07,28-7.71,50.38,17.82-27.51.16-15.78-2.82-.94a6.47,6.47,0,0,1-1.45-3.07,18.08,18.08,0,0,1-.42-4.28,39.22,39.22,0,0,1,.42-5.52h0a6.7,6.7,0,0,0,.05-1v-.43h0l-2-19.85" transform="translate(-0.02)" style="fill: #76a7a2"/>
    <path d="M168.63,463.61a14.33,14.33,0,0,0,2,1.56l-2-1.56" transform="translate(-0.02)" style="fill: #76a7a2"/>
    <path d="M179.67,465.43a11.72,11.72,0,0,1-.36,2.35,2.48,2.48,0,0,1,.94.41l.21.21a1.93,1.93,0,0,0-.16-2.55,1.59,1.59,0,0,0-.63-.42" transform="translate(-0.02)" style="fill: #c7cccb"/>
    <path d="M178.32,465.22a11.51,11.51,0,0,0-4.53,1.2l-.47.16,2.55,2a6.9,6.9,0,0,1,2.92-.78h0a2.2,2.2,0,0,1,.57.05,8.87,8.87,0,0,0,.37-2.35,4,4,0,0,0-1.41-.26h0" transform="translate(-0.02)" style="fill: #76a7a2"/>
    <path d="M179.67,464.91v.57a2.27,2.27,0,0,1,.68.42,1.8,1.8,0,0,1,.57,1.36,1.78,1.78,0,0,1-.41,1.19l-.21-.21a1.94,1.94,0,0,0-.94-.41,1.82,1.82,0,0,1-.16.52,1.92,1.92,0,0,1,.79.31l.2.21h.06l.1.31.26-.2a2.42,2.42,0,0,0,.24-3.41l-.13-.14a2.4,2.4,0,0,0-1.05-.57" transform="translate(-0.02)" style="fill: #c7cccb"/>
    <path d="M165.82,461.12h0m4.84,4.11a13.11,13.11,0,0,1-2-1.56l2,1.56m-6.56-5.78,1.56,1.88.21-.16-.16.21.16-.21-.21.16a27.2,27.2,0,0,0,2.55,2.6,15.37,15.37,0,0,0,2.35,1.82,6,6,0,0,0,1.82.79l3.39,2.6h.2a6.18,6.18,0,0,1,2.82-.78,1,1,0,0,1,.41.05,3,3,0,0,1,.16-.52,2.2,2.2,0,0,0-.57-.05h0a6.9,6.9,0,0,0-2.92.78l-2.55-2a.76.76,0,0,0,.46-.16,11.39,11.39,0,0,1,4.54-1.2h0a4.43,4.43,0,0,1,1.35.21v-.57a4.43,4.43,0,0,0-1.35-.21h0a12.4,12.4,0,0,0-4.74,1.25,1.37,1.37,0,0,1-.63.1h0a1.09,1.09,0,0,1-.36,0l-8.44-6.51" transform="translate(-0.02)" style="fill: #76a7a2"/>
    <path d="M170.19,331.34H170l1,.47c.37.1.79.15,1.15.26,0,0,0-.05-.1-.05a2.68,2.68,0,0,0-1.83-.68" transform="translate(-0.02)" style="fill: #9ab4d0"/>
    <path d="M171,331.81l1.83.88a6.67,6.67,0,0,1-.68-.62c-.36-.11-.73-.16-1.15-.26" transform="translate(-0.02)" style="fill: #a2cac7"/>
    <path d="M193.17,354.12c1.77,5.16,2.6,10.68,4.89,15.63a70.24,70.24,0,0,0,5.06,8.13,42.42,42.42,0,0,1,4,8.28c.88,2.5,1.77,5.06,2.55,7.61a33.51,33.51,0,0,1,3.8,10,18,18,0,0,1,.31,3.28,19.84,19.84,0,0,1,.89,7.3c.16.68.36,1.09.26,1.09h.16a2.86,2.86,0,0,0,2.65-2.5l.94-6.56a2.76,2.76,0,0,0-.26-1.72l-25.25-50.54m-11.93-17.45c.31.26.62.47.93.73a32.22,32.22,0,0,1,5.94,6.51L186,339.54a3.51,3.51,0,0,0-1.36-1.42l-3.33-1.51" transform="translate(-0.02)" style="fill: #9ab4d0"/>
    <path d="M172.8,332.69c2.81,2.45,8.59,8.39,14.84,19.38.06,0,.06.16.11.21l15,31.52c0,.05,0,.1.1.21l8.44,21.72a4,4,0,0,1,.21.83l3,6.26a12.55,12.55,0,0,0,.26,1.61,20.92,20.92,0,0,0-.88-7.29,24.25,24.25,0,0,0-.31-3.29,33.55,33.55,0,0,0-3.81-10.05c-.83-2.55-1.66-5.1-2.55-7.61a41.05,41.05,0,0,0-4-8.28c-1.72-2.71-3.7-5.21-5.05-8.13-2.29-4.94-3.13-10.47-4.9-15.62L188.16,344a31,31,0,0,0-5.94-6.52c-.32-.26-.63-.52-.94-.73l-8.49-4" transform="translate(-0.02)" style="fill: #a2cac7"/>
    <path d="M94.76,391l-5.11,10.68L84.29,430.8l8.59,26.52L91.74,434a27,27,0,0,1-1.51-8.91,24.07,24.07,0,0,1,.36-4.32,3.07,3.07,0,0,1-.68-1.36A10.68,10.68,0,0,1,89.7,417c0-4.33,1.46-11.57,2.87-17.67.83-3.28,1.61-6.3,2.19-8.33" transform="translate(-0.02)" style="fill: #76a7a2"/>
    <path d="M93,457.36l-8.59-26.52,5.36-29.12L94.81,391c-.57,2.08-1.35,5-2.14,8.39-1.45,6.14-2.86,13.33-2.86,17.66a10.68,10.68,0,0,0,.21,2.39,3,3,0,0,0,.67,1.36,31.21,31.21,0,0,0-.36,4.32A27,27,0,0,0,91.84,434L93,457.36m2.87-69.08h0m-.26-.11h0l-6.41,13.39-5.4,29.33,9.84,30.32-1.3-27.3h0a26.1,26.1,0,0,1-1.51-8.75,24.74,24.74,0,0,1,.36-4.38v-.15l-.15-.11a1.65,1.65,0,0,1-.58-1.14,9.39,9.39,0,0,1-.2-2.24c0-4.27,1.45-11.46,2.86-17.56.73-3.07,1.46-5.83,2-7.87.26-1,.52-1.82.68-2.39s.26-.89.26-.89l-.47-.21" transform="translate(-0.02)" style="fill: #76a7a2"/>
    <path d="M139,373c1.67,4.17,4.85,12.4,6.73,19.07a32.5,32.5,0,0,1,1.45,7.82,5.13,5.13,0,0,1-.15,1.35,2.18,2.18,0,0,1-.42.83,28,28,0,0,1,1,7.51,28.58,28.58,0,0,1-.62,5.83l-.31,1.41,7.34-5.58-8.71-28.13L139,373.06" transform="translate(-0.02)" style="fill: #76a7a2"/>
    <path d="M137.58,370.41h0m9,31.67a2.82,2.82,0,0,0,.42-.83,5.6,5.6,0,0,0,.16-1.35,32.52,32.52,0,0,0-1.46-7.82c-1.88-6.67-5.06-14.9-6.72-19.07l6.35,10,8.75,28.18-7.34,5.57.31-1.4a27.34,27.34,0,0,0,.63-5.84,30.77,30.77,0,0,0-1.1-7.45m-8.8-31.77-.47.26.26-.11-.21.16.21-.16-.26.11.42.93c.88,2.14,3.12,7.66,5.1,13.44,1,2.87,1.93,5.84,2.61,8.5a29.91,29.91,0,0,1,1.14,6.51,10.36,10.36,0,0,1-.1,1.25,1,1,0,0,1-.37.68l-.1.1.05.16a26.5,26.5,0,0,1,1.1,7.45,26.9,26.9,0,0,1-.63,5.73l-.62,2.76,8.75-6.67-8.86-28.6-8-12.5" transform="translate(-0.02)" style="fill: #76a7a2"/>
    <path d="M76.21,371.19,72,384.37l-3.23,29,9.71,14.92L73.63,413.7a5.43,5.43,0,0,1-.58-2.5,15.38,15.38,0,0,1,1.57-5.68A19.69,19.69,0,0,0,76.34,400V400l2.08-3.08a1,1,0,0,1-.26-.41,2.14,2.14,0,0,1-.16-.79,17,17,0,0,1,.52-3,25.2,25.2,0,0,0,.58-4.32V388a16.28,16.28,0,0,0-.63-3.92c-.36-1.35-.68-2.66-.88-3.65-.78-4.32-1.2-7.6-1.36-9.27" transform="translate(-0.02)" style="fill: #76a7a2"/>
    <path d="M78.47,428.24l-9.69-15,3.23-29,4.2-13.12c.16,1.72.58,5,1.41,9.22.21,1,.57,2.34.88,3.65a17.73,17.73,0,0,1,.63,3.9v.26a24.22,24.22,0,0,1-.57,4.33,17,17,0,0,0-.52,3,1.75,1.75,0,0,0,.15.78,1,1,0,0,0,.26.42l-2.08,3.07v.05a19.43,19.43,0,0,1-1.72,5.58,15.87,15.87,0,0,0-1.56,5.68,5,5,0,0,0,.57,2.5l4.81,14.68m-2.34-58.35h0m.41-1.41-.41,1.3-4.66,14.43-3.23,29.18,12,18.54L74,413.49h0a5.05,5.05,0,0,1-.52-2.29,14.63,14.63,0,0,1,1.56-5.52A20.27,20.27,0,0,0,76.85,400l2.34-3.44-.26-.15a.52.52,0,0,1-.26-.32,1.87,1.87,0,0,1-.1-.62,18,18,0,0,1,.52-2.92,24.9,24.9,0,0,0,.57-4.38v-.26a16.43,16.43,0,0,0-.62-4c-.32-1.35-.73-2.65-.89-3.64-.62-3.13-1-5.73-1.2-7.56-.1-.94-.15-1.61-.2-2.13s-.06-.73-.06-.73l-.21-1.36" transform="translate(-0.02)" style="fill: #76a7a2"/>
    <path d="M153.68,441l-9.12,4.53c.37-.1.83-.15,1.3-.31a20.79,20.79,0,0,0,4.28-1.46,6,6,0,0,0,2-1.41,17.53,17.53,0,0,1,1.51-1.35" transform="translate(-0.02)" style="fill: #76a7a2"/>
    <path d="M158.47,438.39a18.89,18.89,0,0,0-2.4,1.15c-.73.42-1.56.94-2.29,1.46a7.76,7.76,0,0,0-1.51,1.41,5.84,5.84,0,0,1-2,1.4,25.92,25.92,0,0,1-4.27,1.46c-.53.11-.94.21-1.31.31-.1,0-.21.06-.31.06a2.59,2.59,0,0,1-.62.1l.1.52s1.72-.31,3.7-.89a23.28,23.28,0,0,0,2.92-1.09,6.61,6.61,0,0,0,2.24-1.56,14.89,14.89,0,0,1,3.64-2.76c.63-.37,1.25-.63,1.67-.84a3.28,3.28,0,0,1,.52-.2c.16-.06.16-.11.16-.11l-.21-.42" transform="translate(-0.02)" style="fill: #76a7a2"/>
    <path d="M14.84,280.44l2.5,3.44h0l1.83,3.49h0m22.66,35.32a13,13,0,0,1,1.93,5.83l1.14,13.6h0l-1.2,91.22h0c-.67,8.54-.46,16.88-.46,16.93h0c-.94,21.31,4,25.11,4.16,25.21h0l6.2,1.62h0C71.06,522.47,82.6,517.21,83,517h0c11.46,2.71,14.43-35,14.58-37h.06c3,2.45,25.21,2.92,26.3,3l.06.05c-.21,35.17,15.78,34,15.78,34,10.58,1.82,26.36-35.79,26.78-36.78h0c.62-.16,14.12-3.49,14.59-5.1a2.76,2.76,0,0,0,.1-.63,32,32,0,0,1,1-5.05c2.5-8.6-3.8-36.57-3.91-36.94h0l.21-2.24h0l3.86,3h0c.16.42,4,11.51,7.19,13,0,0,4.9,4.12,14.22,5.83a10.24,10.24,0,0,0,11.19-6c2.08-4.48,4.06-12.13,4.74-25.11v-7.65h0l-.94-5.58h0l-2.76-8.07h0l-17.56-42a58.44,58.44,0,0,1-3-8.7c-1.51-6.1-11.66-18.5-11.66-18.5-3.08-4-17.09-10.16-18.6-10.83v-.11c61.16-10.68,69.54-64.91,69.54-65h0l.21-3.34a35.05,35.05,0,0,1,1.41-8h0a10.93,10.93,0,0,1,5.47-2c14.33-1.36,20.84-7.87,20.89-7.92h0c9-6.62,10.89-14.74,10.21-21.72a28.75,28.75,0,0,0-12.66-21c-18.08-12.29-32-10-41.41-4.53a38.5,38.5,0,0,0-9.07,7.19,10.28,10.28,0,0,1-13.07,1.46c-31-20.59-63.79-23.31-75.37-23.59a4.33,4.33,0,0,1-4.22-4.22c-.21-7.24-2.86-21.67-20.79-26.1-22.76-5.67-37.45,1.36-44,4.33a16.34,16.34,0,0,0-7.66,7.08c-5.11,9.75,1.56,21.31,6.72,28.14a12.86,12.86,0,0,1,2.6,7.71,11.92,11.92,0,0,1-1.35,5.62A21,21,0,0,1,49,198.91c-28.5,29.18-13.13,58.51-12.87,59l-2.24-5.68h0c-6.25-2.61-10.94-20.32-18.49-20.74-5.42-.31-10.74-1-14.43,3H1s-1.36,1.25,0,9.9l4.58,23M76.47,265a20.92,20.92,0,0,0,.68-4.38c.21-2.76,3.28-6.93,3.28-7h0L84,250.21h0c7.51-2.3,15.16,4.53,15.27,4.63h0a13.21,13.21,0,0,0,2.08.31c12.92,4.43,21.26,9.07,33.86,12.35a92.09,92.09,0,0,0,19.49,2.5h0c9.38,3.54,6.61,13.91,6.61,13.91.94.36-5.73,13.86-5.88,14.17h0c.26,2.92-15.32,14.27-15.63,14.48h0c-7.61,1.56-27-3.38-27-3.38C94.49,305.27,84,297.3,83.91,297.25h0c-6.3-3.39-9.53-12.45-9.58-12.51h0c-1.56-5.24.74-14.93,2.14-19.77Zm26.21,78c-1.77-.78-28-12.71-30.27-26.57h0s-.11-2.66,16.77-7.87h.06l13.49,34.33Zm40.89-21.78H154a.74.74,0,0,1,.68.47c.42,1.3,1.3,2.4,1.67,3.7a38.84,38.84,0,0,1,.78,6.62,7,7,0,0,1-3.54,6.35l-22.25,12.56v-.06c4.14-6.1,11.93-28.71,12.24-29.6Zm-68.5-24.77c-15.11-6.15-29.75-29.18-30.27-30h0c.15-.21,1.3-1.57.73,0s18.8,14.38,20.21,14.9,8.6,13.75,9.38,15.1Zm-5.94-19.07c-2.5-1.36-26-14.22-29.91-27.66v-.06l1.83-2.7c.47-.68.78-1.36,1.2-2.09s1.71-1.3,7,1.56h0l12.5,9.12h0l8.49,4.79,2.14,1v.05c-.26.73-4.38,13.91-3.23,15.83ZM131.8,476.12l-11.15.31a42.74,42.74,0,0,1-6.3.16c-2.45-.16-5.73-.36-10-.73l-48.76-3.39s-6-.31-6.51-2.91l-1.72-21.15h0l1.88-36.73V348c0-5.89.2-11.73.57-17.61a13.44,13.44,0,0,0-.21-3.23,56.5,56.5,0,0,0-2.08-7.24,48.54,48.54,0,0,0-6-11.57L20.63,278.83v-.06l3.69-5.36h0c2.56-4.27,6.31-15.47,6.31-17.71l.1-.06c1.57,2.3,24.75,36.26,28,37.93l23.34,11.82v.11l-1.93.57L69,309.46h0c-.15.1-4.32,3.44-3.69,8.49h0l2.44,4.64,4.48,7.55h0L75,333.21h0l5.73,5h0l6.46,4.33,10,7.24h0l6.93,6.3h0l4.17,5.26h0l2.29,9.69h0l-1.41,20-1.4,17.45L106,430.12h0l-.47,23v5.26h0c0,.1.78,1.35,1.83,1.25h0a4,4,0,0,0,1.82-1.36h0l.31-28.55,1.09-20.05h0l2.19-18.86,1.83-19h0l6.3-8.81h0l32.19-17.29a24.74,24.74,0,0,0,3.29-2.19,66,66,0,0,0,9.79-9.48c1.36-1.51,3.28-2.82,5.63-1.93h0c.1,0,9.9,5.57,11.25,7.4A62.61,62.61,0,0,1,194,359.88h0c.05.15,18.65,40.89,19,47.4h0c0,.06,1.72,8.18,0,11.26h0c-.05,0-2.34,3.75-26.51,10.52h0c-.16,0-5.89,0-6.05-10.78h0c.06-.27,5.26-18.39,5.11-20.84,0,0,.62-4.17-1.41-5.11a1.13,1.13,0,0,0-.83-.42c-.57,0-1.36.47-2.24,2.4h0a19.26,19.26,0,0,1-1.51,6.51L178,404.47h0l-1.92,2.87H176l-.73-3.13h0a3.27,3.27,0,0,0-4.38,1.49h0a1.6,1.6,0,0,0-.1.23c-.36.88-.21.62-.15,2.91h0c0,.21,11.41,61.42,6,61.11,0,0-13.13,5.42-32,5.68l-.88-.05m40.9-167.11c-10.78,6.66-38,6.92-38.86,6.92h0c-.68-.88,2.71-2.81,7.24-4.89a119.41,119.41,0,0,1,28.34-8.91c8.85-1.62,20-4.06,20.89-4.22h0c-.06,1.75-17.62,11.05-17.62,11.05Zm34.34-29a34.37,34.37,0,0,1-13.18,11h0l-9.28,2.6h0L171,298.21h0l-9.64.78-.05-.06,3.07-7.34h0a15,15,0,0,1,8.91-3.54l8.54-.47h0c5.89-1.2,11.73-2.71,17.51-4.48s11.41-3.81,17-6.1l6.1-2.5v.05ZM103.2,251.12c1.2-.73,20.47-13.23,9.9-30.74-6-9.89-17.46-15.26-28.66-12.6a25.72,25.72,0,0,0-13.12,7.76,22.23,22.23,0,0,0-6,18.55c.79,5.15,3.55,11.14,10.79,16.46h0c-.31.42-3.54,5.21-3.7,5.37s-33.65-18.19-33.19-24c0,0,3.86-32.09,34.13-44.6h0c.1-.05,31.51-17,76.42-6.92h0c.11,0,46.63,6.09,71.48,47.4,0,0,10.21,15.27,4.48,39.33h0a116.8,116.8,0,0,1-35.48,14s-12.61,3.23-23.86,2.76v-.05c.21-.68,2.45-7.77,1.51-8.55h0a16.68,16.68,0,0,0,3.8-1.46c15.32-7.55,17.45-28.86,3.8-39.23a29.63,29.63,0,0,0-13.33-5.41h0a32.15,32.15,0,0,0-12.3,1.78,23.9,23.9,0,0,0-14.69,30.42,16.25,16.25,0,0,0,1.1,2.4" transform="translate(-0.02)" style="fill: #020202"/>
    <path d="M113.62,220.32a27.35,27.35,0,0,0-23.15-13.44,23.92,23.92,0,0,0-5.78.68,25.87,25.87,0,0,0-13.22,7.81A23.12,23.12,0,0,0,65.17,231a21.09,21.09,0,0,0,.26,3.18c.78,5.21,3.64,11.25,10.94,16.67l.15-.21-.21-.16s-.2.32-.57.84c-.52.73-1.25,1.87-1.93,2.81-.31.47-.62.89-.83,1.2a3.32,3.32,0,0,1-.26.36l-.1.11v0h0l.1.1-.1-.1h0l.1.1-.1-.1.15.21-.15-.21.15.21v-.26l-.1,0,.15.21v-.26h0v.26h0v-.21h0v-.06h0l-.15,0c-.73-.37-3.13-1.67-6.36-3.5-4.84-2.76-11.46-6.77-16.88-10.62a61.87,61.87,0,0,1-6.82-5.47,15.56,15.56,0,0,1-2-2.29A3.28,3.28,0,0,1,40,232.1V232h0a2.16,2.16,0,0,1,0-.36,60.85,60.85,0,0,1,6.57-19,54.4,54.4,0,0,1,27.35-25.06h0a.56.56,0,0,1,.2-.11c2.14-1.09,20.32-9.95,47.67-9.95a130.39,130.39,0,0,1,28.39,3.18h.52c5.21.84,47.52,8.55,70.75,47.2h0a.21.21,0,0,0,0,.11c.68,1,6.1,10.1,6.1,24.64a62.64,62.64,0,0,1-1.72,14.43H226L226,267l-.15.11a116.79,116.79,0,0,1-35.34,14.05h0a3.56,3.56,0,0,1-.47.1,101.38,101.38,0,0,1-21.1,2.71c-.73,0-1.51,0-2.24-.05v.24h.3s.42-1.36.89-3a25.1,25.1,0,0,0,.88-4.79,1.64,1.64,0,0,0-.1-.73c0-.11,0-.21-.16-.26a.49.49,0,0,0-.26-.21l-.1.26,0,.26a18.39,18.39,0,0,0,4-1.51,23.38,23.38,0,0,0,13-21.1,23,23,0,0,0-9.2-18.59,30.12,30.12,0,0,0-13.5-5.49h0s-.63-.05-1.67-.05A33.51,33.51,0,0,0,150,230.77a24.34,24.34,0,0,0-16.2,22.87,22.93,22.93,0,0,0,1.35,7.87h0a14.56,14.56,0,0,0,1.1,2.45l.2-.16.06-.26-7.09-1.09-.1.52,7.66,1.14-.27-.47a12.39,12.39,0,0,1-1-2.34h0a23.63,23.63,0,0,1,14.59-30.06,32.27,32.27,0,0,1,10.58-1.77h1.57a29,29,0,0,1,13.23,5.42,22.51,22.51,0,0,1,9,18.13A22.84,22.84,0,0,1,172,273.62a20.66,20.66,0,0,1-3.86,1.45l-.88.21.88.32h0a1.4,1.4,0,0,1,.11.67,20.91,20.91,0,0,1-.89,4.64c-.21.83-.41,1.56-.62,2.14a5.54,5.54,0,0,0-.26.88l-.11.31h.37c.73.06,1.51.06,2.29.06a101.33,101.33,0,0,0,21.72-2.82l-.05-.26.05.26a116.28,116.28,0,0,0,35.58-14.06l.11-.06v-.1a63.5,63.5,0,0,0,1.72-14.53c0-15.63-6.25-25-6.25-25l-.21.16.21-.16c-12.58-20.74-30.48-32.61-45.3-39.29a108.06,108.06,0,0,0-26.46-8.23l-.05.26.05-.26a130.7,130.7,0,0,0-28.5-3.18c-29.28,0-48.08,10.11-48.08,10.16l.1.21-.1-.26c-15.21,6.3-23.76,17.5-28.55,27.14A59.1,59.1,0,0,0,39.33,232h0v.13A5.08,5.08,0,0,0,40.79,235a48.14,48.14,0,0,0,7.6,6.51c4.9,3.54,10.89,7.19,15.68,10,2.4,1.41,4.54,2.6,6.05,3.44.78.41,1.4.73,1.82,1l.52.26a.18.18,0,0,0,.16.05h.21l.1-.05h0c.11-.16.37-.52.73-1,1.1-1.56,3-4.32,3-4.32l.16-.21-.21-.15c-7.19-5.32-10-11.2-10.73-16.31a19.77,19.77,0,0,1-.26-3.07,22.32,22.32,0,0,1,6.2-15.22,25.13,25.13,0,0,1,13-7.65,23.17,23.17,0,0,1,5.68-.68,26.79,26.79,0,0,1,22.71,13.18l.42-.42Z" transform="translate(-0.02)" style="fill: #020202"/>
    <polyline points="103.58 251.42 103.58 251.37 103.22 251 103.22 251" style="fill: #020202"/>
    <path d="M168.06,275.28,168,275c-.1,0-.15.05-.2.05h-.06v.21l.06-.21h-.06v.21l.06-.21-.06.27.16-.21-.1-.06-.06.27.16-.21-.16.21H168c0-.11,0-.21-.1-.21l-.16.21h0l.21.15a.2.2,0,0,0,0-.15h-.26l.21.15-.21-.1.16.21m.05-.05h0l-.21-.1.16.21-.1-.16.05.16h0l-.1-.16.05.16h0v0h.05l.11-.37L168,275l.06.26.1-.26h-.42v.05l-.05.06v.05a.18.18,0,0,0,0,.16c0,.1,0,.2.1.2a.13.13,0,0,0,.1.06H168a.26.26,0,0,0,.21-.06l.89-.2-.89-.32Z" transform="translate(-0.02)" style="fill: #020202"/>
    <path d="M202.54,297.37h-.26l-.15.26a9.74,9.74,0,0,1-1.25,1.15,101.38,101.38,0,0,1-9.64,5.94c-1.72,1-3.34,1.87-4.53,2.5l-1.41.73-.52.26h0a35.7,35.7,0,0,1-10.63,3.91,127.37,127.37,0,0,1-18.75,2.6c-2.76.21-5.11.31-6.78.37-.83,0-1.51.05-1.92.05H146v.26l.21-.16v-.1a.32.32,0,0,1,.1-.26,4.09,4.09,0,0,1,.83-.78,39,39,0,0,1,6.26-3.39,117.93,117.93,0,0,1,28.28-8.86c9.22-1.72,21-4.22,21-4.22l-.06-.31h0l-.07-.2-2,.42c-3.7.78-12,2.55-19,3.8a119.79,119.79,0,0,0-28.39,8.91,46.63,46.63,0,0,0-5.26,2.71,8.39,8.39,0,0,0-1.57,1.14,2.38,2.38,0,0,0-.47.53,1.07,1.07,0,0,0-.2.52.8.8,0,0,0,.15.47l.11.1h.1s7-.05,15.37-.94a109.84,109.84,0,0,0,12.87-2.08,38.17,38.17,0,0,0,10.78-4l-.16-.21.11.21s4.37-2.35,8.8-4.85c2.19-1.25,4.43-2.6,6.1-3.75a24.36,24.36,0,0,0,2-1.51,2.24,2.24,0,0,0,.57-.62,1,1,0,0,0,.26-.58V297h-.26Z" transform="translate(-0.02)" style="fill: #020202"/>
    <path d="M222.91,274.5l-.21-.15-3.64,5A33.74,33.74,0,0,1,206,290.24l.11.26-.06-.26-9.27,2.6L171.34,298l-9.27.73,2.91-7-.26-.1.16.21a14.62,14.62,0,0,1,4.06-2.45,15.41,15.41,0,0,1,4.64-1l8.59-.47h0c5.89-1.2,11.78-2.71,17.51-4.48s11.46-3.81,17-6.1l6.26-2.55-.06-.21-.21-.15.21.15-.1-.26-6.25,2.55c-5.58,2.3-11.26,4.33-17,6.05s-11.56,3.23-17.45,4.48v0l-8.54.47a16.05,16.05,0,0,0-4.79,1,15.15,15.15,0,0,0-4.22,2.55h0l-3.29,7.87,10.18-.72L197,293.41l9.27-2.6h0a34,34,0,0,0,13.25-11.1l4.17-5.78-.83.36Z" transform="translate(-0.02)" style="fill: #020202"/>
    <path d="M161.65,284l-.11.26.06-.1-.16,0a.12.12,0,0,0,.1.05l.06-.1-.16,0h0v.05a4.75,4.75,0,0,1-.26,1.05A82.94,82.94,0,0,1,157.9,293c-.63,1.35-1.25,2.65-1.67,3.59s-.76,1.53-.76,1.53h0v.11a3,3,0,0,1-.63,1.35,27.91,27.91,0,0,1-3.54,3.75c-2.29,2.09-5.16,4.38-7.4,6.15-1.14.89-2.08,1.61-2.81,2.14l-1.15.83.16.21v-.26a18.12,18.12,0,0,1-3.6.31,91.15,91.15,0,0,1-15-1.79c-2.34-.47-4.43-.94-5.94-1.25-.73-.16-1.35-.32-1.77-.42l-.62-.16h0a87.91,87.91,0,0,1-21.26-7.34,60.13,60.13,0,0,1-5.57-3.18c-.63-.42-1.1-.73-1.46-.94-.16-.1-.26-.21-.36-.26s-.11-.1-.11-.1h0a19.57,19.57,0,0,1-7-7.45,28.57,28.57,0,0,1-1.77-3.49c-.21-.47-.37-.84-.47-1a.76.76,0,0,1-.11-.32v-.1l-.26.1.26,0a14.46,14.46,0,0,1-.57-4.53c0-5.11,1.56-11.51,2.6-15.16h0a20.81,20.81,0,0,0,.73-4.43,12,12,0,0,1,1.72-4.43c.42-.67.78-1.3,1.1-1.72.15-.21.26-.36.36-.52l.16-.21-.21-.15.15.21,3.55-3.39-.16-.21.11.26a11.09,11.09,0,0,1,3.38-.47,19.2,19.2,0,0,1,8.44,2.3,28,28,0,0,1,2.71,1.56c.31.21.57.41.73.52a.65.65,0,0,1,.21.16l.05,0h0a5.46,5.46,0,0,0,1.3.47c12.71,4.16,21.15,9.17,33.4,12a181.78,181.78,0,0,0,20.36,3.18v-.33l-.1.26a9.91,9.91,0,0,1,5.57,4.74,12,12,0,0,1,1.25,5.57,14.85,14.85,0,0,1-.2,2.4,5,5,0,0,1-.16.67V284h0l0,.2.2.11.11-.37.26.06a13.74,13.74,0,0,0,.42-3.5,12.34,12.34,0,0,0-1.31-5.78,10.42,10.42,0,0,0-5.88-5h-.11s-.67,0-1.82-.21a180.68,180.68,0,0,1-18.49-3c-12.14-2.77-20.58-7.77-33.35-12a8.36,8.36,0,0,1-1.19-.41l-.16.2.16-.2a23.65,23.65,0,0,0-3.81-2.35,19.25,19.25,0,0,0-8.64-2.34,11.87,11.87,0,0,0-3.55.52h0l-3.59,3.44h0a21.67,21.67,0,0,0-1.57,2.45,12.69,12.69,0,0,0-1.77,4.63,23.51,23.51,0,0,1-.68,4.33h0c-1,3.69-2.6,10.05-2.6,15.31a14.32,14.32,0,0,0,.63,4.69h0a32.1,32.1,0,0,0,2.44,5c1.62,2.71,4,5.89,7.24,7.61l.11-.21-.16.21s10.58,8.07,29,11.93v0s3.64.94,8.39,1.82a91.31,91.31,0,0,0,15,1.9,19.14,19.14,0,0,0,3.7-.32h.05v0s3.91-2.86,7.82-6a61.56,61.56,0,0,0,5.36-4.85c.64-.66,1.25-1.36,1.83-2.08a3.45,3.45,0,0,0,.73-1.67V298H156l.26.1s1.51-3,3-6.3c.73-1.62,1.51-3.33,2-4.69.26-.68.52-1.3.67-1.82a5,5,0,0,0,.27-1.2.4.4,0,0,0-.06-.26.23.23,0,0,0-.21-.21l-.15.31.26.06Z" transform="translate(-0.02)" style="fill: #020202"/>
    <path d="M69.65,277.58l.1-.21-.31-.16a122.11,122.11,0,0,1-14.54-9.38,69.22,69.22,0,0,1-9.37-8.49,25.89,25.89,0,0,1-5.78-9.64l-.27.06.21.15,1.88-2.71a20.4,20.4,0,0,0,1.2-2.08h0a.65.65,0,0,1,.26-.26,1.84,1.84,0,0,1,.73-.16c.93,0,2.6.47,5.62,2.09l.11-.21-.16.21,12.5,9.11,8.5,4.8,2.18,1.09.11-.26-.26,0s-.89,2.71-1.72,5.88c-.42,1.62-.89,3.34-1.2,4.9a22.35,22.35,0,0,0-.52,4,2.72,2.72,0,0,0,.1.94,1.09,1.09,0,0,0,.42.63l.21-.26.1-.21-.1.21.15-.21a.77.77,0,0,1-.15-.32,2.94,2.94,0,0,1-.11-.78,22.29,22.29,0,0,1,.52-3.9c.47-2.35,1.2-5,1.83-7.14.31-1,.57-2,.78-2.61s.31-1,.31-1v-.21l-2.34-1.19-8.49-4.8-12.5-9.11h0c-3-1.62-4.8-2.14-5.89-2.14a1.83,1.83,0,0,0-1,.21,1.13,1.13,0,0,0-.52.47h0a16.51,16.51,0,0,1-1.2,2.08l-1.93,2.81,0,.11a27.42,27.42,0,0,0,6.46,10.42c9.07,9.84,23.76,17.5,23.81,17.5l.26-.47Z" transform="translate(-0.02)" style="fill: #020202"/>
    <path d="M75.53,296.59l.11-.26C68,293.26,60.43,285.75,54.75,279c-2.81-3.38-5.16-6.56-6.83-8.85-.83-1.15-1.45-2.15-2-2.79-.21-.31-.37-.57-.52-.78a1.4,1.4,0,0,1-.16-.26l-.21.16.21.16.1-.11a2.53,2.53,0,0,1,.37-.36L46,266h0l-.06-.1v.1H46l-.06-.1v-.11l-.15.11s.1.1.15.1v-.21l-.15.11.1-.06-.15.06h-.06a2.38,2.38,0,0,1-.15.52.49.49,0,0,0,0,.16,1.08,1.08,0,0,0,.26.62,7.42,7.42,0,0,0,1.45,1.51,114.36,114.36,0,0,0,10.63,7.82c2,1.3,3.86,2.55,5.26,3.43.73.47,1.36.84,1.83,1.1.26.15.41.26.62.36s.26.16.37.21a1.71,1.71,0,0,1,.26.21,12.11,12.11,0,0,1,.94,1.2c1.35,1.93,3.38,5.31,5.05,8.28.83,1.46,1.61,2.81,2.13,3.8s.89,1.62.89,1.62l.36-.21.11-.26-.11.26.21-.1s-2-3.65-4.16-7.4c-1.1-1.88-2.24-3.75-3.18-5.21-.47-.73-.89-1.36-1.25-1.82-.16-.21-.37-.42-.47-.58a1.27,1.27,0,0,0-.42-.31,2.74,2.74,0,0,1-.42-.21c-1.56-.88-6.51-4.06-11.09-7.24-2.29-1.56-4.43-3.18-6-4.48a21.9,21.9,0,0,1-1.88-1.72,4.38,4.38,0,0,1-.52-.62.74.74,0,0,1-.16-.32h0a2.27,2.27,0,0,0,.16-.73.75.75,0,0,0,0-.26.35.35,0,0,0-.26-.15c-.11,0-.16.05-.21.05a1.79,1.79,0,0,0-.52.47,1.53,1.53,0,0,0-.26.31l-.11.16.11.15a128.33,128.33,0,0,0,9.42,12.82c5.67,6.77,13.28,14.32,21.09,17.45l.68.26-.36-.63Z" transform="translate(-0.02)" style="fill: #020202"/>
    <path d="M67,182.5l.06-.26a.43.43,0,0,1-.16-.05,24.21,24.21,0,0,1-8.7-4.59c-3.8-3.12-7.35-8.23-7.35-16.3a13.89,13.89,0,0,1,.11-2.14,9.85,9.85,0,0,1,4.79-7.71c4.32-2.55,12-5.88,23.29-5.88a66.27,66.27,0,0,1,17.71,2.5.43.43,0,0,1,.16.05,25.91,25.91,0,0,1,7.19,3.64,19.07,19.07,0,0,1,7.71,11.88,8.8,8.8,0,0,1,.15,1.62,9.11,9.11,0,0,1-7.81,8.91c-3.23.46-7,1-10.47,1.66a54.49,54.49,0,0,0-8.44,2h0s-.21.06-.58.21c-1.25.47-4.48,1.57-7.81,2.61-1.67.52-3.39,1-4.9,1.35a17.82,17.82,0,0,1-3.7.58,1.62,1.62,0,0,1-.62-.06,2.39,2.39,0,0,1-.37-.15v-.06h0l-.16.16-.15.21a1.73,1.73,0,0,0,.57.26,3,3,0,0,0,.73,0,23.13,23.13,0,0,0,4.53-.73c5.42-1.35,12.66-4,12.66-4h0a65.19,65.19,0,0,1,8.39-2c3.44-.68,7.24-1.2,10.42-1.62a9.57,9.57,0,0,0,8.28-9.42,9,9,0,0,0-.16-1.72,19.49,19.49,0,0,0-8.54-12.66,24.35,24.35,0,0,0-6.9-3.34A69.84,69.84,0,0,0,79.13,145c-11.36,0-19.17,3.34-23.6,5.94A10.32,10.32,0,0,0,50.48,159c-.06.73-.11,1.51-.11,2.19a20.88,20.88,0,0,0,8.29,17.34A23.85,23.85,0,0,0,67,182.67l.1-.21-.15.21Z" transform="translate(-0.02)" style="fill: #020202"/>
    <path d="M212.91,206.2l-.21.16c4.27,5,11.83,14.33,15,20.42a16.4,16.4,0,0,0,14.53,8.91h.57a48.81,48.81,0,0,0,10.06-1.51h.1A37.62,37.62,0,0,0,263,226a19.38,19.38,0,0,0,4.63-12.66,20.22,20.22,0,0,0-5.26-13.55c-.94-1-1.93-2-3-3.07a36.25,36.25,0,0,0-28.29-9.22c-6.72.78-14.32,2.81-18.6,8.13a8.25,8.25,0,0,0-1.82,5.26,8.5,8.5,0,0,0,2,5.52l.21-.16.21-.15a8.08,8.08,0,0,1-1.93-5.16,7.88,7.88,0,0,1,1.72-4.95,18.71,18.71,0,0,1,8.13-5.57,40.76,40.76,0,0,1,10.1-2.35,39.48,39.48,0,0,1,4.07-.21A34.75,34.75,0,0,1,259,197.17c1.09,1,2.08,2.08,3,3.07a19.57,19.57,0,0,1,5.1,13.18,19,19,0,0,1-4.53,12.3,40,40,0,0,1-6.67,6c-.94.68-1.77,1.2-2.34,1.56a4.29,4.29,0,0,0-.68.42c-.1,0-.16,0-.16.1l-.05.06.11.2-.06-.26a47.52,47.52,0,0,1-10,1.46h-.57a16,16,0,0,1-14.12-8.59c-3.23-6.2-10.78-15.48-15.06-20.53Z" transform="translate(-0.02)" style="fill: #020202"/>
    <path d="M140.29,261.06l.26-.05a33.42,33.42,0,0,1-1.35-9.59,20.57,20.57,0,0,1,.93-6.61,4.51,4.51,0,0,1,.89-1.36c.36-.47.78-.88,1.14-1.4a14.77,14.77,0,0,1,9.54-6.15v0a8.34,8.34,0,0,1,1,0c1.87-.16,6-.42,9.53-.42,1.15,0,2.24.05,3.13.1a6,6,0,0,1,1.92.37h.16c.42.05,4.27.83,7.81,5.05a18.07,18.07,0,0,1,4.27,11.67,19.37,19.37,0,0,1-5.94,13.91c-.42.37-.84.78-1.25,1.1a7.7,7.7,0,0,1-4.85,1.72,7.56,7.56,0,0,1-4.06-1.15c-1.3-.78-2.71-1.61-3.91-2.29q-.87-.46-1.56-.78a3.16,3.16,0,0,1-.52-.26,1.19,1.19,0,0,0-.42-.11h-.1l.05.26v-.26s-7.82-.73-12.3-.83a4.37,4.37,0,0,1-4.06-3l-.26.1h-.26a4.86,4.86,0,0,0,4.53,3.39c2.24,0,5.32.26,7.82.47,1.25.1,2.34.21,3.17.26s1.31.1,1.31.1h.1a1.1,1.1,0,0,1,.26.06,20.91,20.91,0,0,1,2.45,1.25c1.09.62,2.29,1.3,3.44,2a8.75,8.75,0,0,0,4.32,1.2,8.37,8.37,0,0,0,5.21-1.83,12.24,12.24,0,0,0,1.25-1.14,19.91,19.91,0,0,0,6.15-14.28,18.5,18.5,0,0,0-4.38-12c-3.9-4.64-8.12-5.21-8.18-5.21v.26l.11-.26a8.34,8.34,0,0,0-2.09-.42c-.94,0-2-.1-3.18-.1-4.68,0-10.57.47-10.57.47h0a15.67,15.67,0,0,0-9.9,6.35,13,13,0,0,1-1.09,1.36,5.09,5.09,0,0,0-1,1.51,20.18,20.18,0,0,0-1,6.77,33.12,33.12,0,0,0,1.4,9.74Z" transform="translate(-0.02)" style="fill: #020202"/>
    <path d="M156.18,465.22" transform="translate(-0.02)" style="fill: #020202"/>
    <path d="M156.7,466.32" transform="translate(-0.02)" style="fill: #020202"/>
    <path d="M156.07,465.85" transform="translate(-0.02)" style="fill: #020202"/>
    <path d="M200.47,445.64l-.05.26h.36c1.41.1,2.76.2,4.12.36a5.93,5.93,0,0,0,.94.05A8.62,8.62,0,0,0,212.3,443a14.23,14.23,0,0,0,2.08-3.28l-.26-.11.21.11c2-3.54,2.76-6.15,2.76-8a5.48,5.48,0,0,0-.62-2.63,4.41,4.41,0,0,0-2.55-1.93,9.9,9.9,0,0,0-2.81-.41,10.14,10.14,0,0,0-1.46.1h-.11A29.81,29.81,0,0,1,204.7,429c-3.23,1.15-7.24,2.4-10.47,3.33-1.62.47-3,.89-4,1.15l-1.62.42h-.1v.1a6.51,6.51,0,0,0-.58,2.71,6.37,6.37,0,0,0,2.35,4.95c1.87,1.67,5,3.18,10.26,4.06v-.46c-5.21-.89-8.23-2.4-10-4a6,6,0,0,1-2.13-4.59,6.65,6.65,0,0,1,.26-1.77c0-.21.15-.42.15-.52a.18.18,0,0,0,.05-.16h0l-.2-.1v.26s4.27-1.15,9.06-2.61c2.4-.73,4.9-1.56,7-2.34a28.68,28.68,0,0,0,4.94-2.19l-.15-.21v.26h1.36a7.48,7.48,0,0,1,3.54.78,3.72,3.72,0,0,1,1.4,1.3,4.39,4.39,0,0,1,.58,2.35c0,1.77-.73,4.27-2.66,7.81h-.05a13.22,13.22,0,0,1-2.24,3.39,7.92,7.92,0,0,1-5.78,2.81,5.26,5.26,0,0,1-.89-.05c-1.41-.15-2.76-.31-4.17-.41h-.14Z" transform="translate(-0.02)" style="fill: #020202"/>
    <path d="M153.89,338.42l-.16-.21-22.4,12.66.16.21.2.16a46.83,46.83,0,0,0,3.75-7.24c4.12-9.22,8.7-22.61,8.7-22.61l-.26-.11v.26h10.48a.4.4,0,0,1,.41.32h0c.47,1.35,1.36,2.45,1.67,3.7a36.16,36.16,0,0,1,.78,6.56v.26a6.72,6.72,0,0,1-3.44,5.89l.11.15.15.21a7.28,7.28,0,0,0,3.7-6.35V332a34,34,0,0,0-.78-6.67c-.36-1.41-1.25-2.5-1.67-3.7h0a1,1,0,0,0-.93-.68H143.73v.16s-.11.36-.37,1c-.78,2.29-2.86,8.18-5.21,14.12-1.2,3-2.39,6-3.59,8.54a43.84,43.84,0,0,1-3.23,6l-.68.94L154,338.5Z" transform="translate(-0.02)" style="fill: #020202"/>
    <path d="M103.09,343.12l.11-.26-.32-.16A101,101,0,0,1,87.57,334a54.55,54.55,0,0,1-9.48-8.07c-2.66-3-4.59-6.2-5.11-9.48h0s0-.21.31-.52c.89-1,4.33-3.44,16.31-7.09l-.1-.26-.26.11,13.54,34.43h.31l.11-.26-.11.26.26-.1L89.7,308.32h-.2c-8.29,2.56-12.51,4.48-14.69,5.79a8,8,0,0,0-2,1.56,1.15,1.15,0,0,0-.37.78h0c.57,3.65,2.81,7.14,5.78,10.37,8.91,9.59,24.7,16.46,24.75,16.46l.57.26-.21-.57Z" transform="translate(-0.02)" style="fill: #020202"/>
    <path d="M118.1,354l.1-.26h0c-.1,0-2.45-1-6.09-6.93s-8.7-16.57-14.07-36l-.26.06-.1.26s7.29,2.45,15.68,5c4.16,1.25,8.64,2.55,12.55,3.54a63.82,63.82,0,0,0,9.48,1.87h1.25v-.26l-.26-.1-.57,1.41c-1.36,3.12-4.74,10.94-8.34,18a91.36,91.36,0,0,1-5.31,9.27,21.84,21.84,0,0,1-2.29,2.87,3,3,0,0,1-1.72,1h0l-.05.26.1-.26-.1.26v.26h.05a2.07,2.07,0,0,0,1.14-.42,10,10,0,0,0,2.4-2.5c3-4,6.83-11.46,9.85-18s5.31-12,5.31-12l.16-.42h-1.62a62,62,0,0,1-9.37-1.82c-5.89-1.51-12.92-3.59-18.5-5.37-2.81-.88-5.21-1.66-6.93-2.24-.88-.26-1.56-.52-2-.67l-.73-.26-.47-.16.16.47c5.47,19.69,10.57,30.47,14.33,36.36s6.14,6.88,6.19,6.88h.11Z" transform="translate(-0.02)" style="fill: #020202"/>
    <path d="M66.73,477.67h-.26a14.37,14.37,0,0,0-.26,3c0,5.16,1.93,16.47,15.63,30.53l.21-.15-.21.15a1.71,1.71,0,0,0,.47.42,2.48,2.48,0,0,0,1.4.42,3.87,3.87,0,0,0,2.19-.79v-.13s1.46-4.12,2.92-9.48,2.92-11.88,2.92-16.83a11,11,0,0,0-1.1-5.47v-.11l-24.17-1.82v.21l.26.1V478l23.79,1.78v-.26l-.21.15a10.21,10.21,0,0,1,1,5.16c0,4.79-1.46,11.36-2.92,16.67-.73,2.66-1.46,5-2,6.72-.26.84-.52,1.51-.68,2s-.26.73-.26.73l.26.11-.15-.21a3.58,3.58,0,0,1-1.93.73,1.91,1.91,0,0,1-1.09-.32c-.11-.1-.21-.15-.26-.2l-.11-.06h0C68.52,497,66.7,485.89,66.7,480.84a10.72,10.72,0,0,1,.16-2.19,1,1,0,0,1,.1-.57v-.21l-.26-.16h0Z" transform="translate(-0.02)" style="fill: #020202"/>
    <path d="M130.6,481.63v.26l25.79.63v-.26l-.26.05a1.13,1.13,0,0,0,0,.26,13.22,13.22,0,0,1,.36,2.5,2.68,2.68,0,0,1-.1.89,2.44,2.44,0,0,1-.26.57,3.46,3.46,0,0,0-.31.47c-1,1.77-4.33,7.92-7.82,13.65a78.86,78.86,0,0,1-5.05,7.6,20.65,20.65,0,0,1-2.09,2.4,3.87,3.87,0,0,1-.83.63,1.26,1.26,0,0,1-.62.2.47.47,0,0,1-.26-.05H139a1.83,1.83,0,0,1-1.09-.47c-.94-.73-2.45-2.5-3.81-6.88s-2.65-11.35-3.28-22.45h-.52c.83,14.85,2.86,22.4,4.74,26.26a9,9,0,0,0,2.6,3.49A2.52,2.52,0,0,0,139,512h0v-.26l-.15.21a.94.94,0,0,0,.52.16,1.66,1.66,0,0,0,.94-.32,10.17,10.17,0,0,0,2-1.82c2.55-3,5.88-8.49,8.75-13.44,1.4-2.45,2.71-4.79,3.64-6.51.47-.89.89-1.62,1.2-2.14.16-.26.26-.47.37-.67a1,1,0,0,1,.21-.32A1.56,1.56,0,0,0,157,486a6.64,6.64,0,0,0,.1-1,15.21,15.21,0,0,0-.41-2.92l0-.21-26.26-.62v.26Z" transform="translate(-0.02)" style="fill: #020202"/>
    <path d="M97.05,235.38s.16-3.6-4-7c0,0-5.26-2.56-7.76,1.61s-.16,8.86-.16,8.86,1.36,4.58,5.79,3.7S97.57,241.63,97.05,235.38Z" transform="translate(-0.02)" style="fill: #fff"/>
    <path d="M96.74,236.89s0-2.24-3.28-4.59c0,0-4.07-1.82-5.79.73s.21,5.58.21,5.58a4.35,4.35,0,0,0,4.48,2.55C95.75,240.8,97.36,240.85,96.74,236.89Z" transform="translate(-0.02)" style="fill: #020202"/>
    <path d="M150,254.6s.31-3.59,4.9-6.41c0,0,5.57-1.82,7.45,2.71s-1,8.81-1,8.81-1.92,4.37-6.25,2.86S148.62,260.7,150,254.6Z" transform="translate(-0.02)" style="fill: #fff"/>
    <path d="M150.08,255.49s.47-2.24,4.12-3.86c0,0,4.32-1,5.52,1.88s-1.35,5.42-1.35,5.42a4.28,4.28,0,0,1-4.9,1.61C150.29,259.5,148.68,259.24,150.08,255.49Z" transform="translate(-0.02)" style="fill: #020202"/>
    <path d="M154.56,253.87a.94.94,0,1,1-.94-.94h0a.93.93,0,0,1,.93.93Z" transform="translate(-0.02)" style="fill: #fff"/>
    <path d="M155,255.54a.43.43,0,0,1-.35.48.42.42,0,0,1-.48-.33v0a.29.29,0,0,1,0-.13.41.41,0,0,1,.4-.42h0C154.82,255.17,155,255.33,155,255.54Z" transform="translate(-0.02)" style="fill: #fff"/>
    <circle cx="94.15" cy="234.85" r="0.94" style="fill: #fff"/>
    <path d="M93.61,236.47a.43.43,0,0,1-.4.42h0a.42.42,0,0,1-.42-.42h0a.41.41,0,0,1,.46-.35h0a.42.42,0,0,1,.35.35Z" transform="translate(-0.02)" style="fill: #fff"/>
  </g>
  <path d="M5.57,267.21a5.08,5.08,0,0,1-2-3.28,19.83,19.83,0,0,1-.26-4A63.67,63.67,0,0,0,1,242.79,19,19,0,0,1,0,238.26,5.67,5.67,0,0,1,1.43,234c.94,1,2.35,1.2,3.39,2a11.39,11.39,0,0,1,3.59,5.67,36.47,36.47,0,0,1,1.15,6.72c.21,2.35.47,4.74.68,7.09a9.7,9.7,0,0,1-.11,3.18,11.14,11.14,0,0,1-1.2,2.45C7.65,263.2,6.82,265.23,5.57,267.21Z" transform="translate(-0.02)" style="fill: #020202"/>
  <rect width="273.15" height="138.65" style="fill: #5ca4a9"/>
</svg>
