<?xml version="1.0" encoding="utf-8"?>
<!-- Generator: Adobe Illustrator 23.0.1, SVG Export Plug-In . SVG Version: 6.00 Build 0)  -->
<svg version="1.1" id="Camada_1" xmlns="http://www.w3.org/2000/svg" xmlns:xlink="http://www.w3.org/1999/xlink" x="0px" y="0px"
	 viewBox="0 0 424.1 785.3" style="enable-background:new 0 0 424.1 785.3;" xml:space="preserve">
<style type="text/css">
	.st0{fill:#FFFFFF;}
	.st1{fill:#D4D5D4;}
	.st2{fill:#A1B4C7;}
	.st3{fill:#E4E4E3;}
	.st4{fill:#030303;}
	.st5{fill:#7EBAB5;}
	.st6{fill:#6C8C95;}
	.st7{fill:#719692;}
	.st8{fill:#697673;}
	.st9{fill:#698580;}
	.st10{fill:#707173;}
	.st11{fill:#939598;}
	.st12{fill:#76A7A2;}
	.st13{fill:#6C908B;}
	.st14{fill:#6A898F;}
	.st15{fill:#C7CCCB;}
	.st16{fill:#9BB5D1;}
	.st17{fill:#A3CAC7;}
	.st18{fill:#5DA5AA;}
</style>
<title>pandapc</title>
<g>
	<path class="st0" d="M124.8,784.3h26.4"/>
	<path class="st1" d="M126.9,786.4"/>
	<path class="st0" d="M281.5,675"/>
	<path class="st0" d="M394.8,301.9c-5.4-8.5-14.4-14.1-24.5-15.2c-7-0.7-14,0.2-20.5,2.7c-5.5,1.8-10.9,4-16.1,6.5
		c-3,1.4-5.8,3.2-8.2,5.4c-19.2-15.8-43.4-26.4-66.4-34l-3-1c-16.3-7-33.9-10.5-51.7-10.2c-8.9-3.3-18.4-4.5-27.8-3.6
		c-0.7-5.6-3.4-10.7-7.7-14.5c-0.6-0.5-1.1-1-1.6-1.5c-2.7-4.1-5.6-8.2-8.7-12c-5.4-6-12.4-10.3-20.3-12.2
		c-13.8-2.8-28-2.3-41.5,1.5c-17.7,5.3-24.6,24.5-16.4,40.4c3.1,6,7.8,9.9,12.7,13.8c1.2,0.9,2.2,1.9,3.2,3c-1.7,2.4-2.9,5-3.7,7.8
		c-0.3,1-0.5,2.1-0.7,3.2c-4.9,2.6-9.5,5.9-13.7,9.7c-4.7,4.7-8,10.6-9.4,17.1c-2.7,3.4-5,7.1-6.8,11c-4.7,9.8-6,20.9-3.7,31.5
		c0.2,0.8,0.4,1.5,0.6,2.3c0.1,0.3,0.1,0.7,0.2,1c0.2,0.7,0.2,1.5,0.4,2.3c-1.2,3.1-1.8,6.4-1.9,9.7c-0.1,5.7,1.1,11.3,3.3,16.4
		c4.9,23.9,20.7,45,36,63.6c3.7,4.5,10.3,6.8,15.8,7.6c6,1,12.2-0.1,17.6-3.2l0.2-0.1c5.1,2.5,10.4,4.4,15.9,5.7
		c1.5,0.3,2.8,0.6,4.3,0.9c11.9,9.4,27.1,13.6,42.2,11.5c9.4,2,19.1,3.2,28.7,4.4c15.9,1.9,33.1,4.6,48.6-1.2
		c16.6-6.3,31-16.2,44.5-27.5c7.4-6.2,14.3-13,20.4-20.5c5.4-4.6,9.7-10.4,12.8-16.8l0.5-0.7l-0.1-0.2c1-2.2,2-4.4,2.9-6.5
		c0.8-2.2,1.2-4.6,1.1-7c3.5-7.5,5.7-15.5,6.4-23.7c0.4-4.4,0.3-8.7-0.1-13.1c6.9-1.4,13.6-3.8,19.8-7.3c6.7-3.5,12.3-8.7,16.4-15
		C400.6,324.7,400.9,311.2,394.8,301.9"/>
	<path class="st2" d="M150.5,457.3c0.9,2.9,3.6,4.8,6.7,4.7h0.5c-2.4-1.4-4.6-2.9-6.8-4.6L150.5,457.3"/>
	<path class="st3" d="M171.7,403.5V402c0.1,0,0.4-0.2,0.7-0.3C172.1,402.3,171.8,402.9,171.7,403.5 M137.6,384
		c0.9-0.5,1.8-0.7,2.8-0.8c0,0.1-0.1,0.2-0.2,0.3C139.4,383.4,138.5,383.6,137.6,384 M139.6,369.3h-1c-7.2,0.6-11.7,6.6-15.5,12.1
		c-2.5,3.4-4.5,7.2-6.1,11.1c-1.3,4.5-1.8,9.1-1.7,13.8c-0.2,8.8,0,18,3.2,26.4c2.8,7.6,8.4,13.8,15.5,17.5c5.2,2.4,10.6,4.6,16,6.5
		l0.3,0.7h0.2c2.2,1.7,4.4,3.3,6.8,4.6c5.3-0.3,7.4-5.5,6.2-9.6c4.9-21.3,16.6-40.5,26.3-59.9c1.1-2.3,0.2-5.1-2.1-6.2
		c-0.7-0.3-1.4-0.5-2.2-0.5c-0.5,0-1,0.1-1.5,0.2c-1.1-1.7-2.5-3-4.3-4c-6.6-3.8-14.4-3.7-21.7-5.7c-6.4-1.5-11.7-7-18.6-7"/>
	<path class="st3" d="M69,361c-2.9-0.1-5.8,1.2-7.6,3.5c-0.9,1.2-0.9,2.9,0.2,4c-0.3,1.4,0.6,2.9,2.1,3.2h0.3c0.4,0,0.7-0.1,1.1-0.2
		c0.9-0.3,1.8-0.5,2.7-0.5c3.5,0,6.8,2.4,9.8,4.2c3.8,2.3,7.7,4.8,11.5,7.2s7.3,4.6,10.7,7s6.6,4.5,7.2,8.7c0,0.5,0.2,0.9,0.6,1.2
		c0.3,5.3,0.3,10.7,0.1,16c-0.1,1.4,1,2.7,2.4,2.7c0,0,0,0,0,0h0.3c1.5,0.1,2.8-1.1,2.9-2.7l0,0c0.2-5.9,0-11.8-0.2-17.7
		c2.1-3.5,0.9-8.2-2.1-11c-2.4-2.3-5.5-3.1-8.3-4.6c-3.3-1.7-6.1-4.1-8.4-7c-2.1-2.6-4.7-4.8-7.8-6.2c-3.4-1.7-6.4-3.9-9.7-5.6
		c-2.4-1.2-5-1.9-7.7-1.9"/>
	<path class="st3" d="M74.7,397.8c-1.6,0.2-2.8,1.7-2.6,3.3c0.1,0.9,0.6,1.6,1.3,2.1c7.8,5.4,15.5,10.9,23.3,16.2
		c3.8,2.3,7,5.5,9.2,9.3c1,1.9,2,3.9,3.1,5.8c0.5,0.9,1.6,2.7,2.2,4c-0.9,1.1-0.7,2.6,0.4,3.5c0,0,0,0,0,0l0,0
		c0.2,0.1,0.3,0.2,0.5,0.3l0.5,0.3c0.5,0.2,1,0.4,1.6,0.4c0.5,0,0.9-0.1,1.3-0.4c3.7-2.8,0.8-6.3-0.8-9.5c-2.4-4.8-4.7-10-8.6-13.8
		s-9.5-7-14.2-10.3c-5.2-3.6-10.3-7.2-15.5-10.9C75.7,397.9,75.2,397.7,74.7,397.8"/>
	<path class="st4" d="M122.6,572.2c-1.6,2.4-3.1,4.8-4.8,7.1c-1,1.5-2,3-3.1,4.4c-0.4-0.9-0.6-1.8-0.8-2.2c-0.8-1.8-1.6-3.6-2.4-5.4
		c-1.6-3.7-3.1-7.5-4.4-11.4c-1.8-4.9-9.5-2.8-7.8,2.2c1.7,4.7,3.6,9.3,5.6,14c1.6,3.5,3,9.3,6.4,11.5c3.9,2.5,7.2-0.9,9.5-3.7
		c3.2-4,6.2-8.2,8.9-12.5C132.2,571.9,125.3,567.8,122.6,572.2"/>
	<path class="st5" d="M331.7,614.4c0-1.7-0.2-3.4-0.5-5.1c-1.1-5.5-3.1-10.8-5.9-15.6c-1.3-4-2.6-7.9-4-11.8
		c-1.6-4.5-3.6-8.8-6.2-12.8c-2.7-4.2-5.7-8.1-7.8-12.6c-4.1-9-5.3-19-9.1-28.1c-3.3-8.5-8.6-16.1-15.5-22.1
		c-6.4-5.2-14.8-9.3-23.3-9.1c-3.8,0-7.2,2.1-9,5.4c-2.1,3.7-4.7,7.1-7.9,9.9c-7.4,6.3-16.7,9.6-25.7,12.9c-1.1,0.4-2.3,0.9-3.4,1.3
		l1.2-5.1c1.1,0.1,2.2-0.3,3.1-1c4-3.2,9.9-3,14.6-4c4.3-0.8,8.2-3,11.1-6.2c3.4-4.3,3.1-9.5,3-14.7c0-3.1,0-6.2-0.2-9.3
		c0-2.3,0-4.5-1.8-6.3c-3.1-3.3-10.2-1.5-14.2-1.5c-5,0.2-9.9,0-13.4,4.2c-2.8,3.4-3.3,8.1-4.2,12.3c-3.6,5.8-6.3,12.2-7.9,18.9
		c-0.3,1.3,0,2.6,0.8,3.6c-0.6,1.8-1.1,3.5-1.6,5.3c-0.5,1.7,0.2,3.5,1.8,4.4c0.3,0.9,0.8,1.6,1.6,2.1c-3,1.3-6,2.7-8.8,4.2
		c-4.3,0.4-8.3,3.5-11.5,7.4c-2.1,1.6-4.1,3.3-6.1,5.1c-0.1,0-0.2,0-0.3,0c-4.3-0.9-8.5-1.9-12.6-3.1c-0.6-6.6-5.7-12.9-10.6-17.4
		c-0.7-0.7-1.5-1.3-2.3-1.9c2.2,0.8,4.6-0.3,5.4-2.5c0.3-0.7,0.4-1.5,0.2-2.3c-0.6-3.2-0.9-6.4-0.8-9.6c0.1-0.9,0.2-1.9,0.1-2.8
		c0-2.1-1.7-3.9-3.9-3.9h0h-0.4v-3.9c-0.1-2.1-1.8-3.7-3.8-3.8c0-2.1,0-4.2-0.2-6.3c0-1.9-1.4-3.5-3.2-3.8c0-2.2,0-4.4-0.2-6.6
		c0-2.2-1.9-3.9-4.1-3.9h-0.1c-0.4,0-0.8,0.1-1.1,0.2c-0.1-0.1-0.2-0.1-0.4-0.2c0-0.2-0.1-0.5-0.2-0.7c-0.2-1.5-0.4-2.9-0.6-4.5
		c0-0.3-0.1-0.6-0.2-0.9V466c0-2.2-1.8-3.9-4-3.9l0,0c-0.3,0-0.7,0.1-1,0.1l0,0c-0.7-1.4-2.2-2.2-3.7-1.9c0.4-0.9,0.5-1.9,0.1-2.8
		c-1.2-4.3-5-6.1-9.4-6.1c-1.6,0-3.2,0-4.9-0.2c-0.5-0.2-1-0.3-1.6-0.5c-0.1,0-0.2-0.1-0.3-0.1l-0.6-0.2c-2.5-1.2-4.9-2.6-7.2-4.1
		c-4.8-2.8-9.7-5.5-14.3-8.5c-4.7-3.2-8.7-7.3-11.9-12c-3.2-4.5-6.3-9-9.5-13.5c-2.8-3.9-5.3-8.3-8.7-11.7c-0.8-4.1-3.4-7.7-7-9.8
		c-1.8-4-3.7-8.1-5.9-12c-1.1-1.9-3.6-2.5-5.5-1.4c0,0-0.1,0-0.1,0c-0.9,0.5-1.5,1.4-1.8,2.3c-1,4.6-2.3,9.2-3.7,13.7
		c-2.6,2.5-4,6-3.9,9.6l0,0c-1.6,3-2.7,6.2-3.4,9.5c-0.3,2.4,0.1,4.9,1.1,7.1c0,1.3,0.7,2.4,1.8,3.1c0.5,0.7,1,1.4,1.5,2
		c0.3,1.4,1.2,2.5,2.5,3.1c1.8,2.2,3.6,4.4,5.3,6.5c0.1,0.6,0.3,1.1,0.3,1.5c0.4,1.5,1.6,2.7,3.2,3l0.8,1.1c0.6,0.8,1.2,1.5,1.8,2.4
		c0.1,0.3,0.1,0.6,0.2,0.9c0.3,1.2,1.2,2.3,2.4,2.7c0,0,0.2,0.2,0.2,0.3c0.6,2.4,1.3,4.9,2,7.2v1.1c-0.1,1.2,0.5,2.4,1.5,3.1
		c0.4,1,0.8,2.2,1.2,3.2c0.5,1.1,1.3,2,2.4,2.4v2.1c0,2.2,1.7,3.9,3.9,3.9c0,0,0,0,0,0l0,0c0.8,0,1.5-0.2,2.1-0.6
		c1.7,3.9,3.2,7.9,4.3,12c-1.2,0.7-1.8,2.1-1.6,3.4c2.3,22.4,3.8,44.8,4.5,67.2c0.3,11.2,0.2,22.5,0.3,33.7c-0.1,2.8,0.6,5.6,2,8
		c-8.9,15.1-10.1,34.1-8.4,51.2c1.2,11.7,2.8,19.4,3.6,30.5c-0.9,5.4-1.2,10.9-0.6,16.4c0.8,8.6,2.1,19.4,9.3,25
		c4.4,3.4,9.3,3.7,14.7,4.3l12,1.2c7.8,0.7,15.4,1.4,23.1,1.9c31.6,2.1,63.3,2.4,95,1.1h0.4c0.7,0.4,1.6,0.3,2.3-0.1h2.6
		c0.7,0.5,1.7,0.5,2.4-0.1c10-0.5,20.4-1.5,29.2-6c2.4,0.3,4.9,0,7.2-1c6.7-2.8,9.6-9.7,8.2-16.7s-2.7-13.8-3.8-20.8
		c-1.2-7.6-1.8-11.2-2.6-18.7c-1.5-13.5-2.4-27-2.7-40.6c2.8-1.9,5.5-4,8.1-6.2c1.5-1.3,2.9-2.7,4.3-4.1c0.4,0.2,0.9,0.6,1.3,0.8
		c-0.4,1-0.7,2-1,3.1c-1.3,4.9-2.1,9.9-2.4,15c-0.3,4.4-0.8,9.8,0.9,14c3.3,8.2,14.9,8.4,22.1,7.1c9.1-1.8,17.4-6,24.3-12.2
		c7.7-6.6,7.7-14.9,5.2-23.8 M88.3,443.6c0.1-0.2,0.2-0.4,0.2-0.6c0.2,0,0.3,0.2,0.5,0.3C88.7,443.3,88.4,443.4,88.3,443.6
		 M111.2,488.6c-0.7-0.5-1.4-0.7-2.3-0.8l-1.6-2.1c-0.5-0.6-1.3-1.1-2.1-1.2l-1-2.9c-0.2-0.6-0.3-1.2-0.6-1.8c1.1-0.2,2-0.9,2.7-1.8
		c0.9-1.5,1.8-3,2.6-4.5c0,5,0.9,10,2.7,14.7C111.6,488.3,111.5,488.4,111.2,488.6 M129.5,463.1c-0.2,0.5-0.3,1-0.3,1.5
		c-1-0.1-2,0.2-2.9,0.7c-1.1,0.4-2,1.4-2.1,2.6v0.7c-0.2-0.4-0.3-0.8-0.4-1.2c-1-2.3-3.7-3.4-6-2.4c0.9-1.8,1.5-3.7,1.7-5.6
		c0.5,0.1,1,0.1,1.4,0.2c0.7,0.1,1.3,0.1,2,0c0.9-0.1,1.9-0.1,2.8,0c0.6,1.8,2.4,3,4.3,2.8c0,0.3-0.3,0.5-0.3,0.9 M140.3,515.2
		c-0.2-2-0.4-4-0.6-6.2c1,0.5,2.2,0.6,3.2,0.3h0.2v0.5c0.3,1.3,1.3,2.3,2.6,2.7c0.2,0.6,0.2,1.2,0.4,1.9c0.5,2,2.6,3.3,4.6,2.8
		c0.4-0.1,0.8-0.3,1.2-0.5l0.5,0.2c0.2,1.4,0.4,2.8,0.6,4.1c0.1,0.5,0.4,1.1,0.6,1.5c-4.1-3.1-8.7-5.6-13.5-7.3 M191,629
		c-0.1,0.1-0.2,0.1-0.3,0.2l0,0c-0.6-0.1-0.9-0.4,0.6-0.5C191.2,628.8,191.2,629,191,629"/>
	<path class="st6" d="M70.6,654.7v0.7l0,0C70.5,655.2,70.5,654.9,70.6,654.7 M71.7,492.3l-0.8,118.4c1.2-5.6,3.2-11,5.9-16
		c-0.1-1.1-0.1-2.4-0.1-3.5c-0.7-1.9-1-4-1-6.1c0-11.2,0-22.5-0.3-33.7C74.8,531.7,73.5,511.9,71.7,492.3 M23.8,415.5l6.6,9.2
		l40.7,62.9c0-1.1-0.3-2.3-0.3-3.3c-0.2-1.3,0.4-2.7,1.6-3.4c-1.1-4.1-2.6-8.1-4.3-12c-0.7,0.4-1.4,0.6-2.2,0.6
		c-2.1,0.1-3.9-1.6-4-3.7c0,0,0,0,0,0l0,0v-2.4c-1.1-0.4-2-1.3-2.4-2.3c-0.4-1.1-0.8-2.1-1.2-3.3c-0.9-0.8-1.5-1.9-1.5-3.1v-1.1
		c-0.7-2.3-1.5-4.8-2-7.2c-0.1,0-0.2-0.3-0.3-0.3c-1.2-0.4-2.2-1.4-2.4-2.7c0-0.3,0-0.6-0.2-0.9c-0.7-0.8-1.2-1.5-1.9-2.4
		c-0.3-0.3-0.6-0.7-0.8-1c-1.5-0.2-2.8-1.3-3.3-2.8c-0.2-0.6-0.2-1.1-0.3-1.5l-1.9-2.4c-1.2-0.7-2.3-1.5-3.4-2.4l0.2-0.3l-0.2,0.3
		l-1.6-1.1l2.9,0.6l-1-1.3c-1.3-0.6-2.2-1.7-2.5-3.1c-0.5-0.6-1-1.4-1.4-2c-1-0.7-1.7-1.8-1.8-3l-3.5-3.9l-7.6-0.5"/>
	<path class="st6" d="M70.6,655.4L70.6,655.4l-0.4,42l4,9.7v-2.8c-0.5-1.7-0.9-3.5-1.1-5.3c-1.1,0.3-2.2-0.4-2.4-1.4c0,0,0,0,0-0.1
		v-0.1l0,0c-0.1-0.3-0.1-0.6,0-0.9c0.6-1.9,1-3.7,1.7-5.5c-0.5-5.4-0.2-10.8,0.7-16.1c-0.6-7.3-1.5-13.1-2.3-19.6"/>
	<path class="st7" d="M74.5,697.7c-0.1,0.1-0.2,0.3-0.3,0.4c-0.2,0.4-0.6,0.6-1,0.8c0.3,1.8,0.7,3.6,1.1,5.3
		C74.4,702.1,74.4,699.8,74.5,697.7 M79.7,650.5c0,0.5-0.1,0.9-0.3,1.4c0.1-0.2,0.2-0.4,0.3-0.6V650.5 M76.9,594.7
		c-2.7,5-4.7,10.4-6,16l-0.2,44c0,0.3,0.1,0.4,0.1,0.7c0.9,6.5,1.8,12.4,2.3,19.6c-0.9,5.3-1.2,10.7-0.7,16.1
		c0.6-1.8,1.2-3.8,1.9-5.6c-0.9,0.1-1.8-0.6-1.9-1.5v-0.1l0,0c0-0.1,0-0.3,0-0.5c0.8-5.9,1.6-11.8,2.8-17.5c0-3.2-0.2-6.5,0-9.7
		c-0.8-0.4-1.3-1.3-1.2-2.3c1.3-9.4,2.6-18.7,3.9-28.1c-0.3,0.2-0.7,0.2-1.1,0.3c-0.9,0.1-1.7-0.6-1.8-1.5l0,0l0,0
		c0-0.1,0-0.3,0-0.4c0.8-6.9,2-13.7,3.7-20.4c-0.7-0.3-1.2-1-1.3-1.8C77.2,599.6,77,597.2,76.9,594.7 M80.9,524.3L80.9,524.3
		 M43.9,432l1.8,2.4c0.1,0.6,0.3,1.1,0.3,1.5c0.4,1.5,1.7,2.6,3.2,2.8l0.8,1.1c0.6,0.8,1.2,1.5,1.8,2.4c0.1,0.3,0.1,0.6,0.2,0.9
		c0.3,1.3,1.2,2.3,2.4,2.7c0.1,0.1,0.2,0.2,0.3,0.3c0.5,2.4,1.3,4.9,2,7.2v1.1c-0.1,1.2,0.5,2.4,1.5,3.1c0.4,1,0.8,2.2,1.2,3.2
		c0.5,1.1,1.3,2,2.4,2.4v2.2c0,2.1,1.7,3.9,3.8,3.9c0,0,0,0,0,0h0.2c0.8,0,1.5-0.2,2.2-0.6c1.7,3.9,3.1,7.9,4.3,12
		c-1.2,0.7-1.8,2.1-1.6,3.4c0,1.1,0.3,2.3,0.3,3.3l0.5,0.8v4c1.9,19.7,3.1,39.5,3.7,59.2c0.3,11.3,0.2,22.5,0.3,33.7
		c0,2.1,0.3,4.1,1,6.1c-0.1-7.1,0.4-14.2,1.6-21.3c0-1.2,0-2.4,0.1-3.6h-0.2c-1,0-1.9-0.8-1.9-1.8l0,0v-0.1c0-5.7,0.2-11.4,0.5-17.1
		c-0.6-0.4-0.9-1-1-1.6c-0.6-8.4,0-16.8,1.7-25c-0.3,0.2-0.6,0.3-1,0.3c-1.1,0.1-2.1-0.8-2.1-1.9c0-0.4,0-0.8,0.2-1.1
		c3.3-5.2,4.7-11.3,6.4-17.2v-0.2c0-18.9-7-37.1-19.6-51.2l-13.5-15.2c-1.5-0.7-2.8-1.5-3.9-2.2 M34.7,419.9c0,1.2,0.7,2.4,1.8,3
		c0.5,0.7,1,1.4,1.5,2c0.3,1.4,1.2,2.5,2.5,3.1l1.1,1.3l2,0.4L34.7,419.9"/>
	<path class="st6" d="M78.1,714.3c0,0.2-0.2,0.4-0.3,0.6c-0.1,0.1-0.1,0.2-0.2,0.3l0.6,1.5L78.1,714.3"/>
	<path class="st8" d="M78.5,713.7c-0.1,0.2-0.2,0.4-0.3,0.6v2.6l0.2-0.6c-0.3-0.4-0.4-1-0.2-1.5C78.3,714.4,78.4,714,78.5,713.7"/>
	<path class="st6" d="M69.7,648.7v6.6h0.8v-0.6C70.3,652.8,70,650.8,69.7,648.7 M31.1,415.7l0.3-0.2l0,0L31.1,415.7 M22.2,414.6
		l7.6,10.6l41,63.4L70,614.8c0.3-1.4,0.6-2.8,0.8-4.1l0.8-118.4c-0.2-1.5-0.3-3.1-0.5-4.6l-40.6-62.9l-6.6-9.2l7.4,0.3l3.4,3.9v-0.1
		c-0.3-0.6-0.6-1.3-0.7-2l-2.2-2.6h-0.2L22.2,414.6"/>
	<path class="st6" d="M70.6,655.4h-0.7l-0.3,42.2l4.9,11.6v-2l-4-9.7l0.3-42.1"/>
	<path class="st7" d="M80.7,647.3c-0.2,0.8-0.5,1.5-0.7,2.3c-0.1,0.3-0.2,0.7-0.3,0.9v0.8c0.3-0.6,0.6-1.3,0.9-1.9L80.7,647.3
		 M70.9,610.7c-0.3,1.4-0.6,2.8-0.8,4.1l-0.3,33.9c0.2,2.1,0.5,4.1,0.8,6L70.9,610.7 M81.2,522.6c-0.1,0.6-0.2,1.1-0.3,1.6v0.3
		c0.2-0.4,0.4-0.8,0.6-1.1l0.2-0.3v-0.3C81.5,522.8,81.4,522.7,81.2,522.6 M71.2,487.6c0.2,1.5,0.3,3.1,0.5,4.7v-4L71.2,487.6
		 M47.7,434.3l13.6,15.2c12.6,14.1,19.6,32.3,19.6,51.2v0.1c0.3-0.8,0.5-1.7,0.8-2.5c-0.6-18.3-7.6-35.8-19.8-49.5l-12.3-13.6
		C49,434.9,48.3,434.6,47.7,434.3 M34,417.5c0.2,0.6,0.5,1.3,0.7,2v0.1l8.9,9.9l1.4,0.3L34,417.5"/>
	<path class="st6" d="M77.6,715.2c-0.2,0.2-0.4,0.3-0.7,0.5l1.3,3.1v-2.1L77.6,715.2"/>
	<path class="st8" d="M78.6,716.3l-0.2,0.6l-0.1-0.2v2.1l0.1,0.2l0.5-1.1v-0.2c0-0.3,0.1-0.6,0.3-0.9L78.6,716.3"/>
	<path class="st9" d="M121.7,504.3l31.8,28.7c3.5,3.2,6.6,6.7,9.1,10.7c1,1.5,1.9,3.2,3.1,4.8c1.5,2.2,2.5,4.7,2.8,7.4
		c0.3,1.8,0.4,3.6,0.4,5.4v4.7l-4.3,55.3c0,0-3.6,33-2.4,39l0.7,32.8l3.8,1L177.1,545"/>
	<path class="st9" d="M121.6,504.5l31.8,28.7l0.3,0.3c3.3,3,6.3,6.5,8.7,10.3c1,1.6,1.9,3.2,3.1,4.8c1.4,2.1,2.4,4.6,2.7,7.1
		c0.3,1.8,0.4,3.6,0.4,5.3v4.7l-4.3,55.3l0,0c0,0-2.7,24.3-2.7,35c0,1.4,0.1,2.8,0.3,4.1l0.4-0.1h-0.4l0.7,33.1l4.7,1.1l10.4-149.2
		l-0.8-0.1l-10.3,148.3l-3.1-0.8l-0.7-32.6l0,0c-0.2-1.3-0.3-2.7-0.3-4c0-5.3,0.6-14.1,1.3-21.5c0.3-3.7,0.6-7.1,0.9-9.5l0.4-4l0,0
		l4.3-55.4V561c0-1.8-0.1-3.7-0.4-5.5c-0.3-2.7-1.3-5.3-2.8-7.5c-1.1-1.5-2.1-3-3-4.7c-2.6-4-5.7-7.6-9.2-10.8L122,503.9
		L121.6,504.5L121.6,504.5z"/>
	<path class="st9" d="M84.5,708.2c-0.4-2.1-3.1-1.7-3.8-0.1l-0.3-0.3c-0.3-0.4-0.8-0.6-1.4-0.6c-0.6-1-1.8-1.3-2.8-0.7
		s-1.3,1.8-0.7,2.8v0.1c-0.8,1.9,0.1,4.1,2,4.9c0.4,0.2,0.9,0.2,1.4,0.2c0.2,0.2,0.5,0.2,0.8,0.3c-1.1,2.3,2.3,4.2,3.6,1.9
		C84.7,714,85.1,711,84.5,708.2z"/>
	<path class="st9" d="M167.2,692.4L167.2,692.4c-0.1-0.2-0.2-0.3-0.3-0.4l-1-1.2c-0.4-0.4-1-0.6-1.6-0.6c-0.5,0-1.1,0.2-1.5,0.6
		c-0.4,0.4-0.6,0.9-0.6,1.4c0,0.2,0,0.3,0,0.5c0,0.3,0.1,0.7,0.3,1c0.7,1.4,1.9,2.4,3.4,2.7c1.1,0.3,2.2-0.4,2.5-1.5
		c0.3-1-0.3-2.1-1.3-2.5L167.2,692.4z"/>
	<path class="st5" d="M85.7,704.2c-0.4,0-0.9,0.1-1.3,0.3c0.1-0.2,0.1-0.5,0.2-0.6c0.2-0.6,0-1.2-0.3-1.6c0-1.3,0-2.7,0.2-4
		c0.2-2.1-2.4-2.5-3.6-1.2c0-2.8,0.2-5.5,0-8.3c0-0.6-0.3-1.2-0.9-1.5c1.2-3.7,3.1-7.2,4.1-10.8c1-4,1.8-8,2.2-12.1
		c-0.1-1.1-1-2-2.2-2c-0.7,0-1.3,0.4-1.6,0.9c-0.8,1.9-1.7,4-2.5,5.9c0.6-2.9,1.4-5.8,2.5-8.6c1.7-4.1,3-7.8,2.3-12.2
		c-0.2-1.7-2.9-1.9-3.7-0.5c-0.7,1.3-1.3,2.7-1.9,4c0.2-0.7,0.3-1.5,0.5-2.3c1.4-5.1,4-9.7,5.1-14.9c1.1-5.1,1-10.4-0.1-15.5
		c-0.2-0.9-1.1-1.6-2.1-1.5l3.1-22.2c0.1-1-0.4-1.9-1.3-2.3c1.3-25.2,2.5-50.3,1.7-75.4c-1.3-1-2.3-2.4-2.8-4c-0.1,0-0.2,0-0.3,0
		c0.9-3,2-6,3.2-8.9c0.4-1.2-0.1-2.4-1.3-2.9l0,0c-0.2-0.1-0.4-0.1-0.6-0.2c0.7-2.8,1.8-5.4,3.1-8c1.2-2.3-2.3-4.4-3.5-2
		c-4.4,8.3-4.7,18.3-9.8,26.3c-1.2,1.9,1.4,3.7,2.9,2.7c-1.8,8.3-2.3,16.8-1.7,25.2c0.1,0.6,0.5,1.2,1,1.5
		c-0.3,5.7-0.5,11.4-0.5,17.1c-0.1,1,0.7,1.9,1.8,2c0,0,0,0,0,0h0.3c0,1.2,0,2.4-0.1,3.6c-1.8,10.6-2.1,21.3-1,32
		c0.1,0.7,0.5,1.4,1.2,1.8c-1.7,6.7-3,13.5-3.8,20.4c-0.3,1.8,1.6,2.3,2.8,1.7c-1.3,9.4-2.6,18.8-3.9,28.1c-0.2,0.9,0.3,1.9,1.2,2.3
		c0,3.3,0.1,6.5,0.1,9.7c-1.3,5.7-2.1,11.7-2.8,17.5c-0.2,1.2,0.8,1.9,1.9,1.9c-1.2,3.7-2.4,7.4-3.6,11.2c-0.4,1,0.1,2.2,1.1,2.6
		c1,0.4,2.2-0.1,2.6-1.1c0.1-0.2,0.2-0.2,0.2-0.4c-0.3,5.4-0.2,10.9-0.3,16.2c-0.1,2.1,2.7,2.6,3.8,1c0.2-0.4,0.5-0.7,0.7-1.1
		c-0.1,0.3-0.1,0.7-0.1,1c-0.2,0.7,0.1,1.5,0.7,1.9c0,0.3-0.1,0.6-0.2,0.9c-0.6,2.5,3.3,3.6,3.9,1c0.2-0.8,0.4-1.6,0.6-2.3
		c0.7,0.2,1.4,0,1.8-0.6c2-2,3.4-4.6,4-7.3c0.4-2-0.9-3.8-2.9-4.2h-0.5 M81.4,523.3c-0.3,0.4-0.5,0.8-0.7,1.3c0.1-0.7,0.2-1.3,0.4-2
		c0.3,0.1,0.6,0.2,0.9,0.2C81.8,522.9,81.6,523.1,81.4,523.3"/>
	<path class="st9" d="M159,501.4c-1.9-5.4-4.1-10.6-6.6-15.7c-1.8-3.7-3.8-7.4-5.9-10.9c-2-5.7-4.7-12.4-10.2-13.7
		c-0.7-0.6-1.5-1-2.3-1.5c-1.1-0.5-2.3-0.1-2.9,1c-0.2,0.3-0.2,0.6-0.2,0.9c-0.1,0.1-0.3,0.2-0.3,0.3h-0.2
		c-7.8,1.5-15.9,3.3-21.4,9.5c-1.5,1.5,0.5,4.6,2.4,3.1c6.5-4.6,14-6.5,21.6-7.9c1.5,2.7,3.3,5.1,4.9,7.8c3,4.8,5.5,9.9,7.6,15.1
		c2.2,5.4,4.1,11,5.6,16.6c-0.6-0.3-1.3-0.5-1.8-0.7c-0.6-0.2-1.2-0.2-1.7,0.2c-1.5-0.2-2.9-0.3-4.4-0.3l-5.3-1.2
		c-2.1-0.4-3.8,2.7-1.6,3.7c1.6,0.7,3.3,1.1,5.1,1.2c4,1,7.9,2.4,11.6,4c0.6,2.3,1.2,4.5,1.8,6.7c0.3,1.1,1.4,1.7,2.5,1.4
		c1.1-0.3,1.7-1.4,1.4-2.5l0,0c-0.2-0.7-0.4-1.4-0.6-2.1c0.8,0.7,2,0.7,2.8-0.1c0.2-0.3,0.4-0.5,0.5-0.9
		C162.9,510.9,160.5,505.8,159,501.4z"/>
	<path class="st9" d="M234.9,475.8c-2.8,0.7-5.6,1.8-8.2,3.1c-3.7,1.6-6.9,4.4-9,7.9c-0.6,0.9-0.3,2,0.6,2.6l0,0
		c0.1,0.1,0.3,0.2,0.4,0.2c-1.5,3.1-2.5,6.4-3.6,9.5c-3,8-6.6,15.8-10.7,23.3c-0.2,0-0.3,0-0.5,0c-1.2,0.2-2.1,1.4-1.9,2.6
		c0.1,0.3,0.2,0.6,0.3,0.9l-1.7,2.9c-0.6,1-0.2,2.2,0.7,2.7c1,0.6,2.2,0.2,2.7-0.7c0.5-0.8,1-1.7,1.4-2.5c2.3-0.7,4.4-1.5,6.6-2.4h4
		c1.1,0,2-0.9,2-2l0,0c0-0.3,0-0.5-0.1-0.8l3.1-1.7c1-0.6,1.3-1.8,0.7-2.7s-1.8-1.3-2.7-0.7c-2.5,1.5-5.1,2.8-7.8,3.9h-2.2
		c2.8-5.3,5.4-10.8,7.7-16.3c1.7-4.1,3.1-8.5,4.8-12.6c2.3-5.3,5.7-8,10.8-10.4c0.2-0.1,0.5-0.3,0.7-0.5c0.4-0.3,0.7-0.4,1-0.6
		c1.3-0.9,3.3-1.9,3.2-3.8c-0.1-1.1-1.1-1.9-2.2-1.8L234.9,475.8z"/>
	<path class="st9" d="M280.4,595.3c-2.2,5.3-5,10.3-8.3,15c-0.2,0.2-0.3,0.4-0.5,0.6c-0.8,1-1.5,2.2-2.5,3.2l-0.1,0.2
		c-0.5,0.5-0.6,1.3-0.2,1.9c0.3,1,1.3,1.6,2.3,1.3c0,0,0,0,0,0l0,0c0.3-0.1,0.5-0.2,0.8-0.5h0.1c1.2-1,2.2-2.1,3.1-3.4
		c1.5-0.9,2.7-2.2,3.3-3.9c1-1.9,2.7-3.5,3.4-5.6c0.3-0.3,0.6-0.5,0.9-0.7c0.9-0.8,1.1-2.1,0.4-3.1c-0.1-0.2-0.2-0.3-0.4-0.4
		c0.5-1.1,1-2.3,1.5-3.4C285.3,594,281.4,592.9,280.4,595.3z"/>
	<path class="st9" d="M47.3,378.9l26.2,38.9c0,0,12.6,18.6,15.4,21s18.8,14.4,18.8,14.4l5.2,8.2l16.8-2.2l-7.9-12.6l-26.8-15
		l-18.5-23.9L47.3,378.9z"/>
	<path class="st9" d="M47.3,378.9l-0.3,0.3L73.1,418c0,0,3.1,4.6,6.6,9.6c1.8,2.5,3.6,5,5.2,7.1c0.8,1.1,1.6,1.9,2.1,2.8
		c0.5,0.6,1,1.1,1.6,1.5c1.4,1.2,6.2,4.8,10.5,8.1s8.4,6.3,8.4,6.3l0.3-0.3l-0.3,0.2l5.3,8.5l17.8-2.4l-8.4-13.1l-26.9-15.1
		l-18.4-23.8l-29.1-28.8l-0.6,0.5L47.3,378.9l-0.3,0.3l29.1,28.8L94.6,432l26.9,15l7.6,12l-15.9,2l-5.1-8l0,0l-2.7-1.9
		c-2.3-1.8-5.9-4.5-9.1-6.9s-6.2-4.6-7.2-5.6c-0.5-0.5-1-1-1.4-1.5c-2.1-2.5-5.6-7.5-8.5-11.6c-1.5-2.1-2.8-4-3.8-5.5l-1.6-2.3
		l-26.3-39L47.3,378.9l-0.3,0.3L47.3,378.9z"/>
	<polygon class="st10" points="129.8,407.2 145.1,414.9 168.1,423.5 174.4,425.6 177.2,427.3 200.6,432.7 225.5,439 231.8,439.2 
		194.9,433.4 173.3,430 169.9,429.9 165.8,425.3 152.1,420 	"/>
	<polygon class="st11" points="129.8,407.2 129.5,407.6 145,415.2 168,423.9 174.2,426 177.1,427.7 200.5,433.1 225.4,439.4 
		231.8,439.6 231.9,438.9 195,433 173.3,429.6 170.1,429.5 166,425 152.2,419.6 129.9,406.9 129.8,407.2 129.5,407.6 129.8,407.2 
		129.5,407.6 151.9,420.3 165.6,425.7 169.7,430.3 173.2,430.4 194.8,433.8 231.8,439.6 231.8,439.2 231.8,438.8 225.6,438.6 
		200.7,432.4 177.4,427 174.6,425.2 168.3,423.1 145.3,414.5 129.9,406.9 129.5,407.6 	"/>
	<path class="st10" d="M137.6,392.7c0,0,31.8,17.2,34.7,18.4c1.9,0.6,4.1,0.3,5.7-0.9l1.1-0.5l2.3,1.5c0,0,0.5,1.3,1.4,1.5
		c0,0-0.5,1.7,1.8,2.6c0,0,17.9,4.7,26.2,6.3s19.3,2.8,19.3,2.8l9.9,0.6c0,0-34.3-1-59.9-7.9l-1.6-2.2l-4.1,0.4
		C174,415.4,137.1,395.5,137.6,392.7z"/>
	<path class="st11" d="M137.6,392.7l-0.2,0.3c0,0,7.9,4.3,16.2,8.7c4.1,2.3,8.4,4.5,11.8,6.3c1.7,0.9,3.1,1.7,4.3,2.3s1.9,1,2.3,1.1
		c0.7,0.3,1.4,0.4,2.1,0.4c1.4-0.1,2.8-0.5,4.1-1.3l-0.3-0.3l0.1,0.4l0.9-0.4l2.1,1.3l0.2-0.3l-0.4,0.1c0.1,0.3,0.2,0.6,0.4,0.8
		c0.3,0.5,0.7,0.9,1.2,1.1l0.2-0.4h-0.4c0,0.2,0,0.3,0,0.5c0,0.5,0.1,0.9,0.4,1.3c0.4,0.6,1,1,1.7,1.3l0,0c0,0,17.9,4.6,26.2,6.3
		s19.2,2.7,19.2,2.7l0,0l9.9,0.7v-0.8h-1.5c-6.9-0.3-35.9-1.8-58.3-7.9l-0.1,0.4l0.3-0.2l-1.8-2.4l-4.4,0.4v0.4l0.1-0.3l-1.6-0.9
		c-3.5-1.9-12.2-6.7-20-11.4c-3.9-2.4-7.6-4.7-10.3-6.5c-1.1-0.8-2.2-1.6-3.2-2.5c-0.3-0.2-0.6-0.5-0.8-0.8
		c-0.1-0.1-0.1-0.2-0.2-0.3v-0.1h-0.4l-0.2,0.3l0.2-0.3l-0.4-0.1v0.1c0,0.2,0.1,0.3,0.2,0.5c0.2,0.4,0.5,0.7,0.8,1
		c2.5,2.1,5.1,3.9,7.9,5.6c10.9,6.7,27.7,15.8,27.7,15.8v0.1l4.1-0.4l1.6,2.1h0.2c25.8,7,60,7.9,60,7.9v-0.8l-9.9-0.6l0,0l-1.9-0.3
		c-3.5-0.4-11.2-1.4-17.4-2.6c-4.1-0.8-10.7-2.4-16.2-3.7c-2.8-0.7-5.3-1.3-7-1.8s-2.9-0.7-2.9-0.7v0.4l0.2-0.4
		c-0.5-0.2-1-0.6-1.4-1c-0.2-0.3-0.3-0.6-0.2-0.9v-0.3l0,0v-0.4h-0.4c-0.3-0.2-0.6-0.4-0.8-0.7c-0.1-0.1-0.1-0.3-0.3-0.4V411l0,0
		v-0.2l-2.6-1.5l-1.2,0.4l0,0c-1.1,0.7-2.3,1.1-3.6,1.1c-0.6,0-1.2-0.1-1.8-0.3l-2.3-1.1c-4-2-12.1-6.4-19.1-10.2
		c-3.6-1.9-6.9-3.6-9.3-5c-1.2-0.6-2.2-1.2-2.8-1.6l-1-0.5l-0.5-0.3v0.6L137.6,392.7z"/>
	<path class="st10" d="M132.8,424.3c0,0,21.4,12.4,32,15.1c15.1,4,30.5,7,46,9l-44.6-6L132.8,424.3z"/>
	<path class="st11" d="M132.8,424.3l-0.3,0.3c0,0,5.3,3.1,12,6.5c6.4,3.5,13.1,6.4,20,8.6l0,0c15.2,4,30.5,7,46.1,9V448l-44.4-6
		l-33.3-18.1l-0.4,0.7L132.8,424.3l-0.2,0.3l33.4,18.1l44.7,6.1v-0.4l0.1-0.4c-11.1-1.3-22.6-3.5-31.4-5.4c-4.4-1-8-1.9-10.6-2.5
		c-1.3-0.3-2.3-0.6-3-0.7s-1.1-0.3-1.1-0.3l0,0c-5.2-1.4-13.2-5.2-19.9-8.6c-3.3-1.7-6.3-3.3-8.5-4.5c-1.1-0.6-1.9-1.1-2.6-1.5
		c-0.4-0.1-0.7-0.3-1-0.5l-0.3,0.3l-0.2,0.3L132.8,424.3z"/>
	<path class="st12" d="M99.9,521.4c2,2.2,4.4,4.7,6.6,6.7c1.5,1.4,3,2.7,4.8,3.9c0.5,0.3,1.1,0.5,1.7,0.6l0,0c0.1,0,0.2,0,0.2,0
		c0.2-0.1,0.5-0.1,0.7-0.2c0.8,0,1.6,0.3,2.3,0.6c0.9,0.4,1.9,0.9,3.1,1.5c2.3,1.3,4.9,3,7.3,4.7c4.5,3.1,8.4,6.2,9.1,6.7h5.3l3,0.9
		l-5.9-4.4l-29.3-12.9l-9-8"/>
	<path class="st12" d="M113,532.5c-0.6-0.1-1.2-0.3-1.7-0.6c-1.7-1.1-3.3-2.4-4.8-3.8c-2.3-2.1-4.7-4.5-6.6-6.7l9,8.1l29.3,12.9
		l5.9,4.5l-3-0.9h-5.4c-0.7-0.6-4.6-3.6-9.1-6.7c-2.3-1.7-4.8-3.2-7.3-4.7c-1-0.6-2-1.1-3.1-1.5c-0.7-0.4-1.5-0.6-2.3-0.7
		c-0.3,0-0.5,0-0.7,0.2C113.2,532.6,113,532.7,113,532.5L113,532.5 M94.3,516.5l0.3-0.3L94.3,516.5 M94.9,515.9l-0.6,0.6l0.3-0.3
		l-0.3,0.3c0,0,3.6,4.2,7.8,8.4c2,2.1,4,4,6.2,5.8c0.8,0.7,1.7,1.4,2.7,1.9c0.6,0.4,1.3,0.7,2.1,0.8c0.2,0,0.4,0,0.6-0.2l0.4-0.1
		l0,0c0.7,0,1.4,0.2,2,0.6c4.2,2.1,8.2,4.6,12,7.4c2,1.5,3.9,2.8,5.2,3.9c0.5,0.4,1.1,0.8,1.6,1.2c0.2,0.2,0.4,0.3,0.6,0.4h5.5
		l7.1,2.1l-9.5-7.1l-29.3-12.8L94.9,515.9"/>
	<path class="st12" d="M88,631.3l4.4,3.4c1.1-0.5,2.2-0.9,3.4-1.1c-2.1-1.1-4.4-1.8-6.8-2.1C88.6,631.4,88.3,631.4,88,631.3"/>
	<path class="st12" d="M92.4,634.5l-4.4-3.4c0.3,0.1,0.7,0.2,1.1,0.2c2.4,0.3,4.6,1,6.8,2.1C94.7,633.7,93.5,634.1,92.4,634.5
		 M85.7,629.4c0.1,0.3,0.1,0.7,0,1l6.6,5.2l0.2-0.1c1.4-0.7,2.8-1.1,4.4-1.2h0.3c0.4,0.2,0.8,0.4,1.1,0.7c0.3,0.2,0.6,0.3,0.7,0.4
		c0.1,0,0.2,0.1,0.3,0.2l1,0.7l-0.5-1.2c-0.2-0.3-0.4-0.6-0.6-0.8c-0.5-0.4-1.1-0.6-1.8-0.7c-0.4-0.3-0.9-0.4-1.4-0.7
		c-2.2-1.1-4.6-1.9-7.1-2.2C87.8,630.4,86.7,630,85.7,629.4"/>
	<path class="st12" d="M76.9,623.1L76.9,623.1 M77.1,622.8l-0.6,0.7l0.3-0.3l-0.3,0.3l0.3-0.3l-0.3,0.3c1.4,1.4,2.9,2.7,4.4,3.9
		c1.3,1,2.6,1.9,4,2.7l0,0l0.6,0.4v-1h-0.2l-8.4-6.6"/>
	<path class="st12" d="M45.7,430.8l2.4,2.7c0.7,0.4,1.4,0.7,2.1,1h10.8l6.8,1.2l3.8-2.7H56.8L45.7,430.8"/>
	<path class="st13" d="M42.5,430.2c0.3,0.2,0.7,0.5,1.2,0.8c0.7,0.4,1.5,1,2.4,1.5l-1.5-1.8L42.5,430.2"/>
	<path class="st13" d="M44.5,430.6l1.5,1.8c0.7,0.4,1.4,0.8,2.2,1.2l-2.4-2.7L44.5,430.6"/>
	<path class="st12" d="M44.9,429.8l0.9,1.1l10.9,2.3h15l-3.8,2.6l-6.8-1.2H50.2c-0.7-0.3-1.5-0.7-2.1-1l1.5,1.7
		c0,0.1,0.3,0.1,0.3,0.2h11.1l7,1.2l6.2-4.3H56.6L44.9,429.8"/>
	<path class="st14" d="M38.6,428.5l1.6,1.1l0.2-0.3l0,0l-0.2,0.3c0,0,1.5,1.1,3.6,2.4c-0.8-1-1.6-2-2.3-2.8L38.6,428.5"/>
	<path class="st13" d="M41.5,429.1c0.8,1,1.5,1.9,2.3,2.8c1.1,0.7,2.4,1.4,3.9,2.3l-1.5-1.9c-0.9-0.5-1.7-1-2.4-1.5
		c-0.4-0.3-0.8-0.6-1.2-0.8l2,0.4l-0.9-1L41.5,429.1"/>
	<path class="st13" d="M46,432.4l1.5,1.9c0.7,0.3,1.3,0.7,2,1l-1.5-1.7l-2.2-1.2 M43.4,429.5l0.9,1.1l1.4,0.3l-0.9-1.1L43.4,429.5"
		/>
	<path class="st12" d="M261.7,512l-6,4.8c-5.1,5.7-10.8,10.7-17,15.1l0,0l-25.7,15l11.6-4.5l25.1-17.8l0.3,0.2l1,1
		c0-0.1,0-0.1,0-0.2c0.1-0.3,0.3-0.7,0.5-1c0.5-0.9,1.1-1.7,1.7-2.5c1.4-1.8,3.2-4,5.1-6.2c1.2-1.5,2.4-2.8,3.5-4"/>
	<path class="st12" d="M255.8,516.8l6-4.8c-1,1.2-2.3,2.5-3.5,3.9c-1.9,2.1-3.7,4.3-5.1,6.2c-0.6,0.8-1.2,1.6-1.7,2.5
		c-0.2,0.3-0.4,0.6-0.5,1c0,0.1,0,0.1-0.1,0.2l-1-1l-0.3-0.3l-25,17.9l-11.5,4.5l25.8-15l0,0c6.2-4.3,11.9-9.4,17-15 M265.7,507.9
		l-10.6,8.3l0,0c-3.4,3.9-7.2,7.5-11.3,10.8c-1.6,1.3-3.1,2.4-4,3.1c-0.4,0.3-0.7,0.6-1.1,0.8l-0.4,0.3l-30.2,17.6l0.3,0.7l16.6-6.5
		l24.5-17.5l1.9,1.8h0.2c0.1,0,0.2-0.1,0.3-0.2c0.1-0.1,0.1-0.3,0-0.5l0,0l-0.4-0.4l0,0c0-0.2,0.1-0.4,0.2-0.5
		c0.8-1.6,1.8-3,2.9-4.4c2.2-2.7,5.1-6,7.4-8.6c1.2-1.3,2.3-2.4,3-3.2s1.2-1.3,1.2-1.3l-0.6-0.4"/>
	<path class="st15" d="M191.1,628.6c-1.5,0-1.1,0.4-0.6,0.5l0,0c0.1-0.1,0.2-0.2,0.3-0.2C190.9,628.9,190.9,628.8,191.1,628.6"/>
	<path class="st12" d="M190.5,629.1c-0.6,0-0.9-0.4,0.6-0.5c-0.1,0-0.1,0.2-0.2,0.2C190.8,629,190.6,629.1,190.5,629.1L190.5,629.1
		 M197.3,568.5l-5.3,37L180.6,680l25.5-39.2l0.2-23.7l-4-1.4l-0.1-0.1c-1.3-1.5-2.2-3.3-2.5-5.3c-0.5-2.2-0.7-4.5-0.6-6.8
		c0-2.9,0.2-5.8,0.6-8.7l0,0c0.1-0.5,0.1-1,0.1-1.5v-0.6L197.3,568.5"/>
	<path class="st12" d="M180.7,680l11.4-74.5l5.3-37l2.4,24.2v0.6c0,0.5,0,1-0.1,1.5l0,0c-0.4,2.9-0.6,5.8-0.6,8.7
		c0,2.3,0.2,4.5,0.6,6.8c0.3,1.9,1.2,3.8,2.5,5.3h0.1l4,1.4l-0.2,23.7L180.7,680 M197.6,561.8l-6.3,43.4l-12,78.2l27.6-42.7
		l0.3-24.5l-4.4-1.5c-1.2-1.4-1.9-3-2.3-4.8c-0.5-2.2-0.7-4.4-0.6-6.6c0-2.9,0.2-5.7,0.6-8.6l0,0c0.1-0.5,0.1-1,0.1-1.5v-0.7l0,0
		L197.6,561.8"/>
	<path class="st12" d="M261.6,702c1,0.9,2,1.7,3.1,2.4L261.6,702"/>
	<path class="st15" d="M278.7,704.8c-0.1,1.2-0.2,2.5-0.5,3.7c0.5,0.1,1,0.3,1.5,0.6l0.3,0.3c1-1.2,0.8-2.9-0.3-4
		C279.4,705.1,279.1,704.9,278.7,704.8"/>
	<path class="st12" d="M276.6,704.5c-2.4,0.1-4.8,0.8-7,1.9l-0.7,0.2l4,3.1c1.4-0.7,2.9-1.2,4.5-1.2l0,0c0.3,0,0.6,0,0.9,0.1
		c0.4-1.2,0.6-2.4,0.6-3.6C278.2,704.7,277.4,704.5,276.6,704.5L276.6,704.5"/>
	<path class="st15" d="M278.7,704v0.9c0.4,0.1,0.7,0.4,1.1,0.7c0.6,0.5,0.9,1.3,0.9,2.1c0,0.7-0.2,1.3-0.6,1.8l-0.3-0.3
		c-0.4-0.3-0.9-0.6-1.5-0.6c0,0.3-0.1,0.6-0.2,0.8c0.4,0.1,0.9,0.2,1.2,0.5l0.3,0.3h0.1l0.2,0.5l0.4-0.3c1.6-1.4,1.7-3.7,0.4-5.3
		l-0.2-0.2C279.9,704.4,279.3,704.1,278.7,704"/>
	<path class="st12" d="M257.2,698.2L257.2,698.2 M264.7,704.5c-1.1-0.7-2.2-1.5-3.1-2.4L264.7,704.5 M254.6,695.5l2.4,2.9l0.3-0.3
		l-0.3,0.3l0.3-0.3l-0.3,0.3c1.2,1.4,2.6,2.8,4,4c1.1,1.1,2.3,2,3.6,2.8c0.9,0.6,1.8,1,2.8,1.2l5.3,4h0.3c1.3-0.8,2.8-1.2,4.4-1.2
		c0.2,0,0.4,0,0.6,0.1c0.1-0.3,0.1-0.5,0.2-0.8c-0.3-0.1-0.6-0.1-0.9-0.1l0,0c-1.6,0.1-3.1,0.5-4.5,1.2l-4-3.1
		c0.3,0,0.5-0.1,0.7-0.3c2.2-1.1,4.6-1.7,7-1.9l0,0c0.7,0,1.4,0.1,2.1,0.3V704c-0.7-0.2-1.4-0.3-2.1-0.3l0,0
		c-2.6,0.2-5.1,0.8-7.4,1.9c-0.3,0.1-0.7,0.2-1,0.2l0,0c-0.2,0-0.4,0-0.6,0l-13.1-10.1"/>
	<path class="st16" d="M264,496.8h-0.3l1.6,0.7c0.6,0.2,1.2,0.2,1.8,0.4c0,0,0-0.1-0.2-0.1C266.1,497.2,265.1,496.8,264,496.8"/>
	<path class="st17" d="M265.3,497.6l2.8,1.4c-0.4-0.3-0.7-0.6-1-1C266.5,497.8,266,497.7,265.3,497.6"/>
	<path class="st16" d="M299.7,532.2c2.8,8,4,16.6,7.6,24.2c2.3,4.4,5,8.6,7.9,12.6c2.5,4,4.6,8.3,6.2,12.8c1.4,3.9,2.8,7.8,4,11.8
		c2.8,4.8,4.7,10.1,5.8,15.5c0.3,1.7,0.5,3.4,0.5,5.1c1.2,3.7,1.6,7.5,1.4,11.3c0.3,1,0.6,1.7,0.4,1.7h0.2c2.1-0.1,3.9-1.8,4.1-3.9
		l1.5-10.2c0.2-0.9,0-1.8-0.4-2.7L299.7,532.2 M281.1,505.1c0.5,0.4,1,0.7,1.4,1.1c3.5,2.9,6.6,6.3,9.2,10.1l-3.3-6.8
		c-0.5-0.9-1.2-1.7-2.1-2.2l-5.2-2.4"/>
	<path class="st17" d="M268.1,498.9c4.4,3.8,13.3,13,23,30.1c0.1,0,0.1,0.3,0.2,0.3l23.3,48.9c0,0.1,0,0.2,0.2,0.3l13.1,33.7
		c0.1,0.4,0.3,0.9,0.3,1.3l4.6,9.7c0.1,0.8,0.2,1.7,0.4,2.5c0.2-3.8-0.2-7.6-1.4-11.3c0-1.7-0.2-3.4-0.5-5.1
		c-1.1-5.5-3.1-10.7-5.9-15.6c-1.3-4-2.6-7.9-4-11.8c-1.6-4.5-3.7-8.8-6.2-12.8c-2.7-4.2-5.7-8.1-7.8-12.6
		c-3.5-7.7-4.9-16.2-7.6-24.2l-7.9-15.8c-2.6-3.8-5.7-7.2-9.2-10.1c-0.5-0.4-1-0.8-1.5-1.1L268.1,498.9"/>
	<path class="st12" d="M147,589.4l-7.9,16.6l-8.3,45.2l13.4,41.1l-1.8-36.2c-1.6-4.4-2.4-9.1-2.4-13.8c0-2.2,0.2-4.5,0.6-6.7
		c-0.5-0.6-0.9-1.3-1.1-2.1c-0.2-1.2-0.4-2.5-0.3-3.7c0-6.7,2.3-18,4.4-27.4C144.9,597.2,146.2,592.5,147,589.4"/>
	<path class="st12" d="M144.3,692.3L131,651.2l8.3-45.2l7.9-16.6c-0.9,3.2-2.1,7.8-3.3,13c-2.3,9.5-4.4,20.7-4.4,27.4
		c0,1.2,0.1,2.5,0.3,3.7c0.1,0.8,0.5,1.5,1,2.1c-0.3,2.2-0.5,4.5-0.6,6.7c0,4.7,0.8,9.3,2.3,13.8L144.3,692.3 M148.7,585.1
		L148.7,585.1 M148.3,585L148.3,585l-9.9,20.8l-8.4,45.5l15.3,47l-2-42.3l0,0c-1.6-4.4-2.3-8.9-2.4-13.6c0-2.3,0.2-4.6,0.6-6.8v-0.2
		l-0.2-0.2c-0.5-0.4-0.9-1.1-0.9-1.8c-0.2-1.1-0.3-2.3-0.3-3.5c0-6.6,2.3-17.8,4.4-27.2c1.1-4.8,2.3-9,3.1-12.2
		c0.4-1.5,0.8-2.8,1-3.7s0.4-1.4,0.4-1.4L148.3,585"/>
	<path class="st12" d="M215.6,561.5c2.6,6.5,7.5,19.2,10.4,29.6c1.2,3.9,2,8,2.3,12.1c0,0.7-0.1,1.4-0.2,2.1
		c-0.1,0.5-0.4,0.9-0.7,1.3c1,3.8,1.6,7.7,1.6,11.7c0,3-0.4,6-1,9l-0.5,2.2l11.4-8.7l-13.5-43.6L215.6,561.5"/>
	<path class="st12" d="M213.4,557.4L213.4,557.4 M227.4,606.6c0.3-0.4,0.5-0.8,0.6-1.3c0.2-0.7,0.3-1.4,0.3-2.1
		c-0.3-4.1-1-8.2-2.3-12.1c-2.9-10.3-7.9-23.1-10.5-29.6l9.8,15.5l13.6,43.7l-11.4,8.6l0.5-2.2c0.7-3,1-6,1-9.1
		C229,614.2,228.5,610.3,227.4,606.6 M213.7,557.3l-0.7,0.4l0.4-0.2l-0.3,0.2l0.3-0.2l-0.4,0.2l0.6,1.4c1.4,3.3,4.8,11.9,7.9,20.8
		c1.6,4.5,3,9.1,4,13.2c1,3.3,1.6,6.7,1.8,10.1c0,0.6-0.1,1.3-0.2,1.9c-0.1,0.4-0.3,0.8-0.6,1l-0.2,0.2l0.1,0.3
		c1.1,3.7,1.7,7.6,1.7,11.5c0,3-0.4,6-1,8.9l-1,4.3l13.7-10.3l-13.8-44.3L213.7,557.3"/>
	<path class="st12" d="M118.2,558.7l-6.5,20.5l-5,45l15.1,23.1l-7.5-22.6c-0.6-1.2-0.9-2.5-0.9-3.9c0.2-3.1,1.1-6.1,2.4-8.8
		c1.3-2.7,2.2-5.6,2.7-8.6l0,0l3.2-4.8c-0.2-0.2-0.3-0.4-0.4-0.6c-0.2-0.4-0.2-0.8-0.3-1.2c0.1-1.6,0.4-3.1,0.8-4.7
		c0.5-2.2,0.8-4.4,0.9-6.7v-0.6c-0.1-2.1-0.4-4.1-1-6.1c-0.6-2.1-1-4.1-1.4-5.7C119.2,566.3,118.5,561.2,118.2,558.7"/>
	<path class="st12" d="M121.7,647.1l-15-23.3l5-45l6.5-20.3c0.2,2.7,0.9,7.8,2.2,14.3c0.3,1.5,0.9,3.6,1.4,5.7c0.6,2,0.9,4,1,6v0.4
		c-0.1,2.3-0.4,4.5-0.9,6.7c-0.4,1.5-0.7,3.1-0.8,4.7c0,0.4,0.1,0.8,0.2,1.2c0.1,0.2,0.2,0.5,0.4,0.7l-3.3,4.9l0,0
		c-0.4,3-1.3,5.9-2.7,8.7c-1.4,2.8-2.2,5.7-2.4,8.8c-0.1,1.3,0.3,2.7,0.9,3.9L121.7,647.1 M118.1,556.6L118.1,556.6 M118.8,554.5
		l-0.6,2l-7.2,22.4l-5,45.3l18.6,28.8l-9.7-28.6l0,0c-0.5-1.1-0.8-2.3-0.8-3.6c0.2-3,1.1-5.9,2.4-8.6c1.4-2.8,2.3-5.8,2.8-8.8
		l3.6-5.3l-0.4-0.2c-0.2-0.1-0.3-0.3-0.4-0.5c-0.1-0.3-0.2-0.7-0.2-1c0.1-1.5,0.4-3,0.8-4.5c0.5-2.2,0.8-4.5,0.9-6.8v-0.4
		c-0.1-2.1-0.4-4.2-1-6.2c-0.5-2.1-1.1-4.1-1.4-5.6c-1-4.9-1.6-8.9-1.9-11.7c-0.2-1.5-0.2-2.5-0.3-3.3s-0.1-1.1-0.1-1.1l-0.3-2.1"/>
	<path class="st12" d="M238.4,666.9l-14.1,7c0.6-0.2,1.3-0.2,2-0.5c2.3-0.5,4.5-1.3,6.6-2.3c1.2-0.5,2.2-1.3,3.1-2.2
		C236.7,668.3,237.5,667.6,238.4,666.9"/>
	<path class="st12" d="M245.8,662.9c-1.3,0.5-2.5,1.1-3.7,1.8c-1.1,0.7-2.4,1.5-3.6,2.3c-0.9,0.6-1.7,1.4-2.4,2.2
		c-0.9,0.9-1.9,1.7-3.1,2.2c-2.1,0.9-4.4,1.7-6.6,2.3c-0.8,0.2-1.5,0.3-2,0.5c-0.2,0-0.3,0.1-0.5,0.1c-0.3,0.1-0.7,0.1-1,0.2
		l0.2,0.8c0,0,2.7-0.5,5.7-1.4c1.5-0.5,3.1-1,4.5-1.7c1.3-0.6,2.5-1.4,3.5-2.4c1.7-1.7,3.6-3.1,5.6-4.3c1-0.6,1.9-1,2.6-1.3
		c0.3-0.1,0.5-0.2,0.8-0.3c0.3-0.1,0.3-0.2,0.3-0.2L245.8,662.9"/>
	<path class="st4" d="M23,417.9l3.9,5.3l0,0l2.8,5.4l0,0 M64.9,483.4c1.7,2.7,2.7,5.8,3,9l1.8,21.1l0,0L67.8,655l0,0
		c-1,13.2-0.7,26.2-0.7,26.3l0,0c-1.5,33,6.2,38.9,6.4,39.1l0,0l9.6,2.5l0,0c27.1,70.4,45,62.2,45.6,61.9l0,0
		c17.8,4.2,22.4-54.3,22.6-57.4h0.1c4.6,3.8,39.1,4.5,40.8,4.7l0.1,0.1c-0.3,54.5,24.5,52.7,24.5,52.7c16.4,2.8,40.9-55.5,41.5-57
		l0,0c1-0.3,21.9-5.4,22.6-7.9c0.1-0.3,0.1-0.7,0.1-1c0.3-2.6,0.8-5.3,1.6-7.8c3.9-13.3-5.9-56.7-6.1-57.3l0,0l0.3-3.5l0,0l6,4.7
		l0,0c0.3,0.7,6.2,17.8,11.2,20.2c0,0,7.6,6.4,22,9c7.2,1.3,14.4-2.6,17.4-9.3c3.2-7,6.3-18.8,7.4-39v-11.9l0,0l-1.5-8.7l0,0
		l-4.2-12.5l0,0l-27.2-65.1c-1.9-4.4-3.5-8.9-4.7-13.5c-2.3-9.5-18.1-28.7-18.1-28.7c-4.8-6.2-26.5-15.8-28.9-16.8v-0.2
		c94.8-16.6,107.8-100.7,107.8-100.8l0,0l0.3-5.2c0.2-4.2,1-8.4,2.2-12.4l0,0c2.5-1.8,5.4-2.9,8.5-3.1c22.2-2.1,32.3-12.2,32.4-12.3
		l0,0c14-10.3,16.9-22.9,15.8-33.7c-1.4-13.2-8.6-25.2-19.6-32.6c-28-19.1-49.6-15.5-64.2-7c-5.2,3-10,6.7-14.1,11.1
		c-5.3,5.5-13.8,6.5-20.2,2.3c-48.1-32-99-36.2-116.9-36.6c-3.6-0.1-6.5-3-6.6-6.6c-0.3-11.2-4.4-33.6-32.2-40.5
		c-35.3-8.8-58.1,2.1-68.3,6.7c-5.1,2.3-9.2,6.1-11.9,11c-7.9,15.1,2.4,33.1,10.4,43.6c2.6,3.5,4,7.7,4,12c0,3-0.7,6-2.1,8.7
		c-1.5,3-3.4,5.7-5.7,8.1c-44.2,45.3-20.4,90.8-20,91.5l-3.5-8.8l0,0c-9.7-4-17-31.5-28.7-32.2c-8.4-0.5-16.6-1.5-22.4,4.7h0
		c0,0-2.1,1.9,0,15.4l7.1,35.7 M118.6,394c0.6-2.2,0.9-4.5,1-6.8c0.3-4.3,5.1-10.8,5.1-10.9l0,0l5.5-5.3l0,0
		c11.6-3.6,23.5,7,23.7,7.2l0,0c1.1,0.2,2.1,0.4,3.2,0.5c20,6.9,33,14.1,52.5,19.2c9.9,2.4,20,3.7,30.2,3.9l0,0
		c14.6,5.5,10.3,21.6,10.3,21.6c1.4,0.6-8.9,21.5-9.1,22l0,0c0.4,4.5-23.8,22.1-24.3,22.5l0,0c-11.8,2.4-41.9-5.2-41.9-5.2
		c-28.3-6.1-44.6-18.5-44.8-18.5l0,0c-9.8-5.3-14.8-19.3-14.9-19.4l0,0C112.9,416.5,116.4,401.4,118.6,394L118.6,394z M159.3,515
		c-2.7-1.2-43.4-19.7-46.9-41.2l0,0c0,0-0.2-4.1,26-12.2h0.1l20.9,53.3L159.3,515z M222.7,481.2h16.2c0.5,0,0.9,0.3,1.1,0.7
		c0.6,2,2,3.7,2.6,5.7c0.7,3.4,1.1,6.8,1.2,10.3c0.2,4.1-2,7.9-5.5,9.9l-34.5,19.5v-0.1C210.1,517.7,222.2,482.7,222.7,481.2
		L222.7,481.2z M116.5,442.7c-23.4-9.5-46.2-45.3-46.9-46.5l0,0c0.2-0.3,2-2.4,1.1,0s29.2,22.3,31.3,23.1S115.3,440.6,116.5,442.7
		L116.5,442.7z M107.3,413.1c-3.9-2.1-40.3-22.1-46.4-42.9v-0.1l2.8-4.1c0.7-1,1.2-2.1,1.9-3.2s2.7-2,10.9,2.4l0,0l19.4,14.1l0,0
		l13.2,7.4l3.3,1.6v0.1c-0.4,1.1-6.8,21.6-5,24.6L107.3,413.1z M204.5,721.4l-17.3,0.5c-3.2,0.3-6.5,0.4-9.8,0.3
		c-3.8-0.3-8.9-0.6-15.5-1.1l-75.6-5.3c0,0-9.3-0.5-10.1-4.5l-2.7-32.8l0,0l2.9-57v-98.8c0-9.1,0.3-18.2,0.9-27.3
		c0.1-1.7,0-3.4-0.3-5c-0.8-3.8-1.9-7.6-3.2-11.2c-2.3-6.4-5.4-12.4-9.3-18L32,415.4v-0.1l5.7-8.3l0,0c4-6.6,9.8-24,9.8-27.5
		l0.2-0.1c2.4,3.6,38.4,56.2,43.4,58.8l36.2,18.3v0.2l-3,0.9l-17.3,5.3l0,0c-0.2,0.2-6.7,5.3-5.7,13.2l0,0l3.8,7.2l7,11.7l0,0
		l4.3,4.8l0,0l8.9,7.8l0,0l10,6.7l15.5,11.2l0,0l10.8,9.8l0,0l6.5,8.2l0,0l3.6,15l0,0l-2.2,31l-2.2,27.1l-2.8,33.6l0,0l-0.7,35.7
		v8.2l0,0c0,0.2,1.2,2.1,2.8,1.9l0,0c1.1-0.4,2.1-1.1,2.8-2.1l0,0l0.5-44.3l1.7-31.1l0,0L175,589l2.8-29.5l0,0l9.7-13.6l0,0
		l49.9-26.8c1.8-1,3.5-2.1,5.1-3.4c5.6-4.4,10.6-9.4,15.2-14.8c2.1-2.3,5.1-4.4,8.7-3l0,0c0.1,0,15.4,8.6,17.5,11.5
		c7.6,9.4,13.3,20.1,17,31.6l0,0c0.1,0.2,28.9,63.4,29.5,73.5l0,0c0,0.1,2.7,12.7,0,17.5l0,0c-0.1,0-3.6,5.8-41.1,16.3l0,0
		c-0.3,0-9.1,0-9.4-16.7l0,0c0.1-0.4,8.2-28.5,7.9-32.3c0,0,1-6.5-2.2-7.9c-0.3-0.4-0.8-0.6-1.3-0.7c-0.9,0-2.1,0.7-3.5,3.7l0,0
		c-0.2,3.5-1,6.9-2.4,10.1l-2.4,5.7l0,0l-3,4.5H273l-1.1-4.9l0,0c-2.5-1.2-5.6-0.2-6.8,2.3c0,0,0,0,0,0l0,0
		c-0.1,0.1-0.1,0.2-0.2,0.4c-0.6,1.4-0.3,1-0.2,4.5l0,0c0,0.3,17.7,95.3,9.3,94.8c0,0-20.4,8.4-49.6,8.8l-1.4-0.1 M286.4,461.4
		c-16.7,10.3-58.9,10.7-60.3,10.7l0,0c-1.1-1.4,4.2-4.4,11.2-7.6c14-6.4,28.8-11.1,44-13.8c13.7-2.5,31-6.3,32.4-6.5l0,0
		C313.7,446.9,286.4,461.3,286.4,461.4L286.4,461.4z M339.7,416.4c-5.3,7.3-12.3,13.2-20.4,17.1l0,0l-14.4,4l0,0l-39.6,8l0,0
		l-15,1.2l-0.1-0.1l4.8-11.4l0,0c3.9-3.3,8.7-5.2,13.8-5.5l13.2-0.7l0,0c9.1-1.9,18.2-4.2,27.2-7s17.7-5.9,26.4-9.5l9.5-3.9v0.1
		L339.7,416.4z M160.1,372.4c1.9-1.1,31.8-20.5,15.4-47.7c-9.3-15.3-27.1-23.7-44.5-19.5c-7.8,1.9-14.9,6-20.3,12
		c-7.4,7.6-10.8,18.3-9.3,28.8c1.2,8,5.5,17.3,16.7,25.5l0,0c-0.5,0.6-5.5,8.1-5.7,8.3s-52.2-28.2-51.5-37.2c0,0,6-49.8,52.9-69.2
		l0,0c0.2-0.1,48.9-26.4,118.5-10.7l0,0c0.2,0,72.3,9.5,110.9,73.5c0,0,15.8,23.7,7,61l0,0c-17,10.2-35.6,17.6-55,21.8
		c0,0-19.5,5-37,4.3v-0.1c0.3-1.1,3.8-12.1,2.3-13.3l0,0c2-0.5,4-1.3,5.9-2.3c23.8-11.7,27.1-44.8,5.9-60.9
		c-6.1-4.5-13.2-7.3-20.7-8.4l0,0c-6.5-0.3-13,0.6-19.1,2.8c-19.3,6.7-29.5,27.9-22.8,47.2c0.5,1.3,1,2.5,1.7,3.7"/>
	<path class="st4" d="M176.3,324.6c-7.5-12.7-21.1-20.6-35.9-20.9c-3,0-6.1,0.3-9,1.1c-7.9,1.9-15,6.1-20.5,12.1
		c-6.2,6.6-9.6,15.2-9.7,24.2c0,1.7,0.1,3.3,0.4,4.9c1.2,8.1,5.6,17.5,17,25.9l0.2-0.3l-0.3-0.3c0,0-0.3,0.5-0.9,1.3
		c-0.8,1.1-1.9,2.9-3,4.4c-0.5,0.7-1,1.4-1.3,1.9c-0.1,0.2-0.3,0.4-0.4,0.6l-0.2,0.2l0,0l0.2,0.2l-0.2-0.2l0,0l0.2,0.2l-0.2-0.2
		l0.2,0.3l-0.2-0.3l0.2,0.3v-0.4h-0.2l0.2,0.3v-0.4l0,0v0.4l0,0v-0.3l0,0v-0.1h-0.2c-1.1-0.6-4.9-2.6-9.9-5.4
		c-7.5-4.3-17.8-10.5-26.2-16.5c-3.7-2.6-7.3-5.4-10.6-8.5c-1.2-1.1-2.2-2.3-3.1-3.6c-0.6-0.8-0.9-1.7-1-2.6v-0.1l0,0
		c0-0.2,0-0.4,0-0.6c1.7-10.3,5.2-20.3,10.2-29.5c9.1-17.5,24.2-31.3,42.4-38.9l0,0c0.1-0.1,0.2-0.1,0.3-0.2
		c3.3-1.7,31.5-15.4,74-15.4c14.8,0,29.6,1.7,44,4.9h0.8c8.1,1.3,73.7,13.3,109.7,73.2l0,0c0,0.1,0,0.1,0,0.2
		c1,1.5,9.5,15.7,9.5,38.2c0,7.5-0.9,15-2.7,22.4h0.3V397l-0.2,0.2c-17,10.2-35.5,17.6-54.8,21.8l0,0c-0.2,0.1-0.5,0.1-0.7,0.1
		c-10.7,2.5-21.7,4-32.7,4.2c-1.1,0-2.3,0-3.5-0.1v0.4h0.5c0,0,0.6-2.1,1.4-4.6c0.7-2.4,1.2-4.9,1.4-7.4c0-0.4,0-0.8-0.2-1.1
		c0-0.2,0-0.3-0.3-0.4c-0.1-0.2-0.2-0.3-0.4-0.3l-0.1,0.4v0.4c2.2-0.5,4.2-1.3,6.2-2.3c12.4-6.2,20.3-18.9,20.2-32.7
		c0.1-11.3-5.2-22-14.3-28.8c-6.2-4.5-13.4-7.4-20.9-8.5l0,0c0,0-1-0.1-2.6-0.1c-5.7,0-11.3,1-16.7,2.8c-15,5.3-25.1,19.5-25.1,35.5
		c0,4.2,0.7,8.3,2.1,12.2l0,0c0.4,1.3,1,2.6,1.7,3.8l0.3-0.3l0.1-0.4l-11-1.7l-0.1,0.8l11.9,1.8l-0.4-0.7c-0.6-1.2-1.2-2.4-1.6-3.6
		l0,0c-6.6-19.1,3.5-40,22.6-46.6c5.3-1.8,10.8-2.8,16.4-2.8h2.4c7.4,1,14.5,3.9,20.5,8.4c8.9,6.6,14.1,17.1,14,28.1
		c0.1,13.5-7.6,25.9-19.7,32c-1.9,0.9-3.9,1.7-6,2.3l-1.4,0.3l1.4,0.5l0,0c0.1,0.3,0.2,0.7,0.2,1c-0.2,2.4-0.7,4.9-1.4,7.2
		c-0.3,1.3-0.6,2.4-1,3.3c-0.2,0.4-0.3,0.9-0.4,1.4l-0.2,0.5h0.6c1.1,0.1,2.3,0.1,3.5,0.1c11.4-0.2,22.7-1.7,33.7-4.4l-0.1-0.4
		l0.1,0.4c19.5-4.2,38.2-11.5,55.3-21.8l0.2-0.1v-0.1c1.8-7.4,2.6-14.9,2.7-22.5c0-24.2-9.7-38.8-9.7-38.8l-0.3,0.3l0.3-0.3
		C324.8,304,297,285.5,274,275.2c-13.1-6-26.8-10.3-41-12.8l-0.1,0.4l0.1-0.4c-14.5-3.3-29.3-4.9-44.2-4.9
		c-45.4,0-74.6,15.7-74.6,15.8l0.2,0.3l-0.2-0.4C90.6,283,77.4,300.3,70,315.3c-4.4,8.6-7.4,17.9-8.8,27.5l0,0v0.2
		c0.3,1.7,1,3.3,2.3,4.5c3.6,3.8,7.5,7.2,11.8,10.1C82.7,363,92,368.7,99.4,373c3.7,2.2,7,4,9.4,5.3c1.2,0.6,2.2,1.1,2.8,1.5
		l0.8,0.4c0.1,0.1,0.2,0.1,0.3,0.1h0.3l0.2-0.1l0,0c0.2-0.3,0.6-0.8,1.1-1.5c1.7-2.4,4.7-6.7,4.7-6.7l0.3-0.3l-0.3-0.2
		c-11.2-8.3-15.5-17.4-16.7-25.3c-0.3-1.6-0.4-3.2-0.4-4.8c0.1-8.8,3.5-17.2,9.6-23.6c5.4-5.9,12.4-10,20.2-11.8
		c2.9-0.7,5.8-1,8.8-1c14.5,0.2,27.9,7.9,35.2,20.4l0.6-0.6L176.3,324.6z"/>
	<polyline class="st4" points="160.7,372.9 160.7,372.8 160.2,372.2 160.2,372.2 	"/>
	<path class="st4" d="M260.7,409.9l-0.1-0.4c-0.1,0-0.2,0.1-0.3,0.1h-0.1v0.3l0.1-0.3h-0.1v0.3l0.1-0.3l-0.1,0.4l0.3-0.3l-0.2-0.1
		l-0.1,0.4l0.3-0.3l-0.3,0.3h0.4c0-0.2,0-0.3-0.1-0.3l-0.3,0.3l0,0l0.3,0.2c0-0.1,0-0.2,0-0.2h-0.4l0.3,0.2l-0.3-0.2l0.3,0.3
		 M260.5,410.3L260.5,410.3l-0.3-0.2l0.3,0.3l-0.2-0.3l0.1,0.3l0,0l-0.1-0.3l0.1,0.3h0.1l0.2-0.6l0.1-0.4l0.1,0.4l0.1-0.4h-0.6v0.1
		l-0.1,0.1v0.1c0,0.1,0,0.2,0,0.3c0,0.1,0,0.3,0.2,0.3C260.3,410.3,260.4,410.3,260.5,410.3l0.2,0.1c0.1,0,0.2,0,0.3-0.1l1.4-0.3
		l-1.4-0.5L260.5,410.3z"/>
	<path class="st4" d="M314.2,444.1h-0.4l-0.2,0.4c-0.6,0.6-1.2,1.2-1.9,1.8c-4.8,3.3-9.8,6.4-15,9.2c-2.7,1.5-5.2,2.9-7,3.9
		l-2.2,1.1l-0.8,0.4l0,0c-5.1,2.9-10.7,4.9-16.5,6c-9.6,2.1-19.3,3.4-29.1,4c-4.3,0.3-7.9,0.5-10.5,0.6c-1.3,0-2.3,0.1-3,0.1h-1.1
		v0.4l0.3-0.3v-0.2c0-0.2,0.1-0.3,0.2-0.4c0.4-0.5,0.8-0.9,1.3-1.2c3.1-2,6.3-3.8,9.7-5.3c14-6.4,28.7-11,43.9-13.7
		c14.3-2.7,32.6-6.5,32.6-6.5l-0.1-0.5l0,0l-0.1-0.3l-3.1,0.7c-5.7,1.2-18.6,4-29.5,5.9c-15.2,2.8-30,7.4-44,13.8
		c-2.8,1.2-5.5,2.6-8.1,4.2c-0.9,0.5-1.7,1.1-2.4,1.8c-0.3,0.2-0.5,0.5-0.7,0.8c-0.2,0.2-0.3,0.5-0.3,0.8c0,0.3,0.1,0.5,0.2,0.7
		l0.2,0.1h0.2c0,0,10.9-0.1,23.8-1.5c6.7-0.7,13.4-1.8,20-3.2c5.9-1.2,11.5-3.3,16.7-6.2l-0.2-0.3l0.2,0.3c0,0,6.8-3.6,13.6-7.5
		c3.4-1.9,6.9-4,9.5-5.8c1-0.7,2-1.5,3-2.3c0.4-0.3,0.7-0.6,0.9-1c0.2-0.2,0.4-0.6,0.4-0.9v-0.6H314L314.2,444.1z"/>
	<path class="st4" d="M345.8,408.7l-0.3-0.2l-5.6,7.8c-5.2,7.3-12.2,13.1-20.3,16.9l0.2,0.4l-0.1-0.4l-14.4,4l-39.5,8l-14.4,1.1
		l4.5-10.9l-0.4-0.1l0.2,0.3c1.9-1.6,4-2.9,6.3-3.8c2.3-0.9,4.7-1.4,7.2-1.5l13.3-0.7l0,0c9.1-1.9,18.3-4.2,27.2-7
		s17.8-5.9,26.4-9.5l9.7-4L345.8,408.7l-0.4-0.1L345.8,408.7l-0.2-0.3l-9.7,4c-8.7,3.6-17.5,6.7-26.4,9.4s-17.9,5-27.1,7l0,0
		l-13.2,0.7c-2.5,0.1-5,0.7-7.4,1.5c-2.4,1-4.6,2.3-6.6,4l0,0l-5.1,12.2l15.8-1.1l39.7-8l14.4-4l0,0c8.2-3.9,15.3-9.8,20.6-17.2
		l6.5-9l-1.3,0.6L345.8,408.7z"/>
	<path class="st4" d="M250.8,423.4l-0.2,0.4l0.1-0.2h-0.3c0,0.1,0.1,0.1,0.1,0.1l0.1-0.2h-0.3v0.1c-0.1,0.6-0.2,1.1-0.4,1.6
		c-1.5,4.1-3.2,8.1-5.1,12.1c-1,2.1-1.9,4.1-2.6,5.6s-1.2,2.4-1.2,2.4l0,0v0.2c-0.2,0.8-0.5,1.5-1,2.1c-1.6,2.1-3.5,4.1-5.5,5.8
		c-3.6,3.2-8,6.8-11.5,9.5c-1.8,1.4-3.2,2.5-4.4,3.3l-1.7,1.3l0.3,0.3v-0.4c-1.8,0.3-3.7,0.5-5.6,0.5c-7.8-0.3-15.6-1.2-23.3-2.8
		c-3.6-0.7-6.9-1.5-9.2-1.9c-1.1-0.3-2.1-0.5-2.7-0.6l-1-0.3l0,0c-11.4-2.4-22.5-6.2-33-11.4c-3-1.5-5.9-3.1-8.6-4.9
		c-1-0.6-1.7-1.1-2.3-1.5c-0.2-0.1-0.4-0.3-0.6-0.4s-0.2-0.1-0.2-0.1l0,0c-4.6-2.8-8.3-6.8-10.8-11.6c-1-1.7-2-3.5-2.8-5.4
		c-0.2-0.5-0.5-1-0.7-1.5c-0.1-0.2-0.1-0.3-0.2-0.5v-0.2l-0.4,0.2h0.4c-0.7-2.3-1-4.6-0.9-7c0-7.9,2.4-17.9,4-23.5l0,0
		c0.6-2.2,1-4.5,1.1-6.9c0.4-2.4,1.3-4.8,2.7-6.9c0.7-1,1.2-2,1.7-2.7c0.2-0.3,0.4-0.6,0.6-0.8l0.2-0.3l-0.3-0.2l0.2,0.3l5.5-5.3
		l-0.3-0.3l0.2,0.4c1.7-0.5,3.5-0.8,5.2-0.7c4.6,0.2,9.1,1.4,13.1,3.6c1.4,0.7,2.9,1.5,4.2,2.4c0.5,0.3,0.9,0.6,1.1,0.8
		c0.1,0.1,0.2,0.1,0.3,0.3h0.1c0.6,0.3,1.3,0.6,2,0.7c19.7,6.4,32.8,14.2,51.8,18.6c10.4,2.2,21,3.9,31.6,4.9v-0.5l-0.2,0.4
		c3.7,1.3,6.8,3.9,8.6,7.4c1.3,2.7,2,5.6,1.9,8.6c0,1.2-0.1,2.5-0.3,3.7c-0.1,0.3-0.1,0.7-0.3,1v0.4l0,0v0.3l0.3,0.2l0.2-0.6
		l0.4,0.1c0.5-1.8,0.7-3.6,0.7-5.4c0.1-3.1-0.6-6.2-2-9c-1.9-3.7-5.2-6.4-9.1-7.8h-0.2c-1,0-1.9-0.1-2.8-0.3
		c-9.6-1.1-19.2-2.6-28.7-4.7c-18.8-4.3-31.9-12-51.7-18.6c-0.6-0.2-1.2-0.4-1.8-0.6l-0.3,0.3l0.3-0.3c-1.9-1.4-3.8-2.6-5.9-3.6
		c-4.1-2.2-8.7-3.5-13.4-3.6c-1.9,0-3.7,0.3-5.5,0.8l0,0l-5.6,5.3l0,0c-0.9,1.2-1.7,2.5-2.4,3.8c-1.4,2.2-2.3,4.6-2.8,7.2
		c-0.1,2.3-0.5,4.5-1,6.7l0,0c-1.6,5.7-4,15.6-4,23.8c-0.1,2.5,0.3,4.9,1,7.3l0,0c1,2.7,2.3,5.3,3.8,7.8c2.5,4.2,6.2,9.1,11.2,11.8
		l0.2-0.3l-0.3,0.3c0,0,16.4,12.5,45,18.5l0,0c0,0,5.6,1.5,13,2.8c7.7,1.6,15.4,2.6,23.3,3c1.9,0,3.8-0.1,5.7-0.5h0.1
		c0,0,6.1-4.4,12.1-9.3c2.9-2.3,5.7-4.9,8.3-7.5c1-1,1.9-2.1,2.8-3.2c0.6-0.7,1-1.6,1.1-2.6v-0.2h-0.5l0.4,0.1c0,0,2.3-4.6,4.7-9.8
		c1.1-2.5,2.3-5.2,3.1-7.3c0.4-1.1,0.8-2,1-2.8c0.2-0.6,0.4-1.2,0.4-1.9c0-0.1,0-0.3-0.1-0.4c0-0.2-0.1-0.3-0.3-0.3l-0.2,0.5
		l0.4,0.1L250.8,423.4z"/>
	<path class="st4" d="M108.1,413.5l0.2-0.3l-0.5-0.3c-7.9-4.3-15.4-9.2-22.6-14.6c-5.2-3.9-10.1-8.3-14.5-13.2
		c-4.1-4.3-7.1-9.4-9-15l-0.4,0.1l0.3,0.2l2.9-4.2c0.7-1,1.3-2.1,1.9-3.2l0,0c0.1-0.2,0.2-0.3,0.4-0.4c0.4-0.2,0.7-0.2,1.1-0.3
		c1.4,0,4,0.7,8.7,3.3l0.2-0.3l-0.3,0.3l19.4,14.1l13.3,7.5l3.4,1.7l0.2-0.4h-0.4c0,0-1.4,4.2-2.7,9.1c-0.7,2.5-1.4,5.2-1.9,7.6
		c-0.5,2-0.7,4.1-0.8,6.2c0,0.5,0,1,0.2,1.5c0.1,0.4,0.3,0.8,0.7,1L108.1,413.5l0.2-0.2L108.1,413.5l0.3-0.2
		c-0.1-0.1-0.2-0.3-0.2-0.5c-0.1-0.4-0.2-0.8-0.2-1.2c0.1-2,0.4-4.1,0.8-6c0.7-3.6,1.9-7.8,2.8-11.1c0.5-1.5,0.9-3.1,1.2-4
		s0.5-1.5,0.5-1.5v-0.3l-3.6-1.9l-13.2-7.5L77,365l0,0c-4.7-2.5-7.4-3.3-9.1-3.3c-0.5,0-1.1,0.1-1.6,0.3c-0.3,0.2-0.6,0.4-0.8,0.7
		l0,0c-0.5,1.1-1.2,2.2-1.9,3.3l-3,4.4v0.2c2.1,6.1,5.5,11.6,10,16.2c14.1,15.3,36.9,27.1,36.9,27.1l0.4-0.7L108.1,413.5z"/>
	<path class="st4" d="M117.1,442.9l0.2-0.4c-11.8-4.8-23.6-16.4-32.4-26.9c-4.4-5.2-8-10.2-10.6-13.7c-1.3-1.8-2.3-3.3-3.1-4.3
		c-0.3-0.5-0.6-0.9-0.8-1.2c-0.1-0.1-0.2-0.3-0.3-0.4l-0.3,0.3l0.3,0.3l0.2-0.2c0.2-0.2,0.4-0.4,0.6-0.6l0.4-0.3l0,0l-0.1-0.1v0.1
		h0.1l-0.1-0.1v-0.2l-0.2,0.2c0,0,0.2,0.1,0.2,0.1v-0.3l-0.2,0.2l0.2-0.1l-0.2,0.1h-0.1c0,0.3-0.1,0.5-0.2,0.8c0,0.1,0,0.2,0,0.3
		c0,0.4,0.2,0.7,0.4,1c0.6,0.9,1.4,1.7,2.3,2.4c5.3,4.4,10.8,8.4,16.5,12.1c3.1,2,6,4,8.2,5.3c1.1,0.7,2.1,1.3,2.8,1.7
		c0.3,0.2,0.7,0.4,1,0.6c0.3,0.2,0.4,0.3,0.6,0.3c0.1,0.1,0.3,0.2,0.4,0.3c0.5,0.6,1,1.2,1.4,1.9c2.1,3,5.3,8.2,7.8,12.9
		c1.3,2.3,2.5,4.4,3.3,5.9s1.4,2.5,1.4,2.5l0.6-0.3l0.2-0.4l-0.2,0.4l0.3-0.2c0,0-3.1-5.7-6.4-11.5c-1.7-2.9-3.5-5.8-4.9-8.1
		c-0.7-1.1-1.4-2.1-1.9-2.8c-0.3-0.3-0.6-0.6-0.7-0.9c-0.2-0.2-0.4-0.4-0.7-0.5c-0.2-0.1-0.4-0.2-0.7-0.3
		c-2.4-1.4-10.1-6.3-17.2-11.2c-3.6-2.4-6.9-4.9-9.3-7c-1-0.8-2-1.7-2.9-2.7c-0.3-0.3-0.6-0.6-0.8-1c-0.1-0.1-0.2-0.3-0.3-0.5l0,0
		c0.1-0.4,0.2-0.7,0.3-1.1c0-0.1,0-0.3,0-0.4c-0.1-0.1-0.2-0.2-0.4-0.2c-0.2,0-0.3,0.1-0.3,0.1c-0.3,0.2-0.6,0.4-0.8,0.7
		c-0.2,0.1-0.3,0.3-0.4,0.5l-0.2,0.3l0.2,0.2c4.5,6.9,9.3,13.6,14.6,19.9c8.8,10.5,20.6,22.2,32.7,27.1l1.1,0.4l-0.6-1L117.1,442.9z
		"/>
	<path class="st4" d="M103.9,266l0.1-0.4c-0.1,0-0.2,0-0.2-0.1c-4.9-1.4-9.5-3.8-13.5-7.1c-5.9-4.8-11.4-12.8-11.4-25.3
		c0-1.1,0-2.2,0.2-3.3c0.4-5,3.1-9.4,7.4-12c6.7-3.9,18.6-9.1,36.1-9.1c9.3,0.1,18.6,1.4,27.5,3.9c0.1,0,0.2,0,0.2,0.1
		c4,1.3,7.8,3.2,11.2,5.6c6.2,4.4,10.5,11,12,18.4c1.4,7.6-3.6,14.8-11.2,16.2c-0.2,0-0.5,0.1-0.7,0.1c-5,0.7-10.9,1.6-16.2,2.6
		c-4.4,0.7-8.8,1.7-13.1,3.1l0,0c0,0-0.3,0.1-0.9,0.3c-1.9,0.7-6.9,2.4-12.1,4c-2.6,0.8-5.3,1.5-7.6,2.1c-1.9,0.5-3.8,0.8-5.7,0.9
		c-0.3,0-0.7,0-1-0.1c-0.2-0.1-0.4-0.1-0.6-0.2v-0.1l0,0l-0.2,0.3l-0.2,0.3c0.3,0.2,0.6,0.3,0.9,0.4c0.4,0,0.8,0,1.1,0
		c2.4-0.1,4.7-0.5,7-1.1c8.4-2.1,19.6-6.2,19.6-6.2l0,0c4.3-1.3,8.6-2.4,13-3.1c5.3-1.1,11.2-1.9,16.2-2.5c7.3-1,12.8-7.2,12.8-14.6
		c0-0.9-0.1-1.8-0.3-2.7c-1.6-8.1-6.3-15.2-13.2-19.6c-3.3-2.3-6.9-4-10.7-5.2c-9-2.5-18.3-3.7-27.6-3.8c-17.6,0-29.7,5.2-36.6,9.2
		c-4.5,2.6-7.4,7.3-7.8,12.5c-0.1,1.1-0.2,2.3-0.2,3.4c-0.3,10.5,4.4,20.6,12.8,26.9c3.8,3,8.2,5.2,12.9,6.4l0.2-0.3l-0.2,0.3
		L103.9,266z"/>
	<path class="st4" d="M330.3,302.7L330,303c6.6,7.8,18.4,22.2,23.3,31.7c4.3,8.5,13,13.8,22.5,13.8h0.9c5.3-0.2,10.5-1,15.6-2.3h0.1
		c5.9-3.3,11.2-7.6,15.6-12.7c4.7-5.5,7.2-12.4,7.2-19.6c0-7.8-2.9-15.3-8.2-21c-1.5-1.5-3-3.1-4.6-4.8
		c-11.9-10.8-27.9-16-43.9-14.3c-10.4,1.2-22.2,4.4-28.9,12.6c-1.9,2.3-2.9,5.2-2.8,8.2c0,3.1,1.1,6.2,3.1,8.6L330.3,302.7l0.3-0.1
		c-1.9-2.2-3-5.1-3-8c0-2.8,0.9-5.5,2.7-7.7c3.4-4,7.7-6.9,12.6-8.6c5-1.9,10.3-3.1,15.7-3.6c2.1-0.2,4.2-0.3,6.3-0.3
		c13.7-0.1,27,5.1,37,14.4c1.7,1.5,3.2,3.2,4.7,4.8c5.1,5.6,7.9,12.9,7.9,20.5c0,7-2.5,13.7-7,19.1c-3.1,3.5-6.6,6.6-10.4,9.3
		c-1.5,1.1-2.7,1.9-3.6,2.4c-0.4,0.2-0.7,0.4-1.1,0.6c-0.1,0-0.3,0-0.3,0.2l-0.1,0.1l0.2,0.3l-0.1-0.4c-5.1,1.3-10.3,2.1-15.5,2.3
		h-0.9c-9.2,0-17.6-5.2-21.9-13.3c-5-9.6-16.7-24-23.4-31.9L330.3,302.7z"/>
	<path class="st4" d="M217.6,387.8l0.4-0.1c-1.4-4.8-2.1-9.8-2.1-14.9c-0.1-3.5,0.4-6.9,1.4-10.3c0.3-0.8,0.8-1.5,1.4-2.1
		c0.6-0.7,1.2-1.4,1.8-2.2c3.5-5,8.8-8.5,14.8-9.5l0,0c0.5,0,1,0,1.6,0c2.9-0.3,9.3-0.7,14.8-0.7c1.8,0,3.5,0.1,4.9,0.2
		c1,0,2,0.2,3,0.6h0.2c0.7,0.1,6.6,1.3,12.1,7.8c4.3,5.1,6.6,11.5,6.6,18.1c0,8.1-3.3,15.9-9.2,21.6c-0.6,0.6-1.3,1.2-1.9,1.7
		c-2.1,1.7-4.8,2.7-7.5,2.7c-2.2,0-4.4-0.6-6.3-1.8c-2-1.2-4.2-2.5-6.1-3.5c-0.9-0.5-1.7-0.9-2.4-1.2c-0.3-0.1-0.5-0.2-0.8-0.4
		c-0.2-0.1-0.4-0.2-0.6-0.2h-0.2l0.1,0.4v-0.4c0,0-12.1-1.1-19.1-1.3c-2.9-0.1-5.4-1.9-6.3-4.6L217.6,387.8l-0.3,0
		c1,3.1,3.8,5.2,7,5.3c3.5,0,8.3,0.4,12.1,0.7c1.9,0.1,3.6,0.3,4.9,0.4s2,0.2,2,0.2h0.2c0.1,0,0.3,0,0.4,0.1
		c1.3,0.6,2.6,1.2,3.8,1.9c1.7,1,3.6,2,5.3,3.1c2,1.2,4.3,1.8,6.7,1.9c2.9,0,5.8-1,8.1-2.8c0.7-0.5,1.3-1.1,1.9-1.8
		c6-5.8,9.5-13.8,9.5-22.1c0-6.8-2.4-13.4-6.8-18.6c-6-7.2-12.6-8.1-12.7-8.1v0.4l0.2-0.4c-1-0.4-2.1-0.6-3.2-0.6
		c-1.5,0-3.1-0.1-4.9-0.1c-7.3,0-16.4,0.7-16.4,0.7l0,0c-6.2,1.2-11.7,4.7-15.3,9.8c-0.5,0.7-1.1,1.4-1.7,2.1
		c-0.7,0.7-1.2,1.5-1.6,2.4c-1.1,3.4-1.6,6.9-1.6,10.5c0,5.1,0.7,10.2,2.2,15.1L217.6,387.8z"/>
	<path class="st4" d="M242.3,704.5"/>
	<path class="st4" d="M243.1,706.2"/>
	<path class="st4" d="M242.1,705.5"/>
	<path class="st4" d="M311,674.1l-0.1,0.4h0.6c2.2,0.2,4.3,0.3,6.4,0.6c0.5,0.1,1,0.1,1.5,0.1c3.9-0.2,7.6-2,10-5.1
		c1.3-1.5,2.4-3.3,3.2-5.1l-0.4-0.2l0.3,0.2c3.1-5.5,4.3-9.5,4.3-12.4c0-1.4-0.3-2.8-1-4.1c-0.9-1.5-2.3-2.5-4-3
		c-1.4-0.4-2.9-0.6-4.4-0.6c-0.8,0-1.5,0.1-2.3,0.2H325c-2.4,1.3-4.9,2.4-7.5,3.3c-5,1.8-11.2,3.7-16.2,5.2
		c-2.5,0.7-4.7,1.4-6.2,1.8l-2.5,0.7h-0.1v0.2c-0.6,1.3-0.9,2.8-0.9,4.2c0,3,1.3,5.8,3.7,7.7c2.9,2.6,7.8,4.9,15.9,6.3v-0.7
		c-8.1-1.4-12.8-3.7-15.5-6.2c-2.1-1.8-3.3-4.4-3.3-7.1c0-0.9,0.1-1.8,0.4-2.7c0-0.3,0.2-0.7,0.2-0.8c0.1-0.1,0.1-0.2,0.1-0.3l0,0
		l-0.3-0.2v0.4c0,0,6.6-1.8,14.1-4c3.7-1.1,7.6-2.4,10.9-3.6c2.7-0.9,5.2-2,7.7-3.4l-0.2-0.3v0.4h2.2c1.9-0.1,3.8,0.4,5.5,1.2
		c0.9,0.5,1.6,1.2,2.2,2c0.6,1.1,0.9,2.4,0.9,3.6c0,2.8-1.1,6.6-4.1,12.1h-0.1c-0.9,1.9-2.1,3.7-3.5,5.3c-2.2,2.7-5.5,4.2-9,4.3
		c-0.5,0-0.9,0-1.4-0.1c-2.2-0.2-4.3-0.5-6.5-0.6H311L311,674.1z"/>
	<path class="st4" d="M238.7,507.8l-0.3-0.3l-34.8,19.6l0.3,0.3l0.3,0.3c2.3-3.6,4.2-7.3,5.9-11.2c6.4-14.3,13.5-35.1,13.5-35.1
		l-0.4-0.2v0.4h16.3c0.3,0,0.6,0.2,0.6,0.5l0,0c0.7,2.1,2.1,3.8,2.6,5.7c0.7,3.3,1.1,6.8,1.2,10.2v0.4c0,3.8-2,7.3-5.3,9.1
		L238.7,507.8l0.3,0.3c3.5-2,5.7-5.8,5.7-9.9v-0.4c-0.1-3.5-0.5-6.9-1.2-10.4c-0.6-2.2-1.9-3.9-2.6-5.7l0,0c-0.2-0.6-0.8-1-1.4-1
		H223v0.2c0,0-0.2,0.6-0.6,1.6c-1.2,3.5-4.4,12.7-8.1,21.9c-1.9,4.6-3.7,9.3-5.6,13.2c-1.4,3.2-3.1,6.3-5,9.3l-1.1,1.5l36.2-20.5
		L238.7,507.8z"/>
	<path class="st4" d="M159.9,515.1l0.2-0.4l-0.5-0.3c-8.3-3.8-16.2-8.3-23.7-13.5c-5.4-3.6-10.3-7.8-14.7-12.5
		c-4.1-4.6-7.1-9.6-7.9-14.7l0,0c0.1-0.3,0.2-0.6,0.5-0.8c1.4-1.5,6.7-5.3,25.3-11l-0.2-0.4l-0.4,0.2l21,53.4L159.9,515.1l0.2-0.4
		L159.9,515.1l0.4-0.1l-21.2-53.8h-0.3c-12.9,4-19.4,7-22.8,9c-1.2,0.6-2.2,1.4-3.1,2.4c-0.3,0.3-0.5,0.7-0.6,1.2l0,0
		c0.9,5.7,4.4,11.1,9,16.1c13.8,14.9,38.3,25.5,38.4,25.5l0.9,0.4l-0.3-0.9L159.9,515.1z"/>
	<path class="st4" d="M183.2,532l0.2-0.4l0,0c-0.2,0-3.8-1.5-9.4-10.8s-13.5-25.7-21.8-55.8l-0.4,0.1l-0.1,0.4
		c0,0,11.3,3.8,24.3,7.8c6.4,1.9,13.4,4,19.5,5.5c4.8,1.3,9.7,2.3,14.7,2.9h1.9v-0.4l-0.4-0.2l-0.9,2.2c-2.1,4.8-7.4,17-12.9,27.9
		c-2.5,4.9-5.2,9.7-8.2,14.4c-1.1,1.6-2.2,3.1-3.6,4.5c-0.7,0.8-1.6,1.4-2.7,1.5l0,0L183.2,532l0.2-0.4L183.2,532l0,0.4h0.1
		c0.6,0,1.3-0.3,1.8-0.7c1.5-1.1,2.7-2.4,3.7-3.9c4.6-6.2,10.6-17.8,15.3-27.9s8.2-18.6,8.2-18.6l0.2-0.7h-2.5
		c-4.9-0.6-9.8-1.5-14.5-2.8c-9.1-2.3-20-5.6-28.7-8.3c-4.4-1.4-8.1-2.6-10.8-3.5c-1.4-0.4-2.4-0.8-3.1-1l-1.1-0.4l-0.7-0.3l0.3,0.7
		c8.5,30.5,16.4,47.3,22.2,56.4s9.5,10.6,9.5,10.6h0.2L183.2,532z"/>
	<path class="st4" d="M103.5,723.8h-0.4c-0.3,1.5-0.4,3.1-0.4,4.7c0,8,3,25.5,24.2,47.3l0.3-0.2l-0.3,0.2c0.2,0.3,0.4,0.5,0.7,0.7
		c0.6,0.4,1.4,0.7,2.2,0.7c1.2-0.1,2.4-0.5,3.4-1.2v-0.2c0,0,2.3-6.4,4.5-14.7s4.5-18.4,4.5-26.1c0.2-2.9-0.4-5.8-1.7-8.5v-0.2
		l-37.5-2.8v0.3L103.5,723.8l0,0.5l36.9,2.8v-0.4l-0.3,0.2c1.2,2.5,1.7,5.2,1.6,8c0,7.4-2.3,17.6-4.5,25.9
		c-1.1,4.1-2.3,7.8-3.1,10.4c-0.4,1.3-0.8,2.3-1.1,3.1s-0.4,1.1-0.4,1.1l0.4,0.2l-0.2-0.3c-0.9,0.7-1.9,1.1-3,1.1
		c-0.6,0-1.2-0.2-1.7-0.5c-0.2-0.2-0.3-0.2-0.4-0.3l-0.2-0.1l0,0c-21.2-21.7-24-38.9-24-46.8c0-1.1,0-2.3,0.2-3.4
		c0-0.3,0-0.6,0.2-0.9v-0.3L103.5,723.8L103.5,723.8L103.5,723.8z"/>
	<path class="st4" d="M202.6,730v0.4l40,1V731l-0.4,0.1c0,0.1,0,0.3,0,0.4c0.3,1.3,0.5,2.6,0.6,3.9c0,0.5,0,0.9-0.2,1.4
		c-0.1,0.3-0.2,0.6-0.4,0.9c-0.2,0.2-0.3,0.5-0.5,0.7c-1.6,2.7-6.7,12.3-12.1,21.2c-2.4,4.1-5,8-7.8,11.8c-1,1.3-2.1,2.6-3.2,3.7
		c-0.4,0.4-0.8,0.7-1.3,1c-0.3,0.2-0.6,0.3-1,0.3c-0.1,0-0.3,0-0.4-0.1h-0.2c-0.6,0-1.2-0.3-1.7-0.7c-1.5-1.1-3.8-3.9-5.9-10.7
		s-4.1-17.6-5.1-34.8h-0.8c1.3,23,4.4,34.7,7.4,40.7c0.9,2.1,2.2,4,4,5.4c0.6,0.5,1.3,0.9,2.1,1l0,0v-0.4l-0.2,0.3
		c0.2,0.2,0.5,0.2,0.8,0.3c0.5,0,1-0.2,1.5-0.5c1.2-0.8,2.2-1.7,3.1-2.8c4-4.7,9.1-13.2,13.6-20.8c2.2-3.8,4.2-7.4,5.6-10.1
		c0.7-1.4,1.4-2.5,1.9-3.3c0.3-0.4,0.4-0.7,0.6-1c0.1-0.2,0.2-0.4,0.3-0.5c0.4-0.4,0.7-0.8,0.8-1.4c0.1-0.5,0.1-1,0.2-1.5
		c-0.1-1.5-0.3-3-0.6-4.5v-0.3l-40.7-1v0.4L202.6,730z"/>
	<path class="st0" d="M150.6,348c0,0,0.3-5.6-6.2-10.9c0,0-8.2-4-12,2.5s-0.3,13.7-0.3,13.7s2.1,7.1,9,5.7S151.4,357.7,150.6,348z"
		/>
	<path class="st4" d="M150.1,350.3c0,0,0-3.5-5.1-7.1c0,0-6.3-2.8-9,1.1s0.3,8.7,0.3,8.7c1.2,2.7,4,4.3,7,4
		C148.6,356.4,151,356.5,150.1,350.3z"/>
	<path class="st0" d="M232.7,377.8c0,0,0.5-5.6,7.6-9.9c0,0,8.6-2.8,11.6,4.2s-1.6,13.7-1.6,13.7s-3,6.8-9.7,4.4
		S230.6,387.3,232.7,377.8z"/>
	<path class="st4" d="M232.8,379.2c0,0,0.7-3.5,6.4-6c0,0,6.7-1.5,8.6,2.9s-2.1,8.4-2.1,8.4c-1.7,2.4-4.8,3.4-7.6,2.5
		C233.1,385.4,230.6,385,232.8,379.2z"/>
	<path class="st0" d="M239.8,376.7c0,0.8-0.7,1.5-1.5,1.5c-0.8,0-1.5-0.7-1.5-1.5s0.7-1.5,1.5-1.5l0,0l0,0
		C239.1,375.2,239.7,375.9,239.8,376.7L239.8,376.7z"/>
	<path class="st0" d="M240.4,379.3c0,0.4-0.3,0.7-0.6,0.7c-0.3,0-0.6-0.2-0.7-0.5l0,0c0-0.1,0-0.1,0-0.2c0-0.3,0.3-0.6,0.6-0.6l0,0
		C240.1,378.7,240.4,378.9,240.4,379.3z"/>
	<circle class="st0" cx="146.1" cy="347.2" r="1.5"/>
	<path class="st0" d="M145.2,349.7c0,0.3-0.3,0.6-0.6,0.6l0,0c-0.4,0-0.7-0.3-0.7-0.6l0,0c0-0.3,0.4-0.6,0.7-0.5c0,0,0,0,0,0l0,0
		C144.9,349.2,145.2,349.4,145.2,349.7L145.2,349.7z"/>
</g>
<path class="st4" d="M8.7,397.4c-1.7-1.2-2.8-3.1-3.1-5.1c-0.3-2-0.5-4.1-0.4-6.2c0-9-1.2-17.9-3.6-26.6c-0.8-2.3-1.3-4.6-1.5-7
	c-0.2-2.4,0.6-4.8,2.2-6.6c1.5,1.5,3.6,1.9,5.3,3.1c2.7,2.3,4.6,5.4,5.6,8.8c0.9,3.4,1.5,6.9,1.8,10.4c0.3,3.6,0.7,7.4,1,11
	c0.2,1.6,0.2,3.3-0.2,4.9c-0.5,1.3-1.1,2.6-1.9,3.8C11.9,391.1,10.6,394.3,8.7,397.4z"/>
<rect x="0.1" class="st18" width="424" height="198"/>
</svg>
