<?xml version="1.0" encoding="utf-8"?>
<!-- Generator: Adobe Illustrator 23.0.1, SVG Export Plug-In . SVG Version: 6.00 Build 0)  -->
<svg version="1.1" id="Camada_1" xmlns="http://www.w3.org/2000/svg" xmlns:xlink="http://www.w3.org/1999/xlink" x="0px" y="0px"
	 viewBox="0 0 289.1 517.3" style="enable-background:new 0 0 289.1 517.3;" xml:space="preserve">
<style type="text/css">
	.st0{fill:#FFFFFF;}
	.st1{fill:#D3D4D4;}
	.st2{fill:#A1B4C7;}
	.st3{fill:#E4E4E3;}
	.st4{fill:#020202;}
	.st5{fill:#7EBAB5;}
	.st6{fill:#6C8C95;}
	.st7{fill:#709691;}
	.st8{fill:#687573;}
	.st9{fill:#688480;}
	.st10{fill:#6F7072;}
	.st11{fill:#939598;}
	.st12{fill:#76A7A2;}
	.st13{fill:#6C908B;}
	.st14{fill:#6A898F;}
	.st15{fill:#C7CCCB;}
	.st16{fill:#9AB4D0;}
	.st17{fill:#A2CAC7;}
	.st18{fill:#5CA4A9;}
</style>
<title>Pandamia_mobile1</title>
<g>
	<path class="st0" d="M84.9,516.9h18"/>
	<path class="st1" d="M86.3,518.3"/>
	<path class="st0" d="M191.9,442.1"/>
	<path class="st0" d="M269.4,186.6c-3.7-5.8-9.9-9.6-16.7-10.4c-4.8-0.5-9.6,0.1-14,1.8c-3.7,1.3-7.4,2.7-11,4.4
		c-2.1,0.9-4,2.2-5.6,3.7c-13.1-10.8-29.7-18.1-45.4-23.3l-2-0.7c-11.2-4.8-23.2-7.2-35.3-7c-6.1-2.3-12.6-3.1-19-2.4
		c-0.5-3.8-2.3-7.4-5.2-9.9c-0.4-0.3-0.7-0.7-1.1-1c-1.8-2.8-3.8-5.6-6-8.2c-3.7-4.1-8.5-7.1-13.9-8.3c-9.4-1.9-19.1-1.6-28.4,1
		c-12.1,3.6-16.8,16.8-11.2,27.6c2.1,4.1,5.3,6.8,8.7,9.5c0.8,0.6,1.5,1.3,2.2,2c-1.1,1.6-2,3.4-2.5,5.3c-0.2,0.7-0.3,1.4-0.4,2.2
		c-3.4,1.8-6.5,4-9.3,6.7c-3.2,3.2-5.5,7.2-6.5,11.7c-1.9,2.3-3.4,4.9-4.6,7.6c-3.2,6.7-4.1,14.3-2.5,21.6c0.1,0.5,0.2,1.1,0.4,1.6
		c0.1,0.2,0.1,0.4,0.1,0.7c0.1,0.5,0.2,1.1,0.3,1.5c-0.8,2.1-1.2,4.4-1.3,6.6c-0.1,3.9,0.7,7.7,2.3,11.3
		c3.4,16.4,14.1,30.8,24.6,43.6c2.5,3.1,7,4.7,10.8,5.2c4.1,0.7,8.4-0.1,12-2.2l0.1-0.1c3.5,1.7,7.1,3,10.9,3.9
		c1,0.2,1.9,0.4,2.9,0.6c8.1,6.4,18.5,9.3,28.8,7.9c6.5,1.4,13.1,2.2,19.6,3c10.9,1.3,22.6,3.2,33.2-0.8
		c11.3-4.3,21.1-11.1,30.4-18.8c5.1-4.2,9.7-8.9,14-14c3.7-3.2,6.7-7.1,8.7-11.5l0.3-0.5l-0.1-0.1c0.7-1.5,1.4-3,2-4.5
		c0.6-1.5,0.8-3.1,0.7-4.8c2.4-5.1,3.9-10.6,4.4-16.3c0.3-3,0.2-6-0.1-9c4.7-0.9,9.3-2.6,13.5-4.9c4.5-2.4,8.4-5.9,11.2-10.2
		C273.3,202.2,273.5,193,269.4,186.6"/>
	<path class="st2" d="M102.4,293c0.6,2,2.5,3.3,4.5,3.2h0.3c-1.6-1-3.2-2-4.6-3.2H102.4"/>
	<path class="st3" d="M116.9,256.1v-1.1c0.1,0,0.3-0.1,0.5-0.2C117.1,255.3,117,255.7,116.9,256.1 M93.6,242.8
		c0.6-0.3,1.3-0.5,1.9-0.6c0,0.1-0.1,0.1-0.1,0.2C94.8,242.4,94.2,242.5,93.6,242.8 M95,232.7h-0.7c-4.9,0.4-8,4.5-10.6,8.3
		c-1.7,2.3-3.1,4.9-4.2,7.6c-0.9,3.1-1.3,6.2-1.1,9.4c-0.1,6,0,12.3,2.2,18.1c1.9,5.2,5.7,9.4,10.6,12c3.6,1.7,7.2,3.1,10.9,4.4
		l0.2,0.5h0.2c1.5,1.2,3,2.2,4.6,3.2c3.6-0.2,5.1-3.8,4.2-6.6c3.4-14.6,11.3-27.7,17.9-41c0.8-1.6,0.1-3.5-1.5-4.2
		c-0.5-0.2-1-0.3-1.5-0.3c-0.3,0-0.7,0.1-1,0.2c-0.7-1.1-1.7-2.1-2.9-2.8c-4.5-2.6-9.9-2.5-14.8-3.9
		C103.3,236.5,99.6,232.8,95,232.7"/>
	<path class="st3" d="M46.7,227c-2-0.1-3.9,0.8-5.2,2.4c-0.6,0.8-0.6,1.9,0.1,2.7c-0.2,1,0.4,2,1.4,2.2h0.2c0.2,0,0.5-0.1,0.7-0.2
		c0.6-0.2,1.2-0.3,1.9-0.3c2.4,0,4.6,1.6,6.7,2.9c2.6,1.6,5.2,3.3,7.8,4.9c2.6,1.7,5,3.1,7.3,4.8s4.5,3.1,4.9,6
		c0,0.3,0.2,0.6,0.4,0.8c0.2,3.7,0.2,7.3,0.1,11c-0.1,1,0.7,1.8,1.7,1.9h0.2c1.1,0,1.9-0.8,2-1.8l0,0c0.1-4,0-8.1-0.1-12.1
		c1.4-2.4,0.6-5.6-1.4-7.5c-1.7-1.6-3.8-2.1-5.7-3.2c-2.2-1.2-4.2-2.8-5.7-4.8c-1.4-1.8-3.2-3.3-5.3-4.2c-2.3-1.2-4.4-2.7-6.6-3.9
		C50.3,227.6,48.5,227.1,46.7,227"/>
	<path class="st3" d="M50.6,252.2c-1.1,0.1-1.9,1.1-1.8,2.2c0.1,0.6,0.4,1.1,0.9,1.5c5.3,3.7,10.6,7.4,15.9,11.1
		c2.6,1.6,4.8,3.8,6.3,6.4c0.7,1.3,1.4,2.7,2.1,4c0.3,0.6,1.1,1.8,1.5,2.7c-0.6,0.7-0.5,1.8,0.3,2.4c0,0,0,0,0,0l0,0
		c0.1,0.1,0.2,0.2,0.3,0.2l0.3,0.2c0.3,0.2,0.7,0.3,1.1,0.3c0.3,0,0.6-0.1,0.9-0.3c2.5-1.9,0.6-4.3-0.6-6.5
		c-1.7-3.3-3.2-6.9-5.9-9.5c-2.7-2.6-6.5-4.8-9.7-7c-3.5-2.5-7.1-4.9-10.6-7.4C51.3,252.2,51,252.1,50.6,252.2"/>
	<path class="st4" d="M83.3,371.7c-1.1,1.7-2.1,3.3-3.3,4.9c-0.7,1-1.4,2.1-2.1,3c-0.3-0.6-0.4-1.2-0.6-1.5
		c-0.6-1.2-1.1-2.4-1.7-3.7c-1.1-2.5-2.1-5.2-3-7.8c-1.2-3.3-6.5-1.9-5.3,1.5c1.2,3.2,2.4,6.4,3.8,9.6c1.1,2.4,2,6.4,4.4,7.9
		c2.6,1.7,4.9-0.6,6.5-2.5c2.2-2.7,4.2-5.6,6.1-8.6C89.9,371.4,85.2,368.6,83.3,371.7"/>
	<path class="st5" d="M226.2,400.5c0-1.2-0.1-2.3-0.3-3.5c-0.7-3.8-2.1-7.4-4-10.7c-0.9-2.7-1.8-5.4-2.7-8.1c-1.1-3.1-2.5-6-4.2-8.8
		c-1.8-2.9-3.9-5.5-5.3-8.6c-2.8-6.1-3.6-13-6.2-19.2c-2.3-5.8-5.9-11-10.6-15.2c-4.4-3.5-10.1-6.4-15.9-6.3c-2.6,0-4.9,1.4-6.1,3.7
		c-1.4,2.6-3.2,4.9-5.4,6.8c-5,4.3-11.4,6.6-17.6,8.9c-0.8,0.3-1.5,0.6-2.3,0.9l0.8-3.5c0.8,0,1.5-0.2,2.1-0.7c2.7-2.2,6.7-2,10-2.8
		c2.9-0.5,5.6-2,7.6-4.2c2.3-2.9,2.1-6.5,2-10.1c0-2.1,0-4.2-0.2-6.4c0-1.6,0-3.1-1.2-4.3c-2.1-2.3-7-1.1-9.7-1.1
		c-3.4,0.1-6.8,0-9.2,2.9c-1.9,2.3-2.3,5.5-2.9,8.4c-2.5,4-4.3,8.4-5.4,12.9c-0.2,0.9,0,1.8,0.6,2.5c-0.4,1.2-0.7,2.4-1.1,3.6
		c-0.4,1.2,0.1,2.4,1.2,3c0.2,0.6,0.6,1.1,1.1,1.4c-2,0.9-4.1,1.8-6,2.9c-2.9,0.3-5.7,2.4-7.8,5.1c-1.4,1.1-2.8,2.3-4.1,3.5
		c-0.1,0-0.1,0-0.2,0c-2.9-0.6-5.8-1.3-8.6-2.1c-0.4-4.5-3.9-8.9-7.3-11.9c-0.5-0.5-1-0.9-1.5-1.3c1.5,0.5,3.1-0.2,3.7-1.7
		c0.2-0.5,0.2-1.1,0.1-1.6c-0.4-2.2-0.6-4.4-0.6-6.6c0.1-0.6,0.1-1.3,0.1-1.9c0-1.5-1.2-2.7-2.7-2.7c0,0,0,0,0,0h-0.3v-2.7
		c0-1.4-1.2-2.6-2.6-2.6c0-1.4,0-2.9-0.1-4.3c0-1.3-0.9-2.4-2.2-2.6c0-1.5,0-3-0.2-4.5c0-1.5-1.3-2.7-2.8-2.7c0,0,0,0,0,0
		c-0.3,0-0.5,0-0.8,0.1c-0.1-0.1-0.2-0.1-0.3-0.1c0-0.2,0-0.3-0.1-0.5c-0.1-1-0.3-2-0.4-3c0-0.2-0.1-0.4-0.2-0.6v-1.4
		c0-1.5-1.2-2.7-2.7-2.7c0,0,0,0,0,0l0,0c-0.2,0-0.5,0-0.7,0.1l0,0c-0.5-1-1.5-1.5-2.5-1.3c0.3-0.6,0.3-1.3,0.1-1.9
		c-0.8-3-3.4-4.2-6.4-4.2c-1.1,0-2.2,0-3.3-0.2c-0.3-0.1-0.7-0.2-1.1-0.3c-0.1,0-0.2-0.1-0.2-0.1l-0.4-0.2c-1.7-0.9-3.3-1.8-4.9-2.8
		c-3.3-1.9-6.6-3.8-9.8-5.8c-3.2-2.2-6-5-8.1-8.2c-2.2-3-4.3-6.1-6.5-9.2c-1.9-2.7-3.6-5.7-6-8c-0.6-2.8-2.3-5.3-4.8-6.7
		c-1.2-2.8-2.5-5.5-4-8.2c-0.8-1.3-2.5-1.7-3.8-0.9c-0.6,0.4-1,0.9-1.2,1.6c-0.7,3.2-1.5,6.3-2.5,9.4c-1.8,1.7-2.7,4.1-2.6,6.6l0,0
		c-1.1,2.1-1.9,4.3-2.3,6.5c-0.2,1.7,0,3.4,0.8,4.9c0,0.9,0.5,1.7,1.2,2.1c0.3,0.5,0.7,0.9,1,1.4c0.2,0.9,0.8,1.7,1.7,2.1
		c1.2,1.5,2.4,3,3.6,4.5c0.1,0.4,0.2,0.8,0.2,1.1c0.3,1,1.1,1.8,2.2,2l0.6,0.7c0.4,0.6,0.8,1.1,1.3,1.7c0.1,0.2,0.1,0.4,0.1,0.6
		c0.2,0.8,0.8,1.5,1.6,1.8c0,0,0.1,0.2,0.2,0.2c0.4,1.7,0.9,3.3,1.4,4.9v0.8c0,0.8,0.3,1.6,1,2.1c0.3,0.7,0.6,1.5,0.8,2.2
		c0.3,0.7,0.9,1.3,1.7,1.7v1.5c0,1.5,1.2,2.7,2.7,2.7c0,0,0,0,0,0l0,0c0.5,0,1-0.1,1.5-0.4c1.2,2.7,2.2,5.4,3,8.2
		c-0.8,0.5-1.2,1.4-1.1,2.3c1.6,15.3,2.6,30.7,3.1,46c0.2,7.7,0.2,15.4,0.2,23.1c-0.1,1.9,0.4,3.8,1.4,5.5
		c-6.1,10.4-6.9,23.4-5.7,35.1c0.8,8,1.9,13.3,2.5,20.9c-0.6,3.7-0.8,7.5-0.4,11.2c0.6,5.9,1.4,13.3,6.4,17.2c3,2.3,6.4,2.5,10,2.9
		l8.2,0.8c5.3,0.5,10.5,0.9,15.8,1.3c21.6,1.4,43.3,1.7,64.9,0.7h0.3c0.5,0.3,1.1,0.2,1.5-0.1h1.8c0.5,0.3,1.1,0.3,1.6-0.1
		c6.8-0.3,14-1,19.9-4.1c1.7,0.2,3.4,0,4.9-0.7c4.6-1.9,6.6-6.6,5.6-11.5c-1-4.8-1.9-9.5-2.6-14.2c-0.8-5.2-1.2-7.7-1.8-12.8
		c-1-9.2-1.7-18.5-1.8-27.8c1.9-1.3,3.8-2.7,5.5-4.2c1-0.9,2-1.8,2.9-2.8c0.3,0.2,0.6,0.4,0.9,0.6c-0.3,0.7-0.5,1.4-0.7,2.1
		c-0.9,3.4-1.4,6.8-1.7,10.2c-0.2,3-0.6,6.7,0.6,9.6c2.3,5.6,10.2,5.8,15.1,4.9c6.2-1.2,11.9-4.1,16.6-8.4
		C228,412.3,228,406.7,226.2,400.5 M59.9,283.6c0.1-0.1,0.1-0.3,0.1-0.4c0.1,0,0.2,0.2,0.3,0.2C60.2,283.4,60,283.5,59.9,283.6
		 M75.6,314.4c-0.5-0.3-1-0.5-1.5-0.6l-1.1-1.4c-0.4-0.4-0.9-0.7-1.4-0.8l-0.7-2c-0.1-0.4-0.2-0.8-0.4-1.2c0.7-0.1,1.4-0.6,1.8-1.2
		c0.6-1,1.2-2.1,1.8-3.1c0,3.4,0.6,6.9,1.8,10.1C75.8,314.2,75.7,314.2,75.6,314.4 M88,296.9c-0.1,0.3-0.2,0.7-0.2,1.1
		c-0.7-0.1-1.4,0.1-2,0.5c-0.8,0.3-1.3,1-1.5,1.8v0.5c-0.1-0.3-0.2-0.6-0.3-0.8c-0.7-1.6-2.5-2.3-4.1-1.7c0.6-1.2,1-2.5,1.2-3.9
		c0.3,0.1,0.7,0.1,1,0.1c0.4,0,0.9,0,1.3,0c0.6-0.1,1.3-0.1,1.9,0c0.4,1.2,1.6,2,2.9,1.9C88.3,296.6,88.2,296.8,88,296.9
		 M95.4,332.6c-0.1-1.4-0.3-2.8-0.4-4.2c0.7,0.3,1.5,0.4,2.2,0.2h0.1v0.3c0.2,0.9,0.9,1.6,1.8,1.8c0.1,0.4,0.2,0.8,0.3,1.3
		c0.4,1.4,1.8,2.3,3.2,1.9c0.3-0.1,0.6-0.2,0.8-0.4l0.3,0.2c0.1,0.9,0.3,1.9,0.4,2.8c0.1,0.4,0.2,0.7,0.4,1.1
		C101.7,335.4,98.6,333.8,95.4,332.6 M130.1,410.5c-0.1,0.1-0.1,0.1-0.2,0.1l0,0c-0.4-0.1-0.6-0.3,0.4-0.3
		C130.2,410.4,130.2,410.5,130.1,410.5"/>
	<path class="st6" d="M47.8,428.1v0.4l0,0C47.7,428.4,47.7,428.3,47.8,428.1 M48.5,316.9L48,398c0.8-3.8,2.2-7.5,4-10.9
		c-0.1-0.8-0.1-1.6-0.1-2.4c-0.5-1.3-0.7-2.7-0.7-4.2c0-7.7,0-15.4-0.2-23.1C50.6,343.9,49.7,330.4,48.5,316.9 M15.8,264.3l4.5,6.3
		l27.8,43.1c0-0.8-0.2-1.6-0.2-2.3c-0.1-0.9,0.3-1.8,1.1-2.3c-0.8-2.8-1.8-5.5-2.9-8.2c-0.4,0.3-1,0.4-1.5,0.4
		c-1.5,0-2.7-1.1-2.7-2.5c0,0,0,0,0,0l0,0v-1.7c-0.8-0.3-1.3-0.9-1.7-1.7c-0.3-0.7-0.6-1.4-0.8-2.2c-0.6-0.5-1-1.3-1-2.1v-0.8
		c-0.5-1.6-1-3.3-1.4-4.9c-0.1,0-0.1-0.2-0.2-0.2c-0.8-0.3-1.5-1-1.7-1.8c0-0.2,0-0.4-0.1-0.6c-0.4-0.6-0.8-1.1-1.3-1.7
		c-0.2-0.2-0.4-0.5-0.6-0.7c-1-0.2-1.9-0.9-2.2-1.9c-0.1-0.4-0.2-0.8-0.2-1.1l-1.3-1.7c-0.8-0.5-1.6-1-2.4-1.6l0.2-0.2l-0.2,0.2
		l-1.1-0.8l2,0.4l-0.7-0.9c-0.9-0.4-1.5-1.2-1.7-2.1c-0.3-0.4-0.7-0.9-1-1.4c-0.7-0.5-1.2-1.2-1.2-2.1l-2.3-2.7L15.8,264.3"/>
	<path class="st6" d="M47.8,428.6L47.8,428.6l-0.3,28.8l2.8,6.6v-1.9c-0.3-1.2-0.6-2.4-0.8-3.7c-0.7,0.2-1.5-0.3-1.7-1c0,0,0,0,0,0
		l0,0c-0.1-0.2-0.1-0.4,0-0.6c0.4-1.3,0.7-2.5,1.2-3.8c-0.3-3.7-0.1-7.4,0.5-11C49.1,437.1,48.5,433.1,47.8,428.6"/>
	<path class="st7" d="M50.5,457.5c-0.1,0.1-0.1,0.2-0.2,0.3c-0.2,0.3-0.4,0.4-0.7,0.6c0.2,1.2,0.4,2.5,0.8,3.7
		C50.3,460.6,50.3,459,50.5,457.5 M54,425.3c0,0.3-0.1,0.6-0.2,0.9c0.1-0.1,0.1-0.3,0.2-0.4V425.3 M52.1,387
		c-1.9,3.4-3.2,7.1-4.1,11l-0.2,30.2c0,0.2,0.1,0.3,0.1,0.4c0.6,4.4,1.2,8.5,1.6,13.4c-0.6,3.6-0.8,7.3-0.5,11
		c0.4-1.3,0.8-2.6,1.3-3.9c-0.6,0.1-1.2-0.4-1.3-1c0,0,0,0,0,0l0,0c0-0.1,0-0.2,0-0.3c0.6-4,1.1-8.1,1.9-12c0-2.2-0.1-4.4,0-6.6
		c-0.6-0.3-0.9-0.9-0.8-1.6c0.9-6.4,1.8-12.8,2.6-19.3c-0.2,0.1-0.5,0.2-0.7,0.2c-0.6,0.1-1.2-0.4-1.2-1c0,0,0,0,0,0l0,0
		c0-0.1,0-0.2,0-0.3c0.5-4.7,1.4-9.4,2.5-13.9c-0.5-0.2-0.8-0.7-0.8-1.2C52.3,390.4,52.2,388.7,52.1,387 M54.8,338.8
		c0,0.1,0,0.2,0,0.3c0-0.1,0-0.1,0-0.1V338.8 M29.6,275.6l1.3,1.7c0.1,0.4,0.2,0.8,0.2,1.1c0.3,1,1.2,1.8,2.2,1.9l0.6,0.7
		c0.4,0.6,0.8,1.1,1.3,1.7c0.1,0.2,0.1,0.4,0.1,0.6c0.2,0.9,0.8,1.6,1.7,1.8c0,0.1,0.1,0.1,0.2,0.2c0.4,1.7,0.9,3.3,1.4,4.9v0.8
		c0,0.8,0.3,1.6,1,2.1c0.3,0.7,0.6,1.5,0.8,2.2c0.3,0.7,0.9,1.3,1.7,1.7v1.5c0,1.5,1.1,2.6,2.6,2.7c0,0,0,0,0,0h0.1
		c0.5,0,1-0.1,1.5-0.4c1.2,2.7,2.1,5.4,2.9,8.2c-0.8,0.5-1.2,1.4-1.1,2.3c0,0.8,0.2,1.6,0.2,2.3l0.3,0.6v2.7
		c1.3,13.5,2.1,27,2.5,40.6c0.2,7.7,0.2,15.4,0.2,23.1c0,1.4,0.2,2.8,0.7,4.2c-0.1-4.9,0.3-9.8,1.1-14.6c0-0.8,0-1.7,0.1-2.5H53
		c-0.7,0-1.3-0.5-1.3-1.2c0,0,0,0,0,0l0,0v-0.1c0-3.9,0.1-7.8,0.3-11.7c-0.4-0.2-0.6-0.7-0.7-1.1c-0.4-5.7,0-11.5,1.2-17.2
		c-0.2,0.2-0.5,0.2-0.7,0.2c-0.8,0-1.4-0.5-1.5-1.3c0-0.3,0-0.5,0.2-0.8c2.3-3.6,3.2-7.7,4.4-11.8v-0.1c0-12.9-4.8-25.4-13.4-35.1
		l-9.3-10.4C31.1,276.7,30.3,276.2,29.6,275.6 M23.3,267.3c0,0.8,0.5,1.6,1.2,2c0.3,0.5,0.7,0.9,1,1.4c0.2,0.9,0.8,1.7,1.7,2.1
		l0.7,0.9l1.4,0.3L23.3,267.3"/>
	<path class="st6" d="M53,468.9c0,0.1-0.2,0.3-0.2,0.4c0,0.1-0.1,0.2-0.2,0.2l0.4,1L53,468.9"/>
	<path class="st8" d="M53.2,468.5c-0.1,0.1-0.1,0.3-0.2,0.4v1.8l0.2-0.4c-0.2-0.3-0.3-0.7-0.2-1C53.1,469,53.1,468.8,53.2,468.5"/>
	<path class="st6" d="M47.2,424v4.5h0.6v-0.4C47.6,426.9,47.4,425.5,47.2,424 M20.8,264.4l0.2-0.2l0,0L20.8,264.4 M14.8,263.7
		L20,271l28,43.4l-0.6,86.4c0.2-0.9,0.4-1.9,0.6-2.8l0.6-81.1c-0.1-1.1-0.2-2.1-0.3-3.2l-27.8-43.1l-4.5-6.3l5.1,0.2l2.3,2.7v-0.1
		c-0.2-0.4-0.4-0.9-0.5-1.4l-1.5-1.8h-0.1L14.8,263.7"/>
	<path class="st6" d="M47.8,428.6h-0.5l-0.2,28.9l3.3,8v-1.4l-2.8-6.6L47.8,428.6"/>
	<path class="st7" d="M54.7,423.1c-0.2,0.6-0.3,1.1-0.5,1.6c-0.1,0.2-0.1,0.4-0.2,0.6v0.6c0.2-0.4,0.4-0.9,0.6-1.3L54.7,423.1
		 M48,398c-0.2,0.9-0.4,1.9-0.6,2.8L47.3,424c0.2,1.4,0.3,2.8,0.6,4.1L48,398 M55.1,337.6c0,0.4-0.1,0.7-0.2,1.1v0.2
		c0.1-0.3,0.3-0.6,0.4-0.8l0.2-0.2v-0.2C55.3,337.8,55.2,337.7,55.1,337.6 M48.2,313.7c0.1,1.1,0.2,2.1,0.3,3.2v-2.7L48.2,313.7
		 M32.2,277.2l9.3,10.4c8.6,9.6,13.4,22.1,13.4,35.1v0.1c0.2-0.6,0.3-1.2,0.6-1.7c-0.4-12.5-5.2-24.5-13.5-33.9l-8.4-9.3
		C33,277.6,32.6,277.4,32.2,277.2 M22.8,265.7c0.2,0.4,0.3,0.9,0.5,1.4v0.1l6.1,6.8l0.9,0.2L22.8,265.7"/>
	<path class="st6" d="M52.6,469.6c-0.1,0.1-0.3,0.2-0.4,0.3L53,472v-1.4L52.6,469.6"/>
	<path class="st8" d="M53.2,470.3l-0.2,0.4l-0.1-0.2v1.4l0.1,0.1l0.3-0.7v-0.1c0-0.2,0.1-0.4,0.2-0.6L53.2,470.3"/>
	<path class="st9" d="M82.8,325.1l21.8,19.6c2.4,2.2,4.5,4.6,6.2,7.3c0.7,1.1,1.3,2.2,2.1,3.3c1,1.5,1.7,3.2,1.9,5
		c0.2,1.2,0.3,2.5,0.3,3.7v3.2l-2.9,37.8c0,0-2.4,22.6-1.7,26.7l0.5,22.5l2.6,0.7l7.1-102"/>
	<path class="st9" d="M82.6,325.3l21.7,19.6l0.2,0.2c2.3,2.1,4.3,4.5,6,7.1c0.7,1.1,1.3,2.2,2.1,3.3c1,1.5,1.6,3.1,1.8,4.9
		c0.2,1.2,0.3,2.4,0.3,3.7v3.2l-2.9,37.9l0,0c0,0-1.8,16.6-1.8,24c0,0.9,0,1.9,0.2,2.8l0.3-0.1h-0.3l0.5,22.7l3.2,0.8l7.1-102.2
		l-0.6-0.1l-7.1,101.6l-2.1-0.6l-0.5-22.3l0,0c-0.1-0.9-0.2-1.8-0.2-2.7c0-3.7,0.4-9.6,0.9-14.7c0.2-2.5,0.4-4.9,0.6-6.5l0.3-2.7
		l0,0l2.9-37.9v-3.2c0-1.3-0.1-2.5-0.3-3.8c-0.2-1.8-0.9-3.6-1.9-5.1c-0.8-1-1.4-2.1-2-3.2c-1.8-2.7-3.9-5.2-6.3-7.4l-21.7-19.6
		L82.6,325.3L82.6,325.3z"/>
	<path class="st9" d="M57.3,464.7c-0.3-1.4-2.1-1.2-2.6-0.1l-0.2-0.2c-0.2-0.3-0.6-0.4-0.9-0.4c-0.4-0.7-1.3-0.9-1.9-0.5
		c-0.7,0.4-0.9,1.3-0.5,1.9v0.1c-0.5,1.3,0,2.8,1.3,3.4c0.3,0.1,0.6,0.1,0.9,0.1c0.2,0.1,0.4,0.2,0.6,0.2c-0.8,1.6,1.6,2.9,2.4,1.3
		C57.4,468.8,57.7,466.7,57.3,464.7z"/>
	<path class="st9" d="M113.8,453.9L113.8,453.9c-0.1-0.1-0.1-0.2-0.2-0.3l-0.7-0.8c-0.3-0.3-0.7-0.4-1.1-0.4c-0.4,0-0.7,0.2-1,0.4
		c-0.3,0.3-0.4,0.6-0.4,1c0,0.1,0,0.2,0,0.3c0,0.2,0.1,0.5,0.2,0.7c0.4,0.9,1.3,1.6,2.3,1.9c0.7,0.2,1.5-0.3,1.7-1
		C114.9,455,114.5,454.2,113.8,453.9L113.8,453.9z"/>
	<path class="st5" d="M58.1,462c-0.3,0-0.6,0.1-0.9,0.2c0.1-0.2,0.1-0.3,0.1-0.4c0.1-0.4,0-0.8-0.2-1.1c0-0.9,0-1.8,0.1-2.8
		c0.1-1.4-1.7-1.7-2.4-0.8c0-1.9,0.1-3.8,0-5.7c0-0.4-0.2-0.8-0.6-1.1c0.8-2.5,2.1-4.9,2.8-7.4c0.7-2.7,1.2-5.5,1.5-8.3
		c0-0.8-0.7-1.4-1.5-1.4c-0.5,0-0.9,0.3-1.1,0.6c-0.6,1.3-1.2,2.7-1.7,4c0.4-2,1-4,1.7-5.9c1.2-2.8,2-5.3,1.6-8.4
		c-0.2-1.2-2-1.3-2.5-0.3c-0.5,0.9-0.9,1.8-1.3,2.8c0.1-0.5,0.2-1.1,0.3-1.6c0.9-3.5,2.7-6.6,3.5-10.2c0.7-3.5,0.7-7.1-0.1-10.6
		c-0.2-0.6-0.8-1.1-1.4-1l2.1-15.2c0.1-0.7-0.3-1.3-0.9-1.6c0.9-17.2,1.7-34.5,1.2-51.6c-0.9-0.7-1.6-1.6-1.9-2.7
		c-0.1,0-0.1,0-0.2,0c0.6-2.1,1.4-4.1,2.2-6.1c0.3-0.8-0.1-1.7-0.9-2c0,0,0,0,0,0l0,0c-0.1-0.1-0.3-0.1-0.4-0.1
		c0.5-1.9,1.2-3.7,2.1-5.5c0.8-1.6-1.5-3-2.4-1.4c-3,5.7-3.2,12.5-6.7,18c-0.8,1.3,0.9,2.5,2,1.8c-1.2,5.7-1.6,11.5-1.2,17.3
		c0.1,0.4,0.3,0.8,0.7,1.1c-0.2,3.9-0.3,7.8-0.3,11.7c0,0.7,0.5,1.3,1.2,1.3h0.2c0,0.8,0,1.7-0.1,2.5c-1.2,7.2-1.4,14.6-0.7,21.9
		c0.1,0.5,0.4,1,0.8,1.2c-1.2,4.6-2.1,9.2-2.6,13.9c-0.2,1.2,1.1,1.6,1.9,1.2c-0.9,6.4-1.8,12.8-2.6,19.3c-0.1,0.6,0.2,1.3,0.8,1.6
		c0,2.2,0.1,4.4,0.1,6.6c-0.9,3.9-1.4,8-1.9,12c-0.1,0.8,0.6,1.3,1.3,1.3c-0.8,2.5-1.7,5.1-2.4,7.6c-0.2,0.8,0.3,1.5,1.1,1.7
		c0.6,0.1,1.2-0.1,1.5-0.6c0.1-0.1,0.1-0.2,0.2-0.3c-0.2,3.7-0.1,7.4-0.2,11.1c-0.1,1.4,1.8,1.8,2.6,0.7c0.2-0.2,0.3-0.5,0.4-0.8
		c-0.1,0.2-0.1,0.5-0.1,0.7c-0.1,0.5,0.1,1,0.5,1.3c0,0.2-0.1,0.4-0.2,0.6c-0.4,1.7,2.3,2.5,2.6,0.7c0.1-0.5,0.3-1.1,0.4-1.6
		c0.4,0.1,0.9,0,1.2-0.4c1.4-1.4,2.3-3.1,2.8-5c0.2-1.3-0.6-2.6-2-2.9H58 M55.2,338.1c-0.2,0.3-0.3,0.6-0.4,0.9
		c0.1-0.5,0.2-0.9,0.3-1.4c0.2,0.1,0.4,0.1,0.6,0.1C55.5,337.8,55.3,338,55.2,338.1"/>
	<path class="st9" d="M108.2,323.1c-1.3-3.7-2.8-7.3-4.5-10.8c-1.2-2.5-2.6-5-4-7.4c-1.4-3.9-3.2-8.5-7-9.4c-0.5-0.4-1-0.7-1.6-1
		c-0.7-0.4-1.6-0.1-2,0.6c-0.1,0.2-0.2,0.4-0.2,0.6c-0.1,0-0.2,0.1-0.2,0.2h-0.1c-5.4,1-10.9,2.3-14.6,6.5c-1,1.1,0.3,3.2,1.7,2.1
		c4.4-3.2,9.5-4.5,14.7-5.4c1,1.8,2.3,3.5,3.4,5.3c2,3.3,3.8,6.7,5.2,10.3c1.5,3.7,2.8,7.5,3.9,11.4c-0.4-0.2-0.9-0.3-1.3-0.5
		c-0.4-0.2-0.8-0.1-1.2,0.1c-1-0.1-2-0.2-3-0.2l-3.6-0.8c-1.4-0.3-2.6,1.8-1.1,2.5c1.1,0.5,2.3,0.8,3.5,0.8c2.7,0.7,5.4,1.6,8,2.7
		c0.4,1.6,0.8,3,1.2,4.6c0.3,0.7,1.1,1.1,1.8,0.8c0.6-0.2,1-0.9,0.9-1.5c-0.1-0.4-0.3-0.9-0.4-1.4c0.5,0.5,1.4,0.5,1.9-0.1
		c0.2-0.2,0.3-0.4,0.3-0.6C110.9,329.7,109.2,326.2,108.2,323.1z"/>
	<path class="st9" d="M160,305.6c-1.9,0.5-3.8,1.2-5.6,2.1c-2.6,1.1-4.7,3-6.1,5.4c-0.4,0.6-0.2,1.4,0.4,1.8l0,0
		c0.1,0.1,0.2,0.1,0.3,0.1c-1,2.1-1.7,4.4-2.5,6.5c-2,5.5-4.5,10.8-7.3,15.9c-0.1,0-0.2,0-0.3,0c-0.8,0.1-1.4,0.9-1.3,1.8
		c0,0.2,0.1,0.4,0.2,0.6l-1.2,2c-0.3,0.7,0,1.5,0.7,1.8c0.6,0.3,1.3,0.1,1.7-0.5c0.3-0.6,0.7-1.2,1-1.7c1.5-0.5,3-1.1,4.5-1.7h2.8
		c0.8,0,1.4-0.6,1.4-1.4l0,0l0,0c0-0.2,0-0.3-0.1-0.5l2.1-1.2c0.6-0.4,0.8-1.3,0.3-1.9c-0.4-0.5-1.1-0.7-1.7-0.5
		c-1.7,1-3.5,1.9-5.3,2.7h-1.5c1.9-3.6,3.7-7.4,5.2-11.2c1.2-2.8,2.1-5.8,3.3-8.6c1.5-3.6,3.9-5.5,7.3-7.1c0.2-0.1,0.3-0.2,0.4-0.3
		c0.3-0.2,0.5-0.3,0.7-0.4c0.9-0.6,2.3-1.3,2.2-2.6c-0.1-0.7-0.7-1.3-1.5-1.2L160,305.6z"/>
	<path class="st9" d="M191.2,387.4c-1.5,3.6-3.4,7.1-5.7,10.2c-0.1,0.1-0.2,0.3-0.3,0.4c-0.6,0.7-1.1,1.5-1.7,2.2l-0.1,0.1
		c-0.4,0.3-0.4,0.9-0.2,1.3c0.2,0.7,0.9,1.1,1.6,0.9c0,0,0,0,0,0l0,0c0.2-0.1,0.4-0.2,0.5-0.3h0.1c0.8-0.7,1.5-1.5,2.1-2.3
		c1-0.6,1.8-1.5,2.3-2.7c0.7-1.3,1.8-2.4,2.3-3.8c0.2-0.2,0.4-0.3,0.6-0.5c0.6-0.5,0.8-1.5,0.3-2.1c-0.1-0.1-0.2-0.2-0.3-0.3
		c0.3-0.8,0.7-1.6,1-2.3C194.5,386.6,191.8,385.8,191.2,387.4z"/>
	<path class="st9" d="M31.9,239.3l17.9,26.6c0,0,8.6,12.7,10.5,14.4s12.9,9.9,12.9,9.9l3.5,5.6l11.5-1.5l-5.4-8.6l-18.3-10.3
		l-12.6-16.3L31.9,239.3z"/>
	<path class="st9" d="M31.9,239.3l-0.2,0.2l17.9,26.6c0,0,2.1,3.2,4.5,6.6c1.2,1.7,2.4,3.4,3.5,4.9c0.6,0.7,1.1,1.3,1.4,1.9
		c0.3,0.4,0.7,0.7,1.1,1.1c1,0.8,4.2,3.3,7.2,5.5c2.9,2.3,5.7,4.3,5.7,4.3l0.2-0.2l-0.2,0.2l3.6,5.8l12.1-1.6l-5.7-9l-18.4-10.3
		L52,258.9l-19.9-19.8l-0.4,0.3L31.9,239.3l-0.2,0.2l19.9,19.7l12.6,16.4l18.4,10.3l5.2,8.2L77,295.6l-3.5-5.5l0,0l-1.8-1.3
		c-1.6-1.2-4-3-6.2-4.7c-2.2-1.7-4.2-3.2-4.9-3.8c-0.4-0.3-0.7-0.7-0.9-1.1c-1.4-1.7-3.8-5.1-5.8-8c-1-1.4-1.9-2.8-2.6-3.8l-1.1-1.6
		l-18-26.7L31.9,239.3l-0.2,0.2L31.9,239.3z"/>
	<polygon class="st10" points="88.2,258.7 98.7,263.9 114.4,269.8 118.7,271.3 120.7,272.4 136.6,276.1 153.7,280.4 158,280.6 
		132.7,276.6 118,274.3 115.6,274.2 112.9,271.1 103.5,267.4 	"/>
	<polygon class="st11" points="88.2,258.7 88.1,258.9 98.6,264.1 114.4,270.1 118.6,271.5 120.5,272.7 136.6,276.4 153.6,280.7 
		158,280.8 158,280.4 132.8,276.3 118,274 115.8,273.9 113,270.8 103.6,267.1 88.3,258.4 88.2,258.7 88.1,258.9 88.2,258.7 
		88.1,258.9 103.4,267.6 112.7,271.3 115.5,274.4 117.9,274.5 132.7,276.9 157.9,280.8 158,280.6 158,280.3 153.7,280.1 
		136.7,275.9 120.8,272.2 118.8,271 114.5,269.6 98.8,263.6 88.3,258.4 88.1,258.9 	"/>
	<path class="st10" d="M93.6,248.7c0,0,21.8,11.8,23.7,12.6c1.3,0.4,2.8,0.2,3.9-0.6l0.7-0.3l1.5,1c0,0,0.3,0.9,0.9,1.1
		c0,0-0.3,1.2,1.2,1.8c0,0,12.2,3.2,17.9,4.3c5.7,1.1,13.2,1.9,13.2,1.9l6.7,0.4c0,0-23.4-0.7-41-5.4l-1.1-1.5l-2.8,0.3
		C118.5,264.3,93.3,250.6,93.6,248.7z"/>
	<path class="st11" d="M93.6,248.7l-0.1,0.2c0,0,5.4,2.9,11.1,5.9c2.8,1.6,5.7,3.1,8.1,4.3c1.2,0.6,2.1,1.2,2.9,1.6
		c0.8,0.4,1.3,0.7,1.6,0.8c0.5,0.2,0.9,0.3,1.4,0.3c1,0,1.9-0.3,2.8-0.9l-0.2-0.2l0.1,0.3l0.6-0.3l1.4,0.9l0.2-0.2l-0.3,0.1
		c0.1,0.2,0.2,0.4,0.3,0.6c0.2,0.3,0.5,0.6,0.8,0.8l0.1-0.3h-0.3c0,0.1,0,0.2,0,0.3c0,0.3,0.1,0.6,0.3,0.9c0.3,0.4,0.7,0.7,1.2,0.9
		l0,0c0,0,12.2,3.2,17.9,4.3c5.7,1.1,13.1,1.9,13.1,1.9l0,0l6.7,0.4v-0.6c0,0-0.4,0-1.1,0c-4.7-0.2-24.6-1.2-39.9-5.4l-0.1,0.3
		l0.2-0.2l-1.2-1.7l-3,0.3v0.3l0.1-0.2l-1.1-0.6c-2.4-1.3-8.3-4.6-13.7-7.8c-2.7-1.6-5.2-3.2-7.1-4.4c-0.8-0.5-1.5-1.1-2.2-1.7
		c-0.2-0.2-0.4-0.4-0.6-0.6c0-0.1-0.1-0.1-0.1-0.2v-0.1L93.6,248.7l-0.1,0.3L93.6,248.7l-0.3,0v0.1c0,0.1,0,0.2,0.1,0.3
		c0.1,0.2,0.3,0.5,0.6,0.7c1.7,1.4,3.5,2.7,5.4,3.8c7.4,4.6,18.9,10.8,18.9,10.8v0.1l2.8-0.3l1.1,1.4h0.1c17.6,4.8,41,5.4,41,5.4
		v-0.6l-6.7-0.4l0,0l-1.3-0.2c-2.4-0.3-7.7-0.9-11.9-1.8c-2.8-0.6-7.3-1.7-11-2.5c-1.9-0.5-3.6-0.9-4.8-1.2s-2-0.5-2-0.5v0.3
		l0.1-0.3c-0.4-0.1-0.7-0.4-0.9-0.7c-0.1-0.2-0.2-0.4-0.2-0.6v-0.2l0,0v-0.3h-0.3c-0.2-0.1-0.4-0.3-0.6-0.5c0-0.1-0.1-0.2-0.2-0.3
		v-0.1l0,0v-0.1l-1.8-1.1l-0.8,0.3l0,0c-0.7,0.5-1.6,0.8-2.4,0.8c-0.4,0-0.8-0.1-1.2-0.2l-1.5-0.8c-2.8-1.4-8.3-4.4-13.1-7
		c-2.4-1.3-4.7-2.5-6.4-3.4c-0.8-0.4-1.5-0.8-1.9-1.1l-0.7-0.4l-0.3-0.2v0.4L93.6,248.7z"/>
	<path class="st10" d="M90.3,270.3c0,0,14.6,8.5,21.9,10.3c10.3,2.7,20.8,4.8,31.4,6.2l-30.5-4.2L90.3,270.3z"/>
	<path class="st11" d="M90.3,270.3l-0.2,0.2c0,0,3.6,2.1,8.2,4.5c4.4,2.4,9,4.4,13.7,5.9l0,0c10.4,2.7,20.9,4.8,31.5,6.1v-0.6
		l-30.4-4.1l-22.8-12.4l-0.3,0.5L90.3,270.3l-0.1,0.2L113,283l30.5,4.2v-0.3l0.1-0.3c-7.6-0.9-15.5-2.4-21.4-3.7
		c-3-0.7-5.5-1.3-7.2-1.7c-0.9-0.2-1.5-0.4-2-0.5c-0.5-0.1-0.7-0.2-0.7-0.2l0,0c-3.6-0.9-9.1-3.5-13.6-5.9c-2.3-1.2-4.3-2.3-5.8-3.1
		c-0.7-0.4-1.3-0.8-1.8-1c-0.2-0.1-0.5-0.2-0.7-0.4L90.3,270.3l-0.2,0.2L90.3,270.3z"/>
	<path class="st12" d="M67.8,336.8c1.4,1.5,3,3.2,4.5,4.6c1,1,2.1,1.9,3.3,2.7c0.4,0.2,0.8,0.4,1.2,0.4l0,0c0.1,0,0.1,0,0.2,0
		c0.2-0.1,0.3-0.1,0.5-0.1c0.6,0,1.1,0.2,1.6,0.4c0.6,0.3,1.3,0.6,2.1,1.1c1.5,0.9,3.3,2.1,5,3.2c3,2.1,5.7,4.2,6.2,4.6H96l2,0.6
		l-4-3l-20-8.9L67.8,336.8"/>
	<path class="st12" d="M76.8,344.5c-0.4-0.1-0.8-0.2-1.2-0.4c-1.2-0.8-2.2-1.6-3.3-2.6c-1.5-1.4-3.2-3.1-4.5-4.6l6.1,5.5l20,8.9l4,3
		l-2-0.6h-3.7c-0.5-0.4-3.2-2.5-6.2-4.6c-1.6-1.1-3.3-2.2-5-3.2c-0.7-0.4-1.4-0.8-2.1-1.1c-0.5-0.3-1-0.4-1.6-0.4
		c-0.2,0-0.3,0-0.5,0.1C76.9,344.5,76.8,344.6,76.8,344.5L76.8,344.5 M64,333.5l0.2-0.2L64,333.5 M64.4,333.1l-0.4,0.4l0.2-0.2
		l-0.2,0.2c0,0,2.4,2.9,5.3,5.8c1.3,1.4,2.8,2.7,4.2,4c0.6,0.5,1.2,0.9,1.8,1.3c0.4,0.3,0.9,0.5,1.4,0.6c0.1,0,0.3,0,0.4-0.1
		l0.3-0.1l0,0c0.5,0,1,0.2,1.4,0.4c2.9,1.4,5.6,3.1,8.2,5.1c1.4,1,2.6,1.9,3.6,2.7c0.4,0.3,0.7,0.5,1.1,0.8c0.1,0.1,0.3,0.2,0.4,0.3
		h3.8l4.9,1.4l-6.5-4.9l-20-8.8L64.4,333.1"/>
	<path class="st12" d="M59.7,412.1l3,2.3c0.7-0.4,1.5-0.6,2.3-0.8c-1.4-0.8-3-1.2-4.6-1.4C60.1,412.2,59.9,412.2,59.7,412.1"/>
	<path class="st12" d="M62.7,414.3l-3-2.3c0.2,0.1,0.5,0.1,0.7,0.1c1.6,0.2,3.2,0.7,4.6,1.4C64.2,413.7,63.5,414,62.7,414.3
		 M58.1,410.8c0,0.2,0,0.4,0,0.7l4.5,3.5l0.2-0.1c0.9-0.5,1.9-0.8,3-0.8H66c0.3,0.1,0.5,0.3,0.8,0.4c0.2,0.1,0.4,0.2,0.5,0.3
		c0.1,0,0.1,0.1,0.2,0.1l0.7,0.4l-0.3-0.8c-0.1-0.2-0.3-0.4-0.4-0.6c-0.4-0.3-0.8-0.4-1.2-0.5c-0.3-0.2-0.6-0.3-0.9-0.4
		c-1.5-0.8-3.2-1.3-4.9-1.5C59.6,411.5,58.8,411.2,58.1,410.8"/>
	<path class="st12" d="M52.1,406.5L52.1,406.5 M52.3,406.3l-0.4,0.4l0.2-0.2l-0.2,0.2l0.2-0.2l-0.2,0.2c1,0.9,2,1.8,3,2.7
		c0.9,0.7,1.8,1.3,2.8,1.9l0,0l0.4,0.3v-0.7h-0.1L52.3,406.3"/>
	<path class="st12" d="M30.8,274.8l1.6,1.8c0.5,0.3,0.9,0.5,1.4,0.7h7.4l4.6,0.8l2.6-1.8H38.3L30.8,274.8"/>
	<path class="st13" d="M28.6,274.4c0.2,0.2,0.5,0.3,0.8,0.6c0.5,0.3,1.1,0.7,1.7,1l-1.1-1.2L28.6,274.4"/>
	<path class="st13" d="M29.9,274.7l1.1,1.2c0.4,0.3,0.9,0.6,1.5,0.8l-1.7-1.8L29.9,274.7"/>
	<path class="st12" d="M30.2,274.1l0.6,0.7l7.4,1.6h10.3l-2.6,1.8l-4.6-0.8h-7.4c-0.5-0.2-1-0.5-1.4-0.7l1,1.2
		c0,0.1,0.2,0.1,0.2,0.1h7.6l4.8,0.8l4.2-2.9h-12L30.2,274.1"/>
	<path class="st14" d="M25.9,273.2L27,274l0.2-0.2l0,0L27,274c0,0,1,0.7,2.4,1.6c-0.6-0.7-1.1-1.3-1.5-1.9L25.9,273.2"/>
	<path class="st13" d="M27.9,273.7c0.6,0.7,1.1,1.3,1.5,1.9c0.8,0.5,1.7,1,2.6,1.5l-1.1-1.3c-0.6-0.3-1.2-0.7-1.7-1
		c-0.3-0.2-0.6-0.4-0.8-0.6l1.4,0.3l-0.6-0.7L27.9,273.7"/>
	<path class="st13" d="M31,275.9l1.1,1.3c0.4,0.2,0.9,0.5,1.4,0.7l-1.1-1.2l-1.5-0.8 M29.3,273.9l0.6,0.7l0.9,0.2l-0.6-0.7
		L29.3,273.9"/>
	<path class="st12" d="M178.4,330.4l-4.1,3.3c-3.5,3.9-7.4,7.3-11.6,10.3l0,0l-17.6,10.3l7.9-3.1l17.1-12.2l0.2,0.2l0.7,0.7
		c0,0,0-0.1,0-0.1c0.1-0.2,0.2-0.5,0.3-0.7c0.3-0.6,0.7-1.2,1.2-1.7c0.9-1.3,2.2-2.8,3.5-4.2C176.9,332.1,177.7,331.2,178.4,330.4"
		/>
	<path class="st12" d="M174.3,333.7l4.1-3.3c-0.7,0.8-1.5,1.7-2.4,2.7c-1.3,1.4-2.5,2.9-3.5,4.2c-0.4,0.5-0.8,1.1-1.2,1.7
		c-0.2,0.2-0.3,0.4-0.3,0.7c0,0,0,0.1-0.1,0.1l-0.7-0.7l-0.2-0.2l-17.1,12.2l-7.9,3.1l17.6-10.3l0,0
		C167,341.1,170.9,337.6,174.3,333.7 M181.1,327.6l-7.2,5.7l0,0c-2.3,2.7-4.9,5.2-7.7,7.4c-1.1,0.9-2.1,1.7-2.8,2.1
		c-0.2,0.2-0.5,0.4-0.8,0.6l-0.3,0.2l-20.6,12.1l0.2,0.5l11.4-4.4l16.7-11.9l1.3,1.2h0.1c0.1,0,0.2,0,0.2-0.1c0.1-0.1,0.1-0.2,0-0.3
		l0,0l-0.3-0.3l0,0c0-0.1,0-0.3,0.1-0.4c0.6-1.1,1.2-2.1,2-3c1.5-1.9,3.5-4.1,5.1-5.9c0.8-0.9,1.5-1.7,2-2.2
		c0.5-0.6,0.8-0.9,0.8-0.9L181.1,327.6"/>
	<path class="st15" d="M130.1,410.3c-1,0-0.7,0.3-0.4,0.3l0,0c0.1-0.1,0.1-0.1,0.2-0.1C130,410.4,130,410.4,130.1,410.3"/>
	<path class="st12" d="M129.7,410.6c-0.4,0-0.6-0.3,0.4-0.3c-0.1,0-0.1,0.1-0.1,0.2C129.9,410.5,129.8,410.6,129.7,410.6
		L129.7,410.6 M134.4,369.1l-3.6,25.3l-7.8,51l17.4-26.9l0.2-16.2l-2.7-0.9l-0.1-0.1c-0.9-1-1.5-2.3-1.7-3.6
		c-0.3-1.5-0.5-3.1-0.4-4.6c0-2,0.2-4,0.4-6l0,0c0-0.3,0.1-0.7,0.1-1v-0.4L134.4,369.1"/>
	<path class="st12" d="M123,445.5l7.8-51l3.6-25.3l1.7,16.6v0.4c0,0.3,0,0.7-0.1,1l0,0c-0.3,2-0.4,4-0.4,6c0,1.6,0.1,3.1,0.4,4.6
		c0.2,1.3,0.8,2.6,1.7,3.6h0.1l2.7,0.9l-0.2,16.2L123,445.5 M134.6,364.6l-4.3,29.7l-8.2,53.5l18.9-29.2l0.2-16.8l-3-1
		c-0.8-0.9-1.3-2.1-1.5-3.3c-0.3-1.5-0.5-3-0.4-4.5c0-2,0.2-3.9,0.4-5.9l0,0c0-0.4,0.1-0.7,0.1-1.1v-0.5l0,0L134.6,364.6"/>
	<path class="st12" d="M178.3,460.5c0.7,0.6,1.4,1.2,2.1,1.7L178.3,460.5"/>
	<path class="st15" d="M190,462.5c0,0.8-0.2,1.7-0.4,2.5c0.4,0.1,0.7,0.2,1,0.4l0.2,0.2c0.6-0.8,0.6-2-0.2-2.7
		C190.5,462.7,190.3,462.6,190,462.5"/>
	<path class="st12" d="M188.6,462.2c-1.7,0.1-3.3,0.5-4.8,1.3l-0.5,0.2l2.7,2.1c1-0.5,2-0.8,3.1-0.8l0,0c0.2,0,0.4,0,0.6,0.1
		c0.2-0.8,0.4-1.7,0.4-2.5C189.6,462.4,189.1,462.3,188.6,462.2L188.6,462.2"/>
	<path class="st15" d="M190,461.9v0.6c0.3,0.1,0.5,0.3,0.7,0.4c0.4,0.4,0.6,0.9,0.6,1.4c0,0.5-0.1,0.9-0.4,1.3l-0.2-0.2
		c-0.3-0.2-0.6-0.4-1-0.4c0,0.2-0.1,0.4-0.2,0.6c0.3,0,0.6,0.2,0.8,0.3l0.2,0.2h0.1l0.1,0.3l0.3-0.2c1.1-0.9,1.2-2.6,0.3-3.6
		l-0.1-0.1C190.8,462.2,190.4,462,190,461.9"/>
	<path class="st12" d="M175.3,457.9L175.3,457.9 M180.5,462.3c-0.8-0.5-1.5-1-2.1-1.7L180.5,462.3 M173.5,456.1l1.7,2l0.2-0.2
		l-0.2,0.2l0.2-0.2l-0.2,0.2c0.8,1,1.7,1.9,2.7,2.8c0.8,0.7,1.6,1.4,2.5,1.9c0.6,0.4,1.2,0.7,1.9,0.8l3.6,2.8h0.2
		c0.9-0.5,1.9-0.8,3-0.8c0.1,0,0.3,0,0.4,0.1c0-0.2,0.1-0.4,0.2-0.6c-0.2,0-0.4-0.1-0.6-0.1l0,0c-1.1,0-2.1,0.3-3.1,0.8l-2.7-2.1
		c0.2,0,0.3-0.1,0.5-0.2c1.5-0.8,3.1-1.2,4.8-1.3l0,0c0.5,0,1,0.1,1.4,0.2v-0.6c-0.5-0.1-0.9-0.2-1.4-0.2l0,0
		c-1.7,0.1-3.5,0.6-5,1.3c-0.2,0.1-0.4,0.1-0.7,0.1l0,0c-0.1,0-0.3,0-0.4,0L173.5,456.1"/>
	<path class="st16" d="M180,320h-0.2l1.1,0.5c0.4,0.1,0.8,0.2,1.2,0.3c0,0,0-0.1-0.1-0.1C181.4,320.3,180.7,320,180,320"/>
	<path class="st17" d="M180.8,320.5l1.9,0.9c-0.3-0.2-0.5-0.4-0.7-0.7C181.7,320.7,181.3,320.6,180.8,320.5"/>
	<path class="st16" d="M204.3,344.2c1.9,5.5,2.8,11.3,5.2,16.6c1.6,3,3.4,5.9,5.4,8.6c1.7,2.8,3.1,5.7,4.2,8.8
		c0.9,2.7,1.9,5.4,2.7,8.1c1.9,3.3,3.3,6.9,4,10.6c0.2,1.1,0.3,2.3,0.3,3.5c0.8,2.5,1.1,5.1,0.9,7.8c0.2,0.7,0.4,1.2,0.3,1.2h0.2
		c1.5-0.1,2.6-1.2,2.8-2.7l1-7c0.1-0.6,0-1.3-0.3-1.8L204.3,344.2 M191.7,325.7c0.3,0.3,0.7,0.5,1,0.8c2.4,2,4.5,4.3,6.3,6.9
		l-2.2-4.6c-0.3-0.6-0.8-1.2-1.4-1.5L191.7,325.7"/>
	<path class="st17" d="M182.7,321.5c3,2.6,9.1,8.9,15.7,20.6c0.1,0,0.1,0.2,0.1,0.2l15.9,33.5c0,0.1,0,0.1,0.1,0.2l8.9,23.1
		c0.1,0.3,0.2,0.6,0.2,0.9l3.2,6.6c0.1,0.6,0.1,1.1,0.3,1.7c0.1-2.6-0.2-5.2-0.9-7.7c0-1.2-0.1-2.3-0.3-3.5c-0.8-3.8-2.1-7.4-4-10.7
		c-0.9-2.7-1.8-5.4-2.7-8.1c-1.1-3.1-2.5-6-4.2-8.8c-1.8-2.9-3.9-5.5-5.4-8.6c-2.4-5.2-3.3-11.1-5.2-16.6l-5.4-10.8
		c-1.8-2.6-3.9-4.9-6.3-6.9c-0.3-0.3-0.7-0.6-1-0.8L182.7,321.5"/>
	<path class="st12" d="M100,383.4l-5.4,11.3l-5.7,30.9l9.1,28.2l-1.2-24.8c-1.1-3-1.6-6.2-1.6-9.5c0-1.5,0.1-3.1,0.4-4.6
		c-0.4-0.4-0.6-0.9-0.7-1.4c-0.2-0.8-0.2-1.7-0.2-2.6c0-4.6,1.5-12.3,3-18.8C98.6,388.8,99.4,385.6,100,383.4"/>
	<path class="st12" d="M98.2,453.9L89,425.7l5.7-30.9l5.3-11.4c-0.6,2.2-1.4,5.3-2.3,8.9c-1.5,6.5-3,14.2-3,18.8
		c0,0.9,0.1,1.7,0.2,2.5c0.1,0.5,0.4,1,0.7,1.4c-0.2,1.5-0.4,3.1-0.4,4.6c0,3.2,0.5,6.4,1.6,9.4L98.2,453.9 M101.2,380.5
		L101.2,380.5 M100.9,380.4L100.9,380.4l-6.8,14.2l-5.7,31.2L98.8,458l-1.4-29l0,0c-1.1-3-1.6-6.1-1.6-9.3c0-1.6,0.1-3.1,0.4-4.7
		v-0.2l-0.2-0.1c-0.4-0.3-0.6-0.7-0.6-1.2c-0.2-0.8-0.2-1.6-0.2-2.4c0-4.5,1.5-12.2,3-18.7c0.8-3.3,1.5-6.2,2.1-8.4
		c0.3-1.1,0.6-1.9,0.7-2.5c0.2-0.6,0.3-0.9,0.3-0.9L100.9,380.4"/>
	<path class="st12" d="M146.9,364.3c1.8,4.4,5.1,13.2,7.1,20.3c0.8,2.7,1.4,5.5,1.5,8.3c0,0.5,0,1-0.2,1.4c-0.1,0.3-0.2,0.6-0.4,0.9
		c0.7,2.6,1.1,5.3,1.1,8c0,2.1-0.2,4.2-0.7,6.2l-0.3,1.5l7.8-5.9l-9.2-29.9L146.9,364.3"/>
	<path class="st12" d="M145.4,361.5L145.4,361.5 M154.9,395.2c0.2-0.3,0.3-0.6,0.4-0.9c0.1-0.5,0.2-1,0.2-1.4
		c-0.2-2.8-0.7-5.6-1.5-8.3c-2-7.1-5.4-15.8-7.1-20.3l6.7,10.6l9.3,29.9l-7.8,5.9l0.3-1.5c0.4-2,0.7-4.1,0.7-6.2
		C156,400.4,155.7,397.7,154.9,395.2 M145.6,361.4l-0.5,0.3l0.3-0.1l-0.2,0.2l0.2-0.2l-0.3,0.1l0.4,1c0.9,2.3,3.3,8.1,5.4,14.3
		c1.1,3,2,6.2,2.8,9c0.7,2.3,1.1,4.6,1.2,6.9c0,0.4,0,0.9-0.1,1.3c0,0.3-0.2,0.5-0.4,0.7l-0.1,0.1l0.1,0.2c0.8,2.6,1.2,5.2,1.2,7.9
		c0,2-0.2,4.1-0.7,6.1l-0.7,2.9l9.3-7.1l-9.4-30.4L145.6,361.4"/>
	<path class="st12" d="M80.4,362.4l-4.5,14l-3.4,30.8L82.8,423l-5.1-15.5c-0.4-0.8-0.6-1.7-0.6-2.7c0.2-2.1,0.7-4.1,1.7-6
		c0.9-1.9,1.5-3.8,1.8-5.9l0,0l2.2-3.3c-0.1-0.1-0.2-0.3-0.3-0.4c-0.1-0.3-0.2-0.6-0.2-0.8c0.1-1.1,0.3-2.1,0.6-3.2
		c0.3-1.5,0.5-3,0.6-4.6v-0.4c-0.1-1.4-0.3-2.8-0.7-4.2c-0.4-1.4-0.7-2.8-0.9-3.9C81,367.6,80.5,364.1,80.4,362.4"/>
	<path class="st12" d="M82.8,423L72.5,407l3.4-30.8l4.5-13.9c0.2,1.8,0.6,5.3,1.5,9.8c0.2,1.1,0.6,2.5,0.9,3.9
		c0.4,1.4,0.6,2.7,0.7,4.1v0.3c-0.1,1.5-0.3,3.1-0.6,4.6c-0.3,1-0.5,2.1-0.6,3.2c0,0.3,0,0.6,0.2,0.8c0.1,0.2,0.1,0.3,0.3,0.4
		l-2.2,3.3v0.1c-0.3,2.1-0.9,4.1-1.8,5.9c-0.9,1.9-1.5,3.9-1.7,6c0,0.9,0.2,1.8,0.6,2.7L82.8,423 M80.3,361L80.3,361 M80.7,359.5
		l-0.4,1.4l-4.9,15.3l-3.4,31l12.7,19.7L78,407.3l0,0c-0.4-0.8-0.6-1.6-0.6-2.4c0.2-2,0.7-4,1.7-5.9c0.9-1.9,1.6-3.9,1.9-6l2.5-3.7
		l-0.3-0.2c-0.1-0.1-0.2-0.2-0.3-0.3c-0.1-0.2-0.1-0.4-0.1-0.7c0.1-1,0.3-2.1,0.6-3.1c0.3-1.5,0.5-3.1,0.6-4.7v-0.3
		c0-1.4-0.3-2.9-0.7-4.2c-0.3-1.4-0.8-2.8-0.9-3.9c-0.7-3.3-1.1-6.1-1.3-8c-0.1-1-0.2-1.7-0.2-2.3c-0.1-0.6-0.1-0.8-0.1-0.8
		L80.7,359.5"/>
	<path class="st12" d="M162.5,436.5l-9.7,4.8c0.4-0.1,0.9-0.2,1.4-0.3c1.6-0.4,3.1-0.9,4.5-1.6c0.8-0.3,1.5-0.9,2.1-1.5
		C161.3,437.4,161.9,437,162.5,436.5"/>
	<path class="st12" d="M167.5,433.7c-0.9,0.3-1.7,0.8-2.5,1.2c-0.8,0.4-1.7,1-2.4,1.6c-0.6,0.4-1.1,0.9-1.6,1.5
		c-0.6,0.6-1.3,1.1-2.1,1.5c-1.5,0.6-3,1.2-4.5,1.6c-0.6,0.1-1,0.2-1.4,0.3c-0.1,0-0.2,0.1-0.3,0.1c-0.2,0.1-0.4,0.1-0.7,0.1
		l0.1,0.6c0,0,1.8-0.3,3.9-0.9c1.1-0.3,2.1-0.7,3.1-1.2c0.9-0.4,1.7-0.9,2.4-1.7c1.1-1.2,2.4-2.2,3.9-2.9c0.7-0.4,1.3-0.7,1.8-0.9
		c0.2-0.1,0.4-0.2,0.6-0.2c0.2-0.1,0.2-0.1,0.2-0.1L167.5,433.7"/>
	<path class="st4" d="M15.3,266l2.6,3.7l0,0l1.9,3.7l0,0 M43.9,310.8c1.2,1.9,1.9,4,2,6.2l1.2,14.4l0,0l-1.3,96.9l0,0
		c-0.7,9.1-0.5,17.9-0.5,18l0,0c-1,22.6,4.2,26.7,4.4,26.8l0,0l6.6,1.7l0,0c18.5,48.2,30.7,42.6,31.2,42.4l0,0
		c12.1,2.9,15.3-37.2,15.5-39.3h0.1c3.2,2.6,26.7,3.1,27.9,3.2l0.1,0.1c-0.2,37.4,16.7,36.1,16.7,36.1c11.2,1.9,27.9-38,28.4-39.1
		l0,0c0.7-0.2,15-3.7,15.5-5.4c0.1-0.2,0.1-0.4,0.1-0.7c0.2-1.8,0.6-3.6,1.1-5.4c2.6-9.1-4-38.8-4.1-39.2l0,0l0.2-2.4l0,0l4.1,3.2
		l0,0c0.2,0.4,4.2,12.2,7.6,13.8c0,0,5.2,4.4,15.1,6.2c4.9,0.9,9.9-1.8,11.9-6.4c2.2-4.8,4.3-12.9,5-26.7v-8.1l0,0l-1-5.9l0,0
		l-2.9-8.6l0,0L210,348.1c-1.3-3-2.4-6.1-3.2-9.2c-1.6-6.5-12.4-19.7-12.4-19.7c-3.3-4.2-18.1-10.8-19.7-11.5v-0.1
		c64.8-11.3,73.7-68.9,73.7-69l0,0l0.2-3.5c0.2-2.9,0.7-5.7,1.5-8.5l0,0c1.7-1.2,3.7-2,5.8-2.1c15.2-1.4,22.1-8.4,22.1-8.4l0,0
		c9.5-7,11.5-15.7,10.8-23.1c-0.9-9.1-5.8-17.3-13.4-22.3c-19.2-13.1-33.9-10.6-43.9-4.8c-3.6,2-6.8,4.6-9.6,7.6
		c-3.6,3.8-9.5,4.4-13.9,1.6c-32.9-21.9-67.6-24.8-79.9-25.1c-2.4-0.1-4.4-2-4.5-4.5c-0.2-7.7-3-23-22-27.7
		c-24.1-6-39.7,1.4-46.6,4.6c-3.5,1.6-6.3,4.2-8.1,7.5c-5.4,10.4,1.7,22.6,7.1,29.9c1.8,2.4,2.7,5.2,2.8,8.2c0,2.1-0.5,4.1-1.4,6
		c-1,2-2.3,3.9-3.9,5.5c-30.2,31-13.9,62.1-13.6,62.7l-2.4-6l0,0c-6.6-2.8-11.6-21.6-19.6-22c-5.7-0.3-11.4-1.1-15.3,3.2h0
		c0,0-1.4,1.3,0,10.5l4.9,24.4 M80.6,249.6c0.4-1.5,0.6-3.1,0.7-4.7c0.2-2.9,3.5-7.4,3.5-7.4l0,0l3.8-3.6l0,0
		c8-2.4,16.1,4.8,16.2,4.9l0,0c0.7,0.2,1.5,0.3,2.2,0.3c13.7,4.7,22.5,9.6,35.9,13.1c6.8,1.6,13.7,2.5,20.7,2.7l0,0
		c9.9,3.8,7,14.8,7,14.8c1,0.4-6.1,14.7-6.2,15.1l0,0c0.3,3.1-16.2,15.2-16.6,15.4l0,0c-8.1,1.7-28.6-3.6-28.6-3.6
		c-19.4-4.2-30.5-12.6-30.6-12.7l0,0c-6.7-3.6-10.1-13.2-10.2-13.3l0,0C76.7,265,79.1,254.7,80.6,249.6L80.6,249.6z M108.4,332.4
		c-1.9-0.8-29.7-13.5-32.1-28.2l0,0c0,0-0.1-2.8,17.8-8.4h0.1l14.3,36.5L108.4,332.4z M151.8,309.3h11.1c0.3,0,0.6,0.2,0.7,0.5
		c0.4,1.4,1.4,2.5,1.8,3.9c0.5,2.3,0.8,4.7,0.8,7c0.1,2.8-1.3,5.4-3.8,6.7l-23.6,13.3v-0.1C143.2,334.3,151.4,310.3,151.8,309.3
		L151.8,309.3z M79.1,283c-16-6.5-31.5-31-32.1-31.9l0,0c0.2-0.2,1.4-1.7,0.8,0c-0.6,1.7,19.9,15.3,21.4,15.8S78.4,281.5,79.1,283
		L79.1,283z M72.9,262.7c-2.6-1.4-27.6-15.1-31.7-29.4v-0.1l1.9-2.9c0.5-0.7,0.8-1.4,1.3-2.2s1.8-1.4,7.4,1.7l0,0l13.2,9.7l0,0
		l9,5.1l2.3,1.1v0.1c-0.3,0.8-4.6,14.8-3.4,16.8L72.9,262.7z M139.3,473.8l-11.8,0.3c-2.2,0.2-4.5,0.3-6.7,0.2
		c-2.6-0.2-6.1-0.4-10.6-0.8l-51.7-3.6c0,0-6.4-0.3-6.9-3.1l-1.8-22.5l0,0l2-39v-67.6c0-6.3,0.2-12.5,0.6-18.7
		c0.1-1.1,0-2.3-0.2-3.4c-0.6-2.6-1.3-5.2-2.2-7.7c-1.6-4.4-3.7-8.5-6.4-12.3l-22.1-31.4v-0.1l3.9-5.7l0,0
		c2.7-4.5,6.7-16.4,6.7-18.8l0.1-0.1c1.7,2.4,26.2,38.5,29.7,40.3l24.7,12.6v0.1l-2,0.6l-11.8,3.6l0,0c-0.2,0.1-4.6,3.7-3.9,9l0,0
		l2.6,4.9l4.7,8l0,0l2.9,3.3l0,0l6.1,5.3l0,0l6.8,4.6l10.6,7.7l0,0l7.3,6.7l0,0l4.4,5.6l0,0l2.4,10.3l0,0l-1.5,21.2l-1.5,18.5
		l-1.9,23l0,0l-0.5,24.4v5.6l0,0c0,0.1,0.8,1.4,1.9,1.3l0,0c0.8-0.3,1.4-0.8,1.9-1.4l0,0l0.3-30.3l1.2-21.3l0,0l2.3-20L121,363l0,0
		l6.7-9.4l0,0l34.1-18.4c1.2-0.7,2.4-1.5,3.5-2.3c3.8-3,7.3-6.4,10.4-10.1c1.4-1.6,3.5-3,6-2.1l0,0c0.1,0,10.5,5.9,11.9,7.9
		c5.2,6.4,9.1,13.8,11.6,21.6l0,0c0.1,0.2,19.8,43.4,20.1,50.3l0,0c0,0.1,1.8,8.7,0,12l0,0c-0.1,0-2.5,4-28.1,11.2l0,0
		c-0.2,0-6.2,0-6.4-11.5l0,0c0.1-0.3,5.6-19.5,5.4-22.1c0,0,0.7-4.4-1.5-5.4c-0.2-0.3-0.5-0.4-0.9-0.4c-0.6,0-1.4,0.5-2.4,2.5l0,0
		c-0.1,2.4-0.7,4.7-1.6,6.9l-1.7,3.9l0,0l-2,3h-0.1l-0.8-3.3l0,0c-1.7-0.8-3.8-0.1-4.6,1.6c0,0,0,0,0,0l0,0c0,0.1-0.1,0.2-0.1,0.2
		c-0.4,0.9-0.2,0.7-0.2,3.1l0,0c0,0.2,12.1,65.2,6.4,64.9c0,0-13.9,5.8-33.9,6l-0.9-0.1 M195.3,295.7c-11.4,7.1-40.3,7.4-41.2,7.4
		l0,0c-0.7-0.9,2.9-3,7.7-5.2c9.6-4.4,19.7-7.6,30-9.5c9.4-1.7,21.2-4.3,22.1-4.5l0,0C213.9,285.8,195.3,295.7,195.3,295.7
		L195.3,295.7z M231.7,264.9c-3.6,5-8.4,9-14,11.7l0,0l-9.8,2.8l0,0l-27.1,5.5l0,0l-10.2,0.8l-0.1-0.1l3.3-7.8l0,0
		c2.7-2.3,6-3.6,9.4-3.8l9.1-0.5l0,0c6.2-1.3,12.4-2.9,18.6-4.8c6.1-1.9,12.1-4,18-6.5l6.5-2.7v0.1L231.7,264.9z M109,234.8
		c1.3-0.8,21.7-14.1,10.5-32.7c-6.4-10.5-18.5-16.2-30.4-13.4c-5.4,1.3-10.2,4.2-13.9,8.2c-5,5.2-7.4,12.5-6.4,19.7
		c0.8,5.5,3.8,11.8,11.4,17.5l0,0c-0.3,0.4-3.8,5.5-3.9,5.7c-0.2,0.2-35.7-19.3-35.2-25.5c0,0,4.1-34.1,36.2-47.4l0,0
		c0.1-0.1,33.4-18.1,81-7.4l0,0c0.1,0,49.4,6.5,75.8,50.3c0,0,10.8,16.2,4.7,41.8l0,0c-11.6,7-24.3,12-37.6,14.9
		c0,0-13.4,3.4-25.3,2.9v-0.1c0.2-0.7,2.6-8.3,1.6-9.1l0,0c1.4-0.4,2.8-0.9,4-1.6c16.2-8,18.5-30.7,4-41.7c-4.2-3-9-5-14.1-5.7l0,0
		c-4.4-0.2-8.9,0.4-13,1.9c-13.2,4.6-20.2,19.1-15.6,32.3c0.3,0.9,0.7,1.7,1.2,2.5"/>
	<path class="st4" d="M120,202.1c-5.1-8.7-14.4-14.1-24.5-14.3c-2.1,0-4.1,0.2-6.1,0.7c-5.4,1.3-10.3,4.2-14,8.3
		c-4.2,4.5-6.6,10.4-6.7,16.6c0,1.1,0.1,2.3,0.3,3.4c0.8,5.5,3.9,11.9,11.6,17.7l0.2-0.2l-0.2-0.2c0,0-0.2,0.3-0.6,0.9
		c-0.6,0.8-1.3,2-2,3c-0.3,0.5-0.7,0.9-0.9,1.3c-0.1,0.1-0.2,0.3-0.3,0.4l-0.1,0.1l0,0l0,0l0.1,0.1l-0.1-0.1l0,0l0.1,0.1l-0.1-0.1
		l0.2,0.2l-0.2-0.2l0.2,0.2v-0.3h-0.1l0.2,0.2v-0.3l0,0v0.3l0,0v-0.2l0,0v-0.1l0,0h-0.2c-0.8-0.4-3.3-1.8-6.7-3.7
		c-5.1-2.9-12.1-7.2-17.9-11.3c-2.5-1.8-5-3.7-7.2-5.8c-0.8-0.7-1.5-1.6-2.1-2.4c-0.4-0.5-0.6-1.2-0.6-1.8v-0.1l0,0
		c0-0.1,0-0.3,0-0.4c1.2-7.1,3.5-13.9,7-20.2c6.3-12,16.5-21.4,29-26.6l0,0c0.1-0.1,0.1-0.1,0.2-0.1c2.3-1.2,21.5-10.6,50.5-10.6
		c10.1,0,20.2,1.2,30.1,3.4h0.6c5.5,0.9,50.4,9.1,75,50.1l0,0c0,0,0,0.1,0,0.1c0.7,1.1,6.5,10.7,6.5,26.2c0,5.2-0.6,10.3-1.8,15.3
		h0.2v-0.1l-0.2,0.1c-11.6,7-24.2,12-37.5,14.9l0,0c-0.2,0-0.3,0.1-0.5,0.1c-7.3,1.7-14.8,2.7-22.4,2.9c-0.8,0-1.6,0-2.4-0.1v0.3
		h0.3c0,0,0.4-1.4,0.9-3.2c0.5-1.7,0.8-3.4,0.9-5.1c0-0.3,0-0.5-0.1-0.8c0-0.1,0-0.2-0.2-0.3c-0.1-0.1-0.2-0.2-0.3-0.2l-0.1,0.3v0.3
		c1.5-0.4,2.9-0.9,4.2-1.6c8.5-4.2,13.8-12.9,13.8-22.4c0.1-7.8-3.6-15.1-9.8-19.7c-4.2-3.1-9.1-5.1-14.3-5.8l0,0
		c0,0-0.7-0.1-1.8-0.1c-3.9,0-7.7,0.7-11.4,1.9c-10.3,3.7-17.1,13.4-17.2,24.3c0,2.8,0.5,5.7,1.4,8.4l0,0c0.3,0.9,0.7,1.8,1.2,2.6
		l0.2-0.2l0.1-0.3l-7.5-1.2l-0.1,0.6l8.1,1.2l-0.3-0.5c-0.4-0.8-0.8-1.6-1.1-2.5l0,0c-4.5-13.1,2.4-27.4,15.5-31.9
		c3.6-1.2,7.4-1.9,11.2-1.9h1.7c5.1,0.7,9.9,2.7,14,5.8c6,4.5,9.6,11.7,9.5,19.3c0.1,9.3-5.2,17.8-13.4,21.9
		c-1.3,0.6-2.7,1.2-4.1,1.5l-0.9,0.2l0.9,0.3l0,0c0.1,0.2,0.1,0.5,0.1,0.7c-0.1,1.7-0.4,3.3-0.9,4.9c-0.2,0.9-0.4,1.7-0.7,2.3
		c-0.1,0.3-0.2,0.6-0.3,0.9l-0.1,0.3h0.4c0.8,0.1,1.6,0.1,2.4,0.1c7.8-0.2,15.5-1.2,23-3l-0.1-0.3l0.1,0.3
		c13.3-2.9,26-7.9,37.7-14.9l0.1-0.1V252c1.2-5.1,1.8-10.2,1.8-15.4c0-16.6-6.6-26.6-6.6-26.6l-0.2,0.2l0.2-0.2
		c-13.3-22-32.3-34.6-48-41.7c-8.9-4.1-18.4-7-28-8.7l-0.1,0.3l0.1-0.3c-9.9-2.2-20-3.4-30.2-3.4c-31,0-51,10.7-51,10.8l0.1,0.2
		l-0.1-0.3c-16.1,6.7-25.2,18.6-30.3,28.8c-3,5.9-5,12.3-6,18.8l0,0v0.1c0.2,1.2,0.7,2.2,1.5,3c2.4,2.6,5.1,4.9,8.1,6.9
		c5.2,3.8,11.5,7.6,16.6,10.6c2.5,1.5,4.8,2.8,6.4,3.7c0.8,0.4,1.5,0.8,1.9,1.1l0.6,0.3c0,0,0.1,0.1,0.2,0.1h0.2l0.1-0.1l0,0
		c0.1-0.2,0.4-0.6,0.8-1.1c1.2-1.7,3.2-4.6,3.2-4.6l0.2-0.2l-0.2-0.2c-7.6-5.7-10.6-11.9-11.4-17.3c-0.2-1.1-0.3-2.2-0.3-3.3
		c0.1-6,2.4-11.8,6.6-16.2c3.7-4.1,8.5-6.9,13.8-8.1c2-0.5,4-0.7,6-0.7c9.9,0.1,19,5.4,24.1,14L120,202.1L120,202.1z"/>
	<polyline class="st4" points="109.4,235.1 109.4,235.1 109,234.7 109,234.7 	"/>
	<path class="st4" d="M177.7,260.5l-0.1-0.3c-0.1,0-0.2,0.1-0.2,0.1h-0.1v0.2l0.1-0.2h-0.1v0.2l0.1-0.2l-0.1,0.3l0.2-0.2l-0.1-0.1
		l-0.1,0.3l0.2-0.2l-0.2,0.2L177.7,260.5c-0.1-0.1-0.1-0.2-0.2-0.2l-0.2,0.2l0,0l0.2,0.2c0-0.1,0-0.1,0-0.2h-0.3l0.2,0.2l-0.2-0.1
		l0.2,0.2 M177.5,260.8L177.5,260.8l-0.2-0.1l0.2,0.2l-0.1-0.2l0.1,0.2l0,0l-0.1-0.2l0.1,0.2l0,0l0,0h0.1l0.1-0.4l0.1-0.3l0.1,0.3
		l0.1-0.3h-0.4v0.1l-0.1,0.1v0.1c0,0.1,0,0.1,0,0.2c0,0.1,0,0.2,0.1,0.2C177.4,260.8,177.5,260.8,177.5,260.8l0.1,0.1
		c0.1,0,0.2,0,0.2-0.1l0.9-0.2l-0.9-0.3L177.5,260.8z"/>
	<path class="st4" d="M214.3,284H214l-0.2,0.3c-0.4,0.4-0.8,0.9-1.3,1.2c-3.3,2.3-6.7,4.4-10.2,6.3c-1.8,1.1-3.5,2-4.8,2.7l-1.5,0.8
		l-0.6,0.3l0,0c-3.5,2-7.3,3.4-11.3,4.2c-6.5,1.4-13.2,2.3-19.9,2.8c-2.9,0.2-5.4,0.3-7.2,0.4c-0.9,0-1.6,0.1-2,0.1h-0.7v0.3
		l0.2-0.2v-0.1c0-0.1,0-0.2,0.1-0.3c0.3-0.3,0.5-0.6,0.9-0.8c2.1-1.4,4.3-2.6,6.6-3.6c9.6-4.4,19.6-7.5,30-9.4
		c9.8-1.8,22.3-4.5,22.3-4.5L214.3,284L214.3,284l0-0.3l-2.1,0.4c-3.9,0.8-12.7,2.7-20.1,4c-10.4,1.9-20.5,5.1-30.1,9.5
		c-1.9,0.8-3.8,1.8-5.6,2.9c-0.6,0.3-1.2,0.7-1.7,1.2c-0.2,0.2-0.4,0.4-0.5,0.6c-0.1,0.2-0.2,0.4-0.2,0.6c0,0.2,0.1,0.4,0.2,0.5
		l0.1,0.1h0.1c0,0,7.4-0.1,16.3-1c4.6-0.5,9.1-1.2,13.6-2.2c4-0.8,7.9-2.3,11.4-4.2l-0.2-0.2l0.1,0.2c0,0,4.6-2.5,9.3-5.2
		c2.3-1.3,4.7-2.8,6.5-4c0.7-0.5,1.4-1,2.1-1.6c0.2-0.2,0.4-0.4,0.6-0.7c0.2-0.2,0.3-0.4,0.3-0.6v-0.4h-0.3L214.3,284z"/>
	<path class="st4" d="M235.8,259.7l-0.2-0.2l-3.9,5.3c-3.6,5-8.3,9-13.8,11.6l0.1,0.3l-0.1-0.3l-9.8,2.8l-27,5.5l-9.8,0.8l3.1-7.4
		l-0.3-0.1l0.2,0.2c1.3-1.1,2.7-2,4.3-2.6c1.6-0.6,3.2-1,4.9-1.1l9.1-0.5l0,0c6.2-1.3,12.5-2.9,18.6-4.8c6.1-1.9,12.1-4,18-6.5
		l6.6-2.7L235.8,259.7l-0.3-0.1L235.8,259.7l-0.1-0.2l-6.6,2.7c-5.9,2.4-11.9,4.6-18,6.4c-6.1,1.8-12.3,3.4-18.5,4.8l0,0l-9.1,0.5
		c-1.7,0.1-3.4,0.5-5.1,1.1c-1.6,0.7-3.1,1.6-4.5,2.7l0,0l-3.5,8.4l10.8-0.8l27.1-5.5l9.8-2.8l0,0c5.6-2.7,10.5-6.7,14-11.8l4.4-6.1
		l-0.9,0.4L235.8,259.7z"/>
	<path class="st4" d="M170.9,269.7l-0.1,0.3l0.1-0.1h-0.2c0,0,0.1,0.1,0.1,0.1l0.1-0.1h-0.2l0,0v0.1c0,0.4-0.1,0.8-0.3,1.1
		c-1,2.8-2.2,5.6-3.5,8.3c-0.7,1.4-1.3,2.8-1.8,3.8c-0.4,1-0.8,1.6-0.8,1.6l0,0v0.1c-0.1,0.5-0.3,1-0.7,1.4c-1.1,1.4-2.4,2.8-3.8,4
		c-2.4,2.2-5.5,4.7-7.8,6.5c-1.2,0.9-2.2,1.7-3,2.3l-1.2,0.9l0.2,0.2v-0.3c-1.3,0.2-2.5,0.3-3.8,0.3c-5.3-0.2-10.7-0.8-15.9-1.9
		c-2.5-0.5-4.7-1-6.3-1.3c-0.8-0.2-1.4-0.3-1.9-0.4l-0.7-0.2l0,0c-7.8-1.6-15.4-4.2-22.5-7.8c-2-1-4-2.1-5.9-3.4
		c-0.7-0.4-1.2-0.8-1.5-1c-0.2-0.1-0.3-0.2-0.4-0.3s-0.1-0.1-0.1-0.1l0,0c-3.1-1.9-5.7-4.7-7.4-7.9c-0.7-1.2-1.3-2.4-1.9-3.7
		c-0.2-0.5-0.4-0.9-0.5-1.1c-0.1-0.1-0.1-0.2-0.1-0.3v-0.1l-0.3,0.1h0.3c-0.5-1.6-0.7-3.2-0.6-4.8c0-5.4,1.7-12.2,2.8-16.1l0,0
		c0.4-1.5,0.7-3.1,0.8-4.7c0.3-1.7,0.9-3.3,1.8-4.7c0.4-0.7,0.8-1.4,1.2-1.8c0.2-0.2,0.3-0.4,0.4-0.6l0.2-0.2l-0.2-0.2l0.2,0.2
		l3.8-3.6l-0.2-0.2l0.1,0.3c1.2-0.4,2.4-0.5,3.6-0.5c3.1,0.1,6.2,0.9,8.9,2.4c1,0.5,1.9,1.1,2.9,1.7c0.3,0.2,0.6,0.4,0.8,0.6
		c0.1,0,0.2,0.1,0.2,0.2h0.1l0,0c0.4,0.2,0.9,0.4,1.4,0.5c13.5,4.4,22.4,9.7,35.4,12.7c7.1,1.5,14.3,2.7,21.6,3.4V255l-0.1,0.3
		c2.5,0.9,4.6,2.7,5.9,5c0.9,1.8,1.4,3.9,1.3,5.9c0,0.9-0.1,1.7-0.2,2.5c0,0.2-0.1,0.5-0.2,0.7v0.3l0,0v0.2l0.2,0.1l0.1-0.4l0.3,0.1
		c0.3-1.2,0.5-2.5,0.4-3.7c0-2.1-0.4-4.2-1.4-6.1c-1.3-2.5-3.6-4.4-6.2-5.3h-0.1c0,0-0.7,0-1.9-0.2c-6.6-0.7-13.1-1.8-19.6-3.2
		c-12.9-2.9-21.8-8.3-35.3-12.7c-0.4-0.1-0.9-0.3-1.3-0.4l-0.2,0.2l0.2-0.2c-1.3-1-2.6-1.8-4-2.5c-2.8-1.5-6-2.4-9.2-2.5
		c-1.3,0-2.5,0.2-3.8,0.6l0,0l-3.8,3.7l0,0c-0.6,0.8-1.2,1.7-1.7,2.6c-0.9,1.5-1.6,3.2-1.9,4.9c-0.1,1.6-0.3,3.1-0.7,4.6l0,0
		c-1.1,3.9-2.8,10.7-2.8,16.3c-0.1,1.7,0.2,3.4,0.7,5l0,0c0.7,1.8,1.6,3.6,2.6,5.3c1.7,2.9,4.2,6.3,7.7,8.1l0.1-0.2l-0.2,0.2
		c0,0,11.2,8.6,30.7,12.7l0,0c0,0,3.9,1,8.9,1.9c5.2,1.1,10.6,1.8,15.9,2c1.3,0,2.6-0.1,3.9-0.3h0.1l0,0c0,0,4.1-3,8.3-6.4
		c2-1.6,3.9-3.3,5.7-5.2c0.7-0.7,1.3-1.4,1.9-2.2c0.4-0.5,0.7-1.1,0.8-1.8v-0.1h-0.3l0.3,0.1c0,0,1.6-3.2,3.2-6.7
		c0.8-1.7,1.6-3.5,2.1-5c0.3-0.7,0.6-1.4,0.7-1.9c0.1-0.4,0.2-0.8,0.3-1.3c0-0.1,0-0.2-0.1-0.3c0-0.1-0.1-0.2-0.2-0.2l-0.2,0.3
		l0.3,0.1L170.9,269.7z"/>
	<path class="st4" d="M73.4,262.9l0.1-0.2l-0.3-0.2c-5.4-3-10.5-6.3-15.4-10c-3.6-2.7-6.9-5.7-9.9-9c-2.8-2.9-4.9-6.4-6.1-10.2
		l-0.3,0.1l0.2,0.2l2-2.9c0.5-0.7,0.9-1.4,1.3-2.2l0,0c0.1-0.1,0.2-0.2,0.3-0.3c0.2-0.1,0.5-0.2,0.8-0.2c1,0,2.8,0.5,6,2.2L52,230
		l-0.2,0.2l13.2,9.7l9,5.1l2.3,1.2l0.1-0.3h-0.3c0,0-0.9,2.9-1.8,6.2c-0.4,1.7-0.9,3.5-1.3,5.2c-0.3,1.4-0.5,2.8-0.6,4.2
		c0,0.3,0,0.7,0.1,1c0.1,0.3,0.2,0.5,0.4,0.7L73.4,262.9l0.1-0.2L73.4,262.9l0.2-0.2c-0.1-0.1-0.1-0.2-0.2-0.3
		c-0.1-0.3-0.1-0.5-0.1-0.8c0.1-1.4,0.2-2.8,0.6-4.1c0.5-2.5,1.3-5.3,1.9-7.6c0.3-1.1,0.6-2.1,0.8-2.8s0.3-1.1,0.3-1.1v-0.2
		l-2.5-1.3l-9-5.1l-13.2-9.7l0,0c-3.2-1.7-5.1-2.3-6.2-2.3c-0.4,0-0.7,0-1.1,0.2c-0.2,0.1-0.4,0.3-0.6,0.5l0,0
		c-0.4,0.8-0.8,1.5-1.3,2.2l-2,3v0.1c1.4,4.2,3.8,7.9,6.8,11.1c9.6,10.5,25.2,18.6,25.2,18.6l0.3-0.5L73.4,262.9z"/>
	<path class="st4" d="M79.6,283.1l0.1-0.3c-8.1-3.3-16.1-11.2-22.1-18.4c-3-3.6-5.5-7-7.2-9.4c-0.9-1.2-1.5-2.3-2.1-3
		c-0.2-0.3-0.4-0.6-0.6-0.8c-0.1-0.1-0.1-0.2-0.2-0.3l-0.2,0.2l0.2,0.2l0.1-0.1c0.1-0.1,0.2-0.3,0.4-0.4l0.3-0.2l0,0l-0.1-0.1v0.1
		h0.1l-0.1-0.1v-0.1l-0.2,0.1c0,0,0.1,0.1,0.2,0.1v-0.2l-0.2,0.1l0.1-0.1l-0.2,0.1H48c0,0.2-0.1,0.4-0.2,0.6c0,0.1,0,0.1,0,0.2
		c0,0.2,0.1,0.5,0.3,0.7c0.4,0.6,1,1.1,1.5,1.6c3.6,3,7.4,5.8,11.3,8.3c2.1,1.4,4.1,2.7,5.6,3.6c0.8,0.5,1.4,0.9,1.9,1.2
		c0.3,0.2,0.4,0.3,0.7,0.4c0.2,0.1,0.3,0.2,0.4,0.2c0.1,0.1,0.2,0.1,0.3,0.2c0.4,0.4,0.7,0.8,1,1.3c1.4,2.1,3.6,5.6,5.4,8.8
		c0.9,1.6,1.7,3,2.3,4s0.9,1.7,0.9,1.7L79.6,283.1l0.2-0.3L79.6,283.1l0.3-0.2c0,0-2.1-3.9-4.4-7.9c-1.2-2-2.4-4-3.4-5.5
		c-0.5-0.8-0.9-1.4-1.3-1.9c-0.2-0.2-0.4-0.4-0.5-0.6c-0.1-0.1-0.3-0.3-0.4-0.3c-0.2-0.1-0.3-0.1-0.4-0.2c-1.7-0.9-6.9-4.3-11.8-7.7
		c-2.4-1.7-4.7-3.4-6.4-4.8c-0.7-0.6-1.4-1.2-2-1.8c-0.2-0.2-0.4-0.4-0.6-0.7c-0.1-0.1-0.1-0.2-0.2-0.3l0,0c0.1-0.2,0.2-0.5,0.2-0.8
		c0-0.1,0-0.2,0-0.3c-0.1-0.1-0.2-0.2-0.3-0.2c-0.1,0-0.2,0.1-0.2,0.1c-0.2,0.1-0.4,0.3-0.6,0.5c-0.1,0.1-0.2,0.2-0.3,0.3l-0.1,0.2
		l0.1,0.2c3,4.7,6.4,9.3,10,13.6c6,7.2,14.1,15.2,22.4,18.5l0.7,0.3l-0.4-0.7L79.6,283.1z"/>
	<path class="st4" d="M70.6,161.9l0.1-0.3c-0.1,0-0.1,0-0.2-0.1c-3.4-1-6.5-2.6-9.2-4.9c-4-3.3-7.8-8.7-7.8-17.3
		c0-0.8,0-1.5,0.1-2.3c0.3-3.4,2.2-6.5,5.1-8.2c4.6-2.7,12.7-6.2,24.7-6.2c6.3,0,12.7,0.9,18.8,2.7c0.1,0,0.1,0,0.2,0.1
		c2.7,0.9,5.3,2.2,7.6,3.9c4.2,3,7.2,7.5,8.2,12.6c0.1,0.6,0.2,1.1,0.2,1.7c-0.1,4.8-3.6,8.8-8.3,9.5c-3.4,0.5-7.4,1.1-11.1,1.8
		c-3,0.5-6,1.2-8.9,2.1l0,0c0,0-0.2,0.1-0.6,0.2c-1.3,0.5-4.7,1.7-8.3,2.8c-1.8,0.6-3.6,1.1-5.2,1.4c-1.3,0.3-2.6,0.5-3.9,0.6
		c-0.2,0-0.4,0-0.7-0.1c-0.1,0-0.3-0.1-0.4-0.2v-0.1l0,0l-0.2,0.2l-0.2,0.2c0.2,0.1,0.4,0.2,0.6,0.3c0.3,0,0.5,0,0.8,0
		c1.6-0.1,3.2-0.4,4.8-0.8c5.7-1.4,13.4-4.2,13.4-4.2l0,0c2.9-0.9,5.9-1.6,8.9-2.1c3.6-0.7,7.7-1.3,11-1.7c5-0.7,8.7-4.9,8.8-10
		c0-0.6-0.1-1.2-0.2-1.8c-1.1-5.5-4.3-10.4-9.1-13.4c-2.2-1.6-4.7-2.8-7.3-3.5c-6.2-1.7-12.5-2.6-18.9-2.6c-12,0-20.3,3.5-25,6.3
		c-3.1,1.8-5.1,5-5.4,8.6c-0.1,0.8-0.1,1.6-0.1,2.3c-0.2,7.2,3,14.1,8.8,18.4c2.6,2,5.6,3.5,8.8,4.4l0.1-0.2l-0.2,0.2L70.6,161.9z"
		/>
	<path class="st4" d="M225.2,187.1l-0.2,0.2c4.5,5.3,12.5,15.2,15.9,21.7c3,5.8,8.9,9.4,15.4,9.5h0.6c3.6-0.2,7.2-0.7,10.7-1.6h0.1
		c4-2.3,7.6-5.2,10.6-8.7c3.2-3.7,4.9-8.5,4.9-13.4c0-5.3-2-10.5-5.6-14.4c-1-1.1-2-2.1-3.2-3.3c-8.1-7.4-19.1-11-30-9.8
		c-7.1,0.8-15.2,3-19.7,8.6c-1.3,1.6-2,3.6-1.9,5.6c0,2.1,0.7,4.2,2.1,5.9L225.2,187.1l0.2-0.1c-1.3-1.5-2-3.5-2-5.5
		c0-1.9,0.6-3.8,1.8-5.3c2.3-2.7,5.3-4.8,8.6-5.9c3.4-1.3,7-2.1,10.7-2.5c1.4-0.1,2.9-0.2,4.3-0.2c9.4,0,18.4,3.5,25.3,9.9
		c1.2,1.1,2.2,2.2,3.2,3.3c3.5,3.8,5.4,8.8,5.4,14c0,4.8-1.7,9.4-4.8,13.1c-2.1,2.4-4.5,4.5-7.1,6.4c-1,0.7-1.9,1.3-2.5,1.7
		c-0.3,0.1-0.5,0.3-0.7,0.4c-0.1,0-0.2,0-0.2,0.1l-0.1,0.1l0.1,0.2l-0.1-0.3c-3.5,0.9-7,1.4-10.6,1.6h-0.6c-6.3,0-12.1-3.5-15-9.1
		C237.8,202.3,229.8,192.4,225.2,187.1L225.2,187.1z"/>
	<path class="st4" d="M148.3,245.4l0.3-0.1c-1-3.3-1.4-6.7-1.4-10.2c-0.1-2.4,0.3-4.8,1-7c0.2-0.5,0.5-1,0.9-1.4
		c0.4-0.5,0.8-0.9,1.2-1.5c2.4-3.4,6-5.8,10.1-6.5l0,0c0.4,0,0.7,0,1.1,0c2-0.2,6.4-0.4,10.1-0.4c1.2,0,2.4,0.1,3.3,0.1
		c0.7,0,1.4,0.2,2,0.4h0.2c0.4,0.1,4.5,0.9,8.3,5.4c2.9,3.5,4.5,7.9,4.5,12.4c0,5.6-2.3,10.9-6.3,14.8c-0.4,0.4-0.9,0.8-1.3,1.2
		c-1.5,1.2-3.3,1.8-5.1,1.8c-1.5,0-3-0.4-4.3-1.2c-1.4-0.8-2.9-1.7-4.1-2.4c-0.6-0.3-1.2-0.6-1.7-0.8c-0.2-0.1-0.4-0.2-0.6-0.3
		c-0.1-0.1-0.3-0.1-0.4-0.1h-0.1l0.1,0.3v-0.3c0,0-8.3-0.8-13-0.9c-2,0-3.7-1.3-4.3-3.2L148.3,245.4l-0.2,0c0.7,2.1,2.6,3.6,4.8,3.6
		c2.4,0,5.6,0.3,8.3,0.5c1.3,0.1,2.5,0.2,3.4,0.3c0.9,0.1,1.4,0.1,1.4,0.1h0.1c0.1,0,0.2,0,0.3,0.1c0.9,0.4,1.8,0.8,2.6,1.3
		c1.2,0.7,2.4,1.4,3.6,2.1c1.4,0.8,3,1.3,4.6,1.3c2,0,4-0.7,5.5-1.9c0.5-0.4,0.9-0.8,1.3-1.2c4.1-4,6.5-9.4,6.5-15.2
		c0-4.7-1.6-9.2-4.6-12.7c-4.1-4.9-8.6-5.5-8.7-5.5v0.3l0.1-0.3c-0.7-0.2-1.5-0.4-2.2-0.4c-1,0-2.1-0.1-3.4-0.1
		c-5,0-11.2,0.5-11.2,0.5l0,0c-4.2,0.8-8,3.2-10.5,6.7c-0.4,0.5-0.7,1-1.2,1.4c-0.4,0.5-0.8,1-1.1,1.6c-0.8,2.3-1.1,4.8-1.1,7.2
		C146.7,238.5,147.2,242,148.3,245.4L148.3,245.4z"/>
	<path class="st4" d="M165.1,462.2"/>
	<path class="st4" d="M165.7,463.4"/>
	<path class="st4" d="M165,462.9"/>
	<path class="st4" d="M212.1,441.4l-0.1,0.3h0.4c1.5,0.1,2.9,0.2,4.4,0.4c0.3,0,0.7,0.1,1,0.1c2.7-0.1,5.2-1.4,6.8-3.5
		c0.9-1.1,1.6-2.2,2.2-3.5l-0.3-0.1l0.2,0.1c2.1-3.8,2.9-6.5,2.9-8.5c0-1-0.2-1.9-0.7-2.8c-0.6-1-1.6-1.7-2.7-2.1
		c-1-0.3-2-0.4-3-0.4c-0.5,0-1,0-1.5,0.1h-0.1c-1.6,0.9-3.4,1.7-5.1,2.3c-3.4,1.2-7.7,2.5-11.1,3.5c-1.7,0.5-3.2,0.9-4.2,1.2
		l-1.7,0.4h-0.1v0.1c-0.4,0.9-0.6,1.9-0.6,2.9c0,2,0.9,4,2.5,5.3C203.2,439,206.6,440.6,212.1,441.4l0.1-0.4
		c-5.5-0.9-8.7-2.5-10.6-4.2c-1.4-1.2-2.3-3-2.3-4.9c0-0.6,0.1-1.3,0.3-1.9c0-0.2,0.2-0.4,0.2-0.6c0,0,0.1-0.1,0.1-0.2l0,0l-0.2-0.1
		v0.3c0,0,4.5-1.2,9.6-2.8c2.5-0.8,5.2-1.7,7.4-2.5c1.8-0.6,3.6-1.4,5.2-2.3l-0.2-0.2v0.3h1.4c1.3,0,2.6,0.2,3.8,0.8
		c0.6,0.3,1.1,0.8,1.5,1.4c0.4,0.8,0.6,1.6,0.6,2.5c0,1.9-0.8,4.5-2.8,8.3h-0.1c-0.6,1.3-1.4,2.5-2.4,3.6c-1.5,1.8-3.8,2.9-6.1,3
		c-0.3,0-0.6,0-0.9-0.1c-1.5-0.2-2.9-0.3-4.4-0.4h-0.1L212.1,441.4z"/>
	<path class="st4" d="M162.7,327.6l-0.2-0.2l-23.7,13.4l0.2,0.2l0.2,0.2c1.5-2.4,2.9-5,4-7.7c4.4-9.8,9.2-24,9.2-24l-0.3-0.1v0.3
		h11.1c0.2,0,0.4,0.1,0.4,0.3l0,0c0.5,1.4,1.4,2.6,1.8,3.9c0.5,2.3,0.8,4.6,0.8,7v0.3c0,2.6-1.4,5-3.6,6.3L162.7,327.6l0.2,0.2
		c2.4-1.4,3.9-4,3.9-6.7v-0.3c0-2.4-0.3-4.8-0.8-7.1c-0.4-1.5-1.3-2.7-1.8-3.9l0,0c-0.1-0.4-0.5-0.7-1-0.7h-11.3v0.2
		c0,0-0.1,0.4-0.4,1.1c-0.8,2.4-3,8.7-5.5,15c-1.3,3.2-2.5,6.4-3.8,9.1c-1,2.2-2.1,4.3-3.4,6.4l-0.7,1l24.7-14L162.7,327.6z"/>
	<path class="st4" d="M108.8,332.5l0.1-0.3l-0.3-0.2c-5.7-2.6-11.1-5.7-16.2-9.2c-3.7-2.5-7-5.3-10-8.6c-2.8-3.2-4.9-6.6-5.4-10.1
		l0,0c0,0,0-0.2,0.3-0.6c0.9-1.1,4.6-3.7,17.3-7.5l-0.1-0.3l-0.3,0.1l14.4,36.6L108.8,332.5l0.1-0.3L108.8,332.5l0.3-0.1l-14.5-36.9
		h-0.2c-8.8,2.7-13.3,4.8-15.6,6.2c-0.8,0.4-1.5,1-2.1,1.7c-0.2,0.2-0.4,0.5-0.4,0.8l0,0c0.6,3.9,3,7.6,6.1,11
		c9.4,10.2,26.2,17.5,26.2,17.5l0.6,0.3l-0.2-0.6L108.8,332.5z"/>
	<path class="st4" d="M124.8,344.1l0.1-0.3l0,0c-0.1,0-2.6-1.1-6.5-7.4s-9.2-17.6-14.9-38.2l-0.3,0.1l-0.1,0.3c0,0,7.7,2.6,16.6,5.3
		c4.4,1.3,9.2,2.7,13.3,3.8c3.3,0.9,6.7,1.6,10,2h1.3v-0.3l-0.3-0.1l-0.6,1.5c-1.4,3.3-5,11.6-8.8,19.1c-1.7,3.4-3.6,6.7-5.6,9.8
		c-0.7,1.1-1.5,2.1-2.4,3c-0.5,0.6-1.1,0.9-1.8,1.1l0,0L124.8,344.1l0.1-0.3L124.8,344.1v0.3h0.1c0.4,0,0.9-0.2,1.2-0.4
		c1-0.7,1.9-1.6,2.5-2.7c3.2-4.2,7.2-12.2,10.4-19.1c3.2-6.9,5.6-12.7,5.6-12.7l0.2-0.4h-1.7c-3.4-0.4-6.7-1-9.9-1.9
		c-6.2-1.6-13.7-3.8-19.6-5.7c-3-0.9-5.5-1.8-7.3-2.4c-0.9-0.3-1.7-0.6-2.1-0.7l-0.8-0.3l-0.5-0.2l0.2,0.5
		c5.8,20.9,11.2,32.4,15.2,38.6c4,6.3,6.5,7.3,6.6,7.3h0.1L124.8,344.1z"/>
	<path class="st4" d="M70.3,475.5H70c-0.2,1-0.3,2.1-0.3,3.2c0,5.5,2,17.5,16.6,32.4l0.2-0.2l-0.2,0.2c0.1,0.2,0.3,0.3,0.5,0.4
		c0.4,0.3,1,0.5,1.5,0.4c0.8,0,1.7-0.3,2.3-0.8V511c0,0,1.5-4.4,3.1-10.1c1.5-5.7,3.1-12.6,3.1-17.9c0.1-2-0.3-4-1.2-5.8v-0.1
		L70,475.2v0.2L70.3,475.5v0.4l25.2,1.9v-0.3l-0.2,0.2c0.8,1.7,1.2,3.6,1.1,5.5c0,5.1-1.5,12.1-3.1,17.7c-0.8,2.8-1.5,5.3-2.1,7.1
		c-0.3,0.9-0.6,1.6-0.7,2.1s-0.3,0.8-0.3,0.8l0.3,0.1l-0.2-0.2c-0.6,0.5-1.3,0.7-2,0.8c-0.4,0-0.8-0.1-1.2-0.3
		c-0.1-0.1-0.2-0.2-0.3-0.2l-0.1-0.1l0,0c-14.5-14.9-16.4-26.7-16.4-32c0-0.8,0-1.6,0.2-2.3c0-0.2,0-0.4,0.1-0.6v-0.2L70.3,475.5
		L70.3,475.5L70.3,475.5z"/>
	<path class="st4" d="M138,479.7v0.3l27.3,0.7v-0.3l-0.3,0.1c0,0.1,0,0.2,0,0.3c0.2,0.9,0.3,1.8,0.4,2.7c0,0.3,0,0.6-0.1,0.9
		c-0.1,0.2-0.2,0.4-0.3,0.6c-0.1,0.2-0.2,0.3-0.3,0.5c-1.1,1.9-4.6,8.4-8.3,14.5c-1.6,2.8-3.4,5.5-5.4,8.1c-0.7,0.9-1.4,1.8-2.2,2.5
		c-0.3,0.3-0.6,0.5-0.9,0.7c-0.2,0.1-0.4,0.2-0.7,0.2c-0.1,0-0.2,0-0.3-0.1h-0.2c-0.4,0-0.8-0.2-1.2-0.5c-1-0.8-2.6-2.7-4-7.3
		c-1.4-4.7-2.8-12.1-3.5-23.8h-0.6c0.9,15.8,3,23.8,5,27.9c0.6,1.4,1.5,2.7,2.8,3.7c0.4,0.4,0.9,0.6,1.4,0.7l0,0v-0.3l-0.2,0.2
		c0.2,0.1,0.4,0.2,0.6,0.2c0.4,0,0.7-0.1,1-0.3c0.8-0.5,1.5-1.2,2.1-1.9c2.7-3.2,6.2-9,9.3-14.3c1.5-2.6,2.9-5.1,3.9-6.9
		c0.5-0.9,0.9-1.7,1.3-2.3c0.2-0.3,0.3-0.5,0.4-0.7c0.1-0.1,0.1-0.2,0.2-0.3c0.3-0.2,0.5-0.6,0.6-0.9c0.1-0.4,0.1-0.7,0.1-1.1
		c0-1-0.2-2.1-0.4-3.1v-0.2l-27.8-0.7v0.3L138,479.7z"/>
	<path class="st0" d="M102.4,218.1c0,0,0.2-3.8-4.2-7.4c0,0-5.6-2.7-8.2,1.7s-0.2,9.4-0.2,9.4s1.4,4.9,6.1,3.9
		C100.6,224.8,103,224.7,102.4,218.1z"/>
	<path class="st4" d="M102.1,219.7c0,0,0-2.4-3.5-4.9c0,0-4.3-1.9-6.1,0.8c-1.8,2.7,0.2,5.9,0.2,5.9c0.8,1.8,2.7,2.9,4.7,2.7
		C101.1,223.9,102.8,223.9,102.1,219.7z"/>
	<path class="st0" d="M158.6,238.5c0,0,0.3-3.8,5.2-6.8c0,0,5.9-1.9,7.9,2.9c2,4.8-1.1,9.4-1.1,9.4s-2,4.6-6.6,3
		C159.4,245.4,157.1,245,158.6,238.5z"/>
	<path class="st4" d="M158.7,239.5c0,0,0.5-2.4,4.4-4.1c0,0,4.6-1.1,5.9,2c1.3,3.1-1.4,5.8-1.4,5.8c-1.2,1.7-3.3,2.4-5.2,1.7
		C158.9,243.7,157.2,243.4,158.7,239.5z"/>
	<path class="st0" d="M163.4,237.7c0,0.6-0.4,1-1,1s-1-0.4-1-1c0-0.6,0.4-1,1-1l0,0C162.9,236.7,163.4,237.2,163.4,237.7
		L163.4,237.7z"/>
	<path class="st0" d="M163.9,239.5c0,0.2-0.1,0.5-0.4,0.5c-0.2,0-0.5-0.1-0.5-0.4l0,0c0,0,0-0.1,0-0.1c0-0.2,0.2-0.4,0.4-0.4
		c0,0,0,0,0,0l0,0C163.7,239.1,163.9,239.3,163.9,239.5z"/>
	<ellipse class="st0" cx="99.4" cy="217.5" rx="1" ry="1"/>
	<path class="st0" d="M98.8,219.3c0,0.2-0.2,0.4-0.4,0.4l0,0c-0.2,0-0.4-0.2-0.4-0.4l0,0c0-0.2,0.3-0.4,0.5-0.4l0,0
		C98.6,218.9,98.8,219.1,98.8,219.3L98.8,219.3z"/>
</g>
<path class="st4" d="M11,252c-1.1-0.8-1.9-2.1-2.1-3.5c-0.2-1.4-0.3-2.8-0.3-4.2c0-6.1-0.8-12.3-2.4-18.2c-0.5-1.6-0.9-3.2-1-4.8
	c-0.1-1.7,0.4-3.3,1.5-4.5c1,1.1,2.4,1.3,3.5,2.1c1.8,1.6,3.1,3.7,3.7,6c0.6,2.3,1,4.7,1.2,7.1c0.2,2.5,0.5,5,0.7,7.5
	c0.1,1.1,0.1,2.3-0.1,3.4c-0.3,0.9-0.7,1.8-1.2,2.6C13.1,247.8,12.3,249.9,11,252z"/>
<rect x="0" y="0" class="st18" width="289.1" height="115.7"/>
</svg>
