<?xml version="1.0" encoding="utf-8"?>
<!-- Generator: Adobe Illustrator 23.0.1, SVG Export Plug-In . SVG Version: 6.00 Build 0)  -->
<svg version="1.1" id="Camada_1" xmlns="http://www.w3.org/2000/svg" xmlns:xlink="http://www.w3.org/1999/xlink" x="0px" y="0px"
	 viewBox="0 0 797 802" style="enable-background:new 0 0 797 802;" xml:space="preserve">
<style type="text/css">
	.st0{fill:#FFFFFF;}
</style>
<g>
	<path class="st0" d="M710,804c-2.6-2-5.9-1.7-8.8-2.5c-18.5-5.2-33.6-15.7-46.9-29.2c-16.5-16.7-32.9-33.6-49.3-50.3
		c-35.5-36.1-71-72.2-106.6-108.2c-3.1-3.1-1.4-3.9,1.1-5.5c34-22.4,64.8-48.3,89.7-80.9c5.9-7.7,11.3-15.7,15.7-24.3
		c1.9-3.7,3-3,5.3-0.6c29.4,29.5,58.9,59,88.3,88.4c25.3,25.3,50.8,50.5,76.1,75.9c12.5,12.5,21.3,27.1,23.6,45.1
		c0,0.4,0.6,0.7,0.9,1c0,5.3,0,10.7,0,16c-0.3,0.3-0.8,0.6-0.9,1c-4.5,25.6-19.6,44.3-39.2,59.9c-9.9,7.9-21.5,12-33.9,14.1
		C720,804,715,804,710,804z"/>
	<path class="st0" d="M637,320.7c0.9,172.7-141.1,320.1-323,316.9C140.4,634.6,0.7,491.5,2.9,316.1C5.1,145.9,143.8,1.8,323.3,3.5
		C500.3,5.1,637.9,149.9,637,320.7z M315.8,566.3c133.1,0,241-106.2,244.1-237.9c3.2-137.3-105.8-248.4-240.5-250
		C182,76.7,74.7,186,72.1,317.1C69.3,455.9,181.1,566.4,315.8,566.3z"/>
</g>
</svg>
