<?xml version="1.0" encoding="utf-8"?>
<!-- Generator: Adobe Illustrator 24.0.3, SVG Export Plug-In . SVG Version: 6.00 Build 0)  -->
<svg version="1.1" id="Layer_1" xmlns="http://www.w3.org/2000/svg" xmlns:xlink="http://www.w3.org/1999/xlink" x="0px" y="0px"
	 viewBox="0 0 641.9 216" style="enable-background:new 0 0 641.9 216;" xml:space="preserve">
<style type="text/css">
	.st0{fill:#504F51;}
	.st1{fill:url(#SVGID_1_);}
	.st2{fill:url(#SVGID_2_);}
	.st3{fill:url(#SVGID_3_);}
</style>
<g>
	<path class="st0" d="M334.6,82.4c1.3-2,2.3-4.8,2.3-6.6c0-2.2-0.5-4-1.2-4.8l-0.1-0.2c-1.3-1.6-8.3-6.5-11.2-8.5
		c-1.5-0.7-3.7-2.3-4.9-3.6c-9.8-6.5-16.4-11.2-18.8-14.7c-2.6-4.1-4.2-8.7-4.2-12.5c0-5.7,2.5-11.7,6.8-16.4
		c6.1-6.3,12.5-7.5,20.9-7.5c5.8,0,11.6,2,16.9,5.8c4.8,3.8,8.7,10.6,10.1,17.9l0.4,1.8l-14.8,3.2l-0.4-1.9
		c-1.3-6.3-6.8-11.7-12.1-11.7c-6.2,0-8.1,0.9-9.9,2.8c-0.7,0.7-2.5,3.1-2.5,5.8c0,0.9,1,2.8,1.5,3.8c3.8,3.4,7.8,6.1,11.6,8.8
		c1.8,1.3,3.6,2.5,5.4,3.8c6.6,4.7,13.9,9.9,16.6,13.4c3.3,4,5.1,9.6,4.9,15.4c0,5.1-2.2,11.2-5.6,15.5
		c-4.5,4.9-12.2,10.7-23.5,10.7c-7,0-13.1-1.8-18.2-5.4v0.1l-3.1-2.4c-6.2-5.1-8-13.7-8.6-17.1l-0.3-1.8l14.7-3.2l0.4,1.9
		c0.4,2.1,3.1,12.6,15,12.6C329.2,87.4,332.9,84.3,334.6,82.4z M377.2,39.7l39.6,62.5H430V8.4h-15.4v61.9L375.4,8.4h-13.3v93.8h15.1
		V39.7z M451.3,97.3c5.2,3.6,11.3,5.4,18.2,5.4c11.3,0,19-5.8,23.5-10.7c3.4-4.2,5.6-10.3,5.6-15.5c0.2-5.8-1.6-11.4-4.9-15.4
		c-2.8-3.5-10-8.7-16.6-13.4c-1.7-1.3-3.5-2.5-5.4-3.8c-3.8-2.7-7.8-5.4-11.6-8.8c-0.5-1-1.5-2.9-1.5-3.8c0-2.7,1.8-5,2.5-5.8
		c1.8-1.9,3.7-2.8,9.9-2.8c5.3,0,10.9,5.3,12.1,11.7l0.4,1.9l14.8-3.2l-0.4-1.8c-1.4-7.3-5.3-14.1-10.1-17.9
		c-5.3-3.8-11.1-5.8-16.9-5.8c-8.4,0-14.8,1.3-20.9,7.5c-4.3,4.7-6.8,10.7-6.8,16.4c0,3.8,1.6,8.5,4.2,12.5c2.4,3.5,9,8.2,18.8,14.7
		c1.2,1.3,3.3,3,4.9,3.6c2.9,2,9.9,6.9,11.2,8.5l0.1,0.2c0.8,0.8,1.2,2.5,1.2,4.8c0,1.8-1,4.6-2.3,6.6c-1.7,1.9-5.5,5.1-11.9,5.1
		c-11.9,0-14.6-10.5-15-12.6l-0.4-1.9l-14.7,3.2l0.3,1.8c0.5,3.4,2.4,12,8.6,17.1l3.1,2.4V97.3z M302.5,152.4
		c6.2,0,10.3-3.4,10.3-10c0-12-16.5-6.4-16.5-16.5c0-3.4,2.3-6.1,6.4-6.1c4.1,0,6.1,2.5,6.1,6.7h3c0-6-2.9-9.3-9.2-9.3
		c-5.9,0-9.4,3.7-9.4,9c0,12.3,16.5,6.6,16.5,16.7c0,4.8-3,6.9-7.3,6.9c-4.5,0-6.8-2.9-6.8-7.2v-1.3h-3v1
		C292.6,149,296.1,152.4,302.5,152.4z M334.1,149.3h-14.2v-13.9h12.9v-2.6h-12.9v-12.4h13.8v-2.6h-16.9v34h17.3V149.3z M346.8,136.3
		H341v15.5h-3v-34h10.1c5.7,0,8.8,3.2,8.8,8.5c0,4.1-1.6,7.8-6.1,8.6v0.1c4.2,0.4,5.7,2.8,5.8,8l0.1,3.7c0,1.9,0.2,3.7,1.4,5h-3.6
		c-0.7-1.2-0.9-3-0.9-4.8l-0.1-2.9C353.3,138.2,352.2,136.3,346.8,136.3z M353.9,127.1c0-4.1-1.8-6.7-7.3-6.7H341v13.3h5.2
		C351,133.7,353.9,131.5,353.9,127.1z M377.7,117.8l-7.6,30.8H370l-7.6-30.8h-3.2l9,34h3.8l9-34H377.7z M387,151.8v-34h-3v34H387z
		 M400.2,155.7l0.6,0.8c0.5-0.3,1.2-0.5,2.1-0.5c1.3,0,2.5,0.5,2.5,1.7c0,1.1-1,2.1-3.3,2.1c-1,0-2.1-0.3-2.9-0.7l-0.6,1.5
		c1,0.5,2.8,1,4.2,1c2.2,0,5-1.4,5-4c0-1.8-1.6-3.2-3.7-3.2c-0.6,0-1.2,0-1.6,0.2l-0.1,0l1.7-2.2c5.3-0.5,8.5-4.8,8.9-12h-3
		c-0.3,5.9-2.8,9.5-7,9.5c-4.9,0-7.8-4-7.8-15c0-11,3-15,7.8-15c4.4,0,6.7,3.3,6.7,7.9h3c0-5.6-2.9-10.5-9.8-10.5
		c-7,0-10.9,5.4-10.9,17.6c0,11.9,3.7,17.2,10.3,17.6L400.2,155.7z M427.8,152.4c-7,0-10.9-5.4-10.9-17.6s3.9-17.6,10.9-17.6
		c7,0,10.9,5.4,10.9,17.6S434.7,152.4,427.8,152.4z M427.8,149.8c4.9,0,7.8-4,7.8-15c0-11-3-15-7.8-15c-4.9,0-7.8,4-7.8,15
		C420,145.8,422.9,149.8,427.8,149.8z M472.3,147.4L472.3,147.4l-13.1-29.6h-4.1v34h3v-29.6h0.1l13,29.6h4.1v-34h-3V147.4z
		 M495.9,141.9H484l-2.8,9.9H478l10-34h3.8l10,34h-3.2L495.9,141.9z M495.2,139.4l-5.2-19.1h-0.1l-5.2,19.1H495.2z M515.1,152.4
		c6.1,0,9.7-4.3,10.1-12.1h-3c-0.3,5.9-2.8,9.5-7,9.5c-4.9,0-7.8-4-7.8-15c0-11,3-15,7.8-15c4.4,0,6.7,3.3,6.7,7.9h3
		c0-5.6-2.9-10.5-9.8-10.5c-7,0-10.9,5.4-10.9,17.6S508.1,152.4,515.1,152.4z M532.4,117.8h-3v34h3V117.8z M537.7,134.8
		c0-12.2,3.9-17.6,10.9-17.6c7,0,10.9,5.4,10.9,17.6s-3.9,17.6-10.9,17.6C541.6,152.4,537.7,147,537.7,134.8z M540.7,134.8
		c0,11,3,15,7.8,15s7.8-4,7.8-15c0-11-3-15-7.8-15S540.7,123.8,540.7,134.8z M567.5,122.2L567.5,122.2l13.1,29.6h4.1v-34h-3v29.6
		h-0.1l-13-29.6h-4.1v34h3V122.2z M590.5,151.8h-3.2l10-34h3.8l10,34h-3.2l-2.8-9.9h-11.9L590.5,151.8z M593.9,139.4h10.6l-5.2-19.1
		h-0.1L593.9,139.4z M630.9,149.3h-14.1v-31.4h-3v34h17.1V149.3z M314.5,190.8c0,11.1-2.4,17-12.3,17H294v-34h8.2
		C312.1,173.8,314.5,179.7,314.5,190.8z M311.4,190.9c0-11.1-2.8-14.5-9.5-14.5h-5v28.9h5C308.6,205.3,311.4,201.9,311.4,190.9z
		 M322.6,191.4h12.9v-2.6h-12.9v-12.4h13.8v-2.6h-16.9v34h17.3v-2.6h-14.2V191.4z M354.5,181.9c0-3.4,2.3-6.1,6.4-6.1
		c4.1,0,6.1,2.5,6.1,6.7h3c0-6-2.9-9.3-9.2-9.3c-5.9,0-9.4,3.7-9.4,9c0,12.3,16.5,6.6,16.5,16.7c0,4.8-3,6.9-7.3,6.9
		c-4.5,0-6.8-2.9-6.8-7.2v-1.3h-3v1c0,6.7,3.5,10.1,9.9,10.1c6.2,0,10.3-3.4,10.3-10C370.9,186.5,354.5,192.1,354.5,181.9z
		 M386.1,173.8l10,34h-3.2l-2.8-9.9h-11.9l-2.8,9.9h-3.2l10-34H386.1z M389.5,195.4l-5.2-19.1h-0.1l-5.2,19.1H389.5z M408.5,172.2
		l4.7-6.7h-3.4l-3.6,6.7H408.5z M414.9,198.3c0,5.1-2.2,7.6-6.7,7.6s-6.7-2.5-6.7-7.6v-24.4h-3v24.5c0,7.1,3.5,10.1,9.7,10.1
		c6.2,0,9.7-3,9.7-10.1v-24.5h-3V198.3z M443.4,190.8c0,11.1-2.4,17-12.3,17h-8.2v-34h8.2C440.9,173.8,443.4,179.7,443.4,190.8z
		 M440.3,190.9c0-11.1-2.8-14.5-9.5-14.5h-5v28.9h5C437.5,205.3,440.3,201.9,440.3,190.9z M451.5,191.4h12.9v-2.6h-12.9v-12.4h13.8
		v-2.6h-16.9v34h17.3v-2.6h-14.2V191.4z M242.7,207.5h2.9V8.5h-2.9V207.5z"/>
	<g>
		<g>
			<g>
				<g>
					<g>
						<g>
							<linearGradient id="SVGID_1_" gradientUnits="userSpaceOnUse" x1="130.1653" y1="92.6119" x2="208.6841" y2="47.5602">
								<stop  offset="0" style="stop-color:#CC0000"/>
								<stop  offset="1" style="stop-color:#80171B"/>
							</linearGradient>
							<path class="st1" d="M103.1,16c-40.5,0-74.8,26.1-87.2,62.4c5.7-2.5,50.6-37.6,97.2-10.1c72,40.8,30.5,114.9,27.3,124.3
								c32.4-14.3,54.9-46.7,54.9-84.3C195.3,57.2,154,16,103.1,16z"/>
							<linearGradient id="SVGID_2_" gradientUnits="userSpaceOnUse" x1="74.6912" y1="189.332" x2="100.2523" y2="116.3005">
								<stop  offset="0" style="stop-color:#096F35"/>
								<stop  offset="0.7" style="stop-color:#059242"/>
							</linearGradient>
							<path class="st2" d="M103.1,200.3c40.5,0,74.8-26.1,87.2-62.4c-5.7,2.5-72.2,46-120.3,5.4c-21.4-18-22.2-48.2-17.5-77.9
								c3.9-24.7,10.1-32.3,13.3-41.6c-32.3,14.3-54.9,46.7-54.9,84.3C10.9,159,52.2,200.3,103.1,200.3z"/>
							<linearGradient id="SVGID_3_" gradientUnits="userSpaceOnUse" x1="29.5072" y1="159.8632" x2="185.773" y2="55.987">
								<stop  offset="0" style="stop-color:#059242"/>
								<stop  offset="3.172159e-02" style="stop-color:#2F9936"/>
								<stop  offset="7.004586e-02" style="stop-color:#5AA12A"/>
								<stop  offset="0.1114" style="stop-color:#81A720"/>
								<stop  offset="0.1553" style="stop-color:#A1AD17"/>
								<stop  offset="0.2023" style="stop-color:#BBB110"/>
								<stop  offset="0.2538" style="stop-color:#D0B50A"/>
								<stop  offset="0.312" style="stop-color:#DEB706"/>
								<stop  offset="0.3826" style="stop-color:#E6B904"/>
								<stop  offset="0.5" style="stop-color:#E9B903"/>
								<stop  offset="0.56" style="stop-color:#E8B403"/>
								<stop  offset="0.635" style="stop-color:#E6A403"/>
								<stop  offset="0.718" style="stop-color:#E28B02"/>
								<stop  offset="0.8069" style="stop-color:#DC6702"/>
								<stop  offset="0.9004" style="stop-color:#D53901"/>
								<stop  offset="0.9965" style="stop-color:#CC0200"/>
								<stop  offset="1" style="stop-color:#CC0000"/>
							</linearGradient>
							<path class="st3" d="M58.5,78.5c-17.8,22-16.5,50.4-31.3,52.7c-5.8,0.9-15.2-4.1-16.1-19.7c1.4,40.5,29.1,74.4,66.5,85.2
								c-8.8-12.1-12-18.1-12-34.2c0-40.4,32.3-70.2,71.5-73.7c30.5-2.8,45.1,3.9,58.2,22.5c0-1,0.1-2.1,0.1-3.1
								c0-25.7-10.3-48.8-27.4-65.5C162.1,36.8,101.5,25.1,58.5,78.5z"/>
						</g>
					</g>
				</g>
			</g>
		</g>
	</g>
</g>
</svg>
