<svg id="Camada_1" data-name="Camada 1" xmlns="http://www.w3.org/2000/svg" xmlns:xlink="http://www.w3.org/1999/xlink" viewBox="0 0 95.03 65.61">
  <defs>
    <clipPath id="clip-path" transform="translate(-1.29 -0.94)">
      <rect width="97" height="66.46" style="fill: none"/>
    </clipPath>
  </defs>
  <title>tecladoVetorizadoFinal</title>
  <g style="clip-path: url(#clip-path)">
    <path d="M91.13,66.55H6.45c-1.88-2.1-5-3.24-5.16-6.66q.08-26.05.17-52.1C1.49,1.11,1.61,1,8,1q40.8,0,81.59,0c6.28,0,6.48.22,6.51,6.38q.12,26.3.21,52.59c-.2,3.41-3.31,4.54-5.19,6.63M49,18.16q-19.17,0-38.34,0c-2.24,0-4.26-.17-4.22,3.2.13,11.58.06,23.18,0,34.76,0,3.12,1.47,4.49,4.59,4.45,5.64-.07,11.29,0,16.93,0,8.27,0,8.35,0,8.55-8.18.06-2.56.5-4,3.54-3.92,5.8.17,11.62.1,17.42,0,2.26,0,3.46.69,3.32,3.12-.09,1.48.14,3,0,4.46-.37,3.3.64,4.73,4.31,4.58,6.8-.29,13.61-.23,20.41,0,4.08.12,5.65-1.46,5.6-5.53C91,44.15,91,33.22,91.17,22.3c.07-3.39-1.15-4.22-4.29-4.19-12.61.13-25.23.05-37.85.05M48.76,6C36,6,23.22,6.14,10.45,5.94c-3.57-.05-4,1.5-4,4.44s.15,4.88,4.11,4.86q38.31-.24,76.62,0c4.13,0,3.88-2.12,4-5,.12-3.1-.68-4.38-4.1-4.33C74.3,6.13,61.53,6,48.76,6" transform="translate(-1.29 -0.94)" style="fill: #eb6054"/>
    <path d="M49,18.16c12.62,0,25.24.08,37.85-.05,3.14,0,4.36.8,4.29,4.19-.21,10.92-.18,21.85,0,32.78,0,4.07-1.52,5.65-5.6,5.53-6.8-.2-13.61-.26-20.41,0-3.67.15-4.68-1.28-4.31-4.58.17-1.47-.06-3,0-4.46.14-2.43-1.06-3.15-3.32-3.12-5.81.08-11.62.15-17.42,0-3-.09-3.48,1.37-3.54,3.93-.2,8.18-.28,8.18-8.55,8.18-5.64,0-11.29-.06-16.93,0-3.12,0-4.59-1.33-4.59-4.45,0-11.59.09-23.18,0-34.76,0-3.37,2-3.21,4.22-3.2q19.17,0,38.34,0m-.09,21.36c-5.14,0-10.28,0-15.42,0-2.13,0-2.94.88-2.89,3s.7,3.06,2.9,3.05q15.17-.08,30.33,0c2.43,0,3.14-1.07,3.15-3.31s-1.25-2.74-3.15-2.73c-5,0-10,0-14.92,0m34.83-9.05c-2.3,0-3.13,0-4,0-2.18-.09-3.84.09-3.76,3.07.08,2.7,1.6,2.84,3.57,2.8,2.14,0,4.3,0,6.44-.09A1.9,1.9,0,0,0,88,34c-.08-1.09.5-2.62-.86-3.06a12.34,12.34,0,0,0-3.41-.42m-69.67,0c-1.51.49-4.5-1.35-4.65,2.68-.13,3.32,2,3.3,4.14,3.12,2-.17,4.82,1.18,5-2.74.15-3.36-1.94-3.15-4.48-3.06m-.23,15c2.17-.13,4.76.79,4.74-3.11,0-3.58-2.39-2.92-4.4-2.87s-4.83-.93-4.77,3c.06,3.49,2.36,2.88,4.43,3m69.75-6c-1.51.44-4.49-1.37-4.61,2.73-.09,3.26,1.73,3.47,4.06,3.22,2-.23,4.86,1.14,5-2.8.16-3.34-1.85-3.29-4.49-3.15M42.79,24c.32-2.19-.92-2.91-3.15-2.9s-3.11,1.07-3.13,3.28c0,2.37,1.14,3.08,3.31,3.12,2.38,0,3.21-1.09,3-3.5m6-2.85c-2.29-.2-3.26.82-3.27,3.14s1,3.21,3.26,3.2,3.31-.83,3.29-3.19-1-3.36-3.28-3.15m8.87,0c-2.62-.27-2.88,1.38-2.9,3.42s.88,2.92,3,2.93c2.29,0,3.26-.91,3.26-3.23s-1-3.32-3.33-3.12M42.78,30.37c-2-.17-3.14.48-3.16,2.72s.67,3.35,3.1,3.39,3.05-1.19,3.05-3.36-1-3-3-2.75m8.79,0c-2.53-.26-3,1.21-2.93,3.33s1.24,2.71,3.16,2.76c2.31,0,3.18-1,3.21-3.22,0-2.53-1.32-3.07-3.44-2.87m9.73,0c-2-.16-3.68,0-3.56,2.71.08,1.75.12,3.36,2.5,3.34,1.86,0,3.73.13,3.82-2.57.07-2-.15-3.68-2.76-3.48m-45.67-5.9c.2-2.1-.34-3.47-2.86-3.4-2.06.05-3.4.48-3.39,3,0,2.16.58,3.37,3,3.4,2.12,0,3.55-.49,3.28-3M22,27.38c2.44.29,2.65-1.4,2.67-3.43s-.94-2.87-3-2.88c-2.31,0-3.2.92-3.2,3.24s1.07,3.27,3.54,3.07m11.63-3c.2-2.17-.5-3.37-3-3.34s-3.12,1.13-3.09,3.32c0,2,.73,3,2.84,3.06s3.47-.65,3.21-3M66.6,21.14c-2.47-.37-2.65,1.35-2.7,3.34s.77,2.95,2.87,3c2.25,0,3.26-.85,3.24-3.16s-.86-3.39-3.41-3.14m9.77,6.23c2.46.23,2.71-1.41,2.74-3.46,0-2.66-1.6-2.81-3.59-2.83-2.36,0-2.57,1.43-2.64,3.26-.09,2.42,1.06,3.29,3.49,3m11.7-3.3c.46-2.29-.91-2.91-3.13-3-2.55-.11-3,1.22-3,3.38s.79,3,2.92,3,3.61-.61,3.24-3.37M27.61,33.16c.36-1.89-.64-2.71-2.73-2.69s-3.45.21-3.43,2.85c0,2.47,1.2,3,3.33,3s3-.84,2.83-3.18m6-2.74c-2.38-.22-3.17.95-3.11,3.21s1.16,2.75,3.1,2.81c2.44.09,3.08-1.13,3.07-3.3s-1.09-2.89-3.06-2.72M73,33.09c.34-2.54-1.44-2.66-3.41-2.71-2.28-.06-2.63,1.26-2.64,3.13,0,2.05.79,3,2.9,2.94s3.42-.85,3.15-3.36M27.63,42.44c.23-2-.59-3-2.79-2.95s-3.42.42-3.38,3,1.19,3,3.39,3.06,2.93-1.07,2.78-3.11m45.25-2.89c-2.14-.27-2.95.67-3,2.81,0,2.32.81,3.28,3.2,3.19,2.07-.08,3-.79,3-2.93.07-2.43-.94-3.34-3.25-3.07" transform="translate(-1.29 -0.94)" style="fill: #fdf4f3"/>
    <path d="M48.77,6C61.54,6,74.32,6.13,87.08,6c3.42,0,4.22,1.23,4.1,4.33-.11,2.84.13,5-4,5q-38.31-.26-76.62,0c-4,0-4.1-1.87-4.12-4.86s.44-4.49,4-4.44C23.23,6.14,36,6,48.77,6" transform="translate(-1.29 -0.94)" style="fill: #fdf4f3"/>
    <path d="M48.94,39.52c5,0,10,0,14.92,0,1.9,0,3.16.41,3.15,2.73s-.72,3.33-3.15,3.31q-15.16-.1-30.33,0c-2.2,0-2.84-1-2.9-3.05s.76-3,2.89-3c5.14.06,10.28,0,15.42,0" transform="translate(-1.29 -0.94)" style="fill: #eb6054"/>
    <path d="M83.77,30.47a12.34,12.34,0,0,1,3.41.42c1.36.44.78,2,.86,3.06a1.9,1.9,0,0,1-2,2.29c-2.14.09-4.29,0-6.44.09-2,0-3.49-.1-3.57-2.8-.08-3,1.58-3.16,3.76-3.07.82,0,1.65,0,4,0" transform="translate(-1.29 -0.94)" style="fill: #eb6054"/>
    <path d="M14.1,30.5c2.54-.09,4.63-.3,4.48,3.06-.17,3.92-3,2.57-5,2.74-2.18.18-4.28.2-4.15-3.12.15-4,3.14-2.19,4.65-2.68" transform="translate(-1.29 -0.94)" style="fill: #eb6054"/>
    <path d="M13.87,45.52c-2.07-.08-4.37.53-4.43-3-.06-4,2.67-3,4.77-3s4.37-.71,4.4,2.87c0,3.9-2.57,3-4.74,3.11" transform="translate(-1.29 -0.94)" style="fill: #eb6054"/>
    <path d="M83.62,39.55c2.64-.14,4.65-.19,4.49,3.15-.18,3.94-3,2.57-5,2.8-2.33.25-4.15,0-4.06-3.22.12-4.1,3.1-2.29,4.61-2.73" transform="translate(-1.29 -0.94)" style="fill: #eb6054"/>
    <path d="M42.79,24c.24,2.41-.59,3.54-3,3.5-2.17,0-3.32-.75-3.31-3.11s.81-3.28,3.13-3.29,3.47.71,3.15,2.9" transform="translate(-1.29 -0.94)" style="fill: #ee756b"/>
    <path d="M48.8,21.11c2.32-.21,3.26.85,3.28,3.15s-1,3.19-3.29,3.19-3.28-.86-3.26-3.2,1-3.34,3.27-3.14" transform="translate(-1.29 -0.94)" style="fill: #ee756b"/>
    <path d="M57.67,21.11c2.29-.2,3.32.78,3.33,3.12s-1,3.24-3.26,3.23c-2.09,0-3-.83-3-2.93s.28-3.69,2.9-3.42" transform="translate(-1.29 -0.94)" style="fill: #ee756b"/>
    <path d="M42.78,30.37c2-.24,3,.55,3,2.75s-.55,3.4-3.05,3.36-3.11-1.18-3.1-3.39,1.15-2.89,3.16-2.72" transform="translate(-1.29 -0.94)" style="fill: #ee756b"/>
    <path d="M51.57,30.37c2.12-.2,3.47.34,3.44,2.87,0,2.27-.9,3.28-3.21,3.22-1.92-.05-3.11-.58-3.16-2.76s.4-3.59,2.93-3.33" transform="translate(-1.29 -0.94)" style="fill: #ee756b"/>
    <path d="M61.3,30.37c2.61-.2,2.83,1.46,2.76,3.48-.09,2.7-2,2.56-3.82,2.57-2.38,0-2.42-1.59-2.5-3.34-.12-2.67,1.54-2.87,3.56-2.71" transform="translate(-1.29 -0.94)" style="fill: #ee756b"/>
    <path d="M15.63,24.47c.27,2.48-1.16,3-3.28,3-2.39,0-3-1.24-3-3.4,0-2.49,1.33-2.92,3.39-3,2.52-.07,3.06,1.3,2.86,3.4" transform="translate(-1.29 -0.94)" style="fill: #ee756b"/>
    <path d="M22,27.38c-2.47.2-3.54-.68-3.54-3.07s.89-3.26,3.21-3.24c2.06,0,3,.76,3,2.88s-.23,3.72-2.67,3.43" transform="translate(-1.29 -0.94)" style="fill: #ee756b"/>
    <path d="M33.65,24.4c.26,2.39-1,3.1-3.21,3s-2.81-1.09-2.84-3.06c0-2.19.72-3.29,3.09-3.32s3.16,1.17,3,3.34" transform="translate(-1.29 -0.94)" style="fill: #ee756b"/>
    <path d="M66.6,21.14c2.55-.25,3.39.9,3.41,3.14s-1,3.18-3.24,3.16c-2.1,0-2.91-.93-2.86-3s.22-3.71,2.69-3.34" transform="translate(-1.29 -0.94)" style="fill: #ee756b"/>
    <path d="M76.37,27.37c-2.43.26-3.58-.61-3.49-3,.07-1.83.28-3.28,2.64-3.26,2,0,3.63.17,3.59,2.83,0,2.05-.28,3.69-2.74,3.46" transform="translate(-1.29 -0.94)" style="fill: #ee756b"/>
    <path d="M88.07,24.07c.37,2.76-1.07,3.34-3.23,3.37s-2.93-.9-2.93-3,.48-3.49,3-3.38c2.22.09,3.59.71,3.13,3" transform="translate(-1.29 -0.94)" style="fill: #ee756b"/>
    <path d="M27.61,33.17c.22,2.33-.76,3.17-2.83,3.17s-3.3-.55-3.33-3c0-2.64,1.44-2.84,3.43-2.85s3.09.8,2.73,2.7" transform="translate(-1.29 -0.94)" style="fill: #eb6054"/>
    <path d="M33.65,30.42c2-.17,3.05.52,3.06,2.72s-.63,3.39-3.07,3.3c-1.94-.06-3.05-.65-3.1-2.81s.73-3.43,3.11-3.21" transform="translate(-1.29 -0.94)" style="fill: #ee756b"/>
    <path d="M73,33.09c.27,2.51-.91,3.34-3.15,3.36s-2.91-.89-2.9-2.94c0-1.87.36-3.19,2.64-3.13,2,.05,3.75.17,3.41,2.71" transform="translate(-1.29 -0.94)" style="fill: #ee756b"/>
    <path d="M27.63,42.44c.15,2-.53,3.12-2.78,3.11s-3.36-.57-3.39-3.06,1.25-3,3.38-3,3,.93,2.79,2.95" transform="translate(-1.29 -0.94)" style="fill: #eb6054"/>
    <path d="M72.88,39.55c2.31-.27,3.32.64,3.25,3.07-.06,2.14-.95,2.85-3,2.93-2.39.09-3.22-.87-3.2-3.19,0-2.14.83-3.08,3-2.81" transform="translate(-1.29 -0.94)" style="fill: #eb6054"/>
    <path d="M12.17,12.24H10.5a.39.39,0,0,1-.39-.39V10.18a.39.39,0,0,1,.39-.38h1.67a.39.39,0,0,1,.39.38v1.67a.39.39,0,0,1-.39.39" transform="translate(-1.29 -0.94)" style="fill: #eb6054"/>
    <path d="M81.06,12.24H79.4a.38.38,0,0,1-.39-.39V10.18a.38.38,0,0,1,.39-.38h1.66a.38.38,0,0,1,.39.38v1.67a.38.38,0,0,1-.39.39" transform="translate(-1.29 -0.94)" style="fill: #eb6054"/>
    <path d="M85.87,12.24H84.2a.39.39,0,0,1-.39-.39V10.18a.39.39,0,0,1,.39-.38h1.67a.39.39,0,0,1,.39.38v1.67a.39.39,0,0,1-.39.39" transform="translate(-1.29 -0.94)" style="fill: #eb6054"/>
  </g>
</svg>
