<?xml version="1.0" encoding="iso-8859-1"?>
<!-- Generator: Adobe Illustrator 19.0.0, SVG Export Plug-In . SVG Version: 6.00 Build 0)  -->
<svg version="1.1" id="Capa_1" xmlns="http://www.w3.org/2000/svg" xmlns:xlink="http://www.w3.org/1999/xlink" x="0px" y="0px"
	 viewBox="0 0 512.075 512.075" style="enable-background:new 0 0 512.075 512.075;" xml:space="preserve">
<path style="fill:#FFFFFF;" d="M292.075,8.038L292.075,8.038c-117.6,0-212,95.2-212,212l0,0c0,45.6,14.4,88,39.2,122.4l-96,84
	c-19.2,16.8-20,46.4-2.4,64s47.2,16.8,64-1.6l84-95.2c34.4,24.8,76.8,39.2,122.4,39.2l0,0c117.6-0.8,212.8-95.2,212.8-212.8l0,0
	C504.075,103.238,408.875,8.038,292.075,8.038z"/>
<path style="fill:#193651;" d="M52.075,512.038c-13.6,0-27.2-5.6-36.8-15.2c-10.4-10.4-16-24-15.2-38.4s6.4-28,17.6-37.6l90.4-79.2
	c-24-36-36-77.6-36-121.6c0-120.8,98.4-220,220-220s220,99.2,220,220c0,121.6-98.4,220-220,220c-43.2,0-85.6-12.8-121.6-36.8
	l-80,90.4C80.875,505.638,67.275,512.038,52.075,512.038z M292.075,16.038c-112.8,0-204,92-204,204c0,42.4,12.8,83.2,37.6,117.6
	l4,5.6l-101.6,89.6c-7.2,6.4-12,16-12,25.6c0,10.4,3.2,19.2,10.4,26.4c6.4,7.2,16,10.4,25.6,10.4c10.4,0,20-4.8,27.2-12l88.8-100.8
	l5.6,4c34.4,24.8,75.2,37.6,117.6,37.6c113.6,0.8,204.8-91.2,204.8-204S404.875,16.038,292.075,16.038z"/>
<path style="fill:#27A2DE;" d="M473.675,220.038c-100-118.4-262.4-118.4-362.4,0l0,0l0,0
	C210.475,338.438,372.875,338.438,473.675,220.038L473.675,220.038L473.675,220.038z"/>
<path style="fill:#D3D7DA;" d="M251.275,298.438c-43.2-23.2-60-76-37.6-119.2s76-60,119.2-36.8s60,76,37.6,119.2
	C348.075,304.838,294.475,321.638,251.275,298.438z"/>
<path style="fill:#F15F50;" d="M311.275,184.038c-20-10.4-45.6-3.2-56,17.6c-10.4,20.8-2.4,45.6,17.6,56c20,10.4,45.6,3.2,56-17.6
	S331.275,194.438,311.275,184.038z"/>
<g>
	<path style="fill:#FFFFFF;" d="M275.275,180.838c-8-4-18.4-1.6-23.2,7.2c-4,8-0.8,18.4,7.2,23.2c8,4,18.4,1.6,23.2-7.2
		C287.275,195.238,284.075,185.638,275.275,180.838z"/>
	<circle style="fill:#FFFFFF;" cx="270.475" cy="235.238" r="6.4"/>
</g>
<rect x="284.075" y="71.238" style="fill:#193651;" width="16" height="37.6"/>
<rect x="216.95" y="89.28" transform="matrix(-0.2588 -0.9659 0.9659 -0.2588 202.7982 350.1736)" style="fill:#193651;" width="37.599" height="16"/>
<rect x="163.753" y="111.247" transform="matrix(-0.5 -0.866 0.866 -0.5 170.5606 336.9648)" style="fill:#193651;" width="37.599" height="16"/>
<rect x="393.713" y="100.25" transform="matrix(-0.8661 -0.4999 0.4999 -0.8661 690.1193 422.9716)" style="fill:#193651;" width="16" height="37.601"/>
<rect x="340.826" y="78.505" transform="matrix(-0.9659 -0.2588 0.2588 -0.9659 660.5838 281.5728)" style="fill:#193651;" width="16" height="37.599"/>
<rect x="284.075" y="332.038" style="fill:#193651;" width="16" height="37.6"/>
<rect x="330.105" y="335.394" transform="matrix(-0.2588 -0.9659 0.9659 -0.2588 107.5099 769.2831)" style="fill:#193651;" width="37.599" height="16"/>
<rect x="382.561" y="313.677" transform="matrix(-0.4999 -0.8661 0.8661 -0.4999 323.399 830.0949)" style="fill:#193651;" width="37.601" height="16"/>
<rect x="174.364" y="303.063" transform="matrix(-0.8661 -0.4999 0.4999 -0.8661 179.4103 691.7883)" style="fill:#193651;" width="16" height="37.601"/>
<rect x="227.292" y="324.783" transform="matrix(-0.9659 -0.2588 0.2588 -0.9659 373.6443 736.3544)" style="fill:#193651;" width="16" height="37.599"/>
<g>
</g>
<g>
</g>
<g>
</g>
<g>
</g>
<g>
</g>
<g>
</g>
<g>
</g>
<g>
</g>
<g>
</g>
<g>
</g>
<g>
</g>
<g>
</g>
<g>
</g>
<g>
</g>
<g>
</g>
</svg>
